<svg width="50" height="50" viewBox="0 0 50 50" fill="none" xmlns="http://www.w3.org/2000/svg">
<path d="M44.5234 21.973C44.9149 22.5202 45.011 23.1769 45.011 23.8718C45.0081 30.3807 45.0186 36.8896 45.0133 43.3991C45.0133 44.0118 44.9531 44.6273 44.8842 45.2371C44.8223 45.7861 44.5466 46.2314 44.0706 46.5279C43.6247 46.8053 43.1782 47.085 42.7144 47.3288C41.8747 47.7706 41.0177 48.1794 40.1757 48.6161C39.6615 48.8825 39.1217 49.0006 38.5467 49C28.9692 48.9936 19.3923 48.9884 9.81486 48.9838C9.37823 48.9838 8.94218 48.9913 8.50555 48.9907C7.5987 48.9907 6.78798 48.6983 6.08961 48.132C5.69235 47.81 5.31132 47.4573 4.97603 47.0728C4.40215 46.4156 4.09524 45.6454 4.0964 44.7524C4.1045 37.6783 4.10451 30.6048 4.10682 23.5307C4.10682 23.1201 4.10914 22.709 4.10045 22.2984C4.08771 21.6504 4.22148 21.0505 4.63784 20.5334C4.70907 20.4453 4.76524 20.3457 4.8052 20.2861C4.48844 19.8703 4.16705 19.487 3.88851 19.0746C3.25151 18.1313 2.97008 17.0745 3.00251 15.943C3.02567 15.123 3.0859 14.3042 3.14207 13.4853C3.19013 12.7846 3.43566 12.1355 3.70146 11.4944C4.21801 10.2506 4.92738 9.12077 5.83944 8.1369C6.67564 7.23469 7.54543 6.35795 8.45575 5.5316C8.98271 5.05328 9.60986 4.68208 10.2104 4.29062C10.7356 3.94838 11.2788 3.63162 11.8278 3.3276C12.8168 2.77921 13.8482 2.32405 14.9316 1.99397C16.1356 1.62741 17.3528 1.31702 18.6054 1.17051C20.1648 0.988103 21.7307 0.970731 23.2965 1.03153C24.2312 1.06744 25.1681 1.08713 26.0947 1.26259C27.4335 1.51681 28.7353 1.90248 30.0203 2.34316C31.0007 2.67903 31.9828 3.02185 32.9296 3.44053C34.0889 3.95302 35.2407 4.49214 36.3149 5.17604C36.9855 5.60283 37.6746 6.0024 38.3342 6.4454C39.4101 7.16809 40.4826 7.90295 41.4033 8.82196C42.5134 9.92975 43.5025 11.1383 44.3619 12.4557C45.0452 13.5033 45.6081 14.6099 46.0858 15.7594C46.4524 16.6408 46.6956 17.5563 46.6527 18.5274C46.6151 19.3891 46.362 20.1674 45.7517 20.7951C45.3608 21.197 44.9427 21.5728 44.5223 21.9741L44.5234 21.973ZM10.0349 19.4348C10.5179 19.9803 11.05 20.4714 11.6731 20.853C11.9615 21.0296 12.2679 21.1767 12.5667 21.3371C12.7728 21.4599 12.9691 21.6076 13.188 21.6996C13.5297 21.8427 13.8823 21.9672 14.2396 22.0645C15.9532 22.5306 17.7037 22.7536 19.4757 22.8109C20.3328 22.8381 21.191 22.8584 22.0486 22.8561C23.0608 22.8526 24.0725 22.8213 25.0847 22.8016C25.8763 22.7559 26.6737 22.7547 27.4578 22.6528C28.4203 22.5277 29.3821 22.3598 30.3255 22.1334C31.3082 21.8983 32.2098 21.4391 33.0587 20.8918C33.5371 20.5832 34.0455 20.3046 34.4092 19.8471C34.5487 19.6717 34.6616 19.4742 34.7867 19.2872C35.0427 19.2096 35.298 19.132 35.554 19.0544C35.7787 19.0486 36.0034 19.0428 36.2281 19.037C36.4209 19.037 36.6143 19.0376 36.8071 19.0382C37.3555 19.0364 37.9045 19.0353 38.4529 19.0335C38.6214 19.0665 38.7894 19.099 38.9579 19.132C39.5178 19.3607 40.0778 19.5895 40.6378 19.8188C40.8173 19.8738 40.9962 19.9294 41.1758 19.9844C41.4132 20.2166 41.7386 20.2531 42.0293 20.3649C42.206 20.4384 42.3831 20.5114 42.5598 20.5861C42.7781 20.6781 42.9837 20.6723 43.1655 20.505C43.5031 20.1934 43.8801 19.9132 44.1656 19.5588C44.5536 19.0775 44.7337 18.4973 44.6207 17.869C44.4765 17.0675 44.1407 16.3338 43.777 15.6129C43.7498 15.5584 43.6948 15.5173 43.6525 15.4704C43.6363 15.3975 43.6317 15.3187 43.6015 15.2515C43.2211 14.3904 42.7051 13.6058 42.1614 12.8466C41.4908 11.9114 40.7316 11.0491 39.9093 10.2349C39.1542 9.48791 38.3006 8.88102 37.432 8.29615C36.0399 7.35861 34.613 6.47261 33.0749 5.7835C32.5016 5.52697 31.9486 5.22295 31.3678 4.98726C29.6925 4.30684 27.9576 3.80651 26.2145 3.33629C25.2104 3.06586 24.1773 2.97031 23.1373 2.94773C22.6775 2.93788 22.2183 2.91298 21.7585 2.89503C21.5031 2.90951 21.2477 2.93325 20.9923 2.93788C19.8093 2.95989 18.6465 3.11392 17.4958 3.39883C16.2751 3.70111 15.0816 4.07057 13.924 4.56742C12.7983 5.05038 11.7641 5.69027 10.7379 6.3429C9.81659 6.92835 9.00298 7.65452 8.25538 8.45134C7.96584 8.76 7.66993 9.06286 7.39718 9.38599C6.55461 10.382 5.9014 11.4939 5.41671 12.7041C5.3229 12.9387 5.26847 13.1888 5.19608 13.4315C5.17292 13.4882 5.13585 13.5438 5.12948 13.6029C5.0681 14.1484 5.03451 14.6979 4.94707 15.2388C4.87758 15.6685 4.95923 16.0773 5.03104 16.489C5.16365 17.2505 5.52268 17.9159 5.98074 18.5228C6.29634 18.9409 6.72834 19.1748 7.27673 19.1256C7.40876 19.1256 7.54021 19.1256 7.67224 19.1256L7.70641 19.1326L7.74058 19.1233C7.86913 19.1273 7.99827 19.1314 8.1274 19.1355C8.58372 19.1308 9.04062 19.1262 9.49694 19.121C9.73784 19.1216 9.91388 19.2327 10.0361 19.436L10.0349 19.4348ZM10.5352 22.5764C10.4536 22.5167 10.3719 22.4577 10.2903 22.398C9.94978 22.1044 9.60986 21.8108 9.26936 21.5172C9.19408 21.4321 9.11185 21.3522 9.0441 21.2619C8.88311 21.0459 8.67406 20.9752 8.41 21.0071C8.00464 21.0551 7.59465 21.0719 7.19102 21.1304C6.54535 21.2242 6.17531 21.6139 6.05254 22.2903C6.03054 22.5561 5.98942 22.8219 5.98942 23.0883C5.98479 28.0817 5.98479 33.0746 5.98537 38.068C5.98537 40.1221 5.97495 42.1755 5.99464 44.2295C6.00448 45.295 6.72486 46.3976 7.8755 46.7977L7.98032 46.8446C8.02606 46.8568 8.07181 46.8696 8.11756 46.8817C8.16157 46.9049 8.20327 46.9344 8.24959 46.9512C8.65611 47.0995 9.08116 47.0942 9.50447 47.0942C15.6926 47.0948 21.8807 47.0954 28.0688 47.096C31.2914 47.096 34.5134 47.0937 37.736 47.0983C38.3249 47.0994 38.8751 46.9842 39.4026 46.7109C40.4733 46.1561 41.5516 45.6164 42.6339 45.0848C42.8933 44.9574 43.0433 44.7808 43.0589 44.4988C43.0838 44.0639 43.1157 43.6278 43.1157 43.1924C43.1157 36.8757 43.1122 30.5596 43.1053 24.243C43.1053 24.0397 43.0879 23.8284 43.0317 23.6344C42.8812 23.1138 42.6322 22.6858 42.0658 22.482C41.1613 22.1565 40.2782 21.7743 39.38 21.4315C38.9984 21.2856 38.6087 21.1229 38.2091 21.069C37.6155 20.9885 37.0092 21.0036 36.4093 20.9654C36.1846 20.9509 36.0254 21.0267 35.8731 21.19C35.1863 21.9272 34.4202 22.559 33.5069 23.009C32.6319 23.4404 31.7662 23.8926 30.8072 24.1081C29.429 24.4179 28.0358 24.631 26.6205 24.6837C25.6592 24.7196 24.6985 24.8076 23.7372 24.8047C22.1592 24.7995 20.5818 24.7271 19.0038 24.7057C17.7558 24.6889 16.5201 24.569 15.2913 24.3594C14.2645 24.1839 13.2482 23.9679 12.3049 23.5104C11.7067 23.2203 11.1271 22.8926 10.5393 22.581L10.5352 22.5781V22.5764Z" fill="#030202"/>
<path d="M9.26877 21.5172C9.60927 21.8108 9.94919 22.1044 10.2897 22.398C10.3111 22.5405 10.3864 22.6082 10.5346 22.5764L10.5387 22.5793C10.5949 22.6858 10.6261 22.8213 10.7113 22.8943C11.002 23.1433 11.3048 23.3796 11.6146 23.6042C12.3356 24.1266 13.1388 24.503 13.968 24.803C14.6375 25.045 15.3382 25.2129 16.0365 25.3606C16.6457 25.4892 17.2706 25.5459 17.889 25.6299C18.2295 25.6762 18.5706 25.7277 18.9134 25.7509C19.4746 25.7886 20.0368 25.8094 20.5986 25.8297C21.4041 25.8592 22.2096 25.8916 23.0157 25.9055C24.3215 25.9281 25.6233 25.8569 26.9262 25.77C27.741 25.7162 28.5604 25.7428 29.3717 25.6056C29.9867 25.5013 30.6103 25.4452 31.2236 25.3317C31.8513 25.2158 32.4796 25.0774 33.0605 24.8018C33.8005 24.4503 34.5389 24.0936 35.2616 23.7073C35.9229 23.3541 36.4585 22.8346 36.9756 22.2973C37.3851 21.8722 38.1002 21.8716 38.5218 22.288C38.8293 22.592 38.9544 22.9719 38.9492 23.4021C38.9063 26.7238 38.9683 30.0454 38.8913 33.3682C38.8073 36.9991 38.8727 40.6334 38.8652 44.266C38.864 44.6997 38.8166 45.1329 38.7876 45.566C38.7841 45.6158 38.7644 45.665 38.75 45.7143C38.5096 46.5377 38.0244 46.7954 37.2136 46.8539C36.8222 46.8823 36.4244 46.7908 36.0294 46.7937C30.1529 46.8348 24.2769 46.7346 18.4004 46.8458C15.5686 46.8997 12.7317 46.9506 9.89823 46.7937C9.4118 46.767 8.92248 46.7844 8.43489 46.7937C8.32833 46.7954 8.22294 46.8493 8.11697 46.8794C8.07122 46.8672 8.02547 46.8545 7.97973 46.8423C7.94498 46.8267 7.90966 46.8111 7.87491 46.7954C6.72427 46.3959 6.00389 45.2933 5.99405 44.2272C5.97436 42.1738 5.98478 40.1197 5.98478 38.0657C5.98478 33.0723 5.98478 28.0794 5.98884 23.086C5.98884 22.8202 6.02995 22.5538 6.05196 22.288C6.10176 22.2492 6.16082 22.2179 6.19962 22.1704C6.455 21.8583 6.77813 21.684 7.18407 21.6585C7.87897 21.6145 8.57387 21.5636 9.26877 21.5155V21.5172ZM15.835 31.9187C15.8182 31.8927 15.8014 31.8666 15.7852 31.84C15.6943 31.7166 15.6103 31.5869 15.5107 31.4711C14.8975 30.7588 14.1238 30.427 13.1886 30.5776C11.8602 30.7913 10.9539 31.9674 11.0274 33.3271C11.072 34.1575 11.4438 34.8159 12.0652 35.3481C12.0825 35.362 12.0993 35.3765 12.1167 35.3904L12.1335 35.4014C12.2152 35.5108 12.2771 35.6475 12.3819 35.7256C13.0259 36.2074 13.7405 36.4252 14.5419 36.2266C15.1916 36.0656 15.7082 35.6886 16.0661 35.1332C16.5948 34.3133 16.6538 33.4331 16.2821 32.5303C16.2062 32.3455 16.1332 32.1475 15.9138 32.0728V32.071C15.8871 32.0207 15.8611 31.9697 15.8356 31.9193V31.9187H15.835ZM20.3687 37.3135L20.3808 37.3193C20.5273 37.7102 20.8476 37.8434 21.2245 37.8468C22.2229 37.8567 23.2218 37.8503 24.2207 37.8497C24.9388 37.8497 25.3025 37.5648 25.4721 36.8711C25.5781 36.4368 25.5121 36.2659 25.1351 36.0042C25.1137 35.9584 25.094 35.9115 25.0714 35.8664C24.9504 35.6255 24.7552 35.4998 24.4854 35.5108C24.2144 35.5218 24.0354 35.6706 23.9335 35.9179C23.9051 35.9868 23.8756 36.0557 23.8327 36.1576C23.0278 36.1576 22.224 36.1513 21.4197 36.1611C21.1458 36.1646 20.9396 36.1437 20.8325 35.8212C20.741 35.5467 20.4335 35.4419 20.1642 35.5096C19.8869 35.5797 19.6795 35.8003 19.7004 36.0887C19.7178 36.3233 19.7815 36.5694 19.888 36.7778C19.9836 36.9643 20.1654 37.1068 20.309 37.2683C20.3287 37.2828 20.349 37.2979 20.3687 37.3123V37.3135ZM30.0405 35.4095L30.0683 35.4268C30.0289 35.6075 30.1795 35.6683 30.2826 35.7471C31.2798 36.5034 32.7338 36.3458 33.5799 35.4946C34.4242 34.6456 34.5446 33.2003 33.9696 32.228C33.9314 32.1637 33.8387 32.1313 33.7716 32.0838L33.7727 32.0861C33.7565 32.0548 33.7403 32.0241 33.7247 31.9929C33.5955 31.8023 33.4797 31.6002 33.3338 31.423C32.9174 30.9163 32.3812 30.6106 31.7274 30.5284C29.9965 30.3106 28.6368 31.8377 28.8853 33.5541C28.9918 34.2895 29.3688 34.868 29.9328 35.3359C29.9687 35.3608 30.004 35.3851 30.0399 35.41L30.0405 35.4095ZM34.7601 37.0807C34.5163 37.0807 34.2713 37.0946 34.0287 37.0778C33.5446 37.0448 33.0263 37.4918 33.013 38.0263C32.9991 38.5973 33.3789 39.0455 33.9621 39.0751C34.4867 39.1011 35.0166 39.1127 35.5395 39.0716C36.0931 39.0287 36.5344 38.6772 36.4852 37.9522C36.4516 37.4496 36.0288 37.0859 35.4526 37.0813C35.2216 37.0795 34.9905 37.0813 34.7595 37.0813L34.7601 37.0807ZM9.93414 39.1585C10.1391 39.1585 10.3441 39.1509 10.5485 39.1602C10.8919 39.1764 11.1606 39.0496 11.3963 38.7983C11.6864 38.4896 11.7351 38.1543 11.588 37.7744C11.4438 37.4033 11.1583 37.1873 10.7755 37.167C10.2138 37.1375 9.64865 37.1444 9.08578 37.1647C8.67405 37.1792 8.39898 37.4357 8.24379 37.7964C8.0857 38.1636 8.21136 38.617 8.50496 38.884C8.71401 39.0745 8.96707 39.1503 9.24271 39.1573C9.47319 39.1637 9.70366 39.1585 9.93414 39.1585Z" fill="#FDFAEB"/>
<path d="M42.0282 20.3637C41.7369 20.2514 41.412 20.2154 41.1746 19.9832C41.1781 19.6115 41.1914 19.2391 41.1821 18.8673C41.1735 18.5083 41.0235 18.224 40.6789 18.0734C40.116 17.8273 39.5509 17.5876 38.9897 17.3386C38.8774 17.2888 38.7546 17.2285 38.6788 17.1376C38.2427 16.6147 37.7001 16.4914 37.0538 16.6338C36.8494 16.679 36.6161 16.6691 36.4105 16.6217C35.8013 16.4809 35.2002 16.3043 34.5939 16.1509C33.0194 15.7513 31.4136 15.5359 29.802 15.361C28.9646 15.2701 28.1255 15.1971 27.2858 15.1322C26.4578 15.0685 25.6285 15.0199 24.7998 14.9753C24.1611 14.9411 23.5218 14.9029 22.8825 14.9035C22.0382 14.9047 21.1933 14.9342 20.3496 14.9666C19.3414 15.0054 18.3344 15.0541 17.3325 15.1925C16.6255 15.2903 15.9063 15.3123 15.205 15.4386C14.3022 15.6019 13.4006 15.7965 12.5192 16.0478C11.1161 16.4479 9.74653 16.9558 8.40885 17.5395C7.73306 17.8343 7.10822 18.206 7.275 19.1227C6.72661 19.1725 6.29461 18.9386 5.97901 18.5205C5.52095 17.9136 5.16192 17.2482 5.02931 16.4867C4.9575 16.075 4.87643 15.6662 4.94534 15.2365C5.03278 14.6956 5.06637 14.1461 5.12775 13.6006C5.13412 13.5415 5.17176 13.4865 5.19493 13.4292C5.37908 13.1257 5.59971 12.8379 5.73985 12.5154C6.18864 11.4829 6.79957 10.5615 7.55585 9.73344C8.36136 8.85149 9.26242 8.06625 10.2393 7.39104C11.2684 6.67992 12.3669 6.06841 13.4399 5.42215C13.7463 5.23743 14.0706 5.08281 14.3867 4.91372C15.304 4.42265 16.2566 4.00398 17.2793 3.81114C18.7305 3.53781 20.1654 3.17009 21.6386 3.01606C21.682 3.01142 21.7179 2.93556 21.7573 2.89329C22.2171 2.91124 22.6763 2.93556 23.1361 2.94599C24.1756 2.96915 25.2087 3.06412 26.2134 3.33455C27.9564 3.80419 29.6914 4.3051 31.3667 4.98552C31.9481 5.22121 32.5011 5.52523 33.0738 5.78177C34.6124 6.47088 36.0387 7.35688 37.4308 8.29441C38.2995 8.87929 39.153 9.48559 39.9082 10.2332C40.7305 11.0474 41.4896 11.9096 42.1602 12.8449C42.7046 13.6035 43.2205 14.3887 43.6004 15.2498C43.6299 15.317 43.6346 15.3952 43.6514 15.4687C43.6751 15.6963 43.7098 15.9227 43.7208 16.1509C43.7567 16.9216 43.7376 17.686 43.4133 18.4087C43.3873 18.4666 43.3659 18.528 43.3514 18.59C43.2802 18.8946 43.14 19.1551 42.9084 19.3717C42.6744 19.59 42.448 19.8176 42.2297 20.0516C42.1463 20.1407 42.0942 20.2589 42.0282 20.3637ZM15.2837 7.38294C15.2577 7.89427 15.575 8.19944 15.886 8.50983C16.0394 8.66329 16.2149 8.74031 16.4361 8.7351C16.8212 8.72641 17.2069 8.74378 17.5914 8.72873C17.8132 8.72004 17.9829 8.75826 18.1114 8.96152C18.277 9.22385 18.5307 9.29855 18.8405 9.28059C19.2499 9.25743 19.6616 9.27249 20.0722 9.27654C20.1689 9.2777 20.265 9.30028 20.3658 9.31418C20.3733 9.43521 20.3843 9.52439 20.3843 9.61299C20.3826 9.98476 20.5019 10.3201 20.7132 10.6177C20.946 10.9455 21.2344 11.1817 21.6803 11.1227C21.8442 11.1012 22.0139 11.1175 22.1806 11.1198C22.4858 11.1238 22.7273 10.986 22.9184 10.7654C23.1691 10.4758 23.3023 10.1347 23.3104 9.74734C23.3139 9.59909 23.3243 9.45143 23.3307 9.32171C23.4008 9.29797 23.4245 9.28291 23.4488 9.28291C23.9492 9.27944 24.4512 9.25454 24.9498 9.28291C25.2741 9.30144 25.5063 9.18794 25.6604 8.93083C25.7657 8.75421 25.9007 8.72873 26.0773 8.73104C26.4879 8.73683 26.899 8.73568 27.3096 8.73104C27.4098 8.72989 27.5383 8.73683 27.6043 8.68124C27.9362 8.40154 28.2935 8.1288 28.4116 7.6829C28.4718 7.45532 28.5847 7.32387 28.7926 7.20747C29.2183 6.96947 29.5315 6.62491 29.6132 6.11184C29.7001 5.56519 29.3897 5.18415 28.839 5.18415C27.2343 5.18357 25.6297 5.1911 24.025 5.1772C23.7378 5.17488 23.5293 5.25538 23.3672 5.48122C23.3405 5.51828 23.3099 5.55187 23.2421 5.63468C23.223 5.19284 23.2907 4.79616 23.0157 4.47593C22.7516 4.16844 22.4615 3.90322 22.0249 3.88237C21.7261 3.86789 21.4116 3.87079 21.1701 4.04046C20.9368 4.20492 20.7098 4.42729 20.5818 4.67687C20.4573 4.91951 20.4625 5.22816 20.4 5.56403C20.2372 5.16967 19.9338 5.1801 19.6188 5.18183C18.0784 5.1882 16.538 5.18415 14.9977 5.18415C14.8952 5.18415 14.7915 5.1772 14.6896 5.18705C14.4499 5.21079 14.1956 5.41578 14.1476 5.61557C14.0057 6.20392 14.301 6.86234 14.8407 7.15478C14.9757 7.22832 15.1141 7.29607 15.2843 7.38352L15.2837 7.38294ZM10.5746 15.4525C10.8219 15.4641 10.8207 15.4623 11.0269 15.3309C11.6662 14.9226 12.3437 14.5867 13.0612 14.3482C14.7498 13.787 16.4807 13.4077 18.2481 13.1854C19.2128 13.0643 20.177 12.9618 21.1499 12.9624C21.2524 12.9624 21.3549 12.952 21.4574 12.9497C22.1864 12.9323 22.9161 12.8923 23.6446 12.9068C24.2688 12.9196 24.8919 12.9931 25.5156 13.0429C25.859 13.0707 26.2059 13.084 26.5452 13.1396C27.3883 13.2769 28.235 13.4037 29.0683 13.5901C30.3388 13.8745 31.6064 14.1785 32.8607 14.5271C33.6233 14.739 34.3576 15.0506 35.1064 15.3135C35.1811 15.3396 35.2668 15.3355 35.3479 15.3453C35.3577 15.3222 35.3681 15.299 35.378 15.2764C35.254 15.1977 35.1353 15.1079 35.0045 15.0413C33.5845 14.3157 32.0957 13.7789 30.5403 13.4297C29.2582 13.1414 27.975 12.8553 26.6633 12.7273C25.8636 12.6491 25.0633 12.5252 24.2624 12.5165C22.8026 12.5009 21.3421 12.5426 19.8828 12.5883C19.2719 12.6074 18.6586 12.6711 18.0541 12.7632C17.2729 12.8825 16.4952 13.0307 15.7244 13.2027C14.9021 13.3857 14.0677 13.5346 13.2911 13.8826C12.7184 14.1391 12.1457 14.3962 11.5857 14.6794C11.3135 14.8172 11.0668 15.0089 10.8173 15.1878C10.731 15.2498 10.6702 15.3465 10.5752 15.4519L10.5746 15.4525Z" fill="#134967"/>
<path d="M8.11697 46.8806C8.22295 46.8504 8.32834 46.7972 8.43489 46.7949C8.92248 46.7856 9.41181 46.7676 9.89824 46.7949C12.7317 46.9512 15.5681 46.9002 18.4004 46.847C24.2769 46.7358 30.1535 46.8354 36.0294 46.7949C36.4244 46.792 36.8228 46.8835 37.2137 46.8551C38.0244 46.7966 38.5102 46.5395 38.75 45.7154C38.7644 45.6662 38.7841 45.617 38.7876 45.5672C38.8166 45.134 38.864 44.7003 38.8652 44.2671C38.8727 40.6345 38.8073 37.0002 38.8913 33.3694C38.9677 30.0466 38.9063 26.7249 38.9492 23.4033C38.955 22.9725 38.8299 22.5932 38.5218 22.2892C38.1008 21.8728 37.3851 21.8734 36.9757 22.2984C36.458 22.8358 35.9229 23.3552 35.2616 23.7085C34.5394 24.0947 33.8005 24.452 33.0605 24.803C32.4796 25.0786 31.8513 25.217 31.2236 25.3328C30.6104 25.4463 29.9873 25.5025 29.3717 25.6067C28.5604 25.744 27.741 25.7168 26.9262 25.7712C25.6233 25.858 24.3209 25.9287 23.0157 25.9067C22.2096 25.8928 21.4041 25.8604 20.5986 25.8308C20.0369 25.8106 19.4746 25.7897 18.9134 25.7521C18.5706 25.7289 18.2295 25.6774 17.889 25.631C17.2706 25.5471 16.6457 25.4909 16.0365 25.3618C15.3382 25.2141 14.6375 25.0462 13.968 24.8041C13.1388 24.5047 12.3356 24.1277 11.6146 23.6054C11.3048 23.3807 11.002 23.1445 10.7113 22.8955C10.6261 22.8225 10.5949 22.687 10.5387 22.5804C11.1265 22.8914 11.7061 23.2192 12.3043 23.5099C13.2477 23.9679 14.264 24.1839 15.2907 24.3588C16.5195 24.5684 17.7553 24.6883 19.0032 24.7051C20.5812 24.7265 22.1586 24.7989 23.7366 24.8041C24.6973 24.807 25.6586 24.719 26.6199 24.6831C28.0352 24.6304 29.4284 24.4167 30.8067 24.1075C31.765 23.8921 32.6314 23.4404 33.5064 23.0084C34.419 22.5578 35.1857 21.9261 35.8725 21.1895C36.0248 21.0262 36.1846 20.9503 36.4087 20.9648C37.0087 21.003 37.615 20.9879 38.2085 21.0684C38.6081 21.1229 38.9972 21.2856 39.3794 21.4309C40.2776 21.7738 41.1613 22.156 42.0652 22.4814C42.6316 22.6852 42.8806 23.1132 43.0311 23.6338C43.0873 23.8278 43.1047 24.0391 43.1047 24.2424C43.1116 30.5591 43.1157 36.8751 43.1151 43.1918C43.1151 43.6273 43.0833 44.0627 43.0584 44.4982C43.0421 44.7802 42.8922 44.9568 42.6333 45.0842C41.551 45.6158 40.4727 46.1561 39.402 46.7103C38.8745 46.9836 38.3243 47.0989 37.7354 47.0977C34.5128 47.0931 31.2908 47.0954 28.0682 47.0954C21.8801 47.0954 15.692 47.0942 9.50388 47.0937C9.07999 47.0937 8.65552 47.0989 8.24901 46.9506C8.20268 46.9338 8.16098 46.9049 8.11697 46.8811V46.8806Z" fill="#F7DBC6"/>
<path d="M25.0841 22.8011C24.0719 22.8202 23.0602 22.852 22.048 22.8555C21.1904 22.8584 20.3328 22.8381 19.4751 22.8103C17.7031 22.7536 15.9526 22.5306 14.239 22.0639C13.8818 21.9666 13.5291 21.8415 13.1874 21.6991C12.968 21.6076 12.7722 21.4593 12.5661 21.3366C12.7942 20.9561 12.9888 20.5507 13.2569 20.2015C13.77 19.5333 14.4018 18.9785 15.0955 18.4782C15.0486 18.4562 15.015 18.4406 14.982 18.4243C15.2073 18.3977 15.4331 18.3774 15.6572 18.3438C17.0905 18.1273 18.5364 18.0491 19.9812 17.9947C21.9548 17.92 23.93 17.9582 25.9024 18.0641C26.273 18.0838 26.6442 18.1093 27.0131 18.1493C28.0942 18.2662 29.1754 18.3879 30.2554 18.5164C30.7238 18.5726 31.19 18.6508 31.6567 18.7191C31.5502 18.7863 31.4257 18.8355 31.34 18.9229C30.7152 19.5593 29.978 20.0423 29.2147 20.4888C28.5853 20.8571 27.9506 21.2178 27.309 21.5653C26.6789 21.9064 26.0362 22.2226 25.4032 22.5573C25.2862 22.6192 25.1895 22.7188 25.0836 22.8011H25.0841Z" fill="#2A79AC"/>
<path d="M8.12566 19.1343C7.9971 19.1302 7.86797 19.1262 7.73941 19.1221C7.81585 18.7944 8.03011 18.5714 8.32834 18.4591C8.99834 18.2066 9.67008 17.9535 10.3563 17.7514C11.262 17.4845 12.1914 17.2963 13.0936 17.0195C14.1296 16.7016 15.1986 16.6355 16.2612 16.5116C16.6538 16.4659 17.0511 16.4537 17.4454 16.419C18.233 16.3495 19.0188 16.2563 19.8075 16.2099C20.2998 16.181 20.7954 16.0877 21.2917 16.1972C21.3768 16.2157 21.4707 16.2001 21.5604 16.1943C21.8656 16.174 22.1714 16.1329 22.4765 16.1346C22.8205 16.1364 23.1639 16.1891 23.5079 16.1978C24.7882 16.2308 26.0686 16.2505 27.349 16.2852C27.7317 16.2956 28.1145 16.3275 28.495 16.3686C29.3439 16.4601 30.1899 16.5794 31.04 16.6581C32.0592 16.7525 33.0564 16.9587 34.0524 17.1805C34.7867 17.3444 35.521 17.5071 36.2553 17.671C36.2176 17.9258 36.18 18.1811 36.1423 18.4359C35.6536 18.3514 35.1602 18.2871 34.6767 18.1788C33.6824 17.9559 32.6916 17.7208 31.6828 17.5714C31.0157 17.4729 30.3492 17.371 29.6803 17.2841C29.3393 17.2395 28.9936 17.232 28.6519 17.1944C28.0323 17.1266 27.415 17.023 26.7936 16.9813C26.0026 16.9286 25.2087 16.9245 24.4165 16.8944C24.2642 16.8886 24.1136 16.8504 23.9613 16.8463C23.7459 16.8405 23.5299 16.8515 23.3139 16.8562C23.0209 16.8626 22.7279 16.8788 22.4354 16.873C22.1424 16.8672 21.85 16.8209 21.5575 16.8261C21.0728 16.8353 20.5887 16.8724 20.104 16.8956C19.976 16.9019 19.8469 16.8944 19.7195 16.906C19.2122 16.9511 18.7061 17.0108 18.1983 17.0473C17.6759 17.0849 17.1524 17.0982 16.6295 17.1312C16.3498 17.1486 16.0701 17.1758 15.7927 17.2141C15.3138 17.2806 14.8361 17.3542 14.3589 17.4335C13.5054 17.576 12.6367 17.664 11.804 17.8852C10.6319 18.1956 9.48593 18.605 8.33123 18.9779C8.25421 19.0028 8.19457 19.0804 8.12682 19.1331L8.12566 19.1343Z" fill="#FEBD27"/>
<path d="M36.1418 18.4359C36.1794 18.1811 36.2171 17.9257 36.2547 17.6709C36.3248 17.5123 36.3954 17.353 36.4805 17.1602C36.0636 17.0507 35.6947 16.9494 35.3235 16.8579C33.4664 16.3987 31.5925 16.0356 29.6827 15.881C27.9182 15.738 26.156 15.5613 24.3887 15.4704C23.0197 15.3998 21.6444 15.4079 20.2726 15.438C19.2869 15.4594 18.3031 15.5758 17.3181 15.6476C15.8953 15.7519 14.4898 15.965 13.1099 16.3321C11.6459 16.7213 10.2318 17.2592 8.81884 17.7983C8.54551 17.9026 8.2855 18.0468 8.02665 18.1858C7.77996 18.3184 7.65604 18.5303 7.67052 18.817C7.67573 18.9195 7.67052 19.022 7.66994 19.125C7.5379 19.125 7.40645 19.125 7.27442 19.125C7.10764 18.2083 7.73248 17.8366 8.40827 17.5418C9.74595 16.9581 11.1155 16.4497 12.5186 16.0501C13.4006 15.7988 14.3016 15.6036 15.2044 15.4409C15.9057 15.3141 16.6249 15.2926 17.332 15.1948C18.3338 15.0558 19.3408 15.0077 20.349 14.9689C21.1927 14.9365 22.0376 14.907 22.8819 14.9058C23.5212 14.9047 24.1605 14.9435 24.7993 14.9776C25.6285 15.0222 26.4578 15.0709 27.2853 15.1346C28.1249 15.1994 28.964 15.2724 29.8014 15.3633C31.413 15.5382 33.0188 15.7536 34.5933 16.1532C35.1996 16.3072 35.8007 16.4838 36.4099 16.624C36.6155 16.6714 36.8488 16.6813 37.0533 16.6361C37.6995 16.4937 38.2421 16.617 38.6782 17.1399C38.754 17.2308 38.8768 17.2911 38.9891 17.3409C39.5503 17.5899 40.1155 17.8302 40.6783 18.0757C41.0229 18.2263 41.1729 18.5106 41.1816 18.8697C41.1902 19.2414 41.1775 19.6138 41.174 19.9856C40.9945 19.9305 40.8156 19.8755 40.6361 19.8199C40.6384 19.5009 40.6488 19.1818 40.6372 18.8627C40.6343 18.7747 40.5897 18.6432 40.5243 18.6091C40.0425 18.356 39.5503 18.1221 39.0389 17.8713C39.0389 18.1325 39.0499 18.334 39.036 18.5332C39.0221 18.7341 38.9839 18.9334 38.9561 19.1331C38.7876 19.1001 38.6197 19.0677 38.4512 19.0347C38.5183 18.6201 38.5317 18.2089 38.3742 17.8088C38.2954 17.4347 38.1506 17.1266 37.6966 17.1237C37.2942 17.0832 37.0498 17.2117 36.8952 17.5899C36.8153 17.7856 36.7886 18.0033 36.7377 18.2107C36.7527 18.4145 36.7672 18.6189 36.7822 18.8227C36.7898 18.8951 36.7979 18.9669 36.8054 19.0393C36.6126 19.0393 36.4192 19.0387 36.2263 19.0382C36.198 18.8378 36.1696 18.6374 36.1412 18.4371L36.1418 18.4359Z" fill="#071531"/>
<path d="M7.67108 19.1245C7.67108 19.022 7.67687 18.9189 7.67166 18.8164C7.65661 18.5292 7.78111 18.3172 8.0278 18.1852C8.28665 18.0462 8.54608 17.902 8.81999 17.7978C10.233 17.2586 11.6465 16.7207 13.111 16.3315C14.491 15.965 15.8958 15.7513 17.3192 15.647C18.3042 15.5752 19.2881 15.4588 20.2737 15.4374C21.645 15.4073 23.0203 15.3992 24.3898 15.4699C26.1566 15.5608 27.9194 15.7374 29.6838 15.8804C31.5936 16.0356 33.4676 16.3981 35.3247 16.8573C35.6959 16.9494 36.0648 17.0508 36.4817 17.1596C36.396 17.353 36.3259 17.5117 36.2559 17.6704C35.5216 17.5071 34.7873 17.3438 34.053 17.1805C33.057 16.9581 32.0598 16.7519 31.0406 16.6581C30.1905 16.5794 29.3445 16.4601 28.4955 16.3686C28.1151 16.3275 27.7317 16.2956 27.3495 16.2852C26.0692 16.2505 24.7888 16.2308 23.5085 16.1978C23.1645 16.1891 22.8211 16.137 22.4771 16.1346C22.1719 16.1329 21.8668 16.174 21.561 16.1943C21.4712 16.2001 21.3774 16.2163 21.2923 16.1972C20.796 16.0877 20.3003 16.1815 19.8081 16.2099C19.0194 16.2562 18.2336 16.3495 17.446 16.419C17.0517 16.4537 16.655 16.4653 16.2618 16.5116C15.1992 16.6355 14.1302 16.7016 13.0942 17.0195C12.192 17.2963 11.2626 17.4845 10.3569 17.7514C9.67066 17.9535 8.99893 18.2066 8.32892 18.4591C8.0307 18.5714 7.81585 18.7944 7.73999 19.1221L7.70583 19.1314L7.67166 19.1245H7.67108Z" fill="#F8D069"/>
<path d="M36.1418 18.4359C36.1702 18.6363 36.1985 18.8366 36.2269 19.037C36.0022 19.0428 35.7775 19.0486 35.5534 19.0544C35.2112 18.9519 34.873 18.8303 34.5256 18.7492C33.2881 18.4614 32.0395 18.2344 30.7748 18.1058C29.1673 17.9425 27.5626 17.7364 25.9516 17.6258C23.5693 17.4619 21.1817 17.466 18.7965 17.6125C18.3483 17.6397 17.8977 17.6495 17.453 17.7063C15.5837 17.9443 13.715 18.1869 11.8486 18.4498C11.0367 18.5645 10.2347 18.7394 9.49578 19.121C9.03947 19.1256 8.58257 19.1302 8.12625 19.1355C8.194 19.0822 8.25365 19.0052 8.33067 18.9803C9.48594 18.6073 10.6319 18.1979 11.8034 17.8875C12.6367 17.6669 13.5048 17.5783 14.3584 17.4358C14.8349 17.3565 15.3133 17.2824 15.7922 17.2164C16.0696 17.1781 16.3492 17.1509 16.6289 17.1336C17.1513 17.1006 17.6754 17.0872 18.1977 17.0496C18.7055 17.0125 19.2117 16.9535 19.7189 16.9083C19.8463 16.8967 19.9755 16.9042 20.1035 16.8979C20.5881 16.8741 21.0723 16.8371 21.557 16.8284C21.8488 16.8232 22.1418 16.8695 22.4348 16.8753C22.7273 16.8811 23.0203 16.8649 23.3133 16.8585C23.5293 16.8539 23.7453 16.8429 23.9607 16.8486C24.1125 16.8527 24.2636 16.8909 24.4159 16.8967C25.2081 16.9262 26.002 16.9303 26.793 16.9836C27.4144 17.0253 28.0311 17.1289 28.6513 17.1967C28.9936 17.2343 29.3387 17.2418 29.6798 17.2864C30.3486 17.3733 31.0151 17.4746 31.6822 17.5737C32.691 17.7231 33.6818 17.9582 34.6761 18.1811C35.1597 18.2894 35.653 18.3537 36.1418 18.4382V18.4359Z" fill="#FBA126"/>
<path d="M25.0842 22.8011C25.1901 22.7188 25.2868 22.6192 25.4038 22.5573C26.0368 22.2226 26.6801 21.9064 27.3096 21.5653C27.9512 21.2184 28.5859 20.8577 29.2154 20.4888C29.978 20.0423 30.7158 19.5593 31.3406 18.9229C31.4263 18.8355 31.5508 18.7863 31.6574 18.7191C32.1374 18.7921 32.6198 18.854 33.0975 18.9415C33.6627 19.0451 34.2239 19.1702 34.7867 19.2866C34.6616 19.4742 34.5493 19.6711 34.4092 19.8466C34.0455 20.3035 33.5376 20.5826 33.0587 20.8912C32.2098 21.4385 31.3082 21.8977 30.3255 22.1328C29.3816 22.3586 28.4203 22.5272 27.4578 22.6522C26.6738 22.7542 25.8764 22.7553 25.0847 22.8011H25.0842Z" fill="#368FCB"/>
<path d="M34.7861 19.2866C34.2233 19.1708 33.6621 19.0451 33.097 18.9415C32.6192 18.854 32.1368 18.7926 31.6568 18.7191C31.19 18.6508 30.7239 18.572 30.2554 18.5158C29.1754 18.3867 28.0942 18.2657 27.0131 18.1487C26.6442 18.1087 26.273 18.0838 25.9024 18.0636C23.9295 17.9576 21.9548 17.9194 19.9813 17.9941C18.5365 18.0485 17.0905 18.1273 15.6572 18.3433C15.4331 18.3769 15.2073 18.3977 14.982 18.4238C14.0103 18.5593 13.0357 18.6791 12.0681 18.8372C11.4913 18.9316 10.9221 19.0775 10.354 19.22C10.2376 19.249 10.0569 19.2408 10.0349 19.4343C9.91273 19.231 9.73669 19.1198 9.49579 19.1192C10.2353 18.7382 11.0373 18.5627 11.8486 18.4481C13.7144 18.1852 15.5837 17.9425 17.453 17.7045C17.8977 17.6478 18.3483 17.6385 18.7965 17.6107C21.1817 17.4648 23.5693 17.4602 25.9516 17.624C27.5626 17.7352 29.1673 17.9414 30.7748 18.1041C32.0401 18.2327 33.2886 18.4597 34.5256 18.7475C34.873 18.8285 35.2112 18.9496 35.5534 19.0526C35.2975 19.1302 35.0421 19.2078 34.7861 19.2854V19.2866Z" fill="#0A142F"/>
<path d="M21.7573 2.89445C21.7179 2.9373 21.682 3.01258 21.6386 3.01722C20.1654 3.17125 18.7304 3.53897 17.2793 3.8123C16.2566 4.00513 15.304 4.42381 14.3867 4.91488C14.0711 5.08397 13.7463 5.23858 13.4399 5.42331C12.3669 6.06957 11.2684 6.68108 10.2393 7.3922C9.26241 8.06741 8.36193 8.85265 7.55584 9.7346C6.79956 10.5627 6.18863 11.4846 5.73983 12.5165C5.5997 12.8391 5.37906 13.1263 5.19492 13.4303C5.2673 13.1877 5.32174 12.9375 5.41555 12.703C5.90024 11.4933 6.55345 10.3809 7.39601 9.38483C7.66876 9.06228 7.96526 8.75884 8.25422 8.45019C9.00182 7.65337 9.81543 6.92719 10.7368 6.34174C11.7629 5.68969 12.7971 5.04922 13.9229 4.56627C15.081 4.06941 16.274 3.69938 17.4947 3.39768C18.6453 3.11277 19.8081 2.95873 20.9912 2.93672C21.2466 2.93209 21.5019 2.90893 21.7573 2.89387V2.89445Z" fill="#1F6B9D"/>
<path d="M10.0349 19.4348C10.0575 19.2414 10.2376 19.2495 10.354 19.2206C10.9221 19.0787 11.4907 18.9322 12.0681 18.8378C13.0363 18.6797 14.0103 18.5604 14.982 18.4243C15.015 18.44 15.0486 18.4556 15.0955 18.4782C14.4018 18.9791 13.77 19.5333 13.2569 20.2016C12.9888 20.5507 12.7942 20.9561 12.5661 21.3366C12.2673 21.1761 11.9609 21.0291 11.6726 20.8524C11.0495 20.4708 10.5173 19.9798 10.0343 19.4343L10.0349 19.4348Z" fill="#EAF3F7"/>
<path d="M42.0282 20.3637C42.0942 20.2589 42.1463 20.1407 42.2297 20.0516C42.448 19.8176 42.6744 19.59 42.9084 19.3717C43.14 19.1557 43.2801 18.8946 43.3514 18.59C43.3659 18.528 43.3873 18.4666 43.4133 18.4087C43.7376 17.686 43.7567 16.9216 43.7208 16.1509C43.7104 15.9227 43.6751 15.6963 43.6513 15.4687C43.6936 15.5156 43.748 15.5567 43.7758 15.6111C44.1389 16.3321 44.4754 17.0664 44.6196 17.8673C44.7325 18.4961 44.5524 19.0758 44.1644 19.557C43.8789 19.9114 43.5019 20.1917 43.1643 20.5033C42.9825 20.6706 42.7769 20.6764 42.5586 20.5843C42.382 20.5096 42.2048 20.4367 42.0282 20.3631V20.3637Z" fill="#015378"/>
<path d="M38.9567 19.1314C38.9845 18.9316 39.0227 18.7324 39.0366 18.5315C39.0505 18.3323 39.0395 18.1307 39.0395 17.8696C39.5514 18.1203 40.0431 18.3543 40.5249 18.6073C40.5903 18.6421 40.6349 18.7729 40.6378 18.861C40.6494 19.1795 40.6384 19.4991 40.6366 19.8182C40.0766 19.5895 39.5167 19.3607 38.9567 19.1314Z" fill="#FBA126"/>
<path d="M9.26879 21.5172C8.57388 21.5653 7.87956 21.6163 7.18408 21.6603C6.77814 21.6858 6.45501 21.8601 6.19964 22.1722C6.16084 22.2197 6.10177 22.2509 6.05197 22.2897C6.17474 21.6134 6.54477 21.2236 7.19045 21.1298C7.59407 21.0713 8.00406 21.0551 8.40942 21.0065C8.67348 20.9752 8.88253 21.0453 9.04352 21.2613C9.11127 21.3522 9.19293 21.4321 9.26879 21.5167V21.5172Z" fill="#EED7C3"/>
<path d="M36.806 19.0376C36.7984 18.9652 36.7903 18.8934 36.7828 18.821C37.4922 18.9102 37.8437 18.766 38.0568 18.2159C38.0892 18.1331 38.1269 18.0479 38.1807 17.9784C38.2328 17.9113 38.3087 17.8632 38.3747 17.807C38.5322 18.2072 38.5189 18.6183 38.4517 19.033C37.9033 19.0347 37.3544 19.0359 36.806 19.0376Z" fill="#FBA126"/>
<path d="M10.5352 22.5764C10.387 22.6082 10.3111 22.5405 10.2903 22.398C10.3719 22.4577 10.4536 22.5167 10.5352 22.5764Z" fill="#F7DBC6"/>
<path d="M12.0652 35.3481C11.4438 34.8159 11.0726 34.1575 11.0275 33.3271C10.9539 31.9674 11.8608 30.7913 13.1886 30.5776C14.1238 30.427 14.8969 30.7588 15.5107 31.4711C15.6103 31.5869 15.6943 31.7166 15.7852 31.84C15.802 31.8661 15.8188 31.8921 15.835 31.9187C15.8611 31.9703 15.8865 32.0207 15.9126 32.071L15.9132 32.0728C16.0672 32.6021 16.1767 33.1302 16.0742 33.6913C15.8101 35.1402 14.4342 36.0887 13.012 35.7598C12.7074 35.6892 12.4254 35.5236 12.1329 35.4014L12.1161 35.3904C12.0988 35.3765 12.082 35.362 12.0646 35.3475L12.0652 35.3481ZM12.7195 31.2696C12.1908 31.2713 11.7594 31.7195 11.7606 32.2662C11.7617 32.8157 12.1908 33.2547 12.7247 33.2535C13.2616 33.2524 13.6814 32.8158 13.6797 32.261C13.6779 31.7074 13.2523 31.2684 12.7195 31.2696Z" fill="#050404"/>
<path d="M29.9334 35.3353C29.3694 34.868 28.9924 34.2889 28.8858 33.5535C28.6368 31.8377 29.9965 30.31 31.728 30.5278C32.3818 30.61 32.918 30.9158 33.3344 31.4225C33.4803 31.5997 33.5955 31.8018 33.7252 31.9923C33.7415 32.0236 33.7577 32.0543 33.7733 32.0855L33.7721 32.0832C33.8787 32.5048 33.9777 32.924 33.9465 33.3676C33.8422 34.8402 32.5804 35.9335 31.1194 35.7627C30.7609 35.721 30.4187 35.5421 30.0689 35.4263L30.0411 35.4089C30.0052 35.384 29.9699 35.3597 29.934 35.3348L29.9334 35.3353ZM30.5594 31.2285C30.0289 31.2273 29.6039 31.6697 29.6027 32.2233C29.6016 32.7746 30.0289 33.2228 30.5559 33.2234C31.0823 33.224 31.5172 32.7735 31.5178 32.2268C31.5178 31.6778 31.0881 31.2296 30.5594 31.2285Z" fill="#050404"/>
<path d="M20.3096 37.2695C20.166 37.1079 19.9836 36.9655 19.8886 36.779C19.7821 36.5705 19.7184 36.3244 19.701 36.0899C19.6796 35.8015 19.8869 35.5809 20.1648 35.5108C20.4341 35.443 20.7416 35.5479 20.8331 35.8223C20.9402 36.1455 21.1464 36.1657 21.4203 36.1623C22.2241 36.1524 23.0284 36.1588 23.8333 36.1588C23.8762 36.0569 23.9051 35.988 23.9341 35.9191C24.036 35.6718 24.2149 35.523 24.486 35.512C24.7552 35.501 24.951 35.6266 25.072 35.8675C25.0946 35.9127 25.1148 35.959 25.1357 36.0053C25.1241 36.1322 25.1253 36.2613 25.0992 36.3846C24.9527 37.0726 24.5259 37.4009 23.8275 37.3963C22.919 37.3905 22.0098 37.405 21.1012 37.398C20.8615 37.3963 20.6217 37.3471 20.382 37.3199L20.3698 37.3141C20.3501 37.2996 20.3299 37.2845 20.3102 37.2695H20.3096Z" fill="#050404"/>
<path d="M34.7601 37.0807C34.9911 37.0807 35.2222 37.079 35.4532 37.0807C36.0294 37.0853 36.4516 37.4496 36.4857 37.9517C36.5344 38.6767 36.0937 39.0276 35.5401 39.071C35.0172 39.1116 34.4873 39.1006 33.9627 39.0745C33.3795 39.045 32.9997 38.5968 33.0136 38.0258C33.0269 37.4919 33.5452 37.0442 34.0293 37.0772C34.2719 37.094 34.5169 37.0801 34.7607 37.0801L34.7601 37.0807Z" fill="#FFC9B4"/>
<path d="M9.93415 39.1585C9.70368 39.1585 9.4732 39.1631 9.24273 39.1573C8.96708 39.1498 8.71402 39.0739 8.50497 38.884C8.21196 38.617 8.08572 38.1636 8.24381 37.7965C8.399 37.4357 8.67465 37.1792 9.0858 37.1647C9.64867 37.1444 10.2139 37.138 10.7756 37.167C11.1583 37.1873 11.4438 37.4027 11.588 37.7745C11.7351 38.1549 11.6865 38.4896 11.3963 38.7983C11.1601 39.0496 10.892 39.1764 10.5486 39.1602C10.3441 39.1509 10.1386 39.1585 9.93415 39.1585Z" fill="#FFC9B4"/>
<path d="M12.1335 35.4014C12.426 35.5235 12.7085 35.6892 13.0126 35.7598C14.4348 36.0887 15.8107 35.1402 16.0748 33.6913C16.1773 33.1302 16.0678 32.6021 15.9138 32.0728C16.1332 32.1469 16.2062 32.3455 16.2821 32.5303C16.6544 33.4331 16.5954 34.3133 16.0661 35.1332C15.7082 35.6886 15.1917 36.0656 14.5419 36.2266C13.7405 36.4252 13.0259 36.2074 12.3819 35.7257C12.2771 35.6469 12.2152 35.5108 12.1335 35.4014Z" fill="#EED7C3"/>
<path d="M30.0683 35.4268C30.4181 35.5427 30.7603 35.721 31.1188 35.7633C32.5798 35.9341 33.8417 34.8408 33.9459 33.3682C33.9772 32.9246 33.8781 32.5054 33.7716 32.0838C33.8388 32.1313 33.9314 32.1631 33.9696 32.228C34.5447 33.2003 34.4242 34.6457 33.5799 35.4946C32.7339 36.3453 31.2804 36.5034 30.2826 35.7471C30.1795 35.6689 30.0284 35.6075 30.0683 35.4268Z" fill="#EED7C3"/>
<path d="M20.3808 37.3199C20.6206 37.3471 20.8597 37.3963 21.1001 37.398C22.0086 37.405 22.9178 37.3911 23.8264 37.3963C24.5248 37.4004 24.9521 37.072 25.098 36.3846C25.1241 36.2613 25.1229 36.1322 25.1345 36.0053C25.5115 36.2671 25.5781 36.4379 25.4716 36.8722C25.3019 37.566 24.9382 37.8509 24.2202 37.8509C23.2212 37.8509 22.2229 37.8578 21.224 37.848C20.847 37.8439 20.5268 37.7113 20.3802 37.3204L20.3808 37.3199Z" fill="#EED7C3"/>
<path d="M29.9334 35.3353C29.9693 35.3602 30.0052 35.3851 30.0405 35.4095C30.0046 35.3846 29.9693 35.3602 29.9334 35.3353Z" fill="#EED7C3"/>
<path d="M33.7733 32.0855C33.7571 32.0543 33.7409 32.0236 33.7253 31.9923C33.7415 32.0236 33.7577 32.0543 33.7733 32.0855Z" fill="#EED7C3"/>
<path d="M12.0652 35.3481C12.0825 35.3626 12.0999 35.3765 12.1167 35.3909C12.0993 35.3765 12.0825 35.3626 12.0652 35.3481Z" fill="#EED7C3"/>
<path d="M15.835 31.9188C15.8182 31.8927 15.8014 31.8666 15.7852 31.84C15.802 31.8661 15.8188 31.8921 15.835 31.9188Z" fill="#EED7C3"/>
<path d="M15.2837 7.38294C15.1129 7.29549 14.9751 7.22774 14.8401 7.1542C14.3004 6.86176 14.0051 6.20334 14.147 5.61499C14.195 5.41521 14.4487 5.20963 14.689 5.18647C14.7909 5.17662 14.894 5.18357 14.9971 5.18357C16.5374 5.18357 18.0778 5.18763 19.6182 5.18126C19.9332 5.1801 20.2372 5.1691 20.3993 5.56345C20.4619 5.22758 20.4567 4.91893 20.5812 4.67629C20.7092 4.42671 20.9367 4.20434 21.1695 4.03988C21.411 3.87021 21.7255 3.86731 22.0243 3.88179C22.4609 3.90322 22.751 4.16786 23.0151 4.47535C23.2901 4.79559 23.2224 5.19284 23.2415 5.6341C23.3092 5.55129 23.3399 5.51771 23.3666 5.48064C23.5287 5.2548 23.7372 5.17373 24.0244 5.17662C25.6291 5.19052 27.2337 5.18299 28.8383 5.18357C29.3891 5.18357 29.6994 5.56519 29.6126 6.11127C29.5309 6.62433 29.2176 6.96889 28.792 7.20689C28.5836 7.32329 28.4712 7.45474 28.411 7.68232C28.2928 8.12822 27.9356 8.40097 27.6037 8.68066C27.5377 8.73626 27.4092 8.72931 27.309 8.73046C26.8984 8.73568 26.4873 8.73625 26.0767 8.73046C25.9001 8.72815 25.7651 8.75363 25.6598 8.93025C25.5063 9.18736 25.2735 9.30086 24.9492 9.28233C24.4506 9.25396 23.9486 9.27828 23.4482 9.28233C23.4245 9.28233 23.4007 9.29739 23.3301 9.32113C23.3237 9.45085 23.3133 9.59909 23.3098 9.74676C23.3011 10.1336 23.168 10.4752 22.9178 10.7648C22.7267 10.9854 22.4852 11.1232 22.18 11.1192C22.0133 11.1169 21.8442 11.1007 21.6797 11.1221C21.2338 11.1812 20.9454 10.9449 20.7126 10.6171C20.5013 10.3195 20.382 9.98418 20.3837 9.61241C20.3837 9.52381 20.3733 9.43463 20.3652 9.3136C20.2644 9.30028 20.1683 9.27712 20.0716 9.27596C19.661 9.27191 19.2493 9.25628 18.8399 9.28002C18.5301 9.29797 18.277 9.22269 18.1108 8.96094C17.9823 8.75768 17.812 8.71946 17.5908 8.72815C17.2063 8.7432 16.8206 8.72583 16.4355 8.73452C16.2143 8.73973 16.0388 8.66329 15.8854 8.50925C15.575 8.19828 15.2577 7.89369 15.2831 7.38236L15.2837 7.38294ZM22.7782 5.58372C22.7904 5.55477 22.802 5.52581 22.8141 5.49744C22.9126 5.09092 22.7678 4.76316 22.4522 4.52052C22.1488 4.28773 21.8077 4.23619 21.4539 4.42555C21.2367 4.49794 21.085 4.63981 20.9993 4.85234C20.7416 5.36077 20.8383 5.75976 21.3045 6.11011C21.9148 6.50389 22.5837 6.26299 22.7829 5.57735L22.7788 5.5843L22.7782 5.58372ZM23.5357 6.04699C23.3295 6.32495 23.1239 6.60291 22.9178 6.88087C22.7614 6.96541 22.7232 7.23064 22.4424 7.17273C22.4105 7.02448 22.3769 6.87103 22.3428 6.71352H21.3826C21.3462 6.8855 21.3149 7.03201 21.2859 7.16925C21.063 7.2318 20.9877 7.07197 20.8997 6.95731C20.5893 6.55253 20.283 6.14485 19.9865 5.72907C19.9013 5.60978 19.8208 5.54029 19.6738 5.58951C19.5788 5.58951 19.4832 5.58951 19.3883 5.58893C19.0993 5.58893 18.8109 5.58893 18.522 5.58893C17.3233 5.5843 16.124 5.57503 14.9253 5.57735C14.634 5.57735 14.5651 5.6758 14.5494 6.01803C14.6322 6.66082 15.1007 6.88492 15.6584 7.01232C15.6636 7.1125 15.6659 7.2011 15.6729 7.28913C15.7238 7.93654 16.1813 8.36333 16.8241 8.36391C17.3094 8.36391 17.794 8.36391 18.2747 8.36391C18.3123 8.43513 18.3453 8.47682 18.3581 8.52431C18.4426 8.83007 18.6343 8.95978 18.9563 8.93662C19.2371 8.91635 19.5203 8.93257 19.8023 8.93257C20.1191 8.93257 20.4364 8.93257 20.7943 8.93257C20.7943 9.13814 20.7694 9.30608 20.7995 9.46359C20.8539 9.74908 20.8997 10.049 21.0242 10.3067C21.2541 10.7816 22.1372 10.9119 22.531 10.5557C22.5871 10.5054 22.6311 10.4388 22.6711 10.3739C22.8356 10.1064 22.9259 9.81625 22.9242 9.49949C22.923 9.32345 22.9242 9.14741 22.9242 8.93257C23.0927 8.93257 23.2178 8.93257 23.3423 8.93257C23.8298 8.93257 24.3174 8.91982 24.8044 8.9372C25.0946 8.94762 25.2648 8.82659 25.3575 8.56543C25.3783 8.50694 25.4061 8.45019 25.4351 8.38301C25.5439 8.37664 25.6447 8.36622 25.7455 8.36564C26.1942 8.3639 26.6436 8.37491 27.0918 8.35869C27.2366 8.35348 27.408 8.31816 27.518 8.23245C27.8319 7.98924 28.0328 7.66553 28.0635 7.25496C28.0699 7.16867 28.0809 7.08297 28.0884 7.00537C28.5413 6.89071 28.9513 6.75695 29.0984 6.26878C29.1899 6.07536 29.2808 5.88195 29.0827 5.69664C28.9791 5.53102 28.8123 5.57909 28.664 5.57851C27.2019 5.5733 25.7391 5.58546 24.2775 5.55998C23.8825 5.55303 23.6457 5.67579 23.5357 6.04757V6.04699Z" fill="#0A142F"/>
<path d="M10.5746 15.4525C10.6696 15.3471 10.7304 15.2498 10.8167 15.1884C11.0663 15.0095 11.3124 14.8178 11.5851 14.68C12.1445 14.3968 12.7178 14.1397 13.2905 13.8832C14.0665 13.5357 14.9015 13.3869 15.7238 13.2033C16.4952 13.0313 17.2729 12.8831 18.0535 12.7638C18.6581 12.6717 19.2713 12.608 19.8822 12.5889C21.3415 12.5432 22.8026 12.5015 24.2619 12.5171C25.0627 12.5258 25.8624 12.6497 26.6627 12.7279C27.9738 12.8559 29.257 13.1419 30.5397 13.4303C32.0951 13.7801 33.584 14.3163 35.0039 15.0419C35.1342 15.1085 35.2529 15.1983 35.3774 15.277C35.3675 15.3002 35.3571 15.3233 35.3473 15.3459C35.2668 15.3361 35.1811 15.3401 35.1058 15.3141C34.357 15.0517 33.6222 14.7396 32.8601 14.5277C31.6058 14.1796 30.3382 13.875 29.0677 13.5907C28.235 13.4043 27.3878 13.2774 26.5446 13.1402C26.2053 13.0852 25.859 13.0713 25.515 13.0435C24.8913 12.9937 24.2682 12.9196 23.644 12.9074C22.9155 12.8929 22.1858 12.9329 21.4568 12.9503C21.3543 12.9526 21.2518 12.963 21.1493 12.963C20.1764 12.963 19.2122 13.0649 18.2475 13.1859C16.4801 13.4077 14.7498 13.787 13.0606 14.3487C12.3431 14.5873 11.6656 14.9232 11.0263 15.3314C10.8201 15.4629 10.8213 15.4646 10.574 15.4531L10.5746 15.4525Z" fill="#021031"/>
<path d="M38.3747 17.807C38.3093 17.8632 38.2328 17.9118 38.1807 17.9784C38.1269 18.0479 38.0892 18.1331 38.0568 18.2159C37.8437 18.766 37.4916 18.9102 36.7828 18.821C36.7677 18.6172 36.7533 18.4128 36.7382 18.2089C36.7845 18.1707 36.8535 18.1417 36.8743 18.0931C37.048 17.6825 37.3845 17.4127 37.6972 17.122C38.1506 17.1255 38.296 17.4335 38.3747 17.807Z" fill="#FEBD27"/>
<path d="M37.6972 17.122C37.3845 17.4133 37.048 17.6825 36.8743 18.0931C36.8535 18.1423 36.7851 18.1707 36.7382 18.2089C36.7892 18.001 36.8158 17.7839 36.8957 17.5881C37.0503 17.21 37.2947 17.0814 37.6972 17.122Z" fill="#F8D069"/>
<path d="M12.7196 31.2696C13.2523 31.2679 13.6785 31.7074 13.6797 32.261C13.6814 32.8163 13.2616 33.2524 12.7248 33.2535C12.1908 33.2547 11.7618 32.8158 11.7606 32.2662C11.7594 31.7195 12.1903 31.2713 12.7196 31.2696Z" fill="#FDFAEB"/>
<path d="M30.5594 31.2285C31.0875 31.2296 31.5184 31.6784 31.5178 32.2268C31.5178 32.7735 31.0823 33.224 30.5559 33.2234C30.0284 33.2228 29.6016 32.7746 29.6028 32.2233C29.6039 31.6697 30.0295 31.2273 30.5594 31.2285Z" fill="#FDFAEB"/>
<path d="M19.6738 5.59009C19.8214 5.54087 19.9019 5.61036 19.9865 5.72965C20.2824 6.14485 20.5887 6.55311 20.8997 6.95789C20.9871 7.07197 21.063 7.23237 21.2859 7.16983C21.3149 7.03259 21.3462 6.88608 21.3827 6.71409H22.3428C22.3769 6.8716 22.4099 7.02564 22.4424 7.17331C22.7232 7.23064 22.7615 6.96599 22.9184 6.88145C23.2508 6.78011 23.3631 6.46914 23.5455 6.22419C23.6967 6.06031 23.8021 5.86921 24.0899 5.86805C25.5735 5.86226 27.0571 5.83157 28.5413 5.81014C28.6311 5.80898 28.7237 5.82462 28.8094 5.80609C28.9044 5.78524 28.9924 5.73428 29.0839 5.69606C29.2814 5.88137 29.191 6.07478 29.0995 6.2682C29.0503 6.2792 28.9901 6.27573 28.9536 6.30352C28.6629 6.52415 28.334 6.5809 27.9767 6.57685C27.0658 6.567 26.1543 6.57337 25.2434 6.57337C25.1536 6.57337 25.0523 6.55137 24.9776 6.58611C24.9006 6.62202 24.8242 6.70599 24.7992 6.78532C24.7882 6.81949 24.8994 6.92198 24.9701 6.94457C25.0639 6.9741 25.1733 6.95731 25.2758 6.95731C26.02 6.95731 26.7647 6.95326 27.5088 6.95962C27.8794 6.96252 27.9802 7.10613 27.8348 7.43679C27.7763 7.57056 27.6732 7.69854 27.5603 7.79235C27.3484 7.96781 27.0959 8.04193 26.8133 8.03962C25.8897 8.03151 24.9654 8.03441 24.0418 8.03846C23.8988 8.03904 23.7256 7.9846 23.6422 8.18497C23.6915 8.35985 23.8154 8.42239 23.9868 8.42181C24.1924 8.42066 24.3974 8.42066 24.6029 8.42181C24.7749 8.42297 24.9475 8.4276 25.1467 8.4305C24.9817 8.72236 24.9817 8.72699 24.7188 8.72873C24.2057 8.7322 23.692 8.72873 23.179 8.72931C22.7053 8.72989 22.6978 8.73799 22.6949 9.19431C22.6943 9.32287 22.6891 9.45143 22.6954 9.5794C22.7099 9.85505 22.5918 10.0792 22.4181 10.2743C22.0133 10.73 21.3108 10.5876 21.1389 10.0033C21.0572 9.72533 21.0236 9.42942 21.0034 9.13872C20.9767 8.75652 20.9698 8.73162 20.5748 8.72989C20.0357 8.72757 19.4972 8.72873 18.958 8.72989C18.771 8.72989 18.6007 8.7102 18.5666 8.42123C18.8856 8.42123 19.1891 8.42181 19.4931 8.42123C19.6211 8.42123 19.7537 8.43629 19.8759 8.40791C19.9459 8.3917 20.0345 8.31236 20.0519 8.24519C20.0826 8.12648 19.99 8.05757 19.8753 8.04483C19.774 8.03325 19.6703 8.03672 19.5678 8.03672C18.6696 8.03672 17.7715 8.03151 16.8727 8.03962C16.5554 8.04251 16.3047 7.92206 16.0834 7.70722C15.9173 7.54624 15.7962 7.34066 15.8657 7.12756C15.9375 6.90751 16.1825 6.95904 16.3701 6.95847C17.1142 6.95615 17.8589 6.95905 18.603 6.95615C18.7368 6.95615 18.8932 6.99726 18.9719 6.80964C18.9059 6.57627 18.7183 6.57164 18.5191 6.57164C17.5566 6.57395 16.5942 6.58032 15.6318 6.56932C15.238 6.56469 14.8639 6.48362 14.6792 6.06494C14.8222 6.02904 14.9652 5.9636 15.1088 5.96244C16.0661 5.95375 17.0233 5.96012 17.9805 5.95897C18.5168 5.95839 19.053 5.95781 19.5886 5.94275C19.6732 5.94043 19.7548 5.85878 19.8382 5.81362C19.7838 5.73891 19.7299 5.66421 19.6755 5.58951L19.6738 5.59009Z" fill="#FEBD27"/>
<path d="M14.6774 6.0661C14.8621 6.48478 15.2362 6.56585 15.63 6.57048C16.5924 6.58148 17.5549 6.57511 18.5173 6.5728C18.7165 6.5728 18.9042 6.57743 18.9702 6.8108C18.892 6.99842 18.7351 6.95673 18.6013 6.95731C17.8572 6.9602 17.1125 6.95731 16.3683 6.95963C16.1807 6.95963 15.9358 6.90867 15.864 7.12872C15.7945 7.34182 15.9155 7.54682 16.0817 7.70838C16.3029 7.92264 16.5537 8.04367 16.871 8.04078C17.7691 8.03267 18.6673 8.0373 19.566 8.03788C19.6685 8.03788 19.7722 8.0344 19.8735 8.04599C19.9882 8.05873 20.0809 8.12764 20.0502 8.24635C20.0328 8.31352 19.9436 8.39344 19.8741 8.40907C19.7519 8.43687 19.6193 8.42181 19.4913 8.42239C19.1879 8.42355 18.8839 8.42239 18.5648 8.42239C18.599 8.71193 18.7692 8.73162 18.9563 8.73104C19.4954 8.72989 20.0339 8.72873 20.5731 8.73104C20.968 8.73278 20.975 8.75768 21.0016 9.13988C21.0219 9.43 21.0555 9.72649 21.1371 10.0044C21.3091 10.5893 22.0115 10.7318 22.4163 10.2755C22.5894 10.0803 22.7082 9.8562 22.6937 9.58056C22.6867 9.45258 22.6919 9.32403 22.6931 9.19547C22.696 8.73915 22.7029 8.73162 23.1772 8.73046C23.6903 8.72931 24.2039 8.73278 24.717 8.72989C24.9799 8.72815 24.9799 8.72352 25.1449 8.43166C24.9457 8.42818 24.7732 8.42413 24.6012 8.42297C24.3956 8.42123 24.1906 8.42123 23.985 8.42297C23.8136 8.42413 23.6903 8.36101 23.6405 8.18613C23.7239 7.98576 23.8976 8.04077 24.0401 8.03962C24.9637 8.03556 25.8879 8.03267 26.8116 8.04078C27.0941 8.04309 27.3472 7.96897 27.5586 7.79351C27.6715 7.69969 27.7746 7.57172 27.8331 7.43795C27.9784 7.10729 27.8776 6.96368 27.507 6.96078C26.7629 6.95441 26.0182 6.95905 25.2741 6.95847C25.1716 6.95847 25.0621 6.97526 24.9683 6.94573C24.8971 6.92314 24.7865 6.82064 24.7975 6.78648C24.8224 6.70714 24.8988 6.62318 24.9759 6.58728C25.0506 6.55253 25.1519 6.57453 25.2417 6.57453C26.1526 6.57453 27.064 6.56758 27.9749 6.57801C28.3322 6.58206 28.6611 6.52473 28.9518 6.30468C28.9883 6.27689 29.0486 6.28036 29.0978 6.26935C28.9507 6.75752 28.5407 6.89129 28.0879 7.00595C28.0797 7.08355 28.0693 7.16925 28.063 7.25554C28.0323 7.66611 27.8313 7.98924 27.5175 8.23303C27.4074 8.31816 27.2366 8.35406 27.0913 8.35927C26.643 8.37491 26.1937 8.3639 25.7449 8.36622C25.6441 8.36622 25.5428 8.37722 25.4345 8.38359C25.4055 8.45135 25.3777 8.50752 25.3569 8.56601C25.2642 8.82717 25.094 8.9482 24.8039 8.93778C24.3169 8.9204 23.8293 8.93314 23.3417 8.93314C23.2166 8.93314 23.0921 8.93314 22.9236 8.93314C22.9236 9.14798 22.923 9.32403 22.9236 9.50007C22.9253 9.81683 22.835 10.1069 22.6705 10.3745C22.6306 10.4393 22.5866 10.5059 22.5304 10.5563C22.1372 10.9119 21.2535 10.7822 21.0236 10.3073C20.8991 10.0496 20.8539 9.75023 20.7989 9.46417C20.7688 9.30666 20.7937 9.13872 20.7937 8.93314C20.4358 8.93314 20.1185 8.93314 19.8017 8.93314C19.5197 8.93314 19.236 8.91693 18.9557 8.9372C18.6337 8.96036 18.4426 8.83123 18.3575 8.52489C18.3442 8.4774 18.3118 8.43571 18.2741 8.36448C17.7935 8.36448 17.3082 8.36448 16.8235 8.36448C16.1813 8.36448 15.7232 7.93712 15.6723 7.2897C15.6653 7.20168 15.663 7.11308 15.6578 7.0129C15.0996 6.8855 14.6317 6.6614 14.5489 6.01919C14.5911 6.03483 14.634 6.05046 14.6763 6.0661H14.6774Z" fill="#FBA126"/>
<path d="M21.4533 4.42555C21.8071 4.23619 22.1488 4.28773 22.4516 4.52052C22.7678 4.76315 22.912 5.09092 22.8136 5.49743C22.8014 5.52639 22.7898 5.55534 22.7777 5.58372L22.7817 5.57677C22.6949 5.62888 22.6039 5.67579 22.5223 5.73486C22.158 5.99892 21.7446 6.09679 21.3039 6.10953C20.8377 5.75918 20.7404 5.36019 20.9987 4.85233C21.0578 5.16909 21.1794 5.26754 21.3728 5.1384C21.5205 5.03996 21.6577 4.92067 21.7828 4.79385C21.9096 4.66471 21.8575 4.48925 21.6826 4.43539C21.612 4.41339 21.5303 4.42787 21.4539 4.42555H21.4533Z" fill="#FEBD27"/>
<path d="M14.6774 6.0661C14.6351 6.05046 14.5923 6.03483 14.55 6.01919C14.5657 5.67637 14.634 5.57908 14.9258 5.57851C16.1245 5.57619 17.3238 5.58546 18.5225 5.59009C18.8115 5.59009 19.0999 5.59009 19.3883 5.59009C19.4832 5.59009 19.5788 5.59009 19.6738 5.59067C19.7276 5.66537 19.782 5.74007 19.8359 5.81477C19.7531 5.85994 19.6709 5.94159 19.5863 5.94391C19.0507 5.95955 18.5144 5.95955 17.9782 5.96012C17.021 5.96128 16.0637 5.95491 15.1065 5.9636C14.9629 5.96476 14.8199 6.03019 14.6768 6.0661H14.6774Z" fill="#F9DF97"/>
<path d="M29.0827 5.69606C28.9918 5.73428 28.9032 5.78524 28.8082 5.80609C28.7225 5.82462 28.6299 5.80898 28.5401 5.81014C27.0565 5.83157 25.5729 5.86226 24.0887 5.86805C23.8009 5.86921 23.6955 6.06031 23.5444 6.22361C23.5415 6.16454 23.538 6.10547 23.5351 6.04699C23.6451 5.67521 23.8825 5.55245 24.2769 5.5594C25.7391 5.58488 27.2013 5.5733 28.6635 5.57793C28.8111 5.57793 28.9785 5.53044 29.0821 5.69606H29.0827Z" fill="#F9DF97"/>
<path d="M21.4533 4.42555C21.5297 4.42787 21.6114 4.41339 21.682 4.43539C21.8569 4.48925 21.909 4.66471 21.7822 4.79385C21.6577 4.92067 21.5199 5.03996 21.3722 5.1384C21.1788 5.26754 21.0578 5.1691 20.9981 4.85234C21.0838 4.63981 21.2361 4.49794 21.4527 4.42555H21.4533Z" fill="#F9DF97"/>
<path d="M21.3039 6.10953C21.7446 6.09679 22.1586 5.99892 22.5223 5.73486C22.6039 5.67579 22.6949 5.62888 22.7817 5.57677C22.5831 6.2624 21.9142 6.50388 21.3039 6.10953Z" fill="#FBA126"/>
<path d="M23.5357 6.04699C23.5386 6.10605 23.542 6.16454 23.5449 6.22361C23.3631 6.46856 23.2508 6.77953 22.9178 6.88087C23.1239 6.6029 23.3295 6.32495 23.5357 6.04699Z" fill="#F8D069"/>
<path d="M22.7782 5.58372C22.7904 5.55477 22.802 5.52581 22.8141 5.49744C22.802 5.52639 22.7904 5.55535 22.7782 5.58372Z" fill="#FBA126"/>
</svg>