%TF.GenerationSoftware,KiCad,Pcbnew,9.0.5-9.0.5~ubuntu25.04.1*%
%TF.CreationDate,2025-10-27T18:11:11+01:00*%
%TF.ProjectId,BladeMaster,426c6164-654d-4617-9374-65722e6b6963,rev?*%
%TF.SameCoordinates,Original*%
%TF.FileFunction,Soldermask,Bot*%
%TF.FilePolarity,Negative*%
%FSLAX46Y46*%
G04 Gerber Fmt 4.6, Leading zero omitted, Abs format (unit mm)*
G04 Created by KiCad (PCBNEW 9.0.5-9.0.5~ubuntu25.04.1) date 2025-10-27 18:11:11*
%MOMM*%
%LPD*%
G01*
G04 APERTURE LIST*
G04 Aperture macros list*
%AMRoundRect*
0 Rectangle with rounded corners*
0 $1 Rounding radius*
0 $2 $3 $4 $5 $6 $7 $8 $9 X,Y pos of 4 corners*
0 Add a 4 corners polygon primitive as box body*
4,1,4,$2,$3,$4,$5,$6,$7,$8,$9,$2,$3,0*
0 Add four circle primitives for the rounded corners*
1,1,$1+$1,$2,$3*
1,1,$1+$1,$4,$5*
1,1,$1+$1,$6,$7*
1,1,$1+$1,$8,$9*
0 Add four rect primitives between the rounded corners*
20,1,$1+$1,$2,$3,$4,$5,0*
20,1,$1+$1,$4,$5,$6,$7,0*
20,1,$1+$1,$6,$7,$8,$9,0*
20,1,$1+$1,$8,$9,$2,$3,0*%
G04 Aperture macros list end*
%ADD10RoundRect,0.225000X-0.250000X0.225000X-0.250000X-0.225000X0.250000X-0.225000X0.250000X0.225000X0*%
%ADD11RoundRect,0.218750X0.256250X-0.218750X0.256250X0.218750X-0.256250X0.218750X-0.256250X-0.218750X0*%
%ADD12RoundRect,0.200000X-0.275000X0.200000X-0.275000X-0.200000X0.275000X-0.200000X0.275000X0.200000X0*%
%ADD13RoundRect,0.237500X-0.237500X0.250000X-0.237500X-0.250000X0.237500X-0.250000X0.237500X0.250000X0*%
%ADD14RoundRect,0.237500X0.300000X0.237500X-0.300000X0.237500X-0.300000X-0.237500X0.300000X-0.237500X0*%
%ADD15RoundRect,0.200000X0.200000X0.275000X-0.200000X0.275000X-0.200000X-0.275000X0.200000X-0.275000X0*%
%ADD16C,0.750013*%
%ADD17O,1.200000X2.000000*%
%ADD18O,1.200000X1.800000*%
%ADD19R,0.300000X1.300000*%
%ADD20RoundRect,0.150000X-0.256326X-0.468458X0.468458X0.256326X0.256326X0.468458X-0.468458X-0.256326X0*%
%ADD21R,1.229997X1.359995*%
%ADD22RoundRect,0.237500X-0.250000X-0.237500X0.250000X-0.237500X0.250000X0.237500X-0.250000X0.237500X0*%
%ADD23R,1.500000X0.900000*%
%ADD24R,0.900000X1.500000*%
%ADD25R,0.900000X0.900000*%
%ADD26RoundRect,0.150000X0.512500X0.150000X-0.512500X0.150000X-0.512500X-0.150000X0.512500X-0.150000X0*%
%ADD27RoundRect,0.225000X0.225000X0.250000X-0.225000X0.250000X-0.225000X-0.250000X0.225000X-0.250000X0*%
%ADD28RoundRect,0.150000X-0.150000X0.587500X-0.150000X-0.587500X0.150000X-0.587500X0.150000X0.587500X0*%
%ADD29RoundRect,0.237500X0.250000X0.237500X-0.250000X0.237500X-0.250000X-0.237500X0.250000X-0.237500X0*%
%ADD30RoundRect,0.200000X-0.200000X-0.275000X0.200000X-0.275000X0.200000X0.275000X-0.200000X0.275000X0*%
%ADD31RoundRect,0.225000X-0.225000X-0.250000X0.225000X-0.250000X0.225000X0.250000X-0.225000X0.250000X0*%
G04 APERTURE END LIST*
D10*
%TO.C,C1*%
X10500000Y10025000D03*
X10500000Y8475000D03*
%TD*%
D11*
%TO.C,D1*%
X-11500000Y1712499D03*
X-11500000Y3287501D03*
%TD*%
D12*
%TO.C,R9*%
X-11437500Y6525000D03*
X-11437500Y4875000D03*
%TD*%
D13*
%TO.C,R6*%
X10500000Y-6837500D03*
X10500000Y-8662500D03*
%TD*%
D14*
%TO.C,C4*%
X-4887499Y-10000000D03*
X-6612501Y-10000000D03*
%TD*%
D12*
%TO.C,R10*%
X-14187500Y6525000D03*
X-14187500Y4875000D03*
%TD*%
D15*
%TO.C,R8*%
X3075000Y-11000000D03*
X1425000Y-11000000D03*
%TD*%
D12*
%TO.C,R3*%
X-11500000Y325000D03*
X-11500000Y-1325000D03*
%TD*%
D16*
%TO.C,J3*%
X2899924Y-13995880D03*
X-2899924Y-13995880D03*
D17*
X4325121Y-13495753D03*
X-4325121Y-13495753D03*
D18*
X-4325121Y-17675585D03*
X4325121Y-17675585D03*
D19*
X3350013Y-12727401D03*
X2549911Y-12727401D03*
X1249936Y-12727401D03*
X249936Y-12727401D03*
X-249936Y-12727401D03*
X-1249682Y-12727401D03*
X-2550165Y-12727401D03*
X-3350013Y-12727401D03*
X-3050038Y-12727401D03*
X-2249936Y-12727401D03*
X-1750064Y-12727401D03*
X-750064Y-12727401D03*
X750064Y-12727401D03*
X1750064Y-12727401D03*
X2249936Y-12727401D03*
X3050038Y-12727401D03*
%TD*%
D20*
%TO.C,U2*%
X8117417Y-13726085D03*
X7445666Y-13054334D03*
X6773915Y-12382583D03*
X8382583Y-10773915D03*
X9054334Y-11445666D03*
X9726085Y-12117417D03*
%TD*%
D21*
%TO.C,SW1*%
X-11065088Y-3750000D03*
X-15434912Y-3750000D03*
%TD*%
D22*
%TO.C,R2*%
X12087500Y-1500000D03*
X13912500Y-1500000D03*
%TD*%
%TO.C,R1*%
X10337500Y6500000D03*
X12162500Y6500000D03*
%TD*%
D23*
%TO.C,U1*%
X8750064Y9769115D03*
X8750064Y8499112D03*
X8750064Y7229110D03*
X8750064Y5959107D03*
X8750064Y4689105D03*
X8750064Y3419102D03*
X8750064Y2149100D03*
X8750064Y879097D03*
X8750064Y-390906D03*
X8750064Y-1660908D03*
X8750064Y-2930911D03*
X8750064Y-4200913D03*
X8750064Y-5470916D03*
X8750064Y-6740918D03*
D24*
X6985014Y-8020827D03*
X5715011Y-8020827D03*
X4445009Y-8020827D03*
X3175006Y-8020827D03*
X1905004Y-8020827D03*
X635001Y-8020827D03*
X-635001Y-8020827D03*
X-1905004Y-8020827D03*
X-3175006Y-8020827D03*
X-4445009Y-8020827D03*
X-5715011Y-8020827D03*
X-6985014Y-7990855D03*
D23*
X-8750064Y-6740918D03*
X-8750064Y-5470916D03*
X-8750064Y-4200913D03*
X-8750064Y-2930911D03*
X-8750064Y-1660908D03*
X-8750064Y-390906D03*
X-8750064Y879097D03*
X-8750064Y2149100D03*
X-8750064Y3419102D03*
X-8750064Y4689105D03*
X-8750064Y5959107D03*
X-8750064Y7229110D03*
X-8750064Y8499112D03*
X-8750064Y9769115D03*
D25*
X2900178Y648973D03*
X2900178Y2049023D03*
X2900178Y3449074D03*
X1500127Y648973D03*
X1500127Y2049023D03*
X1500127Y3449074D03*
X100076Y648973D03*
X100076Y2049023D03*
X100076Y3449074D03*
%TD*%
D13*
%TO.C,R5*%
X12000000Y-5337500D03*
X12000000Y-7162500D03*
%TD*%
D26*
%TO.C,U3*%
X14137500Y3449999D03*
X14137500Y2500000D03*
X14137500Y1550001D03*
X11862500Y1550001D03*
X11862500Y3449999D03*
%TD*%
D27*
%TO.C,C2*%
X13775000Y0D03*
X12225000Y0D03*
%TD*%
D28*
%TO.C,Q1*%
X-13700000Y9187500D03*
X-11800000Y9187500D03*
X-12750000Y7312499D03*
%TD*%
D29*
%TO.C,R4*%
X13912500Y-3000000D03*
X12087500Y-3000000D03*
%TD*%
D30*
%TO.C,R7*%
X-3325000Y-11000000D03*
X-1675000Y-11000000D03*
%TD*%
D31*
%TO.C,C3*%
X12174999Y4940927D03*
X13724999Y4940927D03*
%TD*%
M02*
