%TF.GenerationSoftware,KiCad,Pcbnew,9.0.5-9.0.5~ubuntu25.04.1*%
%TF.CreationDate,2025-10-27T18:11:11+01:00*%
%TF.ProjectId,BladeMaster,426c6164-654d-4617-9374-65722e6b6963,rev?*%
%TF.SameCoordinates,Original*%
%TF.FileFunction,Legend,Bot*%
%TF.FilePolarity,Positive*%
%FSLAX46Y46*%
G04 Gerber Fmt 4.6, Leading zero omitted, Abs format (unit mm)*
G04 Created by KiCad (PCBNEW 9.0.5-9.0.5~ubuntu25.04.1) date 2025-10-27 18:11:11*
%MOMM*%
%LPD*%
G01*
G04 APERTURE LIST*
G04 Aperture macros list*
%AMRoundRect*
0 Rectangle with rounded corners*
0 $1 Rounding radius*
0 $2 $3 $4 $5 $6 $7 $8 $9 X,Y pos of 4 corners*
0 Add a 4 corners polygon primitive as box body*
4,1,4,$2,$3,$4,$5,$6,$7,$8,$9,$2,$3,0*
0 Add four circle primitives for the rounded corners*
1,1,$1+$1,$2,$3*
1,1,$1+$1,$4,$5*
1,1,$1+$1,$6,$7*
1,1,$1+$1,$8,$9*
0 Add four rect primitives between the rounded corners*
20,1,$1+$1,$2,$3,$4,$5,0*
20,1,$1+$1,$4,$5,$6,$7,0*
20,1,$1+$1,$6,$7,$8,$9,0*
20,1,$1+$1,$8,$9,$2,$3,0*%
G04 Aperture macros list end*
%ADD10C,0.125000*%
%ADD11C,0.100000*%
%ADD12C,0.150000*%
%ADD13C,0.120000*%
%ADD14C,0.254001*%
%ADD15C,0.059995*%
%ADD16C,0.152400*%
%ADD17C,0.000000*%
%ADD18RoundRect,0.225000X-0.250000X0.225000X-0.250000X-0.225000X0.250000X-0.225000X0.250000X0.225000X0*%
%ADD19RoundRect,0.218750X0.256250X-0.218750X0.256250X0.218750X-0.256250X0.218750X-0.256250X-0.218750X0*%
%ADD20RoundRect,0.200000X-0.275000X0.200000X-0.275000X-0.200000X0.275000X-0.200000X0.275000X0.200000X0*%
%ADD21RoundRect,0.237500X-0.237500X0.250000X-0.237500X-0.250000X0.237500X-0.250000X0.237500X0.250000X0*%
%ADD22RoundRect,0.237500X0.300000X0.237500X-0.300000X0.237500X-0.300000X-0.237500X0.300000X-0.237500X0*%
%ADD23RoundRect,0.200000X0.200000X0.275000X-0.200000X0.275000X-0.200000X-0.275000X0.200000X-0.275000X0*%
%ADD24C,0.750013*%
%ADD25O,1.200000X2.000000*%
%ADD26O,1.200000X1.800000*%
%ADD27R,0.300000X1.300000*%
%ADD28RoundRect,0.150000X-0.256326X-0.468458X0.468458X0.256326X0.256326X0.468458X-0.468458X-0.256326X0*%
%ADD29R,1.229997X1.359995*%
%ADD30RoundRect,0.237500X-0.250000X-0.237500X0.250000X-0.237500X0.250000X0.237500X-0.250000X0.237500X0*%
%ADD31R,1.500000X0.900000*%
%ADD32R,0.900000X1.500000*%
%ADD33R,0.900000X0.900000*%
%ADD34RoundRect,0.150000X0.512500X0.150000X-0.512500X0.150000X-0.512500X-0.150000X0.512500X-0.150000X0*%
%ADD35RoundRect,0.225000X0.225000X0.250000X-0.225000X0.250000X-0.225000X-0.250000X0.225000X-0.250000X0*%
%ADD36RoundRect,0.150000X-0.150000X0.587500X-0.150000X-0.587500X0.150000X-0.587500X0.150000X0.587500X0*%
%ADD37RoundRect,0.237500X0.250000X0.237500X-0.250000X0.237500X-0.250000X-0.237500X0.250000X-0.237500X0*%
%ADD38RoundRect,0.200000X-0.200000X-0.275000X0.200000X-0.275000X0.200000X0.275000X-0.200000X0.275000X0*%
%ADD39RoundRect,0.225000X-0.225000X-0.250000X0.225000X-0.250000X0.225000X0.250000X-0.225000X0.250000X0*%
G04 APERTURE END LIST*
D10*
G36*
X12603279Y12455270D02*
G01*
X10827486Y12455270D01*
X10827486Y13438405D01*
X10938597Y13438405D01*
X10938597Y13343167D01*
X10940551Y13333342D01*
X10941804Y13323403D01*
X10989423Y13180546D01*
X10990974Y13177826D01*
X10990974Y13176393D01*
X10996538Y13168065D01*
X11001501Y13159360D01*
X11002782Y13158720D01*
X11004522Y13156116D01*
X11469256Y12691381D01*
X11001097Y12691381D01*
X10977179Y12686623D01*
X10943355Y12652799D01*
X10943355Y12604963D01*
X10977179Y12571139D01*
X11001097Y12566381D01*
X11620144Y12566381D01*
X11644062Y12571139D01*
X11677886Y12604963D01*
X11677886Y12652799D01*
X11677883Y12652802D01*
X11664338Y12673075D01*
X11184723Y13152691D01*
X11938597Y13152691D01*
X11938597Y12628881D01*
X11943355Y12604963D01*
X11977179Y12571139D01*
X12025015Y12571139D01*
X12058839Y12604963D01*
X12063597Y12628881D01*
X12063597Y13137936D01*
X12095301Y13201344D01*
X12158709Y13233048D01*
X12272056Y13233048D01*
X12345028Y13196562D01*
X12367168Y13174422D01*
X12367168Y12628881D01*
X12371926Y12604963D01*
X12405750Y12571139D01*
X12453586Y12571139D01*
X12487410Y12604963D01*
X12492168Y12628881D01*
X12492168Y13628881D01*
X12487410Y13652799D01*
X12453586Y13686623D01*
X12405750Y13686623D01*
X12371926Y13652799D01*
X12367168Y13628881D01*
X12367168Y13325247D01*
X12314762Y13351450D01*
X12311742Y13352277D01*
X12310729Y13353290D01*
X12300901Y13355245D01*
X12291241Y13357890D01*
X12289882Y13357438D01*
X12286811Y13358048D01*
X12143954Y13358048D01*
X12140882Y13357438D01*
X12139524Y13357890D01*
X12129863Y13355245D01*
X12120036Y13353290D01*
X12119022Y13352277D01*
X12116003Y13351450D01*
X12020765Y13303831D01*
X12010934Y13296201D01*
X12007766Y13295145D01*
X12005027Y13291618D01*
X12001500Y13288879D01*
X12000444Y13285711D01*
X11992814Y13275880D01*
X11945195Y13180642D01*
X11944368Y13177623D01*
X11943355Y13176609D01*
X11941400Y13166782D01*
X11938755Y13157121D01*
X11939207Y13155763D01*
X11938597Y13152691D01*
X11184723Y13152691D01*
X11103343Y13234071D01*
X11063597Y13353311D01*
X11063597Y13423650D01*
X11100083Y13496622D01*
X11133356Y13529895D01*
X11206328Y13566381D01*
X11414913Y13566381D01*
X11487885Y13529895D01*
X11528331Y13489449D01*
X11548608Y13475901D01*
X11596442Y13475901D01*
X11630267Y13509726D01*
X11630267Y13557560D01*
X11616719Y13577837D01*
X11569100Y13625456D01*
X11560778Y13631017D01*
X11552857Y13637164D01*
X11457619Y13684783D01*
X11454599Y13685610D01*
X11453586Y13686623D01*
X11443758Y13688578D01*
X11434098Y13691223D01*
X11432739Y13690771D01*
X11429668Y13691381D01*
X11191573Y13691381D01*
X11188501Y13690771D01*
X11187143Y13691223D01*
X11177482Y13688578D01*
X11167655Y13686623D01*
X11166641Y13685610D01*
X11163622Y13684783D01*
X11068384Y13637164D01*
X11060462Y13631017D01*
X11052141Y13625456D01*
X11004522Y13577837D01*
X10998961Y13569516D01*
X10992814Y13561594D01*
X10945195Y13466356D01*
X10944368Y13463337D01*
X10943355Y13462323D01*
X10941400Y13452496D01*
X10938755Y13442835D01*
X10939207Y13441477D01*
X10938597Y13438405D01*
X10827486Y13438405D01*
X10827486Y13802492D01*
X12603279Y13802492D01*
X12603279Y12455270D01*
G37*
D11*
X3910401Y9627581D02*
X3910401Y8913296D01*
X3910401Y8913296D02*
X3958020Y8770439D01*
X3958020Y8770439D02*
X4053258Y8675200D01*
X4053258Y8675200D02*
X4196115Y8627581D01*
X4196115Y8627581D02*
X4291353Y8627581D01*
X2958020Y8627581D02*
X3434210Y8627581D01*
X3434210Y8627581D02*
X3434210Y9627581D01*
X2053258Y8722820D02*
X2100877Y8675200D01*
X2100877Y8675200D02*
X2243734Y8627581D01*
X2243734Y8627581D02*
X2338972Y8627581D01*
X2338972Y8627581D02*
X2481829Y8675200D01*
X2481829Y8675200D02*
X2577067Y8770439D01*
X2577067Y8770439D02*
X2624686Y8865677D01*
X2624686Y8865677D02*
X2672305Y9056153D01*
X2672305Y9056153D02*
X2672305Y9199010D01*
X2672305Y9199010D02*
X2624686Y9389486D01*
X2624686Y9389486D02*
X2577067Y9484724D01*
X2577067Y9484724D02*
X2481829Y9579962D01*
X2481829Y9579962D02*
X2338972Y9627581D01*
X2338972Y9627581D02*
X2243734Y9627581D01*
X2243734Y9627581D02*
X2100877Y9579962D01*
X2100877Y9579962D02*
X2053258Y9532343D01*
X1338972Y9627581D02*
X1338972Y8913296D01*
X1338972Y8913296D02*
X1386591Y8770439D01*
X1386591Y8770439D02*
X1481829Y8675200D01*
X1481829Y8675200D02*
X1624686Y8627581D01*
X1624686Y8627581D02*
X1719924Y8627581D01*
X386591Y8627581D02*
X862781Y8627581D01*
X862781Y8627581D02*
X862781Y9627581D01*
X-518171Y8722820D02*
X-470552Y8675200D01*
X-470552Y8675200D02*
X-327695Y8627581D01*
X-327695Y8627581D02*
X-232457Y8627581D01*
X-232457Y8627581D02*
X-89600Y8675200D01*
X-89600Y8675200D02*
X5638Y8770439D01*
X5638Y8770439D02*
X53257Y8865677D01*
X53257Y8865677D02*
X100876Y9056153D01*
X100876Y9056153D02*
X100876Y9199010D01*
X100876Y9199010D02*
X53257Y9389486D01*
X53257Y9389486D02*
X5638Y9484724D01*
X5638Y9484724D02*
X-89600Y9579962D01*
X-89600Y9579962D02*
X-232457Y9627581D01*
X-232457Y9627581D02*
X-327695Y9627581D01*
X-327695Y9627581D02*
X-470552Y9579962D01*
X-470552Y9579962D02*
X-518171Y9532343D01*
X-1232457Y9627581D02*
X-1232457Y8913296D01*
X-1232457Y8913296D02*
X-1184838Y8770439D01*
X-1184838Y8770439D02*
X-1089600Y8675200D01*
X-1089600Y8675200D02*
X-946743Y8627581D01*
X-946743Y8627581D02*
X-851505Y8627581D01*
X-2184838Y8627581D02*
X-1708648Y8627581D01*
X-1708648Y8627581D02*
X-1708648Y9627581D01*
X-3089600Y8722820D02*
X-3041981Y8675200D01*
X-3041981Y8675200D02*
X-2899124Y8627581D01*
X-2899124Y8627581D02*
X-2803886Y8627581D01*
X-2803886Y8627581D02*
X-2661029Y8675200D01*
X-2661029Y8675200D02*
X-2565791Y8770439D01*
X-2565791Y8770439D02*
X-2518172Y8865677D01*
X-2518172Y8865677D02*
X-2470553Y9056153D01*
X-2470553Y9056153D02*
X-2470553Y9199010D01*
X-2470553Y9199010D02*
X-2518172Y9389486D01*
X-2518172Y9389486D02*
X-2565791Y9484724D01*
X-2565791Y9484724D02*
X-2661029Y9579962D01*
X-2661029Y9579962D02*
X-2803886Y9627581D01*
X-2803886Y9627581D02*
X-2899124Y9627581D01*
X-2899124Y9627581D02*
X-3041981Y9579962D01*
X-3041981Y9579962D02*
X-3089600Y9532343D01*
X-3803886Y9627581D02*
X-3803886Y8913296D01*
X-3803886Y8913296D02*
X-3756267Y8770439D01*
X-3756267Y8770439D02*
X-3661029Y8675200D01*
X-3661029Y8675200D02*
X-3518172Y8627581D01*
X-3518172Y8627581D02*
X-3422934Y8627581D01*
X-4756267Y8627581D02*
X-4280077Y8627581D01*
X-4280077Y8627581D02*
X-4280077Y9627581D01*
X-5661029Y8722820D02*
X-5613410Y8675200D01*
X-5613410Y8675200D02*
X-5470553Y8627581D01*
X-5470553Y8627581D02*
X-5375315Y8627581D01*
X-5375315Y8627581D02*
X-5232458Y8675200D01*
X-5232458Y8675200D02*
X-5137220Y8770439D01*
X-5137220Y8770439D02*
X-5089601Y8865677D01*
X-5089601Y8865677D02*
X-5041982Y9056153D01*
X-5041982Y9056153D02*
X-5041982Y9199010D01*
X-5041982Y9199010D02*
X-5089601Y9389486D01*
X-5089601Y9389486D02*
X-5137220Y9484724D01*
X-5137220Y9484724D02*
X-5232458Y9579962D01*
X-5232458Y9579962D02*
X-5375315Y9627581D01*
X-5375315Y9627581D02*
X-5470553Y9627581D01*
X-5470553Y9627581D02*
X-5613410Y9579962D01*
X-5613410Y9579962D02*
X-5661029Y9532343D01*
G36*
X-11842202Y-6580000D02*
G01*
X-12202216Y-6580000D01*
X-12277268Y-6574582D01*
X-12340587Y-6559328D01*
X-12394160Y-6535223D01*
X-12439559Y-6502513D01*
X-12477075Y-6460944D01*
X-12504028Y-6412519D01*
X-12520790Y-6355881D01*
X-12526693Y-6289106D01*
X-12526159Y-6283977D01*
X-12392115Y-6283977D01*
X-12385799Y-6343028D01*
X-12368491Y-6388122D01*
X-12341170Y-6422576D01*
X-12302775Y-6448220D01*
X-12250395Y-6465082D01*
X-12179685Y-6471372D01*
X-11969941Y-6471372D01*
X-11969941Y-6110259D01*
X-12170770Y-6110259D01*
X-12246246Y-6116413D01*
X-12301405Y-6132753D01*
X-12341088Y-6157208D01*
X-12368727Y-6189396D01*
X-12385915Y-6230694D01*
X-12392115Y-6283977D01*
X-12526159Y-6283977D01*
X-12520210Y-6226878D01*
X-12501980Y-6176145D01*
X-12472611Y-6134404D01*
X-12431056Y-6100172D01*
X-12374754Y-6073189D01*
X-12299913Y-6054450D01*
X-12299913Y-6047611D01*
X-12358347Y-6033774D01*
X-12406074Y-6010288D01*
X-12445055Y-5977330D01*
X-12474590Y-5935936D01*
X-12492496Y-5888107D01*
X-12497784Y-5840493D01*
X-12368240Y-5840493D01*
X-12362038Y-5895814D01*
X-12345373Y-5935744D01*
X-12319392Y-5964263D01*
X-12284603Y-5983435D01*
X-12234488Y-5996590D01*
X-12163992Y-6001632D01*
X-11969941Y-6001632D01*
X-11969941Y-5688208D01*
X-12150315Y-5688208D01*
X-12225724Y-5693029D01*
X-12279146Y-5705544D01*
X-12315972Y-5723562D01*
X-12344140Y-5751018D01*
X-12361768Y-5788805D01*
X-12368240Y-5840493D01*
X-12497784Y-5840493D01*
X-12498727Y-5832006D01*
X-12492737Y-5766319D01*
X-12476161Y-5714026D01*
X-12450117Y-5672319D01*
X-12414341Y-5639298D01*
X-12371819Y-5615731D01*
X-12314891Y-5596977D01*
X-12239950Y-5584305D01*
X-12142804Y-5579581D01*
X-11842202Y-5579581D01*
X-11842202Y-6580000D01*
G37*
G36*
X-12935610Y-5570161D02*
G01*
X-12871313Y-5587749D01*
X-12816388Y-5615871D01*
X-12769276Y-5654694D01*
X-12729099Y-5705376D01*
X-12695743Y-5769966D01*
X-12669864Y-5851260D01*
X-12652827Y-5952662D01*
X-12646616Y-6078080D01*
X-12652833Y-6204605D01*
X-12669879Y-6306835D01*
X-12695757Y-6388721D01*
X-12729081Y-6453711D01*
X-12769175Y-6504644D01*
X-12816131Y-6543608D01*
X-12870808Y-6571799D01*
X-12934748Y-6589414D01*
X-13010049Y-6595631D01*
X-13078502Y-6589914D01*
X-13138213Y-6573518D01*
X-13190754Y-6546962D01*
X-13237286Y-6509931D01*
X-13278472Y-6461297D01*
X-13310041Y-6407877D01*
X-13335910Y-6344638D01*
X-13355583Y-6270040D01*
X-13368237Y-6182297D01*
X-13372750Y-6079424D01*
X-13372733Y-6079118D01*
X-13238172Y-6079118D01*
X-13233839Y-6186186D01*
X-13222155Y-6270114D01*
X-13204830Y-6334925D01*
X-13183156Y-6384178D01*
X-13151354Y-6428063D01*
X-13112874Y-6458461D01*
X-13066542Y-6477035D01*
X-13010049Y-6483585D01*
X-12960158Y-6478171D01*
X-12917777Y-6462657D01*
X-12881214Y-6437129D01*
X-12849507Y-6400347D01*
X-12822547Y-6349897D01*
X-12801075Y-6282405D01*
X-12786584Y-6193736D01*
X-12781194Y-6079118D01*
X-12786595Y-5965080D01*
X-12801121Y-5876802D01*
X-12822659Y-5809551D01*
X-12849724Y-5759225D01*
X-12881591Y-5722486D01*
X-12918384Y-5696954D01*
X-12961084Y-5681420D01*
X-13011393Y-5675996D01*
X-13066571Y-5682394D01*
X-13112213Y-5700600D01*
X-13150481Y-5730484D01*
X-13182485Y-5773693D01*
X-13204338Y-5822135D01*
X-13221876Y-5886575D01*
X-13233752Y-5970803D01*
X-13238172Y-6079118D01*
X-13372733Y-6079118D01*
X-13365852Y-5953224D01*
X-13346818Y-5849996D01*
X-13317628Y-5765986D01*
X-13279510Y-5697978D01*
X-13238750Y-5649533D01*
X-13192486Y-5612603D01*
X-13140037Y-5586081D01*
X-13080210Y-5569678D01*
X-13011393Y-5563949D01*
X-12935610Y-5570161D01*
G37*
G36*
X-13774829Y-5570161D02*
G01*
X-13710531Y-5587749D01*
X-13655607Y-5615871D01*
X-13608495Y-5654694D01*
X-13568318Y-5705376D01*
X-13534962Y-5769966D01*
X-13509082Y-5851260D01*
X-13492045Y-5952662D01*
X-13485834Y-6078080D01*
X-13492051Y-6204605D01*
X-13509098Y-6306835D01*
X-13534975Y-6388721D01*
X-13568299Y-6453711D01*
X-13608393Y-6504644D01*
X-13655350Y-6543608D01*
X-13710026Y-6571799D01*
X-13773966Y-6589414D01*
X-13849268Y-6595631D01*
X-13917721Y-6589914D01*
X-13977432Y-6573518D01*
X-14029972Y-6546962D01*
X-14076504Y-6509931D01*
X-14117691Y-6461297D01*
X-14149260Y-6407877D01*
X-14175128Y-6344638D01*
X-14194802Y-6270040D01*
X-14207456Y-6182297D01*
X-14211968Y-6079424D01*
X-14211951Y-6079118D01*
X-14077391Y-6079118D01*
X-14073057Y-6186186D01*
X-14061374Y-6270114D01*
X-14044049Y-6334925D01*
X-14022375Y-6384178D01*
X-13990572Y-6428063D01*
X-13952092Y-6458461D01*
X-13905760Y-6477035D01*
X-13849268Y-6483585D01*
X-13799376Y-6478171D01*
X-13756995Y-6462657D01*
X-13720432Y-6437129D01*
X-13688726Y-6400347D01*
X-13661765Y-6349897D01*
X-13640293Y-6282405D01*
X-13625802Y-6193736D01*
X-13620412Y-6079118D01*
X-13625813Y-5965080D01*
X-13640339Y-5876802D01*
X-13661877Y-5809551D01*
X-13688943Y-5759225D01*
X-13720809Y-5722486D01*
X-13757603Y-5696954D01*
X-13800302Y-5681420D01*
X-13850611Y-5675996D01*
X-13905790Y-5682394D01*
X-13951432Y-5700600D01*
X-13989700Y-5730484D01*
X-14021703Y-5773693D01*
X-14043557Y-5822135D01*
X-14061095Y-5886575D01*
X-14072970Y-5970803D01*
X-14077391Y-6079118D01*
X-14211951Y-6079118D01*
X-14205071Y-5953224D01*
X-14186036Y-5849996D01*
X-14156847Y-5765986D01*
X-14118729Y-5697978D01*
X-14077968Y-5649533D01*
X-14031704Y-5612603D01*
X-13979256Y-5586081D01*
X-13919429Y-5569678D01*
X-13850611Y-5563949D01*
X-13774829Y-5570161D01*
G37*
G36*
X-14750646Y-6580000D02*
G01*
X-14622907Y-6580000D01*
X-14622907Y-5691627D01*
X-14337326Y-5691627D01*
X-14337326Y-5579581D01*
X-15035494Y-5579581D01*
X-15035494Y-5691627D01*
X-14750646Y-5691627D01*
X-14750646Y-6580000D01*
G37*
D12*
X12319486Y10066667D02*
X12367106Y10114286D01*
X12367106Y10114286D02*
X12414725Y10257143D01*
X12414725Y10257143D02*
X12414725Y10352381D01*
X12414725Y10352381D02*
X12367106Y10495238D01*
X12367106Y10495238D02*
X12271867Y10590476D01*
X12271867Y10590476D02*
X12176629Y10638095D01*
X12176629Y10638095D02*
X11986153Y10685714D01*
X11986153Y10685714D02*
X11843296Y10685714D01*
X11843296Y10685714D02*
X11652820Y10638095D01*
X11652820Y10638095D02*
X11557582Y10590476D01*
X11557582Y10590476D02*
X11462344Y10495238D01*
X11462344Y10495238D02*
X11414725Y10352381D01*
X11414725Y10352381D02*
X11414725Y10257143D01*
X11414725Y10257143D02*
X11462344Y10114286D01*
X11462344Y10114286D02*
X11509963Y10066667D01*
X12414725Y9114286D02*
X12414725Y9685714D01*
X12414725Y9400000D02*
X11414725Y9400000D01*
X11414725Y9400000D02*
X11557582Y9495238D01*
X11557582Y9495238D02*
X11652820Y9590476D01*
X11652820Y9590476D02*
X11700439Y9685714D01*
X-12688431Y3218095D02*
X-13688431Y3218095D01*
X-13688431Y3218095D02*
X-13688431Y2980000D01*
X-13688431Y2980000D02*
X-13640812Y2837143D01*
X-13640812Y2837143D02*
X-13545574Y2741905D01*
X-13545574Y2741905D02*
X-13450336Y2694286D01*
X-13450336Y2694286D02*
X-13259860Y2646667D01*
X-13259860Y2646667D02*
X-13117003Y2646667D01*
X-13117003Y2646667D02*
X-12926527Y2694286D01*
X-12926527Y2694286D02*
X-12831289Y2741905D01*
X-12831289Y2741905D02*
X-12736050Y2837143D01*
X-12736050Y2837143D02*
X-12688431Y2980000D01*
X-12688431Y2980000D02*
X-12688431Y3218095D01*
X-12688431Y1694286D02*
X-12688431Y2265714D01*
X-12688431Y1980000D02*
X-13688431Y1980000D01*
X-13688431Y1980000D02*
X-13545574Y2075238D01*
X-13545574Y2075238D02*
X-13450336Y2170476D01*
X-13450336Y2170476D02*
X-13402717Y2265714D01*
X-12445181Y6066667D02*
X-12921372Y6400000D01*
X-12445181Y6638095D02*
X-13445181Y6638095D01*
X-13445181Y6638095D02*
X-13445181Y6257143D01*
X-13445181Y6257143D02*
X-13397562Y6161905D01*
X-13397562Y6161905D02*
X-13349943Y6114286D01*
X-13349943Y6114286D02*
X-13254705Y6066667D01*
X-13254705Y6066667D02*
X-13111848Y6066667D01*
X-13111848Y6066667D02*
X-13016610Y6114286D01*
X-13016610Y6114286D02*
X-12968991Y6161905D01*
X-12968991Y6161905D02*
X-12921372Y6257143D01*
X-12921372Y6257143D02*
X-12921372Y6638095D01*
X-12445181Y5590476D02*
X-12445181Y5400000D01*
X-12445181Y5400000D02*
X-12492800Y5304762D01*
X-12492800Y5304762D02*
X-12540420Y5257143D01*
X-12540420Y5257143D02*
X-12683277Y5161905D01*
X-12683277Y5161905D02*
X-12873753Y5114286D01*
X-12873753Y5114286D02*
X-13254705Y5114286D01*
X-13254705Y5114286D02*
X-13349943Y5161905D01*
X-13349943Y5161905D02*
X-13397562Y5209524D01*
X-13397562Y5209524D02*
X-13445181Y5304762D01*
X-13445181Y5304762D02*
X-13445181Y5495238D01*
X-13445181Y5495238D02*
X-13397562Y5590476D01*
X-13397562Y5590476D02*
X-13349943Y5638095D01*
X-13349943Y5638095D02*
X-13254705Y5685714D01*
X-13254705Y5685714D02*
X-13016610Y5685714D01*
X-13016610Y5685714D02*
X-12921372Y5638095D01*
X-12921372Y5638095D02*
X-12873753Y5590476D01*
X-12873753Y5590476D02*
X-12826134Y5495238D01*
X-12826134Y5495238D02*
X-12826134Y5304762D01*
X-12826134Y5304762D02*
X-12873753Y5209524D01*
X-12873753Y5209524D02*
X-12921372Y5161905D01*
X-12921372Y5161905D02*
X-13016610Y5114286D01*
X12354819Y-8115260D02*
X11878628Y-7781927D01*
X12354819Y-7543832D02*
X11354819Y-7543832D01*
X11354819Y-7543832D02*
X11354819Y-7924784D01*
X11354819Y-7924784D02*
X11402438Y-8020022D01*
X11402438Y-8020022D02*
X11450057Y-8067641D01*
X11450057Y-8067641D02*
X11545295Y-8115260D01*
X11545295Y-8115260D02*
X11688152Y-8115260D01*
X11688152Y-8115260D02*
X11783390Y-8067641D01*
X11783390Y-8067641D02*
X11831009Y-8020022D01*
X11831009Y-8020022D02*
X11878628Y-7924784D01*
X11878628Y-7924784D02*
X11878628Y-7543832D01*
X11354819Y-8972403D02*
X11354819Y-8781927D01*
X11354819Y-8781927D02*
X11402438Y-8686689D01*
X11402438Y-8686689D02*
X11450057Y-8639070D01*
X11450057Y-8639070D02*
X11592914Y-8543832D01*
X11592914Y-8543832D02*
X11783390Y-8496213D01*
X11783390Y-8496213D02*
X12164342Y-8496213D01*
X12164342Y-8496213D02*
X12259580Y-8543832D01*
X12259580Y-8543832D02*
X12307200Y-8591451D01*
X12307200Y-8591451D02*
X12354819Y-8686689D01*
X12354819Y-8686689D02*
X12354819Y-8877165D01*
X12354819Y-8877165D02*
X12307200Y-8972403D01*
X12307200Y-8972403D02*
X12259580Y-9020022D01*
X12259580Y-9020022D02*
X12164342Y-9067641D01*
X12164342Y-9067641D02*
X11926247Y-9067641D01*
X11926247Y-9067641D02*
X11831009Y-9020022D01*
X11831009Y-9020022D02*
X11783390Y-8972403D01*
X11783390Y-8972403D02*
X11735771Y-8877165D01*
X11735771Y-8877165D02*
X11735771Y-8686689D01*
X11735771Y-8686689D02*
X11783390Y-8591451D01*
X11783390Y-8591451D02*
X11831009Y-8543832D01*
X11831009Y-8543832D02*
X11926247Y-8496213D01*
X-5333334Y-11859580D02*
X-5285715Y-11907200D01*
X-5285715Y-11907200D02*
X-5142858Y-11954819D01*
X-5142858Y-11954819D02*
X-5047620Y-11954819D01*
X-5047620Y-11954819D02*
X-4904763Y-11907200D01*
X-4904763Y-11907200D02*
X-4809525Y-11811961D01*
X-4809525Y-11811961D02*
X-4761906Y-11716723D01*
X-4761906Y-11716723D02*
X-4714287Y-11526247D01*
X-4714287Y-11526247D02*
X-4714287Y-11383390D01*
X-4714287Y-11383390D02*
X-4761906Y-11192914D01*
X-4761906Y-11192914D02*
X-4809525Y-11097676D01*
X-4809525Y-11097676D02*
X-4904763Y-11002438D01*
X-4904763Y-11002438D02*
X-5047620Y-10954819D01*
X-5047620Y-10954819D02*
X-5142858Y-10954819D01*
X-5142858Y-10954819D02*
X-5285715Y-11002438D01*
X-5285715Y-11002438D02*
X-5333334Y-11050057D01*
X-6190477Y-11288152D02*
X-6190477Y-11954819D01*
X-5952382Y-10907200D02*
X-5714287Y-11621485D01*
X-5714287Y-11621485D02*
X-6333334Y-11621485D01*
X-14945181Y6154277D02*
X-15421372Y6487610D01*
X-14945181Y6725705D02*
X-15945181Y6725705D01*
X-15945181Y6725705D02*
X-15945181Y6344753D01*
X-15945181Y6344753D02*
X-15897562Y6249515D01*
X-15897562Y6249515D02*
X-15849943Y6201896D01*
X-15849943Y6201896D02*
X-15754705Y6154277D01*
X-15754705Y6154277D02*
X-15611848Y6154277D01*
X-15611848Y6154277D02*
X-15516610Y6201896D01*
X-15516610Y6201896D02*
X-15468991Y6249515D01*
X-15468991Y6249515D02*
X-15421372Y6344753D01*
X-15421372Y6344753D02*
X-15421372Y6725705D01*
X-14945181Y5201896D02*
X-14945181Y5773324D01*
X-14945181Y5487610D02*
X-15945181Y5487610D01*
X-15945181Y5487610D02*
X-15802324Y5582848D01*
X-15802324Y5582848D02*
X-15707086Y5678086D01*
X-15707086Y5678086D02*
X-15659467Y5773324D01*
X-15945181Y4582848D02*
X-15945181Y4487610D01*
X-15945181Y4487610D02*
X-15897562Y4392372D01*
X-15897562Y4392372D02*
X-15849943Y4344753D01*
X-15849943Y4344753D02*
X-15754705Y4297134D01*
X-15754705Y4297134D02*
X-15564229Y4249515D01*
X-15564229Y4249515D02*
X-15326134Y4249515D01*
X-15326134Y4249515D02*
X-15135658Y4297134D01*
X-15135658Y4297134D02*
X-15040420Y4344753D01*
X-15040420Y4344753D02*
X-14992800Y4392372D01*
X-14992800Y4392372D02*
X-14945181Y4487610D01*
X-14945181Y4487610D02*
X-14945181Y4582848D01*
X-14945181Y4582848D02*
X-14992800Y4678086D01*
X-14992800Y4678086D02*
X-15040420Y4725705D01*
X-15040420Y4725705D02*
X-15135658Y4773324D01*
X-15135658Y4773324D02*
X-15326134Y4820943D01*
X-15326134Y4820943D02*
X-15564229Y4820943D01*
X-15564229Y4820943D02*
X-15754705Y4773324D01*
X-15754705Y4773324D02*
X-15849943Y4725705D01*
X-15849943Y4725705D02*
X-15897562Y4678086D01*
X-15897562Y4678086D02*
X-15945181Y4582848D01*
X5022856Y-11454819D02*
X5356189Y-10978628D01*
X5594284Y-11454819D02*
X5594284Y-10454819D01*
X5594284Y-10454819D02*
X5213332Y-10454819D01*
X5213332Y-10454819D02*
X5118094Y-10502438D01*
X5118094Y-10502438D02*
X5070475Y-10550057D01*
X5070475Y-10550057D02*
X5022856Y-10645295D01*
X5022856Y-10645295D02*
X5022856Y-10788152D01*
X5022856Y-10788152D02*
X5070475Y-10883390D01*
X5070475Y-10883390D02*
X5118094Y-10931009D01*
X5118094Y-10931009D02*
X5213332Y-10978628D01*
X5213332Y-10978628D02*
X5594284Y-10978628D01*
X4451427Y-10883390D02*
X4546665Y-10835771D01*
X4546665Y-10835771D02*
X4594284Y-10788152D01*
X4594284Y-10788152D02*
X4641903Y-10692914D01*
X4641903Y-10692914D02*
X4641903Y-10645295D01*
X4641903Y-10645295D02*
X4594284Y-10550057D01*
X4594284Y-10550057D02*
X4546665Y-10502438D01*
X4546665Y-10502438D02*
X4451427Y-10454819D01*
X4451427Y-10454819D02*
X4260951Y-10454819D01*
X4260951Y-10454819D02*
X4165713Y-10502438D01*
X4165713Y-10502438D02*
X4118094Y-10550057D01*
X4118094Y-10550057D02*
X4070475Y-10645295D01*
X4070475Y-10645295D02*
X4070475Y-10692914D01*
X4070475Y-10692914D02*
X4118094Y-10788152D01*
X4118094Y-10788152D02*
X4165713Y-10835771D01*
X4165713Y-10835771D02*
X4260951Y-10883390D01*
X4260951Y-10883390D02*
X4451427Y-10883390D01*
X4451427Y-10883390D02*
X4546665Y-10931009D01*
X4546665Y-10931009D02*
X4594284Y-10978628D01*
X4594284Y-10978628D02*
X4641903Y-11073866D01*
X4641903Y-11073866D02*
X4641903Y-11264342D01*
X4641903Y-11264342D02*
X4594284Y-11359580D01*
X4594284Y-11359580D02*
X4546665Y-11407200D01*
X4546665Y-11407200D02*
X4451427Y-11454819D01*
X4451427Y-11454819D02*
X4260951Y-11454819D01*
X4260951Y-11454819D02*
X4165713Y-11407200D01*
X4165713Y-11407200D02*
X4118094Y-11359580D01*
X4118094Y-11359580D02*
X4070475Y-11264342D01*
X4070475Y-11264342D02*
X4070475Y-11073866D01*
X4070475Y-11073866D02*
X4118094Y-10978628D01*
X4118094Y-10978628D02*
X4165713Y-10931009D01*
X4165713Y-10931009D02*
X4260951Y-10883390D01*
X-12545181Y-333333D02*
X-13021372Y0D01*
X-12545181Y238095D02*
X-13545181Y238095D01*
X-13545181Y238095D02*
X-13545181Y-142857D01*
X-13545181Y-142857D02*
X-13497562Y-238095D01*
X-13497562Y-238095D02*
X-13449943Y-285714D01*
X-13449943Y-285714D02*
X-13354705Y-333333D01*
X-13354705Y-333333D02*
X-13211848Y-333333D01*
X-13211848Y-333333D02*
X-13116610Y-285714D01*
X-13116610Y-285714D02*
X-13068991Y-238095D01*
X-13068991Y-238095D02*
X-13021372Y-142857D01*
X-13021372Y-142857D02*
X-13021372Y238095D01*
X-13545181Y-666667D02*
X-13545181Y-1285714D01*
X-13545181Y-1285714D02*
X-13164229Y-952381D01*
X-13164229Y-952381D02*
X-13164229Y-1095238D01*
X-13164229Y-1095238D02*
X-13116610Y-1190476D01*
X-13116610Y-1190476D02*
X-13068991Y-1238095D01*
X-13068991Y-1238095D02*
X-12973753Y-1285714D01*
X-12973753Y-1285714D02*
X-12735658Y-1285714D01*
X-12735658Y-1285714D02*
X-12640420Y-1238095D01*
X-12640420Y-1238095D02*
X-12592800Y-1190476D01*
X-12592800Y-1190476D02*
X-12545181Y-1095238D01*
X-12545181Y-1095238D02*
X-12545181Y-809524D01*
X-12545181Y-809524D02*
X-12592800Y-714286D01*
X-12592800Y-714286D02*
X-12640420Y-666667D01*
X-5573931Y-15204819D02*
X-5573931Y-15919104D01*
X-5573931Y-15919104D02*
X-5526312Y-16061961D01*
X-5526312Y-16061961D02*
X-5431074Y-16157200D01*
X-5431074Y-16157200D02*
X-5288217Y-16204819D01*
X-5288217Y-16204819D02*
X-5192979Y-16204819D01*
X-5954884Y-15204819D02*
X-6573931Y-15204819D01*
X-6573931Y-15204819D02*
X-6240598Y-15585771D01*
X-6240598Y-15585771D02*
X-6383455Y-15585771D01*
X-6383455Y-15585771D02*
X-6478693Y-15633390D01*
X-6478693Y-15633390D02*
X-6526312Y-15681009D01*
X-6526312Y-15681009D02*
X-6573931Y-15776247D01*
X-6573931Y-15776247D02*
X-6573931Y-16014342D01*
X-6573931Y-16014342D02*
X-6526312Y-16109580D01*
X-6526312Y-16109580D02*
X-6478693Y-16157200D01*
X-6478693Y-16157200D02*
X-6383455Y-16204819D01*
X-6383455Y-16204819D02*
X-6097741Y-16204819D01*
X-6097741Y-16204819D02*
X-6002503Y-16157200D01*
X-6002503Y-16157200D02*
X-5954884Y-16109580D01*
X10053246Y-13275750D02*
X10625666Y-13848170D01*
X10625666Y-13848170D02*
X10659338Y-13949185D01*
X10659338Y-13949185D02*
X10659338Y-14016529D01*
X10659338Y-14016529D02*
X10625666Y-14117544D01*
X10625666Y-14117544D02*
X10490979Y-14252231D01*
X10490979Y-14252231D02*
X10389964Y-14285903D01*
X10389964Y-14285903D02*
X10322620Y-14285903D01*
X10322620Y-14285903D02*
X10221605Y-14252231D01*
X10221605Y-14252231D02*
X9649185Y-13679811D01*
X9413483Y-14050201D02*
X9346140Y-14050201D01*
X9346140Y-14050201D02*
X9245124Y-14083872D01*
X9245124Y-14083872D02*
X9076766Y-14252231D01*
X9076766Y-14252231D02*
X9043094Y-14353246D01*
X9043094Y-14353246D02*
X9043094Y-14420590D01*
X9043094Y-14420590D02*
X9076766Y-14521605D01*
X9076766Y-14521605D02*
X9144109Y-14588949D01*
X9144109Y-14588949D02*
X9278796Y-14656292D01*
X9278796Y-14656292D02*
X10086918Y-14656292D01*
X10086918Y-14656292D02*
X9649185Y-15094025D01*
X15766666Y-1854819D02*
X16099999Y-1378628D01*
X16338094Y-1854819D02*
X16338094Y-854819D01*
X16338094Y-854819D02*
X15957142Y-854819D01*
X15957142Y-854819D02*
X15861904Y-902438D01*
X15861904Y-902438D02*
X15814285Y-950057D01*
X15814285Y-950057D02*
X15766666Y-1045295D01*
X15766666Y-1045295D02*
X15766666Y-1188152D01*
X15766666Y-1188152D02*
X15814285Y-1283390D01*
X15814285Y-1283390D02*
X15861904Y-1331009D01*
X15861904Y-1331009D02*
X15957142Y-1378628D01*
X15957142Y-1378628D02*
X16338094Y-1378628D01*
X15385713Y-950057D02*
X15338094Y-902438D01*
X15338094Y-902438D02*
X15242856Y-854819D01*
X15242856Y-854819D02*
X15004761Y-854819D01*
X15004761Y-854819D02*
X14909523Y-902438D01*
X14909523Y-902438D02*
X14861904Y-950057D01*
X14861904Y-950057D02*
X14814285Y-1045295D01*
X14814285Y-1045295D02*
X14814285Y-1140533D01*
X14814285Y-1140533D02*
X14861904Y-1283390D01*
X14861904Y-1283390D02*
X15433332Y-1854819D01*
X15433332Y-1854819D02*
X14814285Y-1854819D01*
X12166666Y7345181D02*
X12499999Y7821372D01*
X12738094Y7345181D02*
X12738094Y8345181D01*
X12738094Y8345181D02*
X12357142Y8345181D01*
X12357142Y8345181D02*
X12261904Y8297562D01*
X12261904Y8297562D02*
X12214285Y8249943D01*
X12214285Y8249943D02*
X12166666Y8154705D01*
X12166666Y8154705D02*
X12166666Y8011848D01*
X12166666Y8011848D02*
X12214285Y7916610D01*
X12214285Y7916610D02*
X12261904Y7868991D01*
X12261904Y7868991D02*
X12357142Y7821372D01*
X12357142Y7821372D02*
X12738094Y7821372D01*
X11214285Y7345181D02*
X11785713Y7345181D01*
X11499999Y7345181D02*
X11499999Y8345181D01*
X11499999Y8345181D02*
X11595237Y8202324D01*
X11595237Y8202324D02*
X11690475Y8107086D01*
X11690475Y8107086D02*
X11785713Y8059467D01*
X-9738096Y-7654819D02*
X-9738096Y-8464342D01*
X-9738096Y-8464342D02*
X-9785715Y-8559580D01*
X-9785715Y-8559580D02*
X-9833334Y-8607200D01*
X-9833334Y-8607200D02*
X-9928572Y-8654819D01*
X-9928572Y-8654819D02*
X-10119048Y-8654819D01*
X-10119048Y-8654819D02*
X-10214286Y-8607200D01*
X-10214286Y-8607200D02*
X-10261905Y-8559580D01*
X-10261905Y-8559580D02*
X-10309524Y-8464342D01*
X-10309524Y-8464342D02*
X-10309524Y-7654819D01*
X-11309524Y-8654819D02*
X-10738096Y-8654819D01*
X-11023810Y-8654819D02*
X-11023810Y-7654819D01*
X-11023810Y-7654819D02*
X-10928572Y-7797676D01*
X-10928572Y-7797676D02*
X-10833334Y-7892914D01*
X-10833334Y-7892914D02*
X-10738096Y-7940533D01*
X14004819Y-6133333D02*
X13528628Y-5800000D01*
X14004819Y-5561905D02*
X13004819Y-5561905D01*
X13004819Y-5561905D02*
X13004819Y-5942857D01*
X13004819Y-5942857D02*
X13052438Y-6038095D01*
X13052438Y-6038095D02*
X13100057Y-6085714D01*
X13100057Y-6085714D02*
X13195295Y-6133333D01*
X13195295Y-6133333D02*
X13338152Y-6133333D01*
X13338152Y-6133333D02*
X13433390Y-6085714D01*
X13433390Y-6085714D02*
X13481009Y-6038095D01*
X13481009Y-6038095D02*
X13528628Y-5942857D01*
X13528628Y-5942857D02*
X13528628Y-5561905D01*
X13004819Y-7038095D02*
X13004819Y-6561905D01*
X13004819Y-6561905D02*
X13481009Y-6514286D01*
X13481009Y-6514286D02*
X13433390Y-6561905D01*
X13433390Y-6561905D02*
X13385771Y-6657143D01*
X13385771Y-6657143D02*
X13385771Y-6895238D01*
X13385771Y-6895238D02*
X13433390Y-6990476D01*
X13433390Y-6990476D02*
X13481009Y-7038095D01*
X13481009Y-7038095D02*
X13576247Y-7085714D01*
X13576247Y-7085714D02*
X13814342Y-7085714D01*
X13814342Y-7085714D02*
X13909580Y-7038095D01*
X13909580Y-7038095D02*
X13957200Y-6990476D01*
X13957200Y-6990476D02*
X14004819Y-6895238D01*
X14004819Y-6895238D02*
X14004819Y-6657143D01*
X14004819Y-6657143D02*
X13957200Y-6561905D01*
X13957200Y-6561905D02*
X13909580Y-6514286D01*
X10065930Y3261905D02*
X10875453Y3261905D01*
X10875453Y3261905D02*
X10970691Y3214286D01*
X10970691Y3214286D02*
X11018311Y3166667D01*
X11018311Y3166667D02*
X11065930Y3071429D01*
X11065930Y3071429D02*
X11065930Y2880953D01*
X11065930Y2880953D02*
X11018311Y2785715D01*
X11018311Y2785715D02*
X10970691Y2738096D01*
X10970691Y2738096D02*
X10875453Y2690477D01*
X10875453Y2690477D02*
X10065930Y2690477D01*
X10065930Y2309524D02*
X10065930Y1690477D01*
X10065930Y1690477D02*
X10446882Y2023810D01*
X10446882Y2023810D02*
X10446882Y1880953D01*
X10446882Y1880953D02*
X10494501Y1785715D01*
X10494501Y1785715D02*
X10542120Y1738096D01*
X10542120Y1738096D02*
X10637358Y1690477D01*
X10637358Y1690477D02*
X10875453Y1690477D01*
X10875453Y1690477D02*
X10970691Y1738096D01*
X10970691Y1738096D02*
X11018311Y1785715D01*
X11018311Y1785715D02*
X11065930Y1880953D01*
X11065930Y1880953D02*
X11065930Y2166667D01*
X11065930Y2166667D02*
X11018311Y2261905D01*
X11018311Y2261905D02*
X10970691Y2309524D01*
X10777777Y-359580D02*
X10825396Y-407200D01*
X10825396Y-407200D02*
X10968253Y-454819D01*
X10968253Y-454819D02*
X11063491Y-454819D01*
X11063491Y-454819D02*
X11206348Y-407200D01*
X11206348Y-407200D02*
X11301586Y-311961D01*
X11301586Y-311961D02*
X11349205Y-216723D01*
X11349205Y-216723D02*
X11396824Y-26247D01*
X11396824Y-26247D02*
X11396824Y116610D01*
X11396824Y116610D02*
X11349205Y307086D01*
X11349205Y307086D02*
X11301586Y402324D01*
X11301586Y402324D02*
X11206348Y497562D01*
X11206348Y497562D02*
X11063491Y545181D01*
X11063491Y545181D02*
X10968253Y545181D01*
X10968253Y545181D02*
X10825396Y497562D01*
X10825396Y497562D02*
X10777777Y449943D01*
X10396824Y449943D02*
X10349205Y497562D01*
X10349205Y497562D02*
X10253967Y545181D01*
X10253967Y545181D02*
X10015872Y545181D01*
X10015872Y545181D02*
X9920634Y497562D01*
X9920634Y497562D02*
X9873015Y449943D01*
X9873015Y449943D02*
X9825396Y354705D01*
X9825396Y354705D02*
X9825396Y259467D01*
X9825396Y259467D02*
X9873015Y116610D01*
X9873015Y116610D02*
X10444443Y-454819D01*
X10444443Y-454819D02*
X9825396Y-454819D01*
X-14749943Y8495239D02*
X-14797562Y8590477D01*
X-14797562Y8590477D02*
X-14892800Y8685715D01*
X-14892800Y8685715D02*
X-15035658Y8828572D01*
X-15035658Y8828572D02*
X-15083277Y8923810D01*
X-15083277Y8923810D02*
X-15083277Y9019048D01*
X-14845181Y8971429D02*
X-14892800Y9066667D01*
X-14892800Y9066667D02*
X-14988039Y9161905D01*
X-14988039Y9161905D02*
X-15178515Y9209524D01*
X-15178515Y9209524D02*
X-15511848Y9209524D01*
X-15511848Y9209524D02*
X-15702324Y9161905D01*
X-15702324Y9161905D02*
X-15797562Y9066667D01*
X-15797562Y9066667D02*
X-15845181Y8971429D01*
X-15845181Y8971429D02*
X-15845181Y8780953D01*
X-15845181Y8780953D02*
X-15797562Y8685715D01*
X-15797562Y8685715D02*
X-15702324Y8590477D01*
X-15702324Y8590477D02*
X-15511848Y8542858D01*
X-15511848Y8542858D02*
X-15178515Y8542858D01*
X-15178515Y8542858D02*
X-14988039Y8590477D01*
X-14988039Y8590477D02*
X-14892800Y8685715D01*
X-14892800Y8685715D02*
X-14845181Y8780953D01*
X-14845181Y8780953D02*
X-14845181Y8971429D01*
X-14845181Y7590477D02*
X-14845181Y8161905D01*
X-14845181Y7876191D02*
X-15845181Y7876191D01*
X-15845181Y7876191D02*
X-15702324Y7971429D01*
X-15702324Y7971429D02*
X-15607086Y8066667D01*
X-15607086Y8066667D02*
X-15559467Y8161905D01*
X15766666Y-3604819D02*
X16099999Y-3128628D01*
X16338094Y-3604819D02*
X16338094Y-2604819D01*
X16338094Y-2604819D02*
X15957142Y-2604819D01*
X15957142Y-2604819D02*
X15861904Y-2652438D01*
X15861904Y-2652438D02*
X15814285Y-2700057D01*
X15814285Y-2700057D02*
X15766666Y-2795295D01*
X15766666Y-2795295D02*
X15766666Y-2938152D01*
X15766666Y-2938152D02*
X15814285Y-3033390D01*
X15814285Y-3033390D02*
X15861904Y-3081009D01*
X15861904Y-3081009D02*
X15957142Y-3128628D01*
X15957142Y-3128628D02*
X16338094Y-3128628D01*
X14909523Y-2938152D02*
X14909523Y-3604819D01*
X15147618Y-2557200D02*
X15385713Y-3271485D01*
X15385713Y-3271485D02*
X14766666Y-3271485D01*
X-2333334Y-10254819D02*
X-2000001Y-9778628D01*
X-1761906Y-10254819D02*
X-1761906Y-9254819D01*
X-1761906Y-9254819D02*
X-2142858Y-9254819D01*
X-2142858Y-9254819D02*
X-2238096Y-9302438D01*
X-2238096Y-9302438D02*
X-2285715Y-9350057D01*
X-2285715Y-9350057D02*
X-2333334Y-9445295D01*
X-2333334Y-9445295D02*
X-2333334Y-9588152D01*
X-2333334Y-9588152D02*
X-2285715Y-9683390D01*
X-2285715Y-9683390D02*
X-2238096Y-9731009D01*
X-2238096Y-9731009D02*
X-2142858Y-9778628D01*
X-2142858Y-9778628D02*
X-1761906Y-9778628D01*
X-2666668Y-9254819D02*
X-3333334Y-9254819D01*
X-3333334Y-9254819D02*
X-2904763Y-10254819D01*
X13778636Y6028450D02*
X13826255Y5980830D01*
X13826255Y5980830D02*
X13969112Y5933211D01*
X13969112Y5933211D02*
X14064350Y5933211D01*
X14064350Y5933211D02*
X14207207Y5980830D01*
X14207207Y5980830D02*
X14302445Y6076069D01*
X14302445Y6076069D02*
X14350064Y6171307D01*
X14350064Y6171307D02*
X14397683Y6361783D01*
X14397683Y6361783D02*
X14397683Y6504640D01*
X14397683Y6504640D02*
X14350064Y6695116D01*
X14350064Y6695116D02*
X14302445Y6790354D01*
X14302445Y6790354D02*
X14207207Y6885592D01*
X14207207Y6885592D02*
X14064350Y6933211D01*
X14064350Y6933211D02*
X13969112Y6933211D01*
X13969112Y6933211D02*
X13826255Y6885592D01*
X13826255Y6885592D02*
X13778636Y6837973D01*
X13445302Y6933211D02*
X12826255Y6933211D01*
X12826255Y6933211D02*
X13159588Y6552259D01*
X13159588Y6552259D02*
X13016731Y6552259D01*
X13016731Y6552259D02*
X12921493Y6504640D01*
X12921493Y6504640D02*
X12873874Y6457021D01*
X12873874Y6457021D02*
X12826255Y6361783D01*
X12826255Y6361783D02*
X12826255Y6123688D01*
X12826255Y6123688D02*
X12873874Y6028450D01*
X12873874Y6028450D02*
X12921493Y5980830D01*
X12921493Y5980830D02*
X13016731Y5933211D01*
X13016731Y5933211D02*
X13302445Y5933211D01*
X13302445Y5933211D02*
X13397683Y5980830D01*
X13397683Y5980830D02*
X13445302Y6028450D01*
D13*
%TO.C,C1*%
X9990000Y9390580D02*
X9990000Y9109420D01*
X11010000Y9390580D02*
X11010000Y9109420D01*
%TO.C,D1*%
X-12235000Y1015000D02*
X-12235000Y3300000D01*
X-10765000Y3300000D02*
X-10765000Y1015000D01*
X-10765000Y1015000D02*
X-12235000Y1015000D01*
%TO.C,R9*%
X-11960000Y5937258D02*
X-11960000Y5462742D01*
X-10915000Y5937258D02*
X-10915000Y5462742D01*
%TO.C,R6*%
X9977500Y-7495276D02*
X9977500Y-8004724D01*
X11022500Y-7495276D02*
X11022500Y-8004724D01*
%TO.C,C4*%
X-5603733Y-9490000D02*
X-5896267Y-9490000D01*
X-5603733Y-10510000D02*
X-5896267Y-10510000D01*
%TO.C,R10*%
X-14710000Y5937258D02*
X-14710000Y5462742D01*
X-13665000Y5937258D02*
X-13665000Y5462742D01*
%TO.C,R8*%
X2487258Y-10477500D02*
X2012742Y-10477500D01*
X2487258Y-11522500D02*
X2012742Y-11522500D01*
%TO.C,R3*%
X-12022500Y-262742D02*
X-12022500Y-737258D01*
X-10977500Y-262742D02*
X-10977500Y-737258D01*
D14*
%TO.C,J3*%
X-4471019Y-16577566D02*
X-4471019Y-14713939D01*
X-4471019Y-20295600D02*
X-4471019Y-18813939D01*
X-4471019Y-20295600D02*
X4468987Y-20295600D01*
X4468987Y-16577211D02*
X4468987Y-14714295D01*
X4468987Y-20295600D02*
X4468987Y-18814295D01*
D15*
X4504953Y-12445461D02*
G75*
G02*
X4445009Y-12445461I-29972J0D01*
G01*
X4445009Y-12445461D02*
G75*
G02*
X4504953Y-12445461I29972J0D01*
G01*
D13*
%TO.C,U2*%
X7146913Y-11146913D02*
X6581228Y-11712599D01*
X7146913Y-11146913D02*
X7712599Y-10581228D01*
X9353087Y-13353087D02*
X8787401Y-13918772D01*
X9353087Y-13353087D02*
X9918772Y-12787401D01*
X8801543Y-14300610D02*
X8462132Y-14640021D01*
X8398492Y-14236970D01*
X8801543Y-14300610D01*
G36*
X8801543Y-14300610D02*
G01*
X8462132Y-14640021D01*
X8398492Y-14236970D01*
X8801543Y-14300610D01*
G37*
D16*
%TO.C,SW1*%
X-15276213Y-2208801D02*
X-11223787Y-2208801D01*
X-15276213Y-5291199D02*
X-11223787Y-5291199D01*
X-11223787Y-2208801D02*
X-11223788Y-2866789D01*
X-11223787Y-5291199D02*
X-11223788Y-4633211D01*
D15*
X-15720155Y-2284925D02*
G75*
G02*
X-15780099Y-2284925I-29972J0D01*
G01*
X-15780099Y-2284925D02*
G75*
G02*
X-15720155Y-2284925I29972J0D01*
G01*
D14*
X-12349975Y-3749975D02*
G75*
G02*
X-14149975Y-3749975I-900000J0D01*
G01*
X-14149975Y-3749975D02*
G75*
G02*
X-12349975Y-3749975I900000J0D01*
G01*
D13*
%TO.C,R2*%
X12745276Y-977500D02*
X13254724Y-977500D01*
X12745276Y-2022500D02*
X13254724Y-2022500D01*
%TO.C,R1*%
X10995276Y7022500D02*
X11504724Y7022500D01*
X10995276Y5977500D02*
X11504724Y5977500D01*
D14*
%TO.C,U1*%
X-9017018Y10450268D02*
X-9017018Y17257126D01*
X-9017018Y-8269925D02*
X-9017018Y-7422071D01*
X-9000025Y17269140D02*
X9000025Y17269140D01*
X-7666167Y-8269925D02*
X-9017018Y-8269925D01*
X-7297181Y16114124D02*
X-5061976Y16114124D01*
X-7297181Y11229516D02*
X-7297181Y16114124D01*
X-5265177Y16114124D02*
X-2413005Y16114124D01*
X-5265177Y11229516D02*
X-5265177Y16114124D01*
X-2413005Y16114124D02*
X-2413005Y13955119D01*
X-2413005Y13955119D02*
X127000Y13955119D01*
X127000Y16114124D02*
X2667005Y16114124D01*
X127000Y13955119D02*
X127000Y16114124D01*
X2667005Y16114124D02*
X2667005Y13955119D01*
X2667005Y13955119D02*
X4953010Y13955119D01*
X4953010Y16114124D02*
X7239014Y16114124D01*
X4953010Y13955119D02*
X4953010Y16114124D01*
X7239014Y16114124D02*
X7239014Y12431116D01*
X9000025Y17269140D02*
X9000025Y10450268D01*
X9000025Y11229516D02*
X-9017018Y11229516D01*
X9000025Y-7422071D02*
X9000025Y-8269925D01*
X9000025Y-8269925D02*
X7666167Y-8269925D01*
D15*
X9029972Y17268988D02*
G75*
G02*
X8970028Y17268988I-29972J0D01*
G01*
X8970028Y17268988D02*
G75*
G02*
X9029972Y17268988I29972J0D01*
G01*
D13*
%TO.C,R5*%
X11477500Y-5995276D02*
X11477500Y-6504724D01*
X12522500Y-5995276D02*
X12522500Y-6504724D01*
%TO.C,U3*%
X13000000Y4060001D02*
X12200000Y4060000D01*
X13000000Y4060001D02*
X13800000Y4060000D01*
X13000000Y939999D02*
X12200000Y940000D01*
X13000000Y939999D02*
X13800000Y940000D01*
X14300000Y4010000D02*
X14060000Y4340000D01*
X14540000Y4340000D01*
X14300000Y4010000D01*
G36*
X14300000Y4010000D02*
G01*
X14060000Y4340000D01*
X14540000Y4340000D01*
X14300000Y4010000D01*
G37*
%TO.C,C2*%
X13140581Y510000D02*
X12859419Y510000D01*
X13140581Y-510000D02*
X12859419Y-510000D01*
D17*
%TO.C,G\u002A\u002A\u002A*%
G36*
X-9742398Y-13573240D02*
G01*
X-9724482Y-13617096D01*
X-9733264Y-13652958D01*
X-9765898Y-13705468D01*
X-9777988Y-13717039D01*
X-9818702Y-13737784D01*
X-9883939Y-13748307D01*
X-9986336Y-13751231D01*
X-10073229Y-13748158D01*
X-10157040Y-13737152D01*
X-10204183Y-13719950D01*
X-10241635Y-13678855D01*
X-10258968Y-13621456D01*
X-10235530Y-13574435D01*
X-10232284Y-13571811D01*
X-10195840Y-13558717D01*
X-10153717Y-13585117D01*
X-10100582Y-13611913D01*
X-10022976Y-13625905D01*
X-9939932Y-13626019D01*
X-9869298Y-13612278D01*
X-9828922Y-13584705D01*
X-9821422Y-13574086D01*
X-9781857Y-13556687D01*
X-9742398Y-13573240D01*
G37*
G36*
X-10654123Y-13236191D02*
G01*
X-10644915Y-13320139D01*
X-10671485Y-13429557D01*
X-10738934Y-13519753D01*
X-10790377Y-13552872D01*
X-10885633Y-13573864D01*
X-10982962Y-13557634D01*
X-11067705Y-13507681D01*
X-11125200Y-13427508D01*
X-11137321Y-13391372D01*
X-11143628Y-13287363D01*
X-11119907Y-13213802D01*
X-10898339Y-13213802D01*
X-10885317Y-13269507D01*
X-10855991Y-13302738D01*
X-10799448Y-13319306D01*
X-10741017Y-13287738D01*
X-10712383Y-13254931D01*
X-10704322Y-13215992D01*
X-10733378Y-13165214D01*
X-10778367Y-13133228D01*
X-10830885Y-13136067D01*
X-10875535Y-13166123D01*
X-10898339Y-13213802D01*
X-11119907Y-13213802D01*
X-11112831Y-13191860D01*
X-11052012Y-13115057D01*
X-10968254Y-13067144D01*
X-10868639Y-13058313D01*
X-10783679Y-13080602D01*
X-10701450Y-13140659D01*
X-10664130Y-13215992D01*
X-10654123Y-13236191D01*
G37*
G36*
X-8860077Y-13274290D02*
G01*
X-8856404Y-13371961D01*
X-8887995Y-13464249D01*
X-8957736Y-13539518D01*
X-8980442Y-13552448D01*
X-9068132Y-13573579D01*
X-9164897Y-13567725D01*
X-9246090Y-13535251D01*
X-9254493Y-13529132D01*
X-9322671Y-13452236D01*
X-9353557Y-13361635D01*
X-9350805Y-13267553D01*
X-9330383Y-13213065D01*
X-9111843Y-13213065D01*
X-9098867Y-13275763D01*
X-9073952Y-13305752D01*
X-9027917Y-13325812D01*
X-8978787Y-13313768D01*
X-8936438Y-13270666D01*
X-8925606Y-13212276D01*
X-8953724Y-13155645D01*
X-8990517Y-13131588D01*
X-9045217Y-13130673D01*
X-9089809Y-13161267D01*
X-9111843Y-13213065D01*
X-9330383Y-13213065D01*
X-9318070Y-13180213D01*
X-9259007Y-13109836D01*
X-9177268Y-13066647D01*
X-9076510Y-13060866D01*
X-9053810Y-13065308D01*
X-8961667Y-13109330D01*
X-8896127Y-13182868D01*
X-8884531Y-13212276D01*
X-8860077Y-13274290D01*
G37*
G36*
X-8546222Y-10608727D02*
G01*
X-8442473Y-10700597D01*
X-8349429Y-10795320D01*
X-8260830Y-10896906D01*
X-8194940Y-10990500D01*
X-8142178Y-11088479D01*
X-8135784Y-11102027D01*
X-8100898Y-11180612D01*
X-8078809Y-11246948D01*
X-8066619Y-11316606D01*
X-8061430Y-11405158D01*
X-8060344Y-11528173D01*
X-8060440Y-11590610D01*
X-8062247Y-11690813D01*
X-8068462Y-11759920D01*
X-8081790Y-11810766D01*
X-8104934Y-11856184D01*
X-8110855Y-11864953D01*
X-8140601Y-11909007D01*
X-8160086Y-11937638D01*
X-8179483Y-11966141D01*
X-8202862Y-12012923D01*
X-8203240Y-12049587D01*
X-8184548Y-12092558D01*
X-8178924Y-12106039D01*
X-8171188Y-12138008D01*
X-8164813Y-12186592D01*
X-8159678Y-12255970D01*
X-8155661Y-12350322D01*
X-8152641Y-12473827D01*
X-8150495Y-12630663D01*
X-8149101Y-12825010D01*
X-8148339Y-13061046D01*
X-8148085Y-13342952D01*
X-8148095Y-13350435D01*
X-8148441Y-13604508D01*
X-8149946Y-13886214D01*
X-8152612Y-14122428D01*
X-8156418Y-14312242D01*
X-8161346Y-14454745D01*
X-8167377Y-14549028D01*
X-8174490Y-14594183D01*
X-8198783Y-14642554D01*
X-8266138Y-14731375D01*
X-8350976Y-14812239D01*
X-8435714Y-14866797D01*
X-8450551Y-14871672D01*
X-8486676Y-14878054D01*
X-8542673Y-14883494D01*
X-8621895Y-14888060D01*
X-8727695Y-14891822D01*
X-8863425Y-14894849D01*
X-9032439Y-14897210D01*
X-9238089Y-14898975D01*
X-9483729Y-14900213D01*
X-9772711Y-14900993D01*
X-10108389Y-14901385D01*
X-11705990Y-14902364D01*
X-11929228Y-14787066D01*
X-11967513Y-14767718D01*
X-12034365Y-14735051D01*
X-12090002Y-14706216D01*
X-12135436Y-14676726D01*
X-12171678Y-14642089D01*
X-12199738Y-14597817D01*
X-12220628Y-14539419D01*
X-12235358Y-14462407D01*
X-12244939Y-14362292D01*
X-12250382Y-14234582D01*
X-12252698Y-14074790D01*
X-12252898Y-13878425D01*
X-12251991Y-13640999D01*
X-12250991Y-13358021D01*
X-12249988Y-12924782D01*
X-12052536Y-12924782D01*
X-12052140Y-13145534D01*
X-12051773Y-13411700D01*
X-12051773Y-14490816D01*
X-11838696Y-14596492D01*
X-11625619Y-14702167D01*
X-10093228Y-14701165D01*
X-9961237Y-14701085D01*
X-9654215Y-14700852D01*
X-9392059Y-14700324D01*
X-9171032Y-14699175D01*
X-8987398Y-14697081D01*
X-8837424Y-14693716D01*
X-8717373Y-14688755D01*
X-8623511Y-14681874D01*
X-8552101Y-14672747D01*
X-8499409Y-14661049D01*
X-8461699Y-14646456D01*
X-8435237Y-14628642D01*
X-8416286Y-14607283D01*
X-8401112Y-14582053D01*
X-8385979Y-14552628D01*
X-8379798Y-14538133D01*
X-8371677Y-14506857D01*
X-8365029Y-14460651D01*
X-8359715Y-14395125D01*
X-8355599Y-14305890D01*
X-8352541Y-14188556D01*
X-8350403Y-14038733D01*
X-8349047Y-13852032D01*
X-8348334Y-13624062D01*
X-8348128Y-13350435D01*
X-8348136Y-13313978D01*
X-8348823Y-13040087D01*
X-8350562Y-12798281D01*
X-8353289Y-12591553D01*
X-8356942Y-12422897D01*
X-8361458Y-12295305D01*
X-8366773Y-12211771D01*
X-8372826Y-12175289D01*
X-8375304Y-12171188D01*
X-8422235Y-12135563D01*
X-8498774Y-12112034D01*
X-8533229Y-12107043D01*
X-8588158Y-12108394D01*
X-8638877Y-12130882D01*
X-8705553Y-12181260D01*
X-8802030Y-12255088D01*
X-8901728Y-12317596D01*
X-9006912Y-12366382D01*
X-9124998Y-12403263D01*
X-9263399Y-12430059D01*
X-9429529Y-12448590D01*
X-9630801Y-12460675D01*
X-9874630Y-12468132D01*
X-10051871Y-12471305D01*
X-10223116Y-12472293D01*
X-10361370Y-12469972D01*
X-10475839Y-12464014D01*
X-10575727Y-12454093D01*
X-10670241Y-12439882D01*
X-10700696Y-12434317D01*
X-10926813Y-12373823D01*
X-11124303Y-12286091D01*
X-11284486Y-12174866D01*
X-11322656Y-12145388D01*
X-11404152Y-12108819D01*
X-11500053Y-12101832D01*
X-11618990Y-12124459D01*
X-11769594Y-12176733D01*
X-11825700Y-12197892D01*
X-11883113Y-12218790D01*
X-11929991Y-12238867D01*
X-11967391Y-12262749D01*
X-11996369Y-12295057D01*
X-12017982Y-12340415D01*
X-12033285Y-12403448D01*
X-12043336Y-12488777D01*
X-12049190Y-12601027D01*
X-12051905Y-12744821D01*
X-12052536Y-12924782D01*
X-12249988Y-12924782D01*
X-12248248Y-12173014D01*
X-12322641Y-12088284D01*
X-12340851Y-12066308D01*
X-12397202Y-11967664D01*
X-12407336Y-11915938D01*
X-11801527Y-11915938D01*
X-11800077Y-11952692D01*
X-11795270Y-11971820D01*
X-11771100Y-11962136D01*
X-11720197Y-11941965D01*
X-11672046Y-11911951D01*
X-11655552Y-11868128D01*
X-11600988Y-11868128D01*
X-11600957Y-11869315D01*
X-11576576Y-11891279D01*
X-11513743Y-11899408D01*
X-11477289Y-11898025D01*
X-11436809Y-11884685D01*
X-11426157Y-11851406D01*
X-11429509Y-11806330D01*
X-11454516Y-11751001D01*
X-11379779Y-11751001D01*
X-11374130Y-11781185D01*
X-11367267Y-11843085D01*
X-11367013Y-11847100D01*
X-11366571Y-11851406D01*
X-11363926Y-11877179D01*
X-11352530Y-11892740D01*
X-11322681Y-11894734D01*
X-11264234Y-11884108D01*
X-11167044Y-11861810D01*
X-11126208Y-11852959D01*
X-11086634Y-11846164D01*
X-9261527Y-11846164D01*
X-9182885Y-11916580D01*
X-9171770Y-11926813D01*
X-9109179Y-11992877D01*
X-9061140Y-12055812D01*
X-9058737Y-12059610D01*
X-9024957Y-12105629D01*
X-9002146Y-12124537D01*
X-8999553Y-12124330D01*
X-8958677Y-12106854D01*
X-8898959Y-12069445D01*
X-8837486Y-12023717D01*
X-8791346Y-11981280D01*
X-8773835Y-11960747D01*
X-8764647Y-11937638D01*
X-8788766Y-11922056D01*
X-8853907Y-11904538D01*
X-8903775Y-11893763D01*
X-9007056Y-11875968D01*
X-9111379Y-11862189D01*
X-9261527Y-11846164D01*
X-11086634Y-11846164D01*
X-10970388Y-11826204D01*
X-10781419Y-11801659D01*
X-10572096Y-11780510D01*
X-10355212Y-11763938D01*
X-10143563Y-11753127D01*
X-9949943Y-11749261D01*
X-9927379Y-11749365D01*
X-9784222Y-11753599D01*
X-9621218Y-11763249D01*
X-9448347Y-11777240D01*
X-9275587Y-11794498D01*
X-9112916Y-11813948D01*
X-8970314Y-11834514D01*
X-8857759Y-11855123D01*
X-8785230Y-11874699D01*
X-8752050Y-11885151D01*
X-8674841Y-11897929D01*
X-8600816Y-11898444D01*
X-8545220Y-11887263D01*
X-8523300Y-11864953D01*
X-8546237Y-11833743D01*
X-8610038Y-11795509D01*
X-8706412Y-11753165D01*
X-8827067Y-11709479D01*
X-8963710Y-11667220D01*
X-9108050Y-11629157D01*
X-9251794Y-11598057D01*
X-9386650Y-11576690D01*
X-9500105Y-11566101D01*
X-9646066Y-11557303D01*
X-9804546Y-11551343D01*
X-9956672Y-11549134D01*
X-9969796Y-11549149D01*
X-10160046Y-11552886D01*
X-10355802Y-11562612D01*
X-10550894Y-11577451D01*
X-10739153Y-11596529D01*
X-10914411Y-11618970D01*
X-11070500Y-11643900D01*
X-11201249Y-11670443D01*
X-11300492Y-11697724D01*
X-11362058Y-11724869D01*
X-11379779Y-11751001D01*
X-11454516Y-11751001D01*
X-11457352Y-11744726D01*
X-11513502Y-11724236D01*
X-11548452Y-11733291D01*
X-11586711Y-11782100D01*
X-11599148Y-11857041D01*
X-11600988Y-11868128D01*
X-11655552Y-11868128D01*
X-11651379Y-11857041D01*
X-11651497Y-11839682D01*
X-11657273Y-11807157D01*
X-11681580Y-11804860D01*
X-11737788Y-11828351D01*
X-11778563Y-11856622D01*
X-11801527Y-11915938D01*
X-12407336Y-11915938D01*
X-12418949Y-11856665D01*
X-12405693Y-11727759D01*
X-12357034Y-11575396D01*
X-12272571Y-11394027D01*
X-12182948Y-11240389D01*
X-11997745Y-10999410D01*
X-11770707Y-10779697D01*
X-11506431Y-10584529D01*
X-10667015Y-10584529D01*
X-10663147Y-10616131D01*
X-10623123Y-10660319D01*
X-10574061Y-10710734D01*
X-10535234Y-10762575D01*
X-10492851Y-10799260D01*
X-10405804Y-10818437D01*
X-10386011Y-10820526D01*
X-10316838Y-10837310D01*
X-10273909Y-10862230D01*
X-10269713Y-10866506D01*
X-10220611Y-10889181D01*
X-10151353Y-10898423D01*
X-10097085Y-10902019D01*
X-10054713Y-10924470D01*
X-10023038Y-10979734D01*
X-10018872Y-10988798D01*
X-9971816Y-11052771D01*
X-9920507Y-11070099D01*
X-9873780Y-11041388D01*
X-9840469Y-10967241D01*
X-9824537Y-10924379D01*
X-9792050Y-10903173D01*
X-9727070Y-10898423D01*
X-9713664Y-10898098D01*
X-9644305Y-10886198D01*
X-9600474Y-10862230D01*
X-9592960Y-10855252D01*
X-9540726Y-10831725D01*
X-9468579Y-10818437D01*
X-9388621Y-10802320D01*
X-9339149Y-10762575D01*
X-9303577Y-10714521D01*
X-9251260Y-10660319D01*
X-9239947Y-10649847D01*
X-9207377Y-10608727D01*
X-9211198Y-10579671D01*
X-9254753Y-10560999D01*
X-9341386Y-10551028D01*
X-9474439Y-10548078D01*
X-9721935Y-10548078D01*
X-9791027Y-10638663D01*
X-9813975Y-10666555D01*
X-9850816Y-10700362D01*
X-9869460Y-10701224D01*
X-9897226Y-10677599D01*
X-9946379Y-10676834D01*
X-9992419Y-10700901D01*
X-9999473Y-10706647D01*
X-10028265Y-10703410D01*
X-10065663Y-10657108D01*
X-10067702Y-10653929D01*
X-10106389Y-10599907D01*
X-10136811Y-10567230D01*
X-10151471Y-10562510D01*
X-10209433Y-10555399D01*
X-10298027Y-10550428D01*
X-10404927Y-10548462D01*
X-10429039Y-10548494D01*
X-10553226Y-10552384D01*
X-10631463Y-10563838D01*
X-10667015Y-10584529D01*
X-11506431Y-10584529D01*
X-11504924Y-10583416D01*
X-11419091Y-10534814D01*
X-10022889Y-10534814D01*
X-9994748Y-10593123D01*
X-9971365Y-10610870D01*
X-9915155Y-10620403D01*
X-9868851Y-10592586D01*
X-9849605Y-10534361D01*
X-9854657Y-10503337D01*
X-9888048Y-10455396D01*
X-9938409Y-10433945D01*
X-9988841Y-10449307D01*
X-10009528Y-10473255D01*
X-10022889Y-10534814D01*
X-11419091Y-10534814D01*
X-11203483Y-10412729D01*
X-10869476Y-10269800D01*
X-10505989Y-10156791D01*
X-10411565Y-10133504D01*
X-10325678Y-10116287D01*
X-10242122Y-10105825D01*
X-10147816Y-10101024D01*
X-10029679Y-10100791D01*
X-9874630Y-10104034D01*
X-9720636Y-10108799D01*
X-9603872Y-10115125D01*
X-9511863Y-10124812D01*
X-9431954Y-10139670D01*
X-9351493Y-10161503D01*
X-9257825Y-10192121D01*
X-9111911Y-10246830D01*
X-8873664Y-10363855D01*
X-8655332Y-10512109D01*
X-8630203Y-10534361D01*
X-8546222Y-10608727D01*
G37*
D13*
%TO.C,Q1*%
X-14310000Y9010000D02*
X-14310000Y7490000D01*
X-14310000Y7490000D02*
X-13310000Y7490000D01*
X-14260000Y9010000D02*
X-14310000Y9010000D01*
X-12360000Y9010000D02*
X-13140000Y9010000D01*
X-12190000Y7490000D02*
X-11190000Y7490000D01*
X-11190000Y9010000D02*
X-11240000Y9010000D01*
X-11190000Y7490000D02*
X-11190000Y9010000D01*
X-12800000Y9310000D02*
X-13130000Y9550000D01*
X-12800000Y9790000D01*
X-12800000Y9310000D01*
G36*
X-12800000Y9310000D02*
G01*
X-13130000Y9550000D01*
X-12800000Y9790000D01*
X-12800000Y9310000D01*
G37*
%TO.C,R4*%
X13254724Y-2477500D02*
X12745276Y-2477500D01*
X13254724Y-3522500D02*
X12745276Y-3522500D01*
%TO.C,R7*%
X-2737258Y-10477500D02*
X-2262742Y-10477500D01*
X-2737258Y-11522500D02*
X-2262742Y-11522500D01*
%TO.C,C3*%
X12809418Y5450927D02*
X13090580Y5450927D01*
X12809418Y4430927D02*
X13090580Y4430927D01*
%TD*%
%LPC*%
D18*
%TO.C,C1*%
X10500000Y10025000D03*
X10500000Y8475000D03*
%TD*%
D19*
%TO.C,D1*%
X-11500000Y1712499D03*
X-11500000Y3287501D03*
%TD*%
D20*
%TO.C,R9*%
X-11437500Y6525000D03*
X-11437500Y4875000D03*
%TD*%
D21*
%TO.C,R6*%
X10500000Y-6837500D03*
X10500000Y-8662500D03*
%TD*%
D22*
%TO.C,C4*%
X-4887499Y-10000000D03*
X-6612501Y-10000000D03*
%TD*%
D20*
%TO.C,R10*%
X-14187500Y6525000D03*
X-14187500Y4875000D03*
%TD*%
D23*
%TO.C,R8*%
X3075000Y-11000000D03*
X1425000Y-11000000D03*
%TD*%
D20*
%TO.C,R3*%
X-11500000Y325000D03*
X-11500000Y-1325000D03*
%TD*%
D24*
%TO.C,J3*%
X2899924Y-13995880D03*
X-2899924Y-13995880D03*
D25*
X4325121Y-13495753D03*
X-4325121Y-13495753D03*
D26*
X-4325121Y-17675585D03*
X4325121Y-17675585D03*
D27*
X3350013Y-12727401D03*
X2549911Y-12727401D03*
X1249936Y-12727401D03*
X249936Y-12727401D03*
X-249936Y-12727401D03*
X-1249682Y-12727401D03*
X-2550165Y-12727401D03*
X-3350013Y-12727401D03*
X-3050038Y-12727401D03*
X-2249936Y-12727401D03*
X-1750064Y-12727401D03*
X-750064Y-12727401D03*
X750064Y-12727401D03*
X1750064Y-12727401D03*
X2249936Y-12727401D03*
X3050038Y-12727401D03*
%TD*%
D28*
%TO.C,U2*%
X8117417Y-13726085D03*
X7445666Y-13054334D03*
X6773915Y-12382583D03*
X8382583Y-10773915D03*
X9054334Y-11445666D03*
X9726085Y-12117417D03*
%TD*%
D29*
%TO.C,SW1*%
X-11065088Y-3750000D03*
X-15434912Y-3750000D03*
%TD*%
D30*
%TO.C,R2*%
X12087500Y-1500000D03*
X13912500Y-1500000D03*
%TD*%
%TO.C,R1*%
X10337500Y6500000D03*
X12162500Y6500000D03*
%TD*%
D31*
%TO.C,U1*%
X8750064Y9769115D03*
X8750064Y8499112D03*
X8750064Y7229110D03*
X8750064Y5959107D03*
X8750064Y4689105D03*
X8750064Y3419102D03*
X8750064Y2149100D03*
X8750064Y879097D03*
X8750064Y-390906D03*
X8750064Y-1660908D03*
X8750064Y-2930911D03*
X8750064Y-4200913D03*
X8750064Y-5470916D03*
X8750064Y-6740918D03*
D32*
X6985014Y-8020827D03*
X5715011Y-8020827D03*
X4445009Y-8020827D03*
X3175006Y-8020827D03*
X1905004Y-8020827D03*
X635001Y-8020827D03*
X-635001Y-8020827D03*
X-1905004Y-8020827D03*
X-3175006Y-8020827D03*
X-4445009Y-8020827D03*
X-5715011Y-8020827D03*
X-6985014Y-7990855D03*
D31*
X-8750064Y-6740918D03*
X-8750064Y-5470916D03*
X-8750064Y-4200913D03*
X-8750064Y-2930911D03*
X-8750064Y-1660908D03*
X-8750064Y-390906D03*
X-8750064Y879097D03*
X-8750064Y2149100D03*
X-8750064Y3419102D03*
X-8750064Y4689105D03*
X-8750064Y5959107D03*
X-8750064Y7229110D03*
X-8750064Y8499112D03*
X-8750064Y9769115D03*
D33*
X2900178Y648973D03*
X2900178Y2049023D03*
X2900178Y3449074D03*
X1500127Y648973D03*
X1500127Y2049023D03*
X1500127Y3449074D03*
X100076Y648973D03*
X100076Y2049023D03*
X100076Y3449074D03*
%TD*%
D21*
%TO.C,R5*%
X12000000Y-5337500D03*
X12000000Y-7162500D03*
%TD*%
D34*
%TO.C,U3*%
X14137500Y3449999D03*
X14137500Y2500000D03*
X14137500Y1550001D03*
X11862500Y1550001D03*
X11862500Y3449999D03*
%TD*%
D35*
%TO.C,C2*%
X13775000Y0D03*
X12225000Y0D03*
%TD*%
D36*
%TO.C,Q1*%
X-13700000Y9187500D03*
X-11800000Y9187500D03*
X-12750000Y7312499D03*
%TD*%
D37*
%TO.C,R4*%
X13912500Y-3000000D03*
X12087500Y-3000000D03*
%TD*%
D38*
%TO.C,R7*%
X-3325000Y-11000000D03*
X-1675000Y-11000000D03*
%TD*%
D39*
%TO.C,C3*%
X12174999Y4940927D03*
X13724999Y4940927D03*
%TD*%
%LPD*%
M02*
