%TF.GenerationSoftware,KiCad,Pcbnew,9.0.5-9.0.5~ubuntu25.04.1*%
%TF.CreationDate,2025-10-27T18:11:10+01:00*%
%TF.ProjectId,BladeMaster,426c6164-654d-4617-9374-65722e6b6963,rev?*%
%TF.SameCoordinates,Original*%
%TF.FileFunction,Legend,Top*%
%TF.FilePolarity,Positive*%
%FSLAX46Y46*%
G04 Gerber Fmt 4.6, Leading zero omitted, Abs format (unit mm)*
G04 Created by KiCad (PCBNEW 9.0.5-9.0.5~ubuntu25.04.1) date 2025-10-27 18:11:10*
%MOMM*%
%LPD*%
G01*
G04 APERTURE LIST*
%ADD10C,0.100000*%
%ADD11C,0.400000*%
%ADD12C,0.125000*%
%ADD13C,0.160000*%
%ADD14C,0.200000*%
%ADD15C,0.000000*%
%ADD16C,2.500000*%
%ADD17C,0.750013*%
%ADD18O,1.200000X2.000000*%
%ADD19O,1.200000X1.800000*%
G04 APERTURE END LIST*
D10*
X1825792Y8868106D02*
G75*
G02*
X6402219Y6402219I-1825792J-8868106D01*
G01*
X3951028Y-3457149D02*
G75*
G02*
X0Y-5250000I-3951028J3457149D01*
G01*
X-5750000Y7000000D02*
G75*
G02*
X-1826741Y8872740I5750000J-7000000D01*
G01*
D11*
X-10795032Y6784523D02*
G75*
G02*
X9190354Y8837413I10795032J-6784523D01*
G01*
X9009954Y-9009954D02*
G75*
G02*
X0Y-12741999I-9009954J9009954D01*
G01*
D10*
X6370580Y-6370580D02*
G75*
G02*
X2007506Y-8782853I-6370580J6370580D01*
G01*
X-790028Y-2106741D02*
G75*
G02*
X0Y2250000I790028J2106741D01*
G01*
X-5000000Y1750000D02*
G75*
G02*
X-1226988Y5153348I5000000J-1750000D01*
G01*
X0Y-5250000D02*
G75*
G02*
X-3838040Y-3582171I0J5250000D01*
G01*
X1226985Y5153349D02*
G75*
G02*
X5000000Y1750000I-1226985J-5153349D01*
G01*
X-2116312Y-8747641D02*
G75*
G02*
X-9000000Y0I2116312J8747641D01*
G01*
X0Y2250000D02*
G75*
G02*
X790028Y-2106741I0J-2250000D01*
G01*
D11*
X0Y-12750000D02*
G75*
G02*
X-12750000Y0I0J12750000D01*
G01*
D12*
G36*
X-16440757Y2644828D02*
G01*
X-16440757Y3161158D01*
X-16587779Y3161158D01*
X-16587779Y3230572D01*
X-16440757Y3245129D01*
X-16440757Y3313468D01*
X-16438148Y3360625D01*
X-16431047Y3397438D01*
X-16420204Y3426015D01*
X-16404764Y3450521D01*
X-16385759Y3469836D01*
X-16362648Y3484242D01*
X-16323930Y3497040D01*
X-16276955Y3501632D01*
X-16241172Y3499825D01*
X-16212292Y3494891D01*
X-16164408Y3479211D01*
X-16181224Y3401932D01*
X-16223209Y3413705D01*
X-16272779Y3418736D01*
X-16301378Y3415621D01*
X-16323605Y3407130D01*
X-16340812Y3394068D01*
X-16353367Y3374975D01*
X-16361868Y3345106D01*
X-16365176Y3300034D01*
X-16365176Y3245129D01*
X-16195476Y3245129D01*
X-16195476Y3161158D01*
X-16365176Y3161158D01*
X-16365176Y2644828D01*
X-16440757Y2644828D01*
G37*
G36*
X-15850805Y3252429D02*
G01*
X-15815737Y3240966D01*
X-15783536Y3222170D01*
X-15754674Y3195891D01*
X-15729988Y3161877D01*
X-15709200Y3119148D01*
X-15694648Y3071835D01*
X-15685256Y3014131D01*
X-15681870Y2943879D01*
X-15685181Y2875101D01*
X-15694404Y2818068D01*
X-15708761Y2770809D01*
X-15729264Y2728012D01*
X-15753544Y2694011D01*
X-15781850Y2667787D01*
X-15813534Y2649052D01*
X-15848321Y2637590D01*
X-15886850Y2633642D01*
X-15925385Y2637580D01*
X-15960325Y2649034D01*
X-15992290Y2667787D01*
X-16020821Y2694086D01*
X-16045372Y2728440D01*
X-16066186Y2771932D01*
X-16080769Y2819955D01*
X-16090125Y2877742D01*
X-16093426Y2946126D01*
X-16018705Y2946126D01*
X-16014600Y2876310D01*
X-16003341Y2821084D01*
X-15985952Y2777501D01*
X-15967796Y2750623D01*
X-15945933Y2731490D01*
X-15919622Y2719589D01*
X-15887693Y2715366D01*
X-15855739Y2719608D01*
X-15829582Y2731531D01*
X-15808004Y2750657D01*
X-15790240Y2777501D01*
X-15773323Y2821000D01*
X-15762340Y2876226D01*
X-15758330Y2946126D01*
X-15762407Y3015951D01*
X-15773549Y3070724D01*
X-15790680Y3113531D01*
X-15808579Y3139866D01*
X-15830272Y3158675D01*
X-15856526Y3170415D01*
X-15888536Y3174591D01*
X-15920525Y3170417D01*
X-15946775Y3158679D01*
X-15968475Y3139870D01*
X-15986392Y3113531D01*
X-16003502Y3070727D01*
X-16014631Y3015955D01*
X-16018705Y2946126D01*
X-16093426Y2946126D01*
X-16093480Y2947250D01*
X-16090212Y3016036D01*
X-16081128Y3072841D01*
X-16067028Y3119685D01*
X-16046786Y3162121D01*
X-16022646Y3195956D01*
X-15994342Y3222170D01*
X-15962656Y3240933D01*
X-15927869Y3252411D01*
X-15889342Y3256364D01*
X-15850805Y3252429D01*
G37*
G36*
X-15584050Y2644828D02*
G01*
X-15584050Y2712044D01*
X-15447140Y2728848D01*
X-15447140Y3161158D01*
X-15570641Y3175715D01*
X-15570641Y3245129D01*
X-15386653Y3245129D01*
X-15376578Y3135366D01*
X-15373244Y3135366D01*
X-15347471Y3189510D01*
X-15321587Y3225540D01*
X-15301624Y3242164D01*
X-15277217Y3252623D01*
X-15247215Y3256364D01*
X-15219506Y3254578D01*
X-15196437Y3249623D01*
X-15155661Y3231695D01*
X-15175811Y3143230D01*
X-15207758Y3160572D01*
X-15226646Y3165992D01*
X-15247215Y3167850D01*
X-15270492Y3164452D01*
X-15291592Y3154451D01*
X-15311072Y3137613D01*
X-15335466Y3103016D01*
X-15354743Y3056964D01*
X-15366624Y3004758D01*
X-15370716Y2946126D01*
X-15370716Y2728848D01*
X-15239668Y2712044D01*
X-15239668Y2644828D01*
X-15584050Y2644828D01*
G37*
G36*
X-14291407Y2633642D02*
G01*
X-14337766Y2638041D01*
X-14377100Y2650446D01*
X-14400724Y2664637D01*
X-14420577Y2684295D01*
X-14437147Y2709797D01*
X-14448914Y2739630D01*
X-14456600Y2778076D01*
X-14459422Y2827376D01*
X-14459422Y3161158D01*
X-14582044Y3161158D01*
X-14582044Y3230572D01*
X-14459422Y3248499D01*
X-14444291Y3405303D01*
X-14383804Y3405303D01*
X-14383804Y3245129D01*
X-14208243Y3245129D01*
X-14208243Y3161158D01*
X-14383804Y3161158D01*
X-14383804Y2846427D01*
X-14380834Y2801803D01*
X-14372964Y2769604D01*
X-14361126Y2746727D01*
X-14344386Y2730397D01*
X-14320316Y2719503D01*
X-14286352Y2715366D01*
X-14239347Y2720983D01*
X-14195640Y2732170D01*
X-14195640Y2651570D01*
X-14240153Y2639260D01*
X-14291407Y2633642D01*
G37*
G36*
X-14058363Y2644828D02*
G01*
X-14058363Y3496015D01*
X-13982745Y3496015D01*
X-13982745Y3254117D01*
X-13984028Y3200334D01*
X-13986116Y3148848D01*
X-13981903Y3148848D01*
X-13965247Y3183606D01*
X-13945851Y3210511D01*
X-13923541Y3230572D01*
X-13898520Y3244716D01*
X-13871091Y3253380D01*
X-13840779Y3256364D01*
X-13806222Y3252820D01*
X-13776381Y3242724D01*
X-13750456Y3226537D01*
X-13727829Y3204242D01*
X-13710002Y3176515D01*
X-13696554Y3140741D01*
X-13687776Y3095009D01*
X-13684562Y3036838D01*
X-13684562Y2644828D01*
X-13760143Y2644828D01*
X-13760143Y3016664D01*
X-13763565Y3070198D01*
X-13772623Y3108921D01*
X-13786191Y3136489D01*
X-13805301Y3157132D01*
X-13829441Y3169977D01*
X-13860123Y3174591D01*
X-13887313Y3170843D01*
X-13910813Y3160048D01*
X-13931410Y3142297D01*
X-13949589Y3116901D01*
X-13963329Y3087318D01*
X-13973683Y3051519D01*
X-13980350Y3008293D01*
X-13982745Y2956189D01*
X-13982745Y2644828D01*
X-14058363Y2644828D01*
G37*
G36*
X-13314961Y3251220D02*
G01*
X-13278108Y3236592D01*
X-13246490Y3213025D01*
X-13219242Y3180160D01*
X-13197813Y3140462D01*
X-13182003Y3093508D01*
X-13171988Y3037900D01*
X-13168428Y2971870D01*
X-13168428Y2925952D01*
X-13495188Y2925952D01*
X-13491589Y2874182D01*
X-13483936Y2833439D01*
X-13472950Y2801632D01*
X-13457372Y2773688D01*
X-13438733Y2752038D01*
X-13416676Y2736078D01*
X-13379153Y2721633D01*
X-13333914Y2716489D01*
X-13297222Y2719836D01*
X-13260825Y2729923D01*
X-13224966Y2745496D01*
X-13188578Y2765778D01*
X-13188578Y2676189D01*
X-13227549Y2656723D01*
X-13265880Y2643705D01*
X-13304071Y2636073D01*
X-13338934Y2633642D01*
X-13392806Y2639194D01*
X-13438257Y2654855D01*
X-13476770Y2679718D01*
X-13509476Y2713705D01*
X-13531041Y2746981D01*
X-13548120Y2785597D01*
X-13560779Y2830356D01*
X-13568783Y2882318D01*
X-13571611Y2942756D01*
X-13568436Y3006601D01*
X-13493503Y3006601D01*
X-13244009Y3006601D01*
X-13249042Y3057498D01*
X-13259738Y3097850D01*
X-13275516Y3129797D01*
X-13296929Y3154147D01*
X-13323945Y3169200D01*
X-13358278Y3174591D01*
X-13394408Y3169238D01*
X-13424335Y3154034D01*
X-13449429Y3129211D01*
X-13469321Y3096476D01*
X-13484078Y3056143D01*
X-13493503Y3006601D01*
X-13568436Y3006601D01*
X-13568382Y3007689D01*
X-13559242Y3063398D01*
X-13544757Y3111332D01*
X-13524206Y3154897D01*
X-13499380Y3190455D01*
X-13469982Y3218848D01*
X-13437015Y3239347D01*
X-13400056Y3251978D01*
X-13358278Y3256364D01*
X-13314961Y3251220D01*
G37*
D13*
X-4535214Y-2131870D02*
X-4611404Y-2093775D01*
X-4611404Y-2093775D02*
X-4725690Y-2093775D01*
X-4725690Y-2093775D02*
X-4839976Y-2131870D01*
X-4839976Y-2131870D02*
X-4916166Y-2208060D01*
X-4916166Y-2208060D02*
X-4954261Y-2284251D01*
X-4954261Y-2284251D02*
X-4992357Y-2436632D01*
X-4992357Y-2436632D02*
X-4992357Y-2550918D01*
X-4992357Y-2550918D02*
X-4954261Y-2703299D01*
X-4954261Y-2703299D02*
X-4916166Y-2779489D01*
X-4916166Y-2779489D02*
X-4839976Y-2855680D01*
X-4839976Y-2855680D02*
X-4725690Y-2893775D01*
X-4725690Y-2893775D02*
X-4649499Y-2893775D01*
X-4649499Y-2893775D02*
X-4535214Y-2855680D01*
X-4535214Y-2855680D02*
X-4497118Y-2817584D01*
X-4497118Y-2817584D02*
X-4497118Y-2550918D01*
X-4497118Y-2550918D02*
X-4649499Y-2550918D01*
X-4154261Y-2893775D02*
X-4154261Y-2093775D01*
X-4154261Y-2093775D02*
X-3697118Y-2893775D01*
X-3697118Y-2893775D02*
X-3697118Y-2093775D01*
X-3316166Y-2893775D02*
X-3316166Y-2093775D01*
X-3316166Y-2093775D02*
X-3125690Y-2093775D01*
X-3125690Y-2093775D02*
X-3011404Y-2131870D01*
X-3011404Y-2131870D02*
X-2935214Y-2208060D01*
X-2935214Y-2208060D02*
X-2897119Y-2284251D01*
X-2897119Y-2284251D02*
X-2859023Y-2436632D01*
X-2859023Y-2436632D02*
X-2859023Y-2550918D01*
X-2859023Y-2550918D02*
X-2897119Y-2703299D01*
X-2897119Y-2703299D02*
X-2935214Y-2779489D01*
X-2935214Y-2779489D02*
X-3011404Y-2855680D01*
X-3011404Y-2855680D02*
X-3125690Y-2893775D01*
X-3125690Y-2893775D02*
X-3316166Y-2893775D01*
D10*
X-6546099Y-15663800D02*
X-6165146Y-15663800D01*
X-6622289Y-15892372D02*
X-6355622Y-15092372D01*
X-6355622Y-15092372D02*
X-6088956Y-15892372D01*
X-5479432Y-15359038D02*
X-5479432Y-15892372D01*
X-5822289Y-15359038D02*
X-5822289Y-15778086D01*
X-5822289Y-15778086D02*
X-5784194Y-15854277D01*
X-5784194Y-15854277D02*
X-5708004Y-15892372D01*
X-5708004Y-15892372D02*
X-5593718Y-15892372D01*
X-5593718Y-15892372D02*
X-5517527Y-15854277D01*
X-5517527Y-15854277D02*
X-5479432Y-15816181D01*
X-5212765Y-15359038D02*
X-4908003Y-15359038D01*
X-5098479Y-15092372D02*
X-5098479Y-15778086D01*
X-5098479Y-15778086D02*
X-5060384Y-15854277D01*
X-5060384Y-15854277D02*
X-4984194Y-15892372D01*
X-4984194Y-15892372D02*
X-4908003Y-15892372D01*
X-4641336Y-15892372D02*
X-4641336Y-15092372D01*
X-4298479Y-15892372D02*
X-4298479Y-15473324D01*
X-4298479Y-15473324D02*
X-4336574Y-15397134D01*
X-4336574Y-15397134D02*
X-4412765Y-15359038D01*
X-4412765Y-15359038D02*
X-4527051Y-15359038D01*
X-4527051Y-15359038D02*
X-4603241Y-15397134D01*
X-4603241Y-15397134D02*
X-4641336Y-15435229D01*
X-3803241Y-15892372D02*
X-3879431Y-15854277D01*
X-3879431Y-15854277D02*
X-3917526Y-15816181D01*
X-3917526Y-15816181D02*
X-3955622Y-15739991D01*
X-3955622Y-15739991D02*
X-3955622Y-15511419D01*
X-3955622Y-15511419D02*
X-3917526Y-15435229D01*
X-3917526Y-15435229D02*
X-3879431Y-15397134D01*
X-3879431Y-15397134D02*
X-3803241Y-15359038D01*
X-3803241Y-15359038D02*
X-3688955Y-15359038D01*
X-3688955Y-15359038D02*
X-3612764Y-15397134D01*
X-3612764Y-15397134D02*
X-3574669Y-15435229D01*
X-3574669Y-15435229D02*
X-3536574Y-15511419D01*
X-3536574Y-15511419D02*
X-3536574Y-15739991D01*
X-3536574Y-15739991D02*
X-3574669Y-15816181D01*
X-3574669Y-15816181D02*
X-3612764Y-15854277D01*
X-3612764Y-15854277D02*
X-3688955Y-15892372D01*
X-3688955Y-15892372D02*
X-3803241Y-15892372D01*
X-3193716Y-15892372D02*
X-3193716Y-15359038D01*
X-3193716Y-15511419D02*
X-3155621Y-15435229D01*
X-3155621Y-15435229D02*
X-3117526Y-15397134D01*
X-3117526Y-15397134D02*
X-3041335Y-15359038D01*
X-3041335Y-15359038D02*
X-2965145Y-15359038D01*
X-2698478Y-15816181D02*
X-2660383Y-15854277D01*
X-2660383Y-15854277D02*
X-2698478Y-15892372D01*
X-2698478Y-15892372D02*
X-2736574Y-15854277D01*
X-2736574Y-15854277D02*
X-2698478Y-15816181D01*
X-2698478Y-15816181D02*
X-2698478Y-15892372D01*
X-2698478Y-15397134D02*
X-2660383Y-15435229D01*
X-2660383Y-15435229D02*
X-2698478Y-15473324D01*
X-2698478Y-15473324D02*
X-2736574Y-15435229D01*
X-2736574Y-15435229D02*
X-2698478Y-15397134D01*
X-2698478Y-15397134D02*
X-2698478Y-15473324D01*
X-1250859Y-15892372D02*
X-1517526Y-15511419D01*
X-1708002Y-15892372D02*
X-1708002Y-15092372D01*
X-1708002Y-15092372D02*
X-1403240Y-15092372D01*
X-1403240Y-15092372D02*
X-1327050Y-15130467D01*
X-1327050Y-15130467D02*
X-1288955Y-15168562D01*
X-1288955Y-15168562D02*
X-1250859Y-15244753D01*
X-1250859Y-15244753D02*
X-1250859Y-15359038D01*
X-1250859Y-15359038D02*
X-1288955Y-15435229D01*
X-1288955Y-15435229D02*
X-1327050Y-15473324D01*
X-1327050Y-15473324D02*
X-1403240Y-15511419D01*
X-1403240Y-15511419D02*
X-1708002Y-15511419D01*
X-565145Y-15892372D02*
X-565145Y-15473324D01*
X-565145Y-15473324D02*
X-603240Y-15397134D01*
X-603240Y-15397134D02*
X-679431Y-15359038D01*
X-679431Y-15359038D02*
X-831812Y-15359038D01*
X-831812Y-15359038D02*
X-908002Y-15397134D01*
X-565145Y-15854277D02*
X-641336Y-15892372D01*
X-641336Y-15892372D02*
X-831812Y-15892372D01*
X-831812Y-15892372D02*
X-908002Y-15854277D01*
X-908002Y-15854277D02*
X-946098Y-15778086D01*
X-946098Y-15778086D02*
X-946098Y-15701896D01*
X-946098Y-15701896D02*
X-908002Y-15625705D01*
X-908002Y-15625705D02*
X-831812Y-15587610D01*
X-831812Y-15587610D02*
X-641336Y-15587610D01*
X-641336Y-15587610D02*
X-565145Y-15549515D01*
X-184192Y-15359038D02*
X-184192Y-16159038D01*
X-184192Y-15397134D02*
X-108002Y-15359038D01*
X-108002Y-15359038D02*
X44379Y-15359038D01*
X44379Y-15359038D02*
X120570Y-15397134D01*
X120570Y-15397134D02*
X158665Y-15435229D01*
X158665Y-15435229D02*
X196760Y-15511419D01*
X196760Y-15511419D02*
X196760Y-15739991D01*
X196760Y-15739991D02*
X158665Y-15816181D01*
X158665Y-15816181D02*
X120570Y-15854277D01*
X120570Y-15854277D02*
X44379Y-15892372D01*
X44379Y-15892372D02*
X-108002Y-15892372D01*
X-108002Y-15892372D02*
X-184192Y-15854277D01*
X539618Y-15892372D02*
X539618Y-15092372D01*
X882475Y-15892372D02*
X882475Y-15473324D01*
X882475Y-15473324D02*
X844380Y-15397134D01*
X844380Y-15397134D02*
X768189Y-15359038D01*
X768189Y-15359038D02*
X653903Y-15359038D01*
X653903Y-15359038D02*
X577713Y-15397134D01*
X577713Y-15397134D02*
X539618Y-15435229D01*
X1606285Y-15892372D02*
X1606285Y-15473324D01*
X1606285Y-15473324D02*
X1568190Y-15397134D01*
X1568190Y-15397134D02*
X1491999Y-15359038D01*
X1491999Y-15359038D02*
X1339618Y-15359038D01*
X1339618Y-15359038D02*
X1263428Y-15397134D01*
X1606285Y-15854277D02*
X1530094Y-15892372D01*
X1530094Y-15892372D02*
X1339618Y-15892372D01*
X1339618Y-15892372D02*
X1263428Y-15854277D01*
X1263428Y-15854277D02*
X1225332Y-15778086D01*
X1225332Y-15778086D02*
X1225332Y-15701896D01*
X1225332Y-15701896D02*
X1263428Y-15625705D01*
X1263428Y-15625705D02*
X1339618Y-15587610D01*
X1339618Y-15587610D02*
X1530094Y-15587610D01*
X1530094Y-15587610D02*
X1606285Y-15549515D01*
X2292000Y-15854277D02*
X2215809Y-15892372D01*
X2215809Y-15892372D02*
X2063428Y-15892372D01*
X2063428Y-15892372D02*
X1987238Y-15854277D01*
X1987238Y-15854277D02*
X1949142Y-15778086D01*
X1949142Y-15778086D02*
X1949142Y-15473324D01*
X1949142Y-15473324D02*
X1987238Y-15397134D01*
X1987238Y-15397134D02*
X2063428Y-15359038D01*
X2063428Y-15359038D02*
X2215809Y-15359038D01*
X2215809Y-15359038D02*
X2292000Y-15397134D01*
X2292000Y-15397134D02*
X2330095Y-15473324D01*
X2330095Y-15473324D02*
X2330095Y-15549515D01*
X2330095Y-15549515D02*
X1949142Y-15625705D01*
X1987238Y-15092372D02*
X2025333Y-15130467D01*
X2025333Y-15130467D02*
X1987238Y-15168562D01*
X1987238Y-15168562D02*
X1949142Y-15130467D01*
X1949142Y-15130467D02*
X1987238Y-15092372D01*
X1987238Y-15092372D02*
X1987238Y-15168562D01*
X2292000Y-15092372D02*
X2330095Y-15130467D01*
X2330095Y-15130467D02*
X2292000Y-15168562D01*
X2292000Y-15168562D02*
X2253904Y-15130467D01*
X2253904Y-15130467D02*
X2292000Y-15092372D01*
X2292000Y-15092372D02*
X2292000Y-15168562D01*
X2787237Y-15892372D02*
X2711047Y-15854277D01*
X2711047Y-15854277D02*
X2672952Y-15778086D01*
X2672952Y-15778086D02*
X2672952Y-15092372D01*
X4158667Y-15816181D02*
X4120571Y-15854277D01*
X4120571Y-15854277D02*
X4006286Y-15892372D01*
X4006286Y-15892372D02*
X3930095Y-15892372D01*
X3930095Y-15892372D02*
X3815809Y-15854277D01*
X3815809Y-15854277D02*
X3739619Y-15778086D01*
X3739619Y-15778086D02*
X3701524Y-15701896D01*
X3701524Y-15701896D02*
X3663428Y-15549515D01*
X3663428Y-15549515D02*
X3663428Y-15435229D01*
X3663428Y-15435229D02*
X3701524Y-15282848D01*
X3701524Y-15282848D02*
X3739619Y-15206657D01*
X3739619Y-15206657D02*
X3815809Y-15130467D01*
X3815809Y-15130467D02*
X3930095Y-15092372D01*
X3930095Y-15092372D02*
X4006286Y-15092372D01*
X4006286Y-15092372D02*
X4120571Y-15130467D01*
X4120571Y-15130467D02*
X4158667Y-15168562D01*
X4844381Y-15892372D02*
X4844381Y-15473324D01*
X4844381Y-15473324D02*
X4806286Y-15397134D01*
X4806286Y-15397134D02*
X4730095Y-15359038D01*
X4730095Y-15359038D02*
X4577714Y-15359038D01*
X4577714Y-15359038D02*
X4501524Y-15397134D01*
X4844381Y-15854277D02*
X4768190Y-15892372D01*
X4768190Y-15892372D02*
X4577714Y-15892372D01*
X4577714Y-15892372D02*
X4501524Y-15854277D01*
X4501524Y-15854277D02*
X4463428Y-15778086D01*
X4463428Y-15778086D02*
X4463428Y-15701896D01*
X4463428Y-15701896D02*
X4501524Y-15625705D01*
X4501524Y-15625705D02*
X4577714Y-15587610D01*
X4577714Y-15587610D02*
X4768190Y-15587610D01*
X4768190Y-15587610D02*
X4844381Y-15549515D01*
X5187238Y-15854277D02*
X5263429Y-15892372D01*
X5263429Y-15892372D02*
X5415810Y-15892372D01*
X5415810Y-15892372D02*
X5492000Y-15854277D01*
X5492000Y-15854277D02*
X5530096Y-15778086D01*
X5530096Y-15778086D02*
X5530096Y-15739991D01*
X5530096Y-15739991D02*
X5492000Y-15663800D01*
X5492000Y-15663800D02*
X5415810Y-15625705D01*
X5415810Y-15625705D02*
X5301524Y-15625705D01*
X5301524Y-15625705D02*
X5225334Y-15587610D01*
X5225334Y-15587610D02*
X5187238Y-15511419D01*
X5187238Y-15511419D02*
X5187238Y-15473324D01*
X5187238Y-15473324D02*
X5225334Y-15397134D01*
X5225334Y-15397134D02*
X5301524Y-15359038D01*
X5301524Y-15359038D02*
X5415810Y-15359038D01*
X5415810Y-15359038D02*
X5492000Y-15397134D01*
X5872953Y-15892372D02*
X5872953Y-15359038D01*
X5872953Y-15092372D02*
X5834857Y-15130467D01*
X5834857Y-15130467D02*
X5872953Y-15168562D01*
X5872953Y-15168562D02*
X5911048Y-15130467D01*
X5911048Y-15130467D02*
X5872953Y-15092372D01*
X5872953Y-15092372D02*
X5872953Y-15168562D01*
X6253905Y-15892372D02*
X6253905Y-15359038D01*
X6253905Y-15435229D02*
X6292000Y-15397134D01*
X6292000Y-15397134D02*
X6368190Y-15359038D01*
X6368190Y-15359038D02*
X6482476Y-15359038D01*
X6482476Y-15359038D02*
X6558667Y-15397134D01*
X6558667Y-15397134D02*
X6596762Y-15473324D01*
X6596762Y-15473324D02*
X6596762Y-15892372D01*
X6596762Y-15473324D02*
X6634857Y-15397134D01*
X6634857Y-15397134D02*
X6711048Y-15359038D01*
X6711048Y-15359038D02*
X6825333Y-15359038D01*
X6825333Y-15359038D02*
X6901524Y-15397134D01*
X6901524Y-15397134D02*
X6939619Y-15473324D01*
X6939619Y-15473324D02*
X6939619Y-15892372D01*
X7320572Y-15892372D02*
X7320572Y-15359038D01*
X7320572Y-15092372D02*
X7282476Y-15130467D01*
X7282476Y-15130467D02*
X7320572Y-15168562D01*
X7320572Y-15168562D02*
X7358667Y-15130467D01*
X7358667Y-15130467D02*
X7320572Y-15092372D01*
X7320572Y-15092372D02*
X7320572Y-15168562D01*
X7701524Y-15892372D02*
X7701524Y-15359038D01*
X7701524Y-15511419D02*
X7739619Y-15435229D01*
X7739619Y-15435229D02*
X7777714Y-15397134D01*
X7777714Y-15397134D02*
X7853905Y-15359038D01*
X7853905Y-15359038D02*
X7930095Y-15359038D01*
D14*
G36*
X7501260Y-6996000D02*
G01*
X7501260Y-6006450D01*
X7170286Y-6006450D01*
X7170286Y-5796450D01*
X8077477Y-5796450D01*
X8077477Y-6006450D01*
X7744819Y-6006450D01*
X7744819Y-6996000D01*
X7501260Y-6996000D01*
G37*
G36*
X8732720Y-6070394D02*
G01*
X8816644Y-6094491D01*
X8888744Y-6133236D01*
X8950963Y-6187067D01*
X9000108Y-6252581D01*
X9036431Y-6330979D01*
X9059520Y-6424823D01*
X9067760Y-6537385D01*
X9061810Y-6630379D01*
X9044746Y-6712735D01*
X9017348Y-6786000D01*
X8978147Y-6852978D01*
X8929351Y-6908272D01*
X8870290Y-6953135D01*
X8803450Y-6985308D01*
X8724518Y-7005586D01*
X8630907Y-7012779D01*
X8540666Y-7005786D01*
X8462984Y-6985890D01*
X8395701Y-6954014D01*
X8335977Y-6909718D01*
X8286386Y-6855222D01*
X8246225Y-6789370D01*
X8217979Y-6717039D01*
X8200315Y-6634756D01*
X8194128Y-6540755D01*
X8194349Y-6537385D01*
X8441131Y-6537385D01*
X8447158Y-6621438D01*
X8463658Y-6688056D01*
X8488978Y-6740644D01*
X8515980Y-6773706D01*
X8548384Y-6796915D01*
X8587222Y-6811211D01*
X8634278Y-6816261D01*
X8680490Y-6811251D01*
X8718321Y-6797107D01*
X8749611Y-6774184D01*
X8775401Y-6741523D01*
X8799262Y-6689611D01*
X8814975Y-6622790D01*
X8820757Y-6537385D01*
X8815253Y-6454152D01*
X8800173Y-6387715D01*
X8777087Y-6334932D01*
X8751961Y-6301672D01*
X8720717Y-6278246D01*
X8682184Y-6263699D01*
X8634278Y-6258508D01*
X8587159Y-6263514D01*
X8548303Y-6277672D01*
X8515924Y-6300621D01*
X8488978Y-6333247D01*
X8463745Y-6385298D01*
X8447205Y-6452113D01*
X8441131Y-6537385D01*
X8194349Y-6537385D01*
X8200429Y-6444462D01*
X8218384Y-6360528D01*
X8247031Y-6287085D01*
X8287910Y-6220209D01*
X8338351Y-6165173D01*
X8399072Y-6120755D01*
X8467411Y-6088726D01*
X8545167Y-6068858D01*
X8634278Y-6061917D01*
X8732720Y-6070394D01*
G37*
G36*
X9491863Y-6996000D02*
G01*
X9491863Y-6280344D01*
X9248231Y-6280344D01*
X9248231Y-6129108D01*
X9491863Y-6078697D01*
X9491863Y-6019932D01*
X9498200Y-5940115D01*
X9515658Y-5876454D01*
X9542747Y-5825746D01*
X9579205Y-5785605D01*
X9624295Y-5755042D01*
X9681405Y-5731680D01*
X9753216Y-5716379D01*
X9842987Y-5710794D01*
X9908833Y-5713284D01*
X9977369Y-5720905D01*
X10045139Y-5733176D01*
X10108381Y-5749408D01*
X10044560Y-5940944D01*
X9959711Y-5922479D01*
X9891713Y-5917423D01*
X9838839Y-5921846D01*
X9800537Y-5933551D01*
X9773231Y-5951055D01*
X9752644Y-5975726D01*
X9739951Y-6006475D01*
X9735422Y-6045138D01*
X9735422Y-6078697D01*
X10031152Y-6078697D01*
X10031152Y-6280344D01*
X9735422Y-6280344D01*
X9735422Y-6996000D01*
X9491863Y-6996000D01*
G37*
G36*
X10534170Y-7012779D02*
G01*
X10461812Y-7006809D01*
X10401082Y-6989972D01*
X10349841Y-6963172D01*
X10306511Y-6926317D01*
X10272482Y-6881033D01*
X10247126Y-6825817D01*
X10230874Y-6758614D01*
X10225032Y-6676823D01*
X10225032Y-6078697D01*
X10468664Y-6078697D01*
X10468664Y-6614614D01*
X10472761Y-6675686D01*
X10483831Y-6722913D01*
X10500537Y-6759108D01*
X10526056Y-6786924D01*
X10563266Y-6804596D01*
X10616528Y-6811205D01*
X10669072Y-6806515D01*
X10708975Y-6793810D01*
X10739114Y-6774276D01*
X10763492Y-6747226D01*
X10782887Y-6712737D01*
X10797073Y-6669276D01*
X10808774Y-6598264D01*
X10813046Y-6510494D01*
X10813046Y-6078697D01*
X11056678Y-6078697D01*
X11056678Y-6996000D01*
X10871884Y-6996000D01*
X10831511Y-6878397D01*
X10818102Y-6878397D01*
X10787824Y-6917332D01*
X10749794Y-6950280D01*
X10702990Y-6977535D01*
X10652076Y-6996806D01*
X10596096Y-7008679D01*
X10534170Y-7012779D01*
G37*
G36*
X11785168Y-5803588D02*
G01*
X11868771Y-5823190D01*
X11935384Y-5853300D01*
X11988123Y-5893096D01*
X12030750Y-5944302D01*
X12062038Y-6005894D01*
X12081867Y-6079991D01*
X12088946Y-6169408D01*
X12083874Y-6248001D01*
X12069353Y-6317276D01*
X12046082Y-6378602D01*
X12012174Y-6433803D01*
X11967240Y-6480327D01*
X11909941Y-6518920D01*
X11845793Y-6545539D01*
X11765530Y-6562924D01*
X11665576Y-6569258D01*
X11517711Y-6569258D01*
X11517711Y-6996000D01*
X11282505Y-6996000D01*
X11282505Y-6362629D01*
X11517711Y-6362629D01*
X11640370Y-6362629D01*
X11708215Y-6356482D01*
X11758610Y-6339975D01*
X11795708Y-6314782D01*
X11823474Y-6279743D01*
X11840781Y-6235563D01*
X11846999Y-6179520D01*
X11841622Y-6121608D01*
X11827161Y-6078559D01*
X11805014Y-6046823D01*
X11774123Y-6023850D01*
X11731218Y-6008791D01*
X11672317Y-6003152D01*
X11517711Y-6003152D01*
X11517711Y-6362629D01*
X11282505Y-6362629D01*
X11282505Y-5796450D01*
X11680670Y-5796450D01*
X11785168Y-5803588D01*
G37*
G36*
X12684362Y-5974576D02*
G01*
X12628660Y-5968150D01*
X12589340Y-5951004D01*
X12562015Y-5924322D01*
X12544693Y-5886481D01*
X12538256Y-5833452D01*
X12544770Y-5780679D01*
X12562348Y-5742885D01*
X12590204Y-5716107D01*
X12630477Y-5698824D01*
X12687732Y-5692329D01*
X12744383Y-5698750D01*
X12784225Y-5715834D01*
X12811775Y-5742296D01*
X12829156Y-5779637D01*
X12835597Y-5831767D01*
X12829005Y-5885172D01*
X12811219Y-5923419D01*
X12783035Y-5950515D01*
X12742288Y-5968004D01*
X12684362Y-5974576D01*
G37*
G36*
X12256008Y-6996000D02*
G01*
X12256008Y-6844764D01*
X12561776Y-6794426D01*
X12561776Y-6280344D01*
X12301364Y-6251767D01*
X12301364Y-6078697D01*
X12805335Y-6078697D01*
X12805335Y-6794426D01*
X13079156Y-6844764D01*
X13079156Y-6996000D01*
X12256008Y-6996000D01*
G37*
G36*
X13263071Y-6996000D02*
G01*
X13263071Y-6844764D01*
X13565468Y-6794426D01*
X13565468Y-5920794D01*
X13321835Y-5870382D01*
X13321835Y-5719220D01*
X13809027Y-5719220D01*
X13809027Y-6794426D01*
X14086218Y-6844764D01*
X14086218Y-6996000D01*
X13263071Y-6996000D01*
G37*
G36*
X14775093Y-6070394D02*
G01*
X14859016Y-6094491D01*
X14931117Y-6133236D01*
X14993336Y-6187067D01*
X15042481Y-6252581D01*
X15078804Y-6330979D01*
X15101892Y-6424823D01*
X15110133Y-6537385D01*
X15104183Y-6630379D01*
X15087119Y-6712735D01*
X15059721Y-6786000D01*
X15020519Y-6852978D01*
X14971724Y-6908272D01*
X14912662Y-6953135D01*
X14845822Y-6985308D01*
X14766891Y-7005586D01*
X14673280Y-7012779D01*
X14583039Y-7005786D01*
X14505357Y-6985890D01*
X14438074Y-6954014D01*
X14378350Y-6909718D01*
X14328758Y-6855222D01*
X14288597Y-6789370D01*
X14260352Y-6717039D01*
X14242688Y-6634756D01*
X14236500Y-6540755D01*
X14236721Y-6537385D01*
X14483503Y-6537385D01*
X14489531Y-6621438D01*
X14506031Y-6688056D01*
X14531350Y-6740644D01*
X14558352Y-6773706D01*
X14590757Y-6796915D01*
X14629594Y-6811211D01*
X14676650Y-6816261D01*
X14722862Y-6811251D01*
X14760694Y-6797107D01*
X14791983Y-6774184D01*
X14817774Y-6741523D01*
X14841635Y-6689611D01*
X14857347Y-6622790D01*
X14863130Y-6537385D01*
X14857626Y-6454152D01*
X14842545Y-6387715D01*
X14819459Y-6334932D01*
X14794333Y-6301672D01*
X14763090Y-6278246D01*
X14724557Y-6263699D01*
X14676650Y-6258508D01*
X14629532Y-6263514D01*
X14590676Y-6277672D01*
X14558297Y-6300621D01*
X14531350Y-6333247D01*
X14506118Y-6385298D01*
X14489578Y-6452113D01*
X14483503Y-6537385D01*
X14236721Y-6537385D01*
X14242802Y-6444462D01*
X14260757Y-6360528D01*
X14289403Y-6287085D01*
X14330283Y-6220209D01*
X14380724Y-6165173D01*
X14441445Y-6120755D01*
X14509783Y-6088726D01*
X14587540Y-6068858D01*
X14676650Y-6061917D01*
X14775093Y-6070394D01*
G37*
G36*
X15833262Y-7012779D02*
G01*
X15742959Y-7006950D01*
X15670195Y-6990918D01*
X15611810Y-6966296D01*
X15565230Y-6933864D01*
X15528096Y-6891641D01*
X15500195Y-6837333D01*
X15482037Y-6768096D01*
X15475398Y-6680193D01*
X15475398Y-6280344D01*
X15265398Y-6280344D01*
X15265398Y-6129108D01*
X15493863Y-6078697D01*
X15534236Y-5850232D01*
X15719030Y-5850232D01*
X15719030Y-6078697D01*
X16063413Y-6078697D01*
X16063413Y-6280344D01*
X15719030Y-6280344D01*
X15719030Y-6654988D01*
X15725254Y-6715597D01*
X15740865Y-6753247D01*
X15766531Y-6780803D01*
X15799630Y-6797796D01*
X15837713Y-6806503D01*
X15880304Y-6809520D01*
X15962589Y-6802852D01*
X16071839Y-6784314D01*
X16071839Y-6975849D01*
X16009651Y-6993195D01*
X15949986Y-7004353D01*
X15833262Y-7012779D01*
G37*
G36*
X-12388953Y2678828D02*
G01*
X-12388953Y3503453D01*
X-12609602Y3503453D01*
X-12609602Y3678453D01*
X-12004808Y3678453D01*
X-12004808Y3503453D01*
X-12226580Y3503453D01*
X-12226580Y2678828D01*
X-12388953Y2678828D01*
G37*
G36*
X-11567979Y3450167D02*
G01*
X-11512030Y3430086D01*
X-11463963Y3397798D01*
X-11422484Y3352939D01*
X-11389720Y3298344D01*
X-11365505Y3233012D01*
X-11350113Y3154809D01*
X-11344619Y3061007D01*
X-11348586Y2983513D01*
X-11359962Y2914882D01*
X-11378227Y2853828D01*
X-11404361Y2798013D01*
X-11436892Y2751935D01*
X-11476266Y2714549D01*
X-11520826Y2687738D01*
X-11573447Y2670840D01*
X-11635854Y2664846D01*
X-11696015Y2670673D01*
X-11747803Y2687253D01*
X-11792658Y2713816D01*
X-11832474Y2750729D01*
X-11865535Y2796143D01*
X-11892309Y2851020D01*
X-11911140Y2911295D01*
X-11922916Y2979865D01*
X-11927041Y3058199D01*
X-11926894Y3061007D01*
X-11762372Y3061007D01*
X-11758354Y2990963D01*
X-11747354Y2935448D01*
X-11730474Y2891625D01*
X-11712473Y2864073D01*
X-11690870Y2844732D01*
X-11664978Y2832819D01*
X-11633607Y2828610D01*
X-11602799Y2832786D01*
X-11577579Y2844572D01*
X-11556719Y2863675D01*
X-11539525Y2890892D01*
X-11523618Y2934152D01*
X-11513143Y2989836D01*
X-11509288Y3061007D01*
X-11512957Y3130368D01*
X-11523011Y3185733D01*
X-11538401Y3229718D01*
X-11555152Y3257435D01*
X-11575981Y3276956D01*
X-11601670Y3289079D01*
X-11633607Y3293405D01*
X-11665020Y3289233D01*
X-11690924Y3277435D01*
X-11712510Y3258311D01*
X-11730474Y3231123D01*
X-11747296Y3187747D01*
X-11758323Y3132067D01*
X-11762372Y3061007D01*
X-11926894Y3061007D01*
X-11922840Y3138443D01*
X-11910870Y3208388D01*
X-11891772Y3269591D01*
X-11864519Y3325321D01*
X-11830892Y3371184D01*
X-11790411Y3408199D01*
X-11744852Y3434890D01*
X-11693014Y3451447D01*
X-11633607Y3457230D01*
X-11567979Y3450167D01*
G37*
G36*
X-11061884Y2678828D02*
G01*
X-11061884Y3275208D01*
X-11224305Y3275208D01*
X-11224305Y3401238D01*
X-11061884Y3443248D01*
X-11061884Y3492218D01*
X-11057659Y3558732D01*
X-11046021Y3611783D01*
X-11027961Y3654040D01*
X-11003656Y3687490D01*
X-10973596Y3712959D01*
X-10935523Y3732428D01*
X-10887648Y3745179D01*
X-10827801Y3749833D01*
X-10783904Y3747758D01*
X-10738213Y3741407D01*
X-10693033Y3731181D01*
X-10650872Y3717654D01*
X-10693419Y3558042D01*
X-10749985Y3573429D01*
X-10795317Y3577642D01*
X-10830567Y3573956D01*
X-10856101Y3564202D01*
X-10874305Y3549615D01*
X-10888030Y3529057D01*
X-10896492Y3503432D01*
X-10899511Y3471213D01*
X-10899511Y3443248D01*
X-10702358Y3443248D01*
X-10702358Y3275208D01*
X-10899511Y3275208D01*
X-10899511Y2678828D01*
X-11061884Y2678828D01*
G37*
G36*
X-10367013Y2664846D02*
G01*
X-10415251Y2669821D01*
X-10455738Y2683851D01*
X-10489899Y2706185D01*
X-10518785Y2736897D01*
X-10541471Y2774634D01*
X-10558375Y2820647D01*
X-10569210Y2876650D01*
X-10573105Y2944809D01*
X-10573105Y3443248D01*
X-10410683Y3443248D01*
X-10410683Y2996650D01*
X-10407952Y2945757D01*
X-10400572Y2906400D01*
X-10389434Y2876238D01*
X-10372422Y2853058D01*
X-10347615Y2838332D01*
X-10312107Y2832824D01*
X-10277078Y2836732D01*
X-10250476Y2847320D01*
X-10230383Y2863598D01*
X-10214131Y2886139D01*
X-10201201Y2914881D01*
X-10191744Y2951098D01*
X-10183943Y3010275D01*
X-10181095Y3083417D01*
X-10181095Y3443248D01*
X-10018674Y3443248D01*
X-10018674Y2678828D01*
X-10141870Y2678828D01*
X-10168785Y2776831D01*
X-10177725Y2776831D01*
X-10197910Y2744385D01*
X-10223263Y2716928D01*
X-10254466Y2694216D01*
X-10288408Y2678156D01*
X-10325729Y2668262D01*
X-10367013Y2664846D01*
G37*
G36*
X-9649720Y2664846D02*
G01*
X-9709839Y2668517D01*
X-9769009Y2679500D01*
X-9826284Y2698377D01*
X-9879309Y2725051D01*
X-9879309Y2909821D01*
X-9816524Y2875120D01*
X-9758360Y2851691D01*
X-9700330Y2837436D01*
X-9645226Y2832824D01*
X-9590285Y2839483D01*
X-9550069Y2857309D01*
X-9529967Y2877428D01*
X-9517619Y2906047D01*
X-9513091Y2946213D01*
X-9518305Y2987228D01*
X-9532679Y3016189D01*
X-9555184Y3039640D01*
X-9589246Y3064488D01*
X-9677711Y3121213D01*
X-9727538Y3158039D01*
X-9771793Y3196807D01*
X-9810095Y3241412D01*
X-9839009Y3292733D01*
X-9852315Y3330770D01*
X-9860678Y3374942D01*
X-9863628Y3426456D01*
X-9858638Y3492357D01*
X-9844657Y3546169D01*
X-9822376Y3590375D01*
X-9791381Y3626613D01*
X-9754354Y3654259D01*
X-9711140Y3674797D01*
X-9660644Y3687821D01*
X-9601556Y3692436D01*
X-9552485Y3689395D01*
X-9489546Y3679125D01*
X-9425571Y3659865D01*
X-9361856Y3628017D01*
X-9413391Y3469809D01*
X-9467468Y3495749D01*
X-9513091Y3511819D01*
X-9556829Y3521529D01*
X-9592567Y3524458D01*
X-9628598Y3520746D01*
X-9654456Y3510968D01*
X-9672679Y3496431D01*
X-9686353Y3475805D01*
X-9694840Y3449751D01*
X-9697885Y3416625D01*
X-9693719Y3378854D01*
X-9682205Y3350802D01*
X-9663594Y3327816D01*
X-9635163Y3305311D01*
X-9555638Y3254204D01*
X-9492419Y3212682D01*
X-9443091Y3175069D01*
X-9401322Y3132700D01*
X-9371967Y3086226D01*
X-9358768Y3051335D01*
X-9350329Y3008961D01*
X-9347299Y2957449D01*
X-9351764Y2894543D01*
X-9364437Y2841236D01*
X-9384815Y2795699D01*
X-9412648Y2756568D01*
X-9447565Y2723946D01*
X-9490669Y2697696D01*
X-9536950Y2679961D01*
X-9589647Y2668775D01*
X-9649720Y2664846D01*
G37*
G36*
X-8892190Y3452360D02*
G01*
X-8838042Y3438879D01*
X-8793763Y3418095D01*
X-8757697Y3390735D01*
X-8727563Y3354299D01*
X-8705785Y3309706D01*
X-8692066Y3255256D01*
X-8687159Y3188441D01*
X-8687159Y2678828D01*
X-8810355Y2678828D01*
X-8836099Y2775427D01*
X-8840593Y2775427D01*
X-8870009Y2738160D01*
X-8900171Y2710033D01*
X-8931304Y2690003D01*
X-8981945Y2671212D01*
X-9036573Y2664846D01*
X-9084791Y2669420D01*
X-9123983Y2682109D01*
X-9155838Y2701894D01*
X-9181653Y2728532D01*
X-9202413Y2762022D01*
X-9217532Y2801012D01*
X-9227010Y2846559D01*
X-9230355Y2900051D01*
X-9229028Y2918248D01*
X-9072428Y2918248D01*
X-9069125Y2886416D01*
X-9060097Y2863108D01*
X-9045561Y2846135D01*
X-9016423Y2830158D01*
X-8979469Y2824458D01*
X-8942447Y2829010D01*
X-8910296Y2842116D01*
X-8882016Y2863598D01*
X-8859650Y2892805D01*
X-8846347Y2927667D01*
X-8841716Y2970027D01*
X-8841716Y3033042D01*
X-8934675Y3030233D01*
X-8979199Y3025810D01*
X-9012563Y3015814D01*
X-9037159Y3001534D01*
X-9056692Y2980245D01*
X-9068319Y2953126D01*
X-9072428Y2918248D01*
X-9229028Y2918248D01*
X-9225722Y2963598D01*
X-9212877Y3014420D01*
X-9192656Y3055166D01*
X-9164849Y3087630D01*
X-9131543Y3111851D01*
X-9090109Y3130983D01*
X-9038925Y3144301D01*
X-8976099Y3150645D01*
X-8841716Y3154858D01*
X-8841716Y3188441D01*
X-8846287Y3225622D01*
X-8859130Y3253616D01*
X-8880812Y3274766D01*
X-8914176Y3289204D01*
X-8963789Y3294809D01*
X-9014734Y3290222D01*
X-9073282Y3275443D01*
X-9140718Y3248647D01*
X-9193377Y3390003D01*
X-9139389Y3419140D01*
X-9082498Y3440102D01*
X-9022260Y3452880D01*
X-8958171Y3457230D01*
X-8892190Y3452360D01*
G37*
G36*
X-8394312Y3495027D02*
G01*
X-8401053Y3343841D01*
X-8394312Y3343841D01*
X-8372653Y3379103D01*
X-8347215Y3407356D01*
X-8317620Y3429204D01*
X-8268443Y3450153D01*
X-8215136Y3457230D01*
X-8163661Y3450875D01*
X-8120953Y3432918D01*
X-8085198Y3403986D01*
X-8055088Y3365355D01*
X-8030465Y3318423D01*
X-8011290Y3261897D01*
X-7998471Y3201982D01*
X-7990503Y3136201D01*
X-7987745Y3063816D01*
X-7990641Y2989632D01*
X-7998992Y2922469D01*
X-8012414Y2861522D01*
X-8032337Y2804097D01*
X-8057539Y2756721D01*
X-8088032Y2718029D01*
X-8124115Y2689105D01*
X-8167003Y2671179D01*
X-8218457Y2664846D01*
X-8268835Y2671161D01*
X-8316496Y2690003D01*
X-8359301Y2720939D01*
X-8394312Y2762848D01*
X-8405498Y2762848D01*
X-8430167Y2678828D01*
X-8553363Y2678828D01*
X-8553363Y3065221D01*
X-8394312Y3065221D01*
X-8390026Y2986342D01*
X-8378799Y2929523D01*
X-8362414Y2889488D01*
X-8338225Y2857918D01*
X-8309091Y2839297D01*
X-8273363Y2832824D01*
X-8237910Y2838717D01*
X-8209739Y2855381D01*
X-8187050Y2883044D01*
X-8169249Y2924162D01*
X-8157065Y2983009D01*
X-8152414Y3065221D01*
X-8156652Y3142232D01*
X-8167706Y3197132D01*
X-8183775Y3235336D01*
X-8207507Y3265037D01*
X-8237113Y3282927D01*
X-8274487Y3289252D01*
X-8308448Y3283575D01*
X-8336932Y3267175D01*
X-8361290Y3239549D01*
X-8377931Y3203607D01*
X-8389689Y3147992D01*
X-8394312Y3065221D01*
X-8553363Y3065221D01*
X-8553363Y3742811D01*
X-8394312Y3742811D01*
X-8394312Y3495027D01*
G37*
G36*
X-7534165Y3450692D02*
G01*
X-7480523Y3432330D01*
X-7435693Y3403246D01*
X-7398192Y3363441D01*
X-7368402Y3314280D01*
X-7346460Y3255801D01*
X-7332556Y3186167D01*
X-7327606Y3103017D01*
X-7327606Y3002206D01*
X-7729678Y3002206D01*
X-7725472Y2966026D01*
X-7716288Y2934831D01*
X-7702226Y2907684D01*
X-7673220Y2874556D01*
X-7634473Y2850287D01*
X-7590589Y2836265D01*
X-7541514Y2831419D01*
X-7497358Y2834637D01*
X-7449141Y2844730D01*
X-7399934Y2860602D01*
X-7345484Y2883199D01*
X-7345484Y2719434D01*
X-7395723Y2693244D01*
X-7446894Y2676752D01*
X-7498992Y2667803D01*
X-7550453Y2664846D01*
X-7616235Y2669604D01*
X-7672829Y2683056D01*
X-7721557Y2704266D01*
X-7763543Y2732730D01*
X-7799678Y2768405D01*
X-7830270Y2811614D01*
X-7854441Y2861703D01*
X-7872324Y2919703D01*
X-7883617Y2986989D01*
X-7887606Y3065221D01*
X-7883751Y3140814D01*
X-7726308Y3140814D01*
X-7473175Y3140814D01*
X-7477923Y3188529D01*
X-7489815Y3227074D01*
X-7508492Y3258417D01*
X-7533109Y3282393D01*
X-7561633Y3296821D01*
X-7595247Y3301831D01*
X-7628341Y3297133D01*
X-7657534Y3283430D01*
X-7683761Y3260493D01*
X-7704259Y3230137D01*
X-7718574Y3191012D01*
X-7726308Y3140814D01*
X-7883751Y3140814D01*
X-7883605Y3143669D01*
X-7872198Y3212242D01*
X-7853998Y3272400D01*
X-7827851Y3327220D01*
X-7795162Y3372394D01*
X-7755422Y3408931D01*
X-7710600Y3435115D01*
X-7658810Y3451477D01*
X-7598618Y3457230D01*
X-7534165Y3450692D01*
G37*
G36*
X-7226294Y2678828D02*
G01*
X-7226294Y2804858D01*
X-7067243Y2846807D01*
X-7067243Y3275208D01*
X-7196057Y3299022D01*
X-7196057Y3443248D01*
X-6944047Y3443248D01*
X-6920551Y3314409D01*
X-6912686Y3314409D01*
X-6891197Y3355103D01*
X-6866605Y3389447D01*
X-6838778Y3418029D01*
X-6807501Y3439205D01*
X-6770253Y3452507D01*
X-6725645Y3457230D01*
X-6677480Y3453017D01*
X-6648634Y3446100D01*
X-6619253Y3433417D01*
X-6662923Y3244434D01*
X-6702149Y3257012D01*
X-6751388Y3262630D01*
X-6789456Y3258292D01*
X-6820515Y3246161D01*
X-6845981Y3226907D01*
X-6866817Y3200287D01*
X-6887552Y3156569D01*
X-6900369Y3105608D01*
X-6904870Y3045620D01*
X-6904870Y2846807D01*
X-6744696Y2804858D01*
X-6744696Y2678828D01*
X-7226294Y2678828D01*
G37*
D13*
X-242357Y-2855680D02*
X-128071Y-2893775D01*
X-128071Y-2893775D02*
X62405Y-2893775D01*
X62405Y-2893775D02*
X138596Y-2855680D01*
X138596Y-2855680D02*
X176691Y-2817584D01*
X176691Y-2817584D02*
X214786Y-2741394D01*
X214786Y-2741394D02*
X214786Y-2665203D01*
X214786Y-2665203D02*
X176691Y-2589013D01*
X176691Y-2589013D02*
X138596Y-2550918D01*
X138596Y-2550918D02*
X62405Y-2512822D01*
X62405Y-2512822D02*
X-89976Y-2474727D01*
X-89976Y-2474727D02*
X-166166Y-2436632D01*
X-166166Y-2436632D02*
X-204261Y-2398537D01*
X-204261Y-2398537D02*
X-242357Y-2322346D01*
X-242357Y-2322346D02*
X-242357Y-2246156D01*
X-242357Y-2246156D02*
X-204261Y-2169965D01*
X-204261Y-2169965D02*
X-166166Y-2131870D01*
X-166166Y-2131870D02*
X-89976Y-2093775D01*
X-89976Y-2093775D02*
X100501Y-2093775D01*
X100501Y-2093775D02*
X214786Y-2131870D01*
X-73309Y-9593775D02*
X-454261Y-9593775D01*
X-454261Y-9593775D02*
X-492357Y-9974727D01*
X-492357Y-9974727D02*
X-454261Y-9936632D01*
X-454261Y-9936632D02*
X-378071Y-9898537D01*
X-378071Y-9898537D02*
X-187595Y-9898537D01*
X-187595Y-9898537D02*
X-111404Y-9936632D01*
X-111404Y-9936632D02*
X-73309Y-9974727D01*
X-73309Y-9974727D02*
X-35214Y-10050918D01*
X-35214Y-10050918D02*
X-35214Y-10241394D01*
X-35214Y-10241394D02*
X-73309Y-10317584D01*
X-73309Y-10317584D02*
X-111404Y-10355680D01*
X-111404Y-10355680D02*
X-187595Y-10393775D01*
X-187595Y-10393775D02*
X-378071Y-10393775D01*
X-378071Y-10393775D02*
X-454261Y-10355680D01*
X-454261Y-10355680D02*
X-492357Y-10317584D01*
X193358Y-9593775D02*
X460025Y-10393775D01*
X460025Y-10393775D02*
X726691Y-9593775D01*
D14*
G36*
X-16134323Y5157136D02*
G01*
X-16065827Y5142757D01*
X-16010836Y5120892D01*
X-15967023Y5092623D01*
X-15929905Y5053678D01*
X-15903158Y5004891D01*
X-15886270Y4944181D01*
X-15880195Y4868334D01*
X-15885118Y4796985D01*
X-15898927Y4737840D01*
X-15920800Y4688596D01*
X-15951246Y4647066D01*
X-15987300Y4617727D01*
X-16030038Y4599570D01*
X-16030038Y4591143D01*
X-15981142Y4571256D01*
X-15940231Y4542200D01*
X-15906085Y4503802D01*
X-15881277Y4456912D01*
X-15865141Y4395076D01*
X-15859190Y4313952D01*
X-15865055Y4232871D01*
X-15881673Y4164316D01*
X-15908320Y4105930D01*
X-15945286Y4056032D01*
X-15990189Y4016896D01*
X-16043941Y3987890D01*
X-16108288Y3969423D01*
X-16185437Y3962828D01*
X-16531224Y3962828D01*
X-16531224Y4162717D01*
X-16342180Y4162717D01*
X-16205038Y4162717D01*
X-16155984Y4168533D01*
X-16122405Y4183692D01*
X-16100013Y4206387D01*
X-16084333Y4237429D01*
X-16074253Y4276987D01*
X-16070582Y4327361D01*
X-16074411Y4377689D01*
X-16084765Y4415668D01*
X-16100685Y4444158D01*
X-16123300Y4464272D01*
X-16158686Y4478195D01*
X-16211999Y4483652D01*
X-16342180Y4483652D01*
X-16342180Y4162717D01*
X-16531224Y4162717D01*
X-16531224Y4690281D01*
X-16342180Y4690281D01*
X-16220425Y4690281D01*
X-16171432Y4694792D01*
X-16138089Y4706370D01*
X-16116133Y4723034D01*
X-16100209Y4747306D01*
X-16089877Y4780733D01*
X-16086031Y4826349D01*
X-16090148Y4872870D01*
X-16101174Y4906472D01*
X-16118209Y4930470D01*
X-16141408Y4946693D01*
X-16176375Y4958010D01*
X-16227386Y4962417D01*
X-16342180Y4962417D01*
X-16342180Y4690281D01*
X-16531224Y4690281D01*
X-16531224Y5162378D01*
X-16219021Y5162378D01*
X-16134323Y5157136D01*
G37*
G36*
X-15719972Y3962828D02*
G01*
X-15719972Y4114064D01*
X-15467974Y4164402D01*
X-15467974Y5038034D01*
X-15671001Y5088446D01*
X-15671001Y5239608D01*
X-15265008Y5239608D01*
X-15265008Y4164402D01*
X-15034016Y4114064D01*
X-15034016Y3962828D01*
X-15719972Y3962828D01*
G37*
G36*
X-14472090Y4891066D02*
G01*
X-14404406Y4874889D01*
X-14349056Y4849948D01*
X-14303974Y4817117D01*
X-14266307Y4773393D01*
X-14239084Y4719882D01*
X-14221936Y4654542D01*
X-14215802Y4574364D01*
X-14215802Y3962828D01*
X-14369797Y3962828D01*
X-14401976Y4078746D01*
X-14407594Y4078746D01*
X-14444364Y4034027D01*
X-14482066Y4000274D01*
X-14520983Y3976237D01*
X-14584284Y3953688D01*
X-14652569Y3946049D01*
X-14712842Y3951539D01*
X-14761831Y3966765D01*
X-14801651Y3990507D01*
X-14833920Y4022473D01*
X-14859869Y4062661D01*
X-14878768Y4109449D01*
X-14890615Y4164105D01*
X-14894797Y4228296D01*
X-14893139Y4250131D01*
X-14697388Y4250131D01*
X-14693259Y4211933D01*
X-14681974Y4183964D01*
X-14663804Y4163596D01*
X-14627382Y4144424D01*
X-14581189Y4137584D01*
X-14534912Y4143047D01*
X-14494723Y4158774D01*
X-14459373Y4184552D01*
X-14431416Y4219600D01*
X-14414787Y4261435D01*
X-14408998Y4312267D01*
X-14408998Y4387884D01*
X-14525197Y4384514D01*
X-14580852Y4379206D01*
X-14622557Y4367211D01*
X-14653302Y4350076D01*
X-14677718Y4324528D01*
X-14692252Y4291986D01*
X-14697388Y4250131D01*
X-14893139Y4250131D01*
X-14889006Y4304551D01*
X-14872949Y4365538D01*
X-14847673Y4414433D01*
X-14812915Y4453390D01*
X-14771282Y4482455D01*
X-14719489Y4505413D01*
X-14655509Y4521396D01*
X-14576976Y4529008D01*
X-14408998Y4534064D01*
X-14408998Y4574364D01*
X-14414711Y4618981D01*
X-14430765Y4652574D01*
X-14457867Y4677954D01*
X-14499573Y4695279D01*
X-14561589Y4702005D01*
X-14625270Y4696500D01*
X-14698455Y4678766D01*
X-14782751Y4646611D01*
X-14848574Y4816237D01*
X-14781090Y4851202D01*
X-14709975Y4876357D01*
X-14634677Y4891690D01*
X-14554567Y4896911D01*
X-14472090Y4891066D01*
G37*
G36*
X-13362540Y3962828D02*
G01*
X-13516535Y3962828D01*
X-13558544Y4082117D01*
X-13566971Y4082117D01*
X-13592962Y4040628D01*
X-13623400Y4006978D01*
X-13658684Y3980487D01*
X-13717921Y3954865D01*
X-13785324Y3946049D01*
X-13849723Y3953576D01*
X-13903109Y3974822D01*
X-13947745Y4008990D01*
X-13985277Y4054919D01*
X-14016094Y4111469D01*
X-14040191Y4180376D01*
X-14056187Y4253430D01*
X-14066124Y4333497D01*
X-14069170Y4411405D01*
X-13863726Y4411405D01*
X-13858418Y4320148D01*
X-13844597Y4255420D01*
X-13824525Y4210637D01*
X-13794820Y4176381D01*
X-13756140Y4155244D01*
X-13705579Y4147623D01*
X-13656602Y4154453D01*
X-13618651Y4173385D01*
X-13589079Y4203821D01*
X-13566619Y4247504D01*
X-13551615Y4308208D01*
X-13545966Y4391255D01*
X-13545966Y4418073D01*
X-13549483Y4496344D01*
X-13559277Y4561761D01*
X-13578048Y4619109D01*
X-13605439Y4660020D01*
X-13629052Y4678864D01*
X-13659448Y4690935D01*
X-13698557Y4695337D01*
X-13747818Y4687859D01*
X-13786590Y4666874D01*
X-13817432Y4632461D01*
X-13841342Y4581975D01*
X-13857564Y4510498D01*
X-13863726Y4411405D01*
X-14069170Y4411405D01*
X-14069562Y4421443D01*
X-14065816Y4512737D01*
X-14055106Y4593803D01*
X-14038054Y4665882D01*
X-14012536Y4733380D01*
X-13979918Y4789136D01*
X-13940052Y4834702D01*
X-13893221Y4868400D01*
X-13837272Y4889446D01*
X-13769937Y4896911D01*
X-13721128Y4892872D01*
X-13679289Y4881435D01*
X-13643297Y4863279D01*
X-13595164Y4822107D01*
X-13552927Y4762528D01*
X-13545966Y4762528D01*
X-13557140Y4862399D01*
X-13561353Y4964102D01*
X-13561353Y5239608D01*
X-13362540Y5239608D01*
X-13362540Y3962828D01*
G37*
G36*
X-12774560Y4889065D02*
G01*
X-12707506Y4867031D01*
X-12651469Y4832129D01*
X-12604593Y4784364D01*
X-12567356Y4725370D01*
X-12539928Y4655195D01*
X-12522548Y4571634D01*
X-12516360Y4471855D01*
X-12516360Y4350882D01*
X-13018951Y4350882D01*
X-13013692Y4307466D01*
X-13002212Y4270031D01*
X-12984635Y4237455D01*
X-12948377Y4197702D01*
X-12899944Y4168579D01*
X-12845090Y4151752D01*
X-12783745Y4145937D01*
X-12728550Y4149798D01*
X-12668279Y4161911D01*
X-12606771Y4180957D01*
X-12538708Y4208073D01*
X-12538708Y4011555D01*
X-12601506Y3980127D01*
X-12665470Y3960337D01*
X-12730593Y3949597D01*
X-12794919Y3946049D01*
X-12877147Y3951760D01*
X-12947889Y3967902D01*
X-13008799Y3993353D01*
X-13061282Y4027510D01*
X-13106451Y4070320D01*
X-13144690Y4122171D01*
X-13174904Y4182278D01*
X-13197257Y4251878D01*
X-13211375Y4332621D01*
X-13216360Y4426499D01*
X-13211542Y4517211D01*
X-13014738Y4517211D01*
X-12698321Y4517211D01*
X-12704257Y4574469D01*
X-12719121Y4620723D01*
X-12742468Y4658334D01*
X-12773239Y4687106D01*
X-12808894Y4704419D01*
X-12850912Y4710431D01*
X-12892279Y4704793D01*
X-12928771Y4688350D01*
X-12961554Y4660826D01*
X-12987176Y4624399D01*
X-13005071Y4577449D01*
X-13014738Y4517211D01*
X-13211542Y4517211D01*
X-13211360Y4520637D01*
X-13197101Y4602924D01*
X-13174350Y4675114D01*
X-13141667Y4740899D01*
X-13100805Y4795107D01*
X-13051130Y4838952D01*
X-12995103Y4870373D01*
X-12930365Y4890007D01*
X-12855125Y4896911D01*
X-12774560Y4889065D01*
G37*
G36*
X-12391125Y3962828D02*
G01*
X-12391125Y5162378D01*
X-12116718Y5162378D01*
X-12031294Y4481967D01*
X-12025737Y4481967D01*
X-11924926Y5162378D01*
X-11664502Y5162378D01*
X-11664502Y3962828D01*
X-11846524Y3962828D01*
X-11846524Y4236649D01*
X-11843715Y4385320D01*
X-11836755Y4556705D01*
X-11828328Y4723840D01*
X-11821306Y4860787D01*
X-11817093Y4940581D01*
X-11825519Y4940581D01*
X-11927735Y4245076D01*
X-12125144Y4245076D01*
X-12235725Y4942267D01*
X-12244091Y4942267D01*
X-12238534Y4858223D01*
X-12229436Y4719664D01*
X-12219605Y4551649D01*
X-12211912Y4378652D01*
X-12209103Y4223240D01*
X-12209103Y3962828D01*
X-12391125Y3962828D01*
G37*
G36*
X-11115216Y4891066D02*
G01*
X-11047532Y4874889D01*
X-10992183Y4849948D01*
X-10947100Y4817117D01*
X-10909433Y4773393D01*
X-10882211Y4719882D01*
X-10865062Y4654542D01*
X-10858928Y4574364D01*
X-10858928Y3962828D01*
X-11012923Y3962828D01*
X-11045102Y4078746D01*
X-11050720Y4078746D01*
X-11087490Y4034027D01*
X-11125193Y4000274D01*
X-11164110Y3976237D01*
X-11227410Y3953688D01*
X-11295696Y3946049D01*
X-11355968Y3951539D01*
X-11404957Y3966765D01*
X-11444777Y3990507D01*
X-11477046Y4022473D01*
X-11502995Y4062661D01*
X-11521895Y4109449D01*
X-11533742Y4164105D01*
X-11537923Y4228296D01*
X-11536265Y4250131D01*
X-11340514Y4250131D01*
X-11336386Y4211933D01*
X-11325100Y4183964D01*
X-11306931Y4163596D01*
X-11270508Y4144424D01*
X-11224316Y4137584D01*
X-11178038Y4143047D01*
X-11137849Y4158774D01*
X-11102499Y4184552D01*
X-11074542Y4219600D01*
X-11057914Y4261435D01*
X-11052124Y4312267D01*
X-11052124Y4387884D01*
X-11168323Y4384514D01*
X-11223978Y4379206D01*
X-11265684Y4367211D01*
X-11296428Y4350076D01*
X-11320844Y4324528D01*
X-11335378Y4291986D01*
X-11340514Y4250131D01*
X-11536265Y4250131D01*
X-11532132Y4304551D01*
X-11516075Y4365538D01*
X-11490800Y4414433D01*
X-11456041Y4453390D01*
X-11414408Y4482455D01*
X-11362615Y4505413D01*
X-11298635Y4521396D01*
X-11220102Y4529008D01*
X-11052124Y4534064D01*
X-11052124Y4574364D01*
X-11057837Y4618981D01*
X-11073891Y4652574D01*
X-11100994Y4677954D01*
X-11142699Y4695279D01*
X-11204715Y4702005D01*
X-11268396Y4696500D01*
X-11341582Y4678766D01*
X-11425877Y4646611D01*
X-11491700Y4816237D01*
X-11424216Y4851202D01*
X-11353102Y4876357D01*
X-11277804Y4891690D01*
X-11197693Y4896911D01*
X-11115216Y4891066D01*
G37*
G36*
X-10387906Y3946049D02*
G01*
X-10456119Y3949012D01*
X-10522972Y3957846D01*
X-10589115Y3974018D01*
X-10656695Y3999758D01*
X-10656695Y4226611D01*
X-10594138Y4197576D01*
X-10520896Y4171949D01*
X-10444290Y4155025D01*
X-10364092Y4149308D01*
X-10313962Y4153805D01*
X-10280134Y4165281D01*
X-10262595Y4178720D01*
X-10252704Y4195952D01*
X-10249298Y4218184D01*
X-10254099Y4246063D01*
X-10268615Y4269175D01*
X-10295521Y4288746D01*
X-10431259Y4354252D01*
X-10492285Y4385887D01*
X-10543977Y4417267D01*
X-10589012Y4454828D01*
X-10622379Y4499552D01*
X-10637778Y4534213D01*
X-10647567Y4576454D01*
X-10651078Y4628073D01*
X-10646289Y4689147D01*
X-10632802Y4739679D01*
X-10611205Y4781799D01*
X-10581946Y4817321D01*
X-10545695Y4846427D01*
X-10501296Y4869140D01*
X-10428016Y4889561D01*
X-10338874Y4896911D01*
X-10264670Y4892536D01*
X-10189092Y4879252D01*
X-10114625Y4856808D01*
X-10042058Y4824664D01*
X-10105073Y4638184D01*
X-10169073Y4663800D01*
X-10227622Y4681855D01*
X-10286133Y4693219D01*
X-10345896Y4697022D01*
X-10389331Y4693199D01*
X-10418009Y4683540D01*
X-10437437Y4665055D01*
X-10443899Y4636499D01*
X-10439304Y4609574D01*
X-10425439Y4587281D01*
X-10399813Y4568429D01*
X-10275860Y4512155D01*
X-10214566Y4483226D01*
X-10159722Y4451705D01*
X-10111195Y4412459D01*
X-10073565Y4363484D01*
X-10056033Y4325153D01*
X-10044750Y4276986D01*
X-10040654Y4216499D01*
X-10046617Y4148022D01*
X-10063342Y4092591D01*
X-10090213Y4047369D01*
X-10128154Y4010676D01*
X-10171952Y3984803D01*
X-10228013Y3964504D01*
X-10298988Y3951007D01*
X-10387906Y3946049D01*
G37*
G36*
X-9382053Y3946049D02*
G01*
X-9457305Y3951878D01*
X-9517943Y3967910D01*
X-9566596Y3992532D01*
X-9605413Y4024964D01*
X-9636358Y4067187D01*
X-9659609Y4121495D01*
X-9674741Y4190732D01*
X-9680273Y4278635D01*
X-9680273Y4678484D01*
X-9855273Y4678484D01*
X-9855273Y4829720D01*
X-9664886Y4880131D01*
X-9631242Y5108596D01*
X-9477246Y5108596D01*
X-9477246Y4880131D01*
X-9190261Y4880131D01*
X-9190261Y4678484D01*
X-9477246Y4678484D01*
X-9477246Y4303840D01*
X-9472060Y4243231D01*
X-9459050Y4205581D01*
X-9437663Y4178025D01*
X-9410080Y4161032D01*
X-9378344Y4152325D01*
X-9342852Y4149308D01*
X-9274281Y4155976D01*
X-9183239Y4174514D01*
X-9183239Y3982979D01*
X-9235063Y3965633D01*
X-9284783Y3954475D01*
X-9382053Y3946049D01*
G37*
G36*
X-8578468Y4889065D02*
G01*
X-8511414Y4867031D01*
X-8455377Y4832129D01*
X-8408501Y4784364D01*
X-8371263Y4725370D01*
X-8343835Y4655195D01*
X-8326456Y4571634D01*
X-8320268Y4471855D01*
X-8320268Y4350882D01*
X-8822859Y4350882D01*
X-8817600Y4307466D01*
X-8806120Y4270031D01*
X-8788543Y4237455D01*
X-8752285Y4197702D01*
X-8703852Y4168579D01*
X-8648998Y4151752D01*
X-8587653Y4145937D01*
X-8532458Y4149798D01*
X-8472187Y4161911D01*
X-8410679Y4180957D01*
X-8342616Y4208073D01*
X-8342616Y4011555D01*
X-8405414Y3980127D01*
X-8469378Y3960337D01*
X-8534501Y3949597D01*
X-8598827Y3946049D01*
X-8681055Y3951760D01*
X-8751797Y3967902D01*
X-8812707Y3993353D01*
X-8865190Y4027510D01*
X-8910359Y4070320D01*
X-8948598Y4122171D01*
X-8978812Y4182278D01*
X-9001165Y4251878D01*
X-9015282Y4332621D01*
X-9020268Y4426499D01*
X-9015450Y4517211D01*
X-8818646Y4517211D01*
X-8502229Y4517211D01*
X-8508165Y4574469D01*
X-8523029Y4620723D01*
X-8546376Y4658334D01*
X-8577147Y4687106D01*
X-8612802Y4704419D01*
X-8654820Y4710431D01*
X-8696187Y4704793D01*
X-8732678Y4688350D01*
X-8765462Y4660826D01*
X-8791084Y4624399D01*
X-8808978Y4577449D01*
X-8818646Y4517211D01*
X-9015450Y4517211D01*
X-9015268Y4520637D01*
X-9001009Y4602924D01*
X-8978258Y4675114D01*
X-8945575Y4740899D01*
X-8904713Y4795107D01*
X-8855038Y4838952D01*
X-8799011Y4870373D01*
X-8734273Y4890007D01*
X-8659033Y4896911D01*
X-8578468Y4889065D01*
G37*
G36*
X-8193628Y3962828D02*
G01*
X-8193628Y4114064D01*
X-7994815Y4164402D01*
X-7994815Y4678484D01*
X-8155832Y4707061D01*
X-8155832Y4880131D01*
X-7840819Y4880131D01*
X-7811449Y4725526D01*
X-7801618Y4725526D01*
X-7774757Y4774358D01*
X-7744016Y4815570D01*
X-7709234Y4849870D01*
X-7670137Y4875280D01*
X-7623577Y4891242D01*
X-7567817Y4896911D01*
X-7507611Y4891855D01*
X-7471553Y4883555D01*
X-7434827Y4868334D01*
X-7489415Y4641555D01*
X-7538447Y4656649D01*
X-7599996Y4663390D01*
X-7647580Y4658184D01*
X-7686404Y4643627D01*
X-7718236Y4620523D01*
X-7744282Y4588579D01*
X-7770201Y4536117D01*
X-7786222Y4474963D01*
X-7791849Y4402979D01*
X-7791849Y4164402D01*
X-7591631Y4114064D01*
X-7591631Y3962828D01*
X-8193628Y3962828D01*
G37*
G36*
X-6041718Y5155240D02*
G01*
X-5972048Y5135638D01*
X-5916537Y5105528D01*
X-5872588Y5065732D01*
X-5837066Y5014526D01*
X-5810993Y4952934D01*
X-5794469Y4878837D01*
X-5788569Y4789420D01*
X-5792796Y4710827D01*
X-5804896Y4641552D01*
X-5824289Y4580226D01*
X-5852546Y4525025D01*
X-5889991Y4478501D01*
X-5937740Y4439908D01*
X-5991197Y4413289D01*
X-6058082Y4395904D01*
X-6141378Y4389570D01*
X-6264598Y4389570D01*
X-6264598Y3962828D01*
X-6460603Y3962828D01*
X-6460603Y4596199D01*
X-6264598Y4596199D01*
X-6162383Y4596199D01*
X-6105845Y4602346D01*
X-6063849Y4618853D01*
X-6032934Y4644046D01*
X-6009796Y4679085D01*
X-5995373Y4723265D01*
X-5990191Y4779308D01*
X-5994672Y4837220D01*
X-6006723Y4880269D01*
X-6025179Y4912005D01*
X-6050922Y4934978D01*
X-6086676Y4950037D01*
X-6135760Y4955676D01*
X-6264598Y4955676D01*
X-6264598Y4596199D01*
X-6460603Y4596199D01*
X-6460603Y5162378D01*
X-6128799Y5162378D01*
X-6041718Y5155240D01*
G37*
G36*
X-5241953Y3946049D02*
G01*
X-5314485Y3951132D01*
X-5377336Y3965548D01*
X-5431882Y3988363D01*
X-5479296Y4019102D01*
X-5535554Y4073925D01*
X-5581587Y4142169D01*
X-5617904Y4225732D01*
X-5642483Y4316363D01*
X-5657959Y4419586D01*
X-5663394Y4537361D01*
X-5656887Y4669503D01*
X-5638493Y4783122D01*
X-5609478Y4880937D01*
X-5578732Y4949646D01*
X-5542031Y5008782D01*
X-5499226Y5059313D01*
X-5449865Y5101855D01*
X-5396152Y5134606D01*
X-5335684Y5158746D01*
X-5267427Y5173869D01*
X-5190174Y5179158D01*
X-5119751Y5174462D01*
X-5062069Y5161499D01*
X-5007000Y5140215D01*
X-4949350Y5110281D01*
X-5016578Y4910320D01*
X-5068037Y4937929D01*
X-5112505Y4953990D01*
X-5156281Y4962916D01*
X-5197196Y4965787D01*
X-5260276Y4959347D01*
X-5310754Y4941540D01*
X-5351191Y4913690D01*
X-5385222Y4875112D01*
X-5412482Y4826938D01*
X-5433073Y4767511D01*
X-5451040Y4669007D01*
X-5457559Y4547473D01*
X-5453033Y4445412D01*
X-5440762Y4365063D01*
X-5422334Y4302483D01*
X-5398757Y4254308D01*
X-5366486Y4214365D01*
X-5325452Y4185032D01*
X-5273683Y4166237D01*
X-5208370Y4159420D01*
X-5159304Y4163127D01*
X-5108291Y4174514D01*
X-5055597Y4193877D01*
X-4988551Y4226611D01*
X-4988551Y4008184D01*
X-5049934Y3980473D01*
X-5113909Y3961143D01*
X-5178866Y3949776D01*
X-5241953Y3946049D01*
G37*
G36*
X-4385265Y5157136D02*
G01*
X-4316769Y5142757D01*
X-4261778Y5120892D01*
X-4217965Y5092623D01*
X-4180847Y5053678D01*
X-4154100Y5004891D01*
X-4137212Y4944181D01*
X-4131137Y4868334D01*
X-4136060Y4796985D01*
X-4149870Y4737840D01*
X-4171742Y4688596D01*
X-4202188Y4647066D01*
X-4238242Y4617727D01*
X-4280980Y4599570D01*
X-4280980Y4591143D01*
X-4232084Y4571256D01*
X-4191173Y4542200D01*
X-4157027Y4503802D01*
X-4132219Y4456912D01*
X-4116083Y4395076D01*
X-4110132Y4313952D01*
X-4115997Y4232871D01*
X-4132615Y4164316D01*
X-4159262Y4105930D01*
X-4196228Y4056032D01*
X-4241132Y4016896D01*
X-4294883Y3987890D01*
X-4359230Y3969423D01*
X-4436379Y3962828D01*
X-4782166Y3962828D01*
X-4782166Y4162717D01*
X-4593122Y4162717D01*
X-4455980Y4162717D01*
X-4406926Y4168533D01*
X-4373347Y4183692D01*
X-4350955Y4206387D01*
X-4335275Y4237429D01*
X-4325195Y4276987D01*
X-4321524Y4327361D01*
X-4325353Y4377689D01*
X-4335707Y4415668D01*
X-4351627Y4444158D01*
X-4374242Y4464272D01*
X-4409628Y4478195D01*
X-4462941Y4483652D01*
X-4593122Y4483652D01*
X-4593122Y4162717D01*
X-4782166Y4162717D01*
X-4782166Y4690281D01*
X-4593122Y4690281D01*
X-4471367Y4690281D01*
X-4422374Y4694792D01*
X-4389031Y4706370D01*
X-4367076Y4723034D01*
X-4351151Y4747306D01*
X-4340819Y4780733D01*
X-4336973Y4826349D01*
X-4341090Y4872870D01*
X-4352116Y4906472D01*
X-4369152Y4930470D01*
X-4392350Y4946693D01*
X-4427317Y4958010D01*
X-4478328Y4962417D01*
X-4593122Y4962417D01*
X-4593122Y4690281D01*
X-4782166Y4690281D01*
X-4782166Y5162378D01*
X-4469963Y5162378D01*
X-4385265Y5157136D01*
G37*
D12*
G36*
X-14708264Y955270D02*
G01*
X-16484057Y955270D01*
X-16484057Y2128881D01*
X-16372946Y2128881D01*
X-16372946Y1128881D01*
X-16368188Y1104963D01*
X-16334364Y1071139D01*
X-16286528Y1071139D01*
X-16252704Y1104963D01*
X-16247946Y1128881D01*
X-16247946Y1674422D01*
X-16225806Y1696562D01*
X-16152834Y1733048D01*
X-16039487Y1733048D01*
X-15976079Y1701344D01*
X-15944375Y1637936D01*
X-15944375Y1128881D01*
X-15939617Y1104963D01*
X-15905793Y1071139D01*
X-15857957Y1071139D01*
X-15824133Y1104963D01*
X-15819375Y1128881D01*
X-15819375Y1152799D01*
X-15558664Y1152799D01*
X-15558664Y1104963D01*
X-15524840Y1071139D01*
X-15500922Y1066381D01*
X-14881875Y1066381D01*
X-14857957Y1071139D01*
X-14824133Y1104963D01*
X-14824133Y1152799D01*
X-14857957Y1186623D01*
X-14881875Y1191381D01*
X-15350034Y1191381D01*
X-14885300Y1656116D01*
X-14883561Y1658720D01*
X-14882279Y1659360D01*
X-14877317Y1668065D01*
X-14871752Y1676393D01*
X-14871752Y1677826D01*
X-14870201Y1680546D01*
X-14822582Y1823402D01*
X-14821330Y1833343D01*
X-14819375Y1843167D01*
X-14819375Y1938405D01*
X-14819986Y1941477D01*
X-14819533Y1942835D01*
X-14822179Y1952496D01*
X-14824133Y1962323D01*
X-14825147Y1963337D01*
X-14825973Y1966356D01*
X-14873592Y2061594D01*
X-14879740Y2069516D01*
X-14885300Y2077837D01*
X-14932919Y2125456D01*
X-14941241Y2131017D01*
X-14949162Y2137164D01*
X-15044400Y2184783D01*
X-15047420Y2185610D01*
X-15048433Y2186623D01*
X-15058261Y2188578D01*
X-15067921Y2191223D01*
X-15069280Y2190771D01*
X-15072351Y2191381D01*
X-15310446Y2191381D01*
X-15313518Y2190771D01*
X-15314876Y2191223D01*
X-15324537Y2188578D01*
X-15334364Y2186623D01*
X-15335378Y2185610D01*
X-15338397Y2184783D01*
X-15433635Y2137164D01*
X-15441557Y2131017D01*
X-15449878Y2125456D01*
X-15497497Y2077837D01*
X-15511045Y2057560D01*
X-15511045Y2009726D01*
X-15477220Y1975901D01*
X-15429386Y1975901D01*
X-15409109Y1989449D01*
X-15368663Y2029895D01*
X-15295691Y2066381D01*
X-15087106Y2066381D01*
X-15014134Y2029895D01*
X-14980861Y1996622D01*
X-14944375Y1923650D01*
X-14944375Y1853310D01*
X-14984122Y1734071D01*
X-15545116Y1173075D01*
X-15558662Y1152802D01*
X-15558664Y1152799D01*
X-15819375Y1152799D01*
X-15819375Y1652691D01*
X-15819986Y1655763D01*
X-15819533Y1657121D01*
X-15822179Y1666782D01*
X-15824133Y1676609D01*
X-15825147Y1677623D01*
X-15825973Y1680642D01*
X-15873592Y1775880D01*
X-15881223Y1785711D01*
X-15882278Y1788879D01*
X-15885806Y1791618D01*
X-15888544Y1795145D01*
X-15891713Y1796201D01*
X-15901543Y1803831D01*
X-15996781Y1851450D01*
X-15999801Y1852277D01*
X-16000814Y1853290D01*
X-16010642Y1855245D01*
X-16020302Y1857890D01*
X-16021661Y1857438D01*
X-16024732Y1858048D01*
X-16167589Y1858048D01*
X-16170661Y1857438D01*
X-16172019Y1857890D01*
X-16181680Y1855245D01*
X-16191507Y1853290D01*
X-16192521Y1852277D01*
X-16195540Y1851450D01*
X-16247946Y1825247D01*
X-16247946Y2128881D01*
X-16252704Y2152799D01*
X-16286528Y2186623D01*
X-16334364Y2186623D01*
X-16368188Y2152799D01*
X-16372946Y2128881D01*
X-16484057Y2128881D01*
X-16484057Y2302492D01*
X-14708264Y2302492D01*
X-14708264Y955270D01*
G37*
D13*
X3464786Y-2131870D02*
X3388596Y-2093775D01*
X3388596Y-2093775D02*
X3274310Y-2093775D01*
X3274310Y-2093775D02*
X3160024Y-2131870D01*
X3160024Y-2131870D02*
X3083834Y-2208060D01*
X3083834Y-2208060D02*
X3045739Y-2284251D01*
X3045739Y-2284251D02*
X3007643Y-2436632D01*
X3007643Y-2436632D02*
X3007643Y-2550918D01*
X3007643Y-2550918D02*
X3045739Y-2703299D01*
X3045739Y-2703299D02*
X3083834Y-2779489D01*
X3083834Y-2779489D02*
X3160024Y-2855680D01*
X3160024Y-2855680D02*
X3274310Y-2893775D01*
X3274310Y-2893775D02*
X3350501Y-2893775D01*
X3350501Y-2893775D02*
X3464786Y-2855680D01*
X3464786Y-2855680D02*
X3502882Y-2817584D01*
X3502882Y-2817584D02*
X3502882Y-2550918D01*
X3502882Y-2550918D02*
X3350501Y-2550918D01*
X3845739Y-2893775D02*
X3845739Y-2093775D01*
X3845739Y-2093775D02*
X4302882Y-2893775D01*
X4302882Y-2893775D02*
X4302882Y-2093775D01*
X4683834Y-2893775D02*
X4683834Y-2093775D01*
X4683834Y-2093775D02*
X4874310Y-2093775D01*
X4874310Y-2093775D02*
X4988596Y-2131870D01*
X4988596Y-2131870D02*
X5064786Y-2208060D01*
X5064786Y-2208060D02*
X5102881Y-2284251D01*
X5102881Y-2284251D02*
X5140977Y-2436632D01*
X5140977Y-2436632D02*
X5140977Y-2550918D01*
X5140977Y-2550918D02*
X5102881Y-2703299D01*
X5102881Y-2703299D02*
X5064786Y-2779489D01*
X5064786Y-2779489D02*
X4988596Y-2855680D01*
X4988596Y-2855680D02*
X4874310Y-2893775D01*
X4874310Y-2893775D02*
X4683834Y-2893775D01*
X-73309Y5656225D02*
X-454261Y5656225D01*
X-454261Y5656225D02*
X-492357Y5275273D01*
X-492357Y5275273D02*
X-454261Y5313368D01*
X-454261Y5313368D02*
X-378071Y5351463D01*
X-378071Y5351463D02*
X-187595Y5351463D01*
X-187595Y5351463D02*
X-111404Y5313368D01*
X-111404Y5313368D02*
X-73309Y5275273D01*
X-73309Y5275273D02*
X-35214Y5199082D01*
X-35214Y5199082D02*
X-35214Y5008606D01*
X-35214Y5008606D02*
X-73309Y4932416D01*
X-73309Y4932416D02*
X-111404Y4894320D01*
X-111404Y4894320D02*
X-187595Y4856225D01*
X-187595Y4856225D02*
X-378071Y4856225D01*
X-378071Y4856225D02*
X-454261Y4894320D01*
X-454261Y4894320D02*
X-492357Y4932416D01*
X193358Y5656225D02*
X460025Y4856225D01*
X460025Y4856225D02*
X726691Y5656225D01*
D14*
%TO.C,J6*%
X1430000Y0D02*
G75*
G02*
X-1430000Y0I-1430000J0D01*
G01*
X-1430000Y0D02*
G75*
G02*
X1430000Y0I1430000J0D01*
G01*
%TO.C,J1*%
X1430000Y-7500000D02*
G75*
G02*
X-1430000Y-7500000I-1430000J0D01*
G01*
X-1430000Y-7500000D02*
G75*
G02*
X1430000Y-7500000I1430000J0D01*
G01*
%TO.C,J5*%
X-2570000Y0D02*
G75*
G02*
X-5430000Y0I-1430000J0D01*
G01*
X-5430000Y0D02*
G75*
G02*
X-2570000Y0I1430000J0D01*
G01*
%TO.C,J2*%
X1430000Y7500000D02*
G75*
G02*
X-1430000Y7500000I-1430000J0D01*
G01*
X-1430000Y7500000D02*
G75*
G02*
X1430000Y7500000I1430000J0D01*
G01*
D15*
%TO.C,G\u002A\u002A\u002A*%
G36*
X10841491Y-1777299D02*
G01*
X10859488Y-1802780D01*
X10956370Y-1868943D01*
X11125858Y-1901914D01*
X11325124Y-1901640D01*
X11511342Y-1868066D01*
X11638843Y-1803769D01*
X11739918Y-1740420D01*
X11827367Y-1771841D01*
X11835155Y-1778136D01*
X11891394Y-1890964D01*
X11849803Y-2028696D01*
X11759936Y-2127305D01*
X11646815Y-2168581D01*
X11445708Y-2194991D01*
X11237208Y-2202364D01*
X10991501Y-2195346D01*
X10834965Y-2170096D01*
X10737271Y-2120318D01*
X10708259Y-2092553D01*
X10629953Y-1966554D01*
X10608882Y-1880503D01*
X10651872Y-1775268D01*
X10746553Y-1735550D01*
X10841491Y-1777299D01*
G37*
G36*
X13593345Y-560878D02*
G01*
X13794325Y-675846D01*
X13940261Y-860139D01*
X14014160Y-1089299D01*
X13999027Y-1338873D01*
X13969942Y-1425581D01*
X13831981Y-1617959D01*
X13628638Y-1737821D01*
X13395094Y-1776767D01*
X13166526Y-1726396D01*
X13043087Y-1646926D01*
X12881241Y-1430497D01*
X12817486Y-1167947D01*
X12839579Y-966510D01*
X12863590Y-918043D01*
X12960033Y-918043D01*
X12979376Y-1011479D01*
X13048085Y-1090199D01*
X13188291Y-1165949D01*
X13323968Y-1126192D01*
X13394337Y-1046454D01*
X13425583Y-912787D01*
X13370864Y-798382D01*
X13263724Y-726261D01*
X13137706Y-719449D01*
X13029754Y-796200D01*
X12960033Y-918043D01*
X12863590Y-918043D01*
X12953142Y-737280D01*
X13150453Y-593171D01*
X13354318Y-539688D01*
X13593345Y-560878D01*
G37*
G36*
X9295827Y-559685D02*
G01*
X9491960Y-663319D01*
X9633685Y-832190D01*
X9712234Y-1041766D01*
X9718836Y-1267518D01*
X9644725Y-1484916D01*
X9481130Y-1669431D01*
X9460965Y-1684114D01*
X9266141Y-1762036D01*
X9033952Y-1776083D01*
X8823538Y-1725379D01*
X8769052Y-1694353D01*
X8601707Y-1513741D01*
X8525905Y-1292296D01*
X8534718Y-1057931D01*
X8593395Y-909127D01*
X8691957Y-909127D01*
X8717948Y-1049235D01*
X8819566Y-1152659D01*
X8937455Y-1181560D01*
X9047916Y-1133425D01*
X9107700Y-1061465D01*
X9138838Y-911021D01*
X9085967Y-786729D01*
X8978965Y-713318D01*
X8847711Y-715514D01*
X8759425Y-773238D01*
X8691957Y-909127D01*
X8593395Y-909127D01*
X8621221Y-838562D01*
X8778485Y-662104D01*
X8999584Y-556473D01*
X9054054Y-545815D01*
X9295827Y-559685D01*
G37*
G36*
X11624683Y6556407D02*
G01*
X11850973Y6544887D01*
X12051468Y6519783D01*
X12257556Y6478470D01*
X12484129Y6422592D01*
X13356324Y6151425D01*
X14157785Y5808463D01*
X14881099Y5398894D01*
X15518854Y4927912D01*
X16063638Y4400707D01*
X16508038Y3822470D01*
X16723089Y3453813D01*
X16925761Y3018612D01*
X17042521Y2653013D01*
X17074328Y2343700D01*
X17022145Y2077353D01*
X16886930Y1840655D01*
X16843234Y1787922D01*
X16664725Y1584611D01*
X16671307Y-1258845D01*
X16673709Y-1937858D01*
X16675883Y-2507570D01*
X16675404Y-2978752D01*
X16669848Y-3362178D01*
X16656787Y-3668620D01*
X16633797Y-3908851D01*
X16598452Y-4093643D01*
X16548326Y-4233769D01*
X16480994Y-4340001D01*
X16394031Y-4423113D01*
X16285011Y-4493877D01*
X16151507Y-4563065D01*
X15991096Y-4641451D01*
X15899229Y-4687878D01*
X15363564Y-4964539D01*
X11530076Y-4962188D01*
X10724609Y-4961248D01*
X10031188Y-4959376D01*
X9441768Y-4956406D01*
X8948305Y-4952171D01*
X8542751Y-4946505D01*
X8217063Y-4939243D01*
X7963194Y-4930216D01*
X7773098Y-4919260D01*
X7638732Y-4906207D01*
X7552048Y-4890892D01*
X7516447Y-4879195D01*
X7313117Y-4748282D01*
X7109545Y-4554246D01*
X6947925Y-4341118D01*
X6889633Y-4225050D01*
X6872564Y-4116700D01*
X6858094Y-3890464D01*
X6846270Y-3548523D01*
X6837136Y-3093061D01*
X6830740Y-2526258D01*
X6827127Y-1850297D01*
X6826297Y-1240642D01*
X7306281Y-1240642D01*
X7306777Y-1897219D01*
X7308486Y-2444238D01*
X7311740Y-2892233D01*
X7316870Y-3251737D01*
X7324209Y-3533283D01*
X7334087Y-3747404D01*
X7346836Y-3904635D01*
X7362788Y-4015508D01*
X7382275Y-4090557D01*
X7397107Y-4125336D01*
X7433419Y-4195943D01*
X7469829Y-4256483D01*
X7515302Y-4307735D01*
X7578799Y-4350480D01*
X7669285Y-4385496D01*
X7795721Y-4413565D01*
X7967070Y-4435466D01*
X8192296Y-4451978D01*
X8480361Y-4463882D01*
X8840229Y-4471956D01*
X9280862Y-4476982D01*
X9811223Y-4479739D01*
X10440274Y-4481006D01*
X11176980Y-4481564D01*
X11493697Y-4481756D01*
X15170710Y-4484160D01*
X15681994Y-4230589D01*
X16193279Y-3977018D01*
X16193279Y-1387650D01*
X16194159Y-748977D01*
X16195109Y-219277D01*
X16193595Y212545D01*
X16187082Y557582D01*
X16173034Y826929D01*
X16148917Y1031679D01*
X16112196Y1182927D01*
X16060336Y1291766D01*
X15990802Y1369291D01*
X15901060Y1426594D01*
X15788574Y1474771D01*
X15650810Y1524915D01*
X15516184Y1575686D01*
X15154805Y1701120D01*
X14869412Y1755414D01*
X14639296Y1738648D01*
X14443744Y1650901D01*
X14352153Y1580167D01*
X13967790Y1313279D01*
X13493907Y1102764D01*
X12951334Y957609D01*
X12878255Y944253D01*
X12651466Y910153D01*
X12411781Y886348D01*
X12137112Y872052D01*
X11805368Y866482D01*
X11394461Y868853D01*
X10969165Y876467D01*
X10384091Y894362D01*
X9901133Y923359D01*
X9502500Y967824D01*
X9170403Y1032123D01*
X8887053Y1120620D01*
X8634660Y1237681D01*
X8395433Y1387672D01*
X8163933Y1564825D01*
X8003943Y1685708D01*
X7882242Y1739669D01*
X7750438Y1742910D01*
X7667761Y1730935D01*
X7484104Y1674475D01*
X7371492Y1588993D01*
X7365546Y1579152D01*
X7351022Y1491612D01*
X7338267Y1291171D01*
X7327432Y985011D01*
X7318666Y580315D01*
X7312122Y84266D01*
X7307951Y-495954D01*
X7306302Y-1153162D01*
X7306281Y-1240642D01*
X6826297Y-1240642D01*
X6826273Y-1222686D01*
X6826882Y-546247D01*
X6828712Y20129D01*
X6832055Y486470D01*
X6837205Y862803D01*
X6844452Y1159156D01*
X6854090Y1385556D01*
X6866412Y1552031D01*
X6881709Y1668610D01*
X6900274Y1745319D01*
X6913768Y1777668D01*
X6958619Y1880777D01*
X6957713Y1968754D01*
X6901615Y2081009D01*
X6855070Y2149401D01*
X8305730Y2149401D01*
X8327778Y2093952D01*
X8369795Y2044682D01*
X8480510Y1942854D01*
X8628016Y1833127D01*
X8771310Y1743365D01*
X8869393Y1701430D01*
X8875616Y1700934D01*
X8930352Y1746303D01*
X9011408Y1856728D01*
X9017174Y1865840D01*
X9132444Y2016856D01*
X9282635Y2175377D01*
X9309304Y2199933D01*
X9498007Y2368895D01*
X9137723Y2330445D01*
X8887398Y2297381D01*
X8639572Y2254682D01*
X8519913Y2228827D01*
X8363606Y2186792D01*
X8305730Y2149401D01*
X6855070Y2149401D01*
X6808315Y2218102D01*
X6736940Y2323812D01*
X7726612Y2323812D01*
X7779210Y2270278D01*
X7912614Y2243449D01*
X8090240Y2244684D01*
X8275503Y2275345D01*
X8355120Y2300426D01*
X8529155Y2347400D01*
X8799234Y2396851D01*
X9141412Y2446201D01*
X9531745Y2492870D01*
X9946288Y2534280D01*
X10361097Y2567853D01*
X10752229Y2591009D01*
X11095737Y2601169D01*
X11149882Y2601419D01*
X11614477Y2592141D01*
X12122335Y2566200D01*
X12642753Y2526436D01*
X13145030Y2475687D01*
X13598467Y2416792D01*
X13972360Y2352591D01*
X14070349Y2331353D01*
X14303558Y2277850D01*
X14443803Y2252352D01*
X14515427Y2257135D01*
X14542771Y2294476D01*
X14549118Y2356319D01*
X14692097Y2356319D01*
X14717656Y2276464D01*
X14814790Y2244455D01*
X14902262Y2241135D01*
X15053032Y2260643D01*
X15111533Y2313345D01*
X15111608Y2316194D01*
X15107193Y2342798D01*
X15232522Y2342798D01*
X15282114Y2211039D01*
X15397652Y2139020D01*
X15519798Y2090618D01*
X15577794Y2067381D01*
X15589327Y2113279D01*
X15592806Y2201473D01*
X15537705Y2343803D01*
X15439862Y2411638D01*
X15304992Y2468008D01*
X15246664Y2462495D01*
X15232805Y2384451D01*
X15232522Y2342798D01*
X15107193Y2342798D01*
X15077350Y2522619D01*
X14985547Y2639738D01*
X14901683Y2661466D01*
X14766950Y2612300D01*
X14700140Y2464478D01*
X14692097Y2356319D01*
X14549118Y2356319D01*
X14550179Y2366652D01*
X14550787Y2376284D01*
X14567256Y2524817D01*
X14580811Y2597242D01*
X14538289Y2659948D01*
X14390559Y2725083D01*
X14152425Y2790545D01*
X13838687Y2854235D01*
X13464149Y2914055D01*
X13043612Y2967903D01*
X12591878Y3013680D01*
X12123750Y3049288D01*
X11654029Y3072625D01*
X11197518Y3081593D01*
X11166027Y3081628D01*
X10800997Y3076328D01*
X10420720Y3062027D01*
X10070483Y3040915D01*
X9798243Y3015507D01*
X9474653Y2964237D01*
X9129736Y2889612D01*
X8783388Y2798277D01*
X8455509Y2696875D01*
X8165994Y2592049D01*
X7934742Y2490444D01*
X7781649Y2398702D01*
X7726612Y2323812D01*
X6736940Y2323812D01*
X6722733Y2344854D01*
X6667196Y2453835D01*
X6635217Y2575840D01*
X6620304Y2741665D01*
X6615968Y2982106D01*
X6615738Y3131924D01*
X6618343Y3427103D01*
X6630793Y3639585D01*
X6660044Y3806732D01*
X6713047Y3965908D01*
X6796758Y4154473D01*
X6812099Y4186982D01*
X6938702Y4422084D01*
X7096809Y4646668D01*
X7309405Y4890424D01*
X7532666Y5117715D01*
X7781612Y5338160D01*
X9368073Y5338160D01*
X9446226Y5239491D01*
X9473373Y5214364D01*
X9598909Y5084305D01*
X9684264Y4968998D01*
X9802973Y4873630D01*
X9994836Y4834956D01*
X10167952Y4803071D01*
X10293290Y4746616D01*
X10311321Y4729873D01*
X10416493Y4672362D01*
X10582923Y4643807D01*
X10615090Y4643026D01*
X10771013Y4631629D01*
X10848966Y4580746D01*
X10887196Y4477896D01*
X10967125Y4299979D01*
X11079248Y4231086D01*
X11202365Y4272665D01*
X11315277Y4426169D01*
X11325274Y4447920D01*
X11401280Y4580527D01*
X11502953Y4634398D01*
X11633170Y4643026D01*
X11799355Y4665203D01*
X11917178Y4719612D01*
X11927246Y4729873D01*
X12030255Y4789670D01*
X12196238Y4829943D01*
X12243731Y4834956D01*
X12452602Y4880970D01*
X12554303Y4968998D01*
X12647468Y5093391D01*
X12765194Y5214364D01*
X12861233Y5320393D01*
X12870515Y5396224D01*
X12785207Y5445873D01*
X12597475Y5473357D01*
X12299484Y5482690D01*
X12241626Y5482769D01*
X11985118Y5478050D01*
X11772533Y5466123D01*
X11633453Y5449058D01*
X11598275Y5437733D01*
X11525277Y5359323D01*
X11432446Y5229696D01*
X11427555Y5222068D01*
X11337816Y5110966D01*
X11268729Y5103199D01*
X11251802Y5116985D01*
X11141329Y5174736D01*
X11023385Y5172900D01*
X10956760Y5116211D01*
X10912023Y5118279D01*
X10823621Y5199400D01*
X10768558Y5266329D01*
X10602770Y5483688D01*
X10008897Y5483688D01*
X9689632Y5476610D01*
X9481754Y5452686D01*
X9377242Y5407880D01*
X9368073Y5338160D01*
X7781612Y5338160D01*
X7983126Y5516603D01*
X10909118Y5516603D01*
X10955299Y5376891D01*
X11066405Y5310143D01*
X11201284Y5333018D01*
X11257392Y5375603D01*
X11324917Y5515516D01*
X11292855Y5663230D01*
X11243217Y5720692D01*
X11122204Y5757553D01*
X11001362Y5706081D01*
X10921240Y5591046D01*
X10909118Y5516603D01*
X7983126Y5516603D01*
X8043425Y5569998D01*
X8567321Y5925737D01*
X9139001Y6206541D01*
X9489125Y6337818D01*
X9713883Y6411286D01*
X9906953Y6463676D01*
X10098696Y6499327D01*
X10319475Y6522573D01*
X10599652Y6537750D01*
X10969165Y6549185D01*
X11341209Y6556966D01*
X11624683Y6556407D01*
G37*
D14*
%TO.C,J4*%
X5430000Y0D02*
G75*
G02*
X2570000Y0I-1430000J0D01*
G01*
X2570000Y0D02*
G75*
G02*
X5430000Y0I1430000J0D01*
G01*
%TD*%
%LPC*%
D16*
%TO.C,J6*%
X0Y0D03*
%TD*%
%TO.C,J1*%
X0Y-7500000D03*
%TD*%
%TO.C,J5*%
X-4000000Y0D03*
%TD*%
%TO.C,J2*%
X0Y7500000D03*
%TD*%
%TO.C,J4*%
X4000000Y0D03*
%TD*%
D17*
%TO.C,J3*%
X2899924Y-13995880D03*
X-2899924Y-13995880D03*
D18*
X4325121Y-13495753D03*
X-4325121Y-13495753D03*
D19*
X-4325121Y-17675585D03*
X4325121Y-17675585D03*
%TD*%
%LPD*%
M02*
