%TF.GenerationSoftware,KiCad,Pcbnew,9.0.0*%
%TF.CreationDate,2025-03-19T15:37:07+01:00*%
%TF.ProjectId,BladeMaster,426c6164-654d-4617-9374-65722e6b6963,rev?*%
%TF.SameCoordinates,Original*%
%TF.FileFunction,Legend,Bot*%
%TF.FilePolarity,Positive*%
%FSLAX46Y46*%
G04 Gerber Fmt 4.6, Leading zero omitted, Abs format (unit mm)*
G04 Created by KiCad (PCBNEW 9.0.0) date 2025-03-19 15:37:07*
%MOMM*%
%LPD*%
G01*
G04 APERTURE LIST*
G04 Aperture macros list*
%AMRoundRect*
0 Rectangle with rounded corners*
0 $1 Rounding radius*
0 $2 $3 $4 $5 $6 $7 $8 $9 X,Y pos of 4 corners*
0 Add a 4 corners polygon primitive as box body*
4,1,4,$2,$3,$4,$5,$6,$7,$8,$9,$2,$3,0*
0 Add four circle primitives for the rounded corners*
1,1,$1+$1,$2,$3*
1,1,$1+$1,$4,$5*
1,1,$1+$1,$6,$7*
1,1,$1+$1,$8,$9*
0 Add four rect primitives between the rounded corners*
20,1,$1+$1,$2,$3,$4,$5,0*
20,1,$1+$1,$4,$5,$6,$7,0*
20,1,$1+$1,$6,$7,$8,$9,0*
20,1,$1+$1,$8,$9,$2,$3,0*%
%AMHorizOval*
0 Thick line with rounded ends*
0 $1 width*
0 $2 $3 position (X,Y) of the first rounded end (center of the circle)*
0 $4 $5 position (X,Y) of the second rounded end (center of the circle)*
0 Add line between two ends*
20,1,$1,$2,$3,$4,$5,0*
0 Add two circle primitives to create the rounded ends*
1,1,$1,$2,$3*
1,1,$1,$4,$5*%
%AMRotRect*
0 Rectangle, with rotation*
0 The origin of the aperture is its center*
0 $1 length*
0 $2 width*
0 $3 Rotation angle, in degrees counterclockwise*
0 Add horizontal line*
21,1,$1,$2,0,0,$3*%
G04 Aperture macros list end*
%ADD10C,0.100000*%
%ADD11C,0.125000*%
%ADD12C,0.150000*%
%ADD13C,0.120000*%
%ADD14C,0.250000*%
%ADD15C,0.300000*%
%ADD16C,0.200000*%
%ADD17C,0.000000*%
%ADD18RoundRect,0.225000X-0.250000X0.225000X-0.250000X-0.225000X0.250000X-0.225000X0.250000X0.225000X0*%
%ADD19RoundRect,0.219000X0.294000X-0.219000X0.294000X0.219000X-0.294000X0.219000X-0.294000X-0.219000X0*%
%ADD20RoundRect,0.250000X-0.650000X1.000000X-0.650000X-1.000000X0.650000X-1.000000X0.650000X1.000000X0*%
%ADD21RoundRect,0.218750X0.026517X-0.335876X0.335876X-0.026517X-0.026517X0.335876X-0.335876X0.026517X0*%
%ADD22RoundRect,0.244000X-0.269000X0.244000X-0.269000X-0.244000X0.269000X-0.244000X0.269000X0.244000X0*%
%ADD23O,0.630000X1.860000*%
%ADD24R,2.400000X0.900000*%
%ADD25R,0.900000X2.400000*%
%ADD26R,5.000000X5.000000*%
%ADD27RoundRect,0.219000X-0.362746X-0.053033X-0.053033X-0.362746X0.362746X0.053033X0.053033X0.362746X0*%
%ADD28RoundRect,0.250000X-0.250000X0.600000X-0.250000X-0.600000X0.250000X-0.600000X0.250000X0.600000X0*%
%ADD29RoundRect,0.219000X-0.053033X0.362746X-0.362746X0.053033X0.053033X-0.362746X0.362746X-0.053033X0*%
%ADD30RoundRect,0.200000X-0.275000X0.200000X-0.275000X-0.200000X0.275000X-0.200000X0.275000X0.200000X0*%
%ADD31RoundRect,0.150000X-0.468458X0.256326X0.256326X-0.468458X0.468458X-0.256326X-0.256326X0.468458X0*%
%ADD32RoundRect,0.244000X0.362746X0.017678X0.017678X0.362746X-0.362746X-0.017678X-0.017678X-0.362746X0*%
%ADD33RotRect,0.420000X0.600000X315.000000*%
%ADD34RotRect,0.420000X0.600000X135.000000*%
%ADD35HorizOval,1.000000X-0.247487X0.247487X0.247487X-0.247487X0*%
%ADD36RotRect,0.700000X1.470000X45.000000*%
%ADD37RotRect,0.800000X1.470000X45.000000*%
%ADD38RotRect,0.900000X1.470000X45.000000*%
%ADD39RoundRect,0.150000X0.512500X0.150000X-0.512500X0.150000X-0.512500X-0.150000X0.512500X-0.150000X0*%
%ADD40C,0.750000*%
%ADD41O,1.000000X1.600000*%
%ADD42R,1.000000X0.320000*%
G04 APERTURE END LIST*
D10*
X4160401Y8877581D02*
X4160401Y8163296D01*
X4160401Y8163296D02*
X4208020Y8020439D01*
X4208020Y8020439D02*
X4303258Y7925200D01*
X4303258Y7925200D02*
X4446115Y7877581D01*
X4446115Y7877581D02*
X4541353Y7877581D01*
X3208020Y7877581D02*
X3684210Y7877581D01*
X3684210Y7877581D02*
X3684210Y8877581D01*
X2303258Y7972820D02*
X2350877Y7925200D01*
X2350877Y7925200D02*
X2493734Y7877581D01*
X2493734Y7877581D02*
X2588972Y7877581D01*
X2588972Y7877581D02*
X2731829Y7925200D01*
X2731829Y7925200D02*
X2827067Y8020439D01*
X2827067Y8020439D02*
X2874686Y8115677D01*
X2874686Y8115677D02*
X2922305Y8306153D01*
X2922305Y8306153D02*
X2922305Y8449010D01*
X2922305Y8449010D02*
X2874686Y8639486D01*
X2874686Y8639486D02*
X2827067Y8734724D01*
X2827067Y8734724D02*
X2731829Y8829962D01*
X2731829Y8829962D02*
X2588972Y8877581D01*
X2588972Y8877581D02*
X2493734Y8877581D01*
X2493734Y8877581D02*
X2350877Y8829962D01*
X2350877Y8829962D02*
X2303258Y8782343D01*
X1588972Y8877581D02*
X1588972Y8163296D01*
X1588972Y8163296D02*
X1636591Y8020439D01*
X1636591Y8020439D02*
X1731829Y7925200D01*
X1731829Y7925200D02*
X1874686Y7877581D01*
X1874686Y7877581D02*
X1969924Y7877581D01*
X636591Y7877581D02*
X1112781Y7877581D01*
X1112781Y7877581D02*
X1112781Y8877581D01*
X-268171Y7972820D02*
X-220552Y7925200D01*
X-220552Y7925200D02*
X-77695Y7877581D01*
X-77695Y7877581D02*
X17543Y7877581D01*
X17543Y7877581D02*
X160400Y7925200D01*
X160400Y7925200D02*
X255638Y8020439D01*
X255638Y8020439D02*
X303257Y8115677D01*
X303257Y8115677D02*
X350876Y8306153D01*
X350876Y8306153D02*
X350876Y8449010D01*
X350876Y8449010D02*
X303257Y8639486D01*
X303257Y8639486D02*
X255638Y8734724D01*
X255638Y8734724D02*
X160400Y8829962D01*
X160400Y8829962D02*
X17543Y8877581D01*
X17543Y8877581D02*
X-77695Y8877581D01*
X-77695Y8877581D02*
X-220552Y8829962D01*
X-220552Y8829962D02*
X-268171Y8782343D01*
X-982457Y8877581D02*
X-982457Y8163296D01*
X-982457Y8163296D02*
X-934838Y8020439D01*
X-934838Y8020439D02*
X-839600Y7925200D01*
X-839600Y7925200D02*
X-696743Y7877581D01*
X-696743Y7877581D02*
X-601505Y7877581D01*
X-1934838Y7877581D02*
X-1458648Y7877581D01*
X-1458648Y7877581D02*
X-1458648Y8877581D01*
X-2839600Y7972820D02*
X-2791981Y7925200D01*
X-2791981Y7925200D02*
X-2649124Y7877581D01*
X-2649124Y7877581D02*
X-2553886Y7877581D01*
X-2553886Y7877581D02*
X-2411029Y7925200D01*
X-2411029Y7925200D02*
X-2315791Y8020439D01*
X-2315791Y8020439D02*
X-2268172Y8115677D01*
X-2268172Y8115677D02*
X-2220553Y8306153D01*
X-2220553Y8306153D02*
X-2220553Y8449010D01*
X-2220553Y8449010D02*
X-2268172Y8639486D01*
X-2268172Y8639486D02*
X-2315791Y8734724D01*
X-2315791Y8734724D02*
X-2411029Y8829962D01*
X-2411029Y8829962D02*
X-2553886Y8877581D01*
X-2553886Y8877581D02*
X-2649124Y8877581D01*
X-2649124Y8877581D02*
X-2791981Y8829962D01*
X-2791981Y8829962D02*
X-2839600Y8782343D01*
X-3553886Y8877581D02*
X-3553886Y8163296D01*
X-3553886Y8163296D02*
X-3506267Y8020439D01*
X-3506267Y8020439D02*
X-3411029Y7925200D01*
X-3411029Y7925200D02*
X-3268172Y7877581D01*
X-3268172Y7877581D02*
X-3172934Y7877581D01*
X-4506267Y7877581D02*
X-4030077Y7877581D01*
X-4030077Y7877581D02*
X-4030077Y8877581D01*
X-5411029Y7972820D02*
X-5363410Y7925200D01*
X-5363410Y7925200D02*
X-5220553Y7877581D01*
X-5220553Y7877581D02*
X-5125315Y7877581D01*
X-5125315Y7877581D02*
X-4982458Y7925200D01*
X-4982458Y7925200D02*
X-4887220Y8020439D01*
X-4887220Y8020439D02*
X-4839601Y8115677D01*
X-4839601Y8115677D02*
X-4791982Y8306153D01*
X-4791982Y8306153D02*
X-4791982Y8449010D01*
X-4791982Y8449010D02*
X-4839601Y8639486D01*
X-4839601Y8639486D02*
X-4887220Y8734724D01*
X-4887220Y8734724D02*
X-4982458Y8829962D01*
X-4982458Y8829962D02*
X-5125315Y8877581D01*
X-5125315Y8877581D02*
X-5220553Y8877581D01*
X-5220553Y8877581D02*
X-5363410Y8829962D01*
X-5363410Y8829962D02*
X-5411029Y8782343D01*
D11*
G36*
X13103279Y11705270D02*
G01*
X11332244Y11705270D01*
X11332244Y11902799D01*
X11443355Y11902799D01*
X11443355Y11854963D01*
X11477179Y11821139D01*
X11501097Y11816381D01*
X12072525Y11816381D01*
X12096443Y11821139D01*
X12130267Y11854963D01*
X12130267Y11902799D01*
X12096443Y11936623D01*
X12072525Y11941381D01*
X11849311Y11941381D01*
X11849311Y12402691D01*
X12438597Y12402691D01*
X12438597Y11878881D01*
X12443355Y11854963D01*
X12477179Y11821139D01*
X12525015Y11821139D01*
X12558839Y11854963D01*
X12563597Y11878881D01*
X12563597Y12387936D01*
X12595301Y12451344D01*
X12658709Y12483048D01*
X12772056Y12483048D01*
X12845028Y12446562D01*
X12867168Y12424422D01*
X12867168Y11878881D01*
X12871926Y11854963D01*
X12905750Y11821139D01*
X12953586Y11821139D01*
X12987410Y11854963D01*
X12992168Y11878881D01*
X12992168Y12878881D01*
X12987410Y12902799D01*
X12953586Y12936623D01*
X12905750Y12936623D01*
X12871926Y12902799D01*
X12867168Y12878881D01*
X12867168Y12575247D01*
X12814762Y12601450D01*
X12811742Y12602277D01*
X12810729Y12603290D01*
X12800901Y12605245D01*
X12791241Y12607890D01*
X12789882Y12607438D01*
X12786811Y12608048D01*
X12643954Y12608048D01*
X12640882Y12607438D01*
X12639524Y12607890D01*
X12629863Y12605245D01*
X12620036Y12603290D01*
X12619022Y12602277D01*
X12616003Y12601450D01*
X12520765Y12553831D01*
X12510934Y12546201D01*
X12507766Y12545145D01*
X12505027Y12541618D01*
X12501500Y12538879D01*
X12500444Y12535711D01*
X12492814Y12525880D01*
X12445195Y12430642D01*
X12444368Y12427623D01*
X12443355Y12426609D01*
X12441400Y12416782D01*
X12438755Y12407121D01*
X12439207Y12405763D01*
X12438597Y12402691D01*
X11849311Y12402691D01*
X11849311Y12680374D01*
X11933093Y12596592D01*
X11941414Y12591032D01*
X11949336Y12584884D01*
X12044574Y12537265D01*
X12068095Y12530825D01*
X12113474Y12545951D01*
X12134867Y12588737D01*
X12119741Y12634117D01*
X12100476Y12649069D01*
X12014308Y12692153D01*
X11930620Y12775841D01*
X11838814Y12913550D01*
X11821588Y12930811D01*
X11815279Y12932073D01*
X11810729Y12936623D01*
X11792530Y12936623D01*
X11774682Y12940193D01*
X11769327Y12936623D01*
X11762893Y12936623D01*
X11750023Y12923754D01*
X11734881Y12913658D01*
X11733619Y12907350D01*
X11729069Y12902799D01*
X11724311Y12878881D01*
X11724311Y11941381D01*
X11501097Y11941381D01*
X11477179Y11936623D01*
X11443355Y11902799D01*
X11332244Y11902799D01*
X11332244Y13051304D01*
X13103279Y13051304D01*
X13103279Y11705270D01*
G37*
D10*
G36*
X18366170Y2278725D02*
G01*
X18395306Y2341892D01*
X18430221Y2390783D01*
X18470785Y2427696D01*
X18517583Y2454078D01*
X18571857Y2470405D01*
X18635387Y2476134D01*
X18703400Y2470367D01*
X18759376Y2454229D01*
X18805658Y2428691D01*
X18843925Y2393630D01*
X18875038Y2347845D01*
X18898939Y2289188D01*
X18914661Y2214733D01*
X18920418Y2120944D01*
X18920418Y1877068D01*
X17920000Y1877068D01*
X17920000Y2004807D01*
X18331121Y2004807D01*
X18331121Y2116853D01*
X18439748Y2116853D01*
X18439748Y2004807D01*
X18811791Y2004807D01*
X18811791Y2113434D01*
X18806007Y2193874D01*
X18790964Y2250625D01*
X18769110Y2289655D01*
X18745905Y2312452D01*
X18716040Y2329375D01*
X18677960Y2340314D01*
X18629525Y2344304D01*
X18580090Y2340291D01*
X18540818Y2329245D01*
X18509661Y2312101D01*
X18485116Y2288983D01*
X18461604Y2249381D01*
X18445755Y2193719D01*
X18439748Y2116853D01*
X18331121Y2116853D01*
X18331121Y2161244D01*
X17920000Y2400358D01*
X17920000Y2549957D01*
X18366170Y2278725D01*
G37*
G36*
X17920000Y3312666D02*
G01*
X17920000Y2737474D01*
X18920418Y2737474D01*
X18920418Y3312666D01*
X18808372Y3312666D01*
X18808372Y2864542D01*
X18498367Y2864542D01*
X18498367Y3285983D01*
X18386320Y3285983D01*
X18386320Y2864542D01*
X18032046Y2864542D01*
X18032046Y3312666D01*
X17920000Y3312666D01*
G37*
G36*
X17950896Y3524730D02*
G01*
X18071796Y3524730D01*
X18038599Y3622163D01*
X18019300Y3716157D01*
X18012995Y3807563D01*
X18019195Y3891144D01*
X18035505Y3951378D01*
X18059522Y3993871D01*
X18090460Y4022793D01*
X18129298Y4040406D01*
X18178592Y4046677D01*
X18223697Y4040962D01*
X18259424Y4024881D01*
X18288012Y3998500D01*
X18310693Y3963577D01*
X18340451Y3902105D01*
X18378932Y3803472D01*
X18417709Y3710974D01*
X18457641Y3644857D01*
X18498244Y3599529D01*
X18534534Y3573084D01*
X18575976Y3553890D01*
X18623530Y3541930D01*
X18678435Y3537736D01*
X18736187Y3543530D01*
X18785433Y3560101D01*
X18827929Y3587125D01*
X18864792Y3625480D01*
X18892831Y3670558D01*
X18913853Y3724536D01*
X18927323Y3789106D01*
X18932142Y3866304D01*
X18925961Y3969517D01*
X18908006Y4063841D01*
X18878836Y4150480D01*
X18766851Y4106761D01*
X18797340Y4017596D01*
X18814596Y3936016D01*
X18820095Y3860869D01*
X18814814Y3791330D01*
X18800888Y3741041D01*
X18780299Y3705393D01*
X18753637Y3680990D01*
X18719983Y3666050D01*
X18677091Y3660712D01*
X18632529Y3665962D01*
X18595731Y3680905D01*
X18564923Y3705470D01*
X18540420Y3738470D01*
X18510415Y3796667D01*
X18474003Y3890240D01*
X18427988Y4001253D01*
X18386703Y4072458D01*
X18349867Y4114638D01*
X18304362Y4145362D01*
X18250313Y4164314D01*
X18185430Y4170997D01*
X18121585Y4164727D01*
X18067094Y4146806D01*
X18020053Y4117633D01*
X17979228Y4076353D01*
X17948308Y4027759D01*
X17924932Y3968299D01*
X17909819Y3895781D01*
X17904368Y3807563D01*
X17910476Y3686777D01*
X17926803Y3594346D01*
X17950896Y3524730D01*
G37*
G36*
X17920000Y4991103D02*
G01*
X17920000Y4415911D01*
X18920418Y4415911D01*
X18920418Y4991103D01*
X18808372Y4991103D01*
X18808372Y4542979D01*
X18498367Y4542979D01*
X18498367Y4964420D01*
X18386320Y4964420D01*
X18386320Y4542979D01*
X18032046Y4542979D01*
X18032046Y4991103D01*
X17920000Y4991103D01*
G37*
G36*
X17920000Y5589864D02*
G01*
X17920000Y5462125D01*
X18808372Y5462125D01*
X18808372Y5176544D01*
X18920418Y5176544D01*
X18920418Y5874713D01*
X18808372Y5874713D01*
X18808372Y5589864D01*
X17920000Y5589864D01*
G37*
G36*
X-17920000Y5297785D02*
G01*
X-17925418Y5222733D01*
X-17940672Y5159414D01*
X-17964777Y5105841D01*
X-17997487Y5060442D01*
X-18039056Y5022926D01*
X-18087481Y4995973D01*
X-18144119Y4979211D01*
X-18210894Y4973308D01*
X-18273122Y4979791D01*
X-18323855Y4998021D01*
X-18365596Y5027390D01*
X-18399828Y5068945D01*
X-18426811Y5125247D01*
X-18445550Y5200088D01*
X-18452389Y5200088D01*
X-18466226Y5141654D01*
X-18489712Y5093927D01*
X-18522670Y5054946D01*
X-18564064Y5025411D01*
X-18611893Y5007505D01*
X-18667994Y5001274D01*
X-18733681Y5007264D01*
X-18785974Y5023840D01*
X-18827681Y5049884D01*
X-18860702Y5085660D01*
X-18884269Y5128182D01*
X-18903023Y5185110D01*
X-18915695Y5260051D01*
X-18920054Y5349686D01*
X-18811792Y5349686D01*
X-18806971Y5274277D01*
X-18794456Y5220855D01*
X-18776438Y5184029D01*
X-18748982Y5155861D01*
X-18711195Y5138233D01*
X-18659507Y5131761D01*
X-18604186Y5137963D01*
X-18564256Y5154628D01*
X-18535737Y5180609D01*
X-18516565Y5215398D01*
X-18503410Y5265513D01*
X-18498853Y5329231D01*
X-18389741Y5329231D01*
X-18383587Y5253755D01*
X-18367247Y5198596D01*
X-18342792Y5158913D01*
X-18310604Y5131274D01*
X-18269306Y5114086D01*
X-18216023Y5107886D01*
X-18156972Y5114202D01*
X-18111878Y5131510D01*
X-18077424Y5158831D01*
X-18051780Y5197226D01*
X-18034918Y5249606D01*
X-18028628Y5320316D01*
X-18028628Y5530060D01*
X-18389741Y5530060D01*
X-18389741Y5329231D01*
X-18498853Y5329231D01*
X-18498368Y5336009D01*
X-18498368Y5530060D01*
X-18811792Y5530060D01*
X-18811792Y5349686D01*
X-18920054Y5349686D01*
X-18920419Y5357197D01*
X-18920419Y5657799D01*
X-17920000Y5657799D01*
X-17920000Y5297785D01*
G37*
G36*
X-18295395Y4847168D02*
G01*
X-18193165Y4830122D01*
X-18111279Y4804244D01*
X-18046289Y4770920D01*
X-17995356Y4730826D01*
X-17956392Y4683870D01*
X-17928201Y4629193D01*
X-17910586Y4565253D01*
X-17904369Y4489952D01*
X-17910086Y4421499D01*
X-17926482Y4361788D01*
X-17953038Y4309247D01*
X-17990069Y4262715D01*
X-18038703Y4221529D01*
X-18092123Y4189960D01*
X-18155362Y4164091D01*
X-18229960Y4144418D01*
X-18317703Y4131764D01*
X-18420576Y4127251D01*
X-18546776Y4134149D01*
X-18650004Y4153183D01*
X-18734014Y4182373D01*
X-18802022Y4220491D01*
X-18850467Y4261251D01*
X-18887397Y4307515D01*
X-18913919Y4359964D01*
X-18930322Y4419791D01*
X-18936051Y4488608D01*
X-18824004Y4488608D01*
X-18817606Y4433430D01*
X-18799400Y4387788D01*
X-18769516Y4349520D01*
X-18726307Y4317516D01*
X-18677865Y4295663D01*
X-18613425Y4278125D01*
X-18529197Y4266249D01*
X-18420882Y4261829D01*
X-18313814Y4266162D01*
X-18229886Y4277846D01*
X-18165075Y4295171D01*
X-18115822Y4316845D01*
X-18071937Y4348647D01*
X-18041539Y4387127D01*
X-18022965Y4433459D01*
X-18016415Y4489952D01*
X-18021829Y4539843D01*
X-18037343Y4582224D01*
X-18062871Y4618787D01*
X-18099653Y4650494D01*
X-18150103Y4677454D01*
X-18217595Y4698926D01*
X-18306264Y4713417D01*
X-18420882Y4718807D01*
X-18534920Y4713406D01*
X-18623198Y4698880D01*
X-18690449Y4677342D01*
X-18740775Y4650277D01*
X-18777514Y4618410D01*
X-18803046Y4581617D01*
X-18818580Y4538917D01*
X-18824004Y4488608D01*
X-18936051Y4488608D01*
X-18929839Y4564391D01*
X-18912251Y4628688D01*
X-18884129Y4683613D01*
X-18845306Y4730725D01*
X-18794624Y4770902D01*
X-18730034Y4804258D01*
X-18648740Y4830137D01*
X-18547338Y4847174D01*
X-18421920Y4853385D01*
X-18295395Y4847168D01*
G37*
G36*
X-18295395Y4007950D02*
G01*
X-18193165Y3990903D01*
X-18111279Y3965026D01*
X-18046289Y3931702D01*
X-17995356Y3891608D01*
X-17956392Y3844651D01*
X-17928201Y3789975D01*
X-17910586Y3726035D01*
X-17904369Y3650733D01*
X-17910086Y3582280D01*
X-17926482Y3522569D01*
X-17953038Y3470029D01*
X-17990069Y3423497D01*
X-18038703Y3382310D01*
X-18092123Y3350741D01*
X-18155362Y3324873D01*
X-18229960Y3305199D01*
X-18317703Y3292545D01*
X-18420576Y3288033D01*
X-18546776Y3294930D01*
X-18650004Y3313965D01*
X-18734014Y3343154D01*
X-18802022Y3381272D01*
X-18850467Y3422033D01*
X-18887397Y3468297D01*
X-18913919Y3520745D01*
X-18930322Y3580572D01*
X-18936051Y3649390D01*
X-18824004Y3649390D01*
X-18817606Y3594211D01*
X-18799400Y3548569D01*
X-18769516Y3510301D01*
X-18726307Y3478298D01*
X-18677865Y3456444D01*
X-18613425Y3438906D01*
X-18529197Y3427031D01*
X-18420882Y3422610D01*
X-18313814Y3426944D01*
X-18229886Y3438627D01*
X-18165075Y3455952D01*
X-18115822Y3477626D01*
X-18071937Y3509429D01*
X-18041539Y3547909D01*
X-18022965Y3594241D01*
X-18016415Y3650733D01*
X-18021829Y3700625D01*
X-18037343Y3743006D01*
X-18062871Y3779569D01*
X-18099653Y3811275D01*
X-18150103Y3838236D01*
X-18217595Y3859708D01*
X-18306264Y3874199D01*
X-18420882Y3879589D01*
X-18534920Y3874188D01*
X-18623198Y3859662D01*
X-18690449Y3838124D01*
X-18740775Y3811058D01*
X-18777514Y3779192D01*
X-18803046Y3742398D01*
X-18818580Y3699699D01*
X-18824004Y3649390D01*
X-18936051Y3649390D01*
X-18929839Y3725172D01*
X-18912251Y3789470D01*
X-18884129Y3844394D01*
X-18845306Y3891506D01*
X-18794624Y3931683D01*
X-18730034Y3965039D01*
X-18648740Y3990919D01*
X-18547338Y4007956D01*
X-18421920Y4014167D01*
X-18295395Y4007950D01*
G37*
G36*
X-17920000Y2749355D02*
G01*
X-17920000Y2877094D01*
X-18808373Y2877094D01*
X-18808373Y3162675D01*
X-18920419Y3162675D01*
X-18920419Y2464507D01*
X-18808373Y2464507D01*
X-18808373Y2749355D01*
X-17920000Y2749355D01*
G37*
D12*
X10859580Y6810477D02*
X10907200Y6858096D01*
X10907200Y6858096D02*
X10954819Y7000953D01*
X10954819Y7000953D02*
X10954819Y7096191D01*
X10954819Y7096191D02*
X10907200Y7239048D01*
X10907200Y7239048D02*
X10811961Y7334286D01*
X10811961Y7334286D02*
X10716723Y7381905D01*
X10716723Y7381905D02*
X10526247Y7429524D01*
X10526247Y7429524D02*
X10383390Y7429524D01*
X10383390Y7429524D02*
X10192914Y7381905D01*
X10192914Y7381905D02*
X10097676Y7334286D01*
X10097676Y7334286D02*
X10002438Y7239048D01*
X10002438Y7239048D02*
X9954819Y7096191D01*
X9954819Y7096191D02*
X9954819Y7000953D01*
X9954819Y7000953D02*
X10002438Y6858096D01*
X10002438Y6858096D02*
X10050057Y6810477D01*
X10954819Y5858096D02*
X10954819Y6429524D01*
X10954819Y6143810D02*
X9954819Y6143810D01*
X9954819Y6143810D02*
X10097676Y6239048D01*
X10097676Y6239048D02*
X10192914Y6334286D01*
X10192914Y6334286D02*
X10240533Y6429524D01*
X1454819Y-7590714D02*
X454819Y-7590714D01*
X454819Y-7590714D02*
X454819Y-7828809D01*
X454819Y-7828809D02*
X502438Y-7971666D01*
X502438Y-7971666D02*
X597676Y-8066904D01*
X597676Y-8066904D02*
X692914Y-8114523D01*
X692914Y-8114523D02*
X883390Y-8162142D01*
X883390Y-8162142D02*
X1026247Y-8162142D01*
X1026247Y-8162142D02*
X1216723Y-8114523D01*
X1216723Y-8114523D02*
X1311961Y-8066904D01*
X1311961Y-8066904D02*
X1407200Y-7971666D01*
X1407200Y-7971666D02*
X1454819Y-7828809D01*
X1454819Y-7828809D02*
X1454819Y-7590714D01*
X550057Y-8543095D02*
X502438Y-8590714D01*
X502438Y-8590714D02*
X454819Y-8685952D01*
X454819Y-8685952D02*
X454819Y-8924047D01*
X454819Y-8924047D02*
X502438Y-9019285D01*
X502438Y-9019285D02*
X550057Y-9066904D01*
X550057Y-9066904D02*
X645295Y-9114523D01*
X645295Y-9114523D02*
X740533Y-9114523D01*
X740533Y-9114523D02*
X883390Y-9066904D01*
X883390Y-9066904D02*
X1454819Y-8495476D01*
X1454819Y-8495476D02*
X1454819Y-9114523D01*
X13322481Y-10807932D02*
X12615374Y-10100826D01*
X12615374Y-10100826D02*
X12447015Y-10269184D01*
X12447015Y-10269184D02*
X12379672Y-10403871D01*
X12379672Y-10403871D02*
X12379672Y-10538558D01*
X12379672Y-10538558D02*
X12413344Y-10639574D01*
X12413344Y-10639574D02*
X12514359Y-10807932D01*
X12514359Y-10807932D02*
X12615374Y-10908948D01*
X12615374Y-10908948D02*
X12783733Y-11009963D01*
X12783733Y-11009963D02*
X12884748Y-11043635D01*
X12884748Y-11043635D02*
X13019435Y-11043635D01*
X13019435Y-11043635D02*
X13154122Y-10976291D01*
X13154122Y-10976291D02*
X13322481Y-10807932D01*
X12244985Y-11885428D02*
X12649046Y-11481367D01*
X12447015Y-11683398D02*
X11739909Y-10976291D01*
X11739909Y-10976291D02*
X11908267Y-11009963D01*
X11908267Y-11009963D02*
X12042954Y-11009963D01*
X12042954Y-11009963D02*
X12143970Y-10976291D01*
X-14488096Y-246569D02*
X-14488096Y-1056092D01*
X-14488096Y-1056092D02*
X-14535715Y-1151330D01*
X-14535715Y-1151330D02*
X-14583334Y-1198950D01*
X-14583334Y-1198950D02*
X-14678572Y-1246569D01*
X-14678572Y-1246569D02*
X-14869048Y-1246569D01*
X-14869048Y-1246569D02*
X-14964286Y-1198950D01*
X-14964286Y-1198950D02*
X-15011905Y-1151330D01*
X-15011905Y-1151330D02*
X-15059524Y-1056092D01*
X-15059524Y-1056092D02*
X-15059524Y-246569D01*
X-15964286Y-579902D02*
X-15964286Y-1246569D01*
X-15726191Y-198950D02*
X-15488096Y-913235D01*
X-15488096Y-913235D02*
X-16107143Y-913235D01*
X4954819Y-7590714D02*
X3954819Y-7590714D01*
X3954819Y-7590714D02*
X3954819Y-7828809D01*
X3954819Y-7828809D02*
X4002438Y-7971666D01*
X4002438Y-7971666D02*
X4097676Y-8066904D01*
X4097676Y-8066904D02*
X4192914Y-8114523D01*
X4192914Y-8114523D02*
X4383390Y-8162142D01*
X4383390Y-8162142D02*
X4526247Y-8162142D01*
X4526247Y-8162142D02*
X4716723Y-8114523D01*
X4716723Y-8114523D02*
X4811961Y-8066904D01*
X4811961Y-8066904D02*
X4907200Y-7971666D01*
X4907200Y-7971666D02*
X4954819Y-7828809D01*
X4954819Y-7828809D02*
X4954819Y-7590714D01*
X3954819Y-8495476D02*
X3954819Y-9114523D01*
X3954819Y-9114523D02*
X4335771Y-8781190D01*
X4335771Y-8781190D02*
X4335771Y-8924047D01*
X4335771Y-8924047D02*
X4383390Y-9019285D01*
X4383390Y-9019285D02*
X4431009Y-9066904D01*
X4431009Y-9066904D02*
X4526247Y-9114523D01*
X4526247Y-9114523D02*
X4764342Y-9114523D01*
X4764342Y-9114523D02*
X4859580Y-9066904D01*
X4859580Y-9066904D02*
X4907200Y-9019285D01*
X4907200Y-9019285D02*
X4954819Y-8924047D01*
X4954819Y-8924047D02*
X4954819Y-8638333D01*
X4954819Y-8638333D02*
X4907200Y-8543095D01*
X4907200Y-8543095D02*
X4859580Y-8495476D01*
X-2488096Y545181D02*
X-2488096Y-264342D01*
X-2488096Y-264342D02*
X-2535715Y-359580D01*
X-2535715Y-359580D02*
X-2583334Y-407200D01*
X-2583334Y-407200D02*
X-2678572Y-454819D01*
X-2678572Y-454819D02*
X-2869048Y-454819D01*
X-2869048Y-454819D02*
X-2964286Y-407200D01*
X-2964286Y-407200D02*
X-3011905Y-359580D01*
X-3011905Y-359580D02*
X-3059524Y-264342D01*
X-3059524Y-264342D02*
X-3059524Y545181D01*
X-4059524Y-454819D02*
X-3488096Y-454819D01*
X-3773810Y-454819D02*
X-3773810Y545181D01*
X-3773810Y545181D02*
X-3678572Y402324D01*
X-3678572Y402324D02*
X-3583334Y307086D01*
X-3583334Y307086D02*
X-3488096Y259467D01*
X12116666Y9183967D02*
X12349999Y9517300D01*
X12516666Y9183967D02*
X12516666Y9883967D01*
X12516666Y9883967D02*
X12249999Y9883967D01*
X12249999Y9883967D02*
X12183333Y9850634D01*
X12183333Y9850634D02*
X12149999Y9817300D01*
X12149999Y9817300D02*
X12116666Y9750634D01*
X12116666Y9750634D02*
X12116666Y9650634D01*
X12116666Y9650634D02*
X12149999Y9583967D01*
X12149999Y9583967D02*
X12183333Y9550634D01*
X12183333Y9550634D02*
X12249999Y9517300D01*
X12249999Y9517300D02*
X12516666Y9517300D01*
X11516666Y9883967D02*
X11649999Y9883967D01*
X11649999Y9883967D02*
X11716666Y9850634D01*
X11716666Y9850634D02*
X11749999Y9817300D01*
X11749999Y9817300D02*
X11816666Y9717300D01*
X11816666Y9717300D02*
X11849999Y9583967D01*
X11849999Y9583967D02*
X11849999Y9317300D01*
X11849999Y9317300D02*
X11816666Y9250634D01*
X11816666Y9250634D02*
X11783333Y9217300D01*
X11783333Y9217300D02*
X11716666Y9183967D01*
X11716666Y9183967D02*
X11583333Y9183967D01*
X11583333Y9183967D02*
X11516666Y9217300D01*
X11516666Y9217300D02*
X11483333Y9250634D01*
X11483333Y9250634D02*
X11449999Y9317300D01*
X11449999Y9317300D02*
X11449999Y9483967D01*
X11449999Y9483967D02*
X11483333Y9550634D01*
X11483333Y9550634D02*
X11516666Y9583967D01*
X11516666Y9583967D02*
X11583333Y9617300D01*
X11583333Y9617300D02*
X11716666Y9617300D01*
X11716666Y9617300D02*
X11783333Y9583967D01*
X11783333Y9583967D02*
X11816666Y9550634D01*
X11816666Y9550634D02*
X11849999Y9483967D01*
X-11575751Y-9831298D02*
X-12148171Y-10403718D01*
X-12148171Y-10403718D02*
X-12249186Y-10437390D01*
X-12249186Y-10437390D02*
X-12316530Y-10437390D01*
X-12316530Y-10437390D02*
X-12417545Y-10403718D01*
X-12417545Y-10403718D02*
X-12552232Y-10269031D01*
X-12552232Y-10269031D02*
X-12585904Y-10168016D01*
X-12585904Y-10168016D02*
X-12585904Y-10100672D01*
X-12585904Y-10100672D02*
X-12552232Y-9999657D01*
X-12552232Y-9999657D02*
X-11979812Y-9427237D01*
X-12350202Y-9191535D02*
X-12350202Y-9124192D01*
X-12350202Y-9124192D02*
X-12383873Y-9023176D01*
X-12383873Y-9023176D02*
X-12552232Y-8854818D01*
X-12552232Y-8854818D02*
X-12653247Y-8821146D01*
X-12653247Y-8821146D02*
X-12720591Y-8821146D01*
X-12720591Y-8821146D02*
X-12821606Y-8854818D01*
X-12821606Y-8854818D02*
X-12888950Y-8922161D01*
X-12888950Y-8922161D02*
X-12956293Y-9056848D01*
X-12956293Y-9056848D02*
X-12956293Y-9864970D01*
X-12956293Y-9864970D02*
X-13394026Y-9427237D01*
X-7596754Y-6083689D02*
X-7024334Y-6656109D01*
X-7024334Y-6656109D02*
X-6990662Y-6757124D01*
X-6990662Y-6757124D02*
X-6990662Y-6824468D01*
X-6990662Y-6824468D02*
X-7024334Y-6925483D01*
X-7024334Y-6925483D02*
X-7159021Y-7060170D01*
X-7159021Y-7060170D02*
X-7260036Y-7093842D01*
X-7260036Y-7093842D02*
X-7327380Y-7093842D01*
X-7327380Y-7093842D02*
X-7428395Y-7060170D01*
X-7428395Y-7060170D02*
X-8000815Y-6487750D01*
X-8674250Y-7161185D02*
X-8337532Y-6824468D01*
X-8337532Y-6824468D02*
X-7967143Y-7127514D01*
X-7967143Y-7127514D02*
X-8034486Y-7127514D01*
X-8034486Y-7127514D02*
X-8135502Y-7161185D01*
X-8135502Y-7161185D02*
X-8303860Y-7329544D01*
X-8303860Y-7329544D02*
X-8337532Y-7430559D01*
X-8337532Y-7430559D02*
X-8337532Y-7497903D01*
X-8337532Y-7497903D02*
X-8303860Y-7598918D01*
X-8303860Y-7598918D02*
X-8135502Y-7767277D01*
X-8135502Y-7767277D02*
X-8034486Y-7800949D01*
X-8034486Y-7800949D02*
X-7967143Y-7800949D01*
X-7967143Y-7800949D02*
X-7866128Y-7767277D01*
X-7866128Y-7767277D02*
X-7697769Y-7598918D01*
X-7697769Y-7598918D02*
X-7664097Y-7497903D01*
X-7664097Y-7497903D02*
X-7664097Y-7430559D01*
X12100201Y-5649697D02*
X12605277Y-6154773D01*
X12605277Y-6154773D02*
X12739964Y-6222117D01*
X12739964Y-6222117D02*
X12874651Y-6222117D01*
X12874651Y-6222117D02*
X13009338Y-6154773D01*
X13009338Y-6154773D02*
X13076682Y-6087430D01*
X11864498Y-6020086D02*
X11797155Y-6020086D01*
X11797155Y-6020086D02*
X11696140Y-6053758D01*
X11696140Y-6053758D02*
X11527781Y-6222117D01*
X11527781Y-6222117D02*
X11494109Y-6323132D01*
X11494109Y-6323132D02*
X11494109Y-6390476D01*
X11494109Y-6390476D02*
X11527781Y-6491491D01*
X11527781Y-6491491D02*
X11595124Y-6558834D01*
X11595124Y-6558834D02*
X11729811Y-6626178D01*
X11729811Y-6626178D02*
X12537933Y-6626178D01*
X12537933Y-6626178D02*
X12100201Y-7063911D01*
X16511904Y1043431D02*
X16511904Y233908D01*
X16511904Y233908D02*
X16464285Y138670D01*
X16464285Y138670D02*
X16416666Y91050D01*
X16416666Y91050D02*
X16321428Y43431D01*
X16321428Y43431D02*
X16130952Y43431D01*
X16130952Y43431D02*
X16035714Y91050D01*
X16035714Y91050D02*
X15988095Y138670D01*
X15988095Y138670D02*
X15940476Y233908D01*
X15940476Y233908D02*
X15940476Y1043431D01*
X15559523Y1043431D02*
X14940476Y1043431D01*
X14940476Y1043431D02*
X15273809Y662479D01*
X15273809Y662479D02*
X15130952Y662479D01*
X15130952Y662479D02*
X15035714Y614860D01*
X15035714Y614860D02*
X14988095Y567241D01*
X14988095Y567241D02*
X14940476Y472003D01*
X14940476Y472003D02*
X14940476Y233908D01*
X14940476Y233908D02*
X14988095Y138670D01*
X14988095Y138670D02*
X15035714Y91050D01*
X15035714Y91050D02*
X15130952Y43431D01*
X15130952Y43431D02*
X15416666Y43431D01*
X15416666Y43431D02*
X15511904Y91050D01*
X15511904Y91050D02*
X15559523Y138670D01*
X18938007Y522858D02*
X18985627Y570477D01*
X18985627Y570477D02*
X19033246Y713334D01*
X19033246Y713334D02*
X19033246Y808572D01*
X19033246Y808572D02*
X18985627Y951429D01*
X18985627Y951429D02*
X18890388Y1046667D01*
X18890388Y1046667D02*
X18795150Y1094286D01*
X18795150Y1094286D02*
X18604674Y1141905D01*
X18604674Y1141905D02*
X18461817Y1141905D01*
X18461817Y1141905D02*
X18271341Y1094286D01*
X18271341Y1094286D02*
X18176103Y1046667D01*
X18176103Y1046667D02*
X18080865Y951429D01*
X18080865Y951429D02*
X18033246Y808572D01*
X18033246Y808572D02*
X18033246Y713334D01*
X18033246Y713334D02*
X18080865Y570477D01*
X18080865Y570477D02*
X18128484Y522858D01*
X18033246Y189524D02*
X18033246Y-429523D01*
X18033246Y-429523D02*
X18414198Y-96190D01*
X18414198Y-96190D02*
X18414198Y-239047D01*
X18414198Y-239047D02*
X18461817Y-334285D01*
X18461817Y-334285D02*
X18509436Y-381904D01*
X18509436Y-381904D02*
X18604674Y-429523D01*
X18604674Y-429523D02*
X18842769Y-429523D01*
X18842769Y-429523D02*
X18938007Y-381904D01*
X18938007Y-381904D02*
X18985627Y-334285D01*
X18985627Y-334285D02*
X19033246Y-239047D01*
X19033246Y-239047D02*
X19033246Y46667D01*
X19033246Y46667D02*
X18985627Y141905D01*
X18985627Y141905D02*
X18938007Y189524D01*
X-3666667Y-8231569D02*
X-3666667Y-8945854D01*
X-3666667Y-8945854D02*
X-3619048Y-9088711D01*
X-3619048Y-9088711D02*
X-3523810Y-9183950D01*
X-3523810Y-9183950D02*
X-3380953Y-9231569D01*
X-3380953Y-9231569D02*
X-3285715Y-9231569D01*
X-4666667Y-9231569D02*
X-4095239Y-9231569D01*
X-4380953Y-9231569D02*
X-4380953Y-8231569D01*
X-4380953Y-8231569D02*
X-4285715Y-8374426D01*
X-4285715Y-8374426D02*
X-4190477Y-8469664D01*
X-4190477Y-8469664D02*
X-4095239Y-8517283D01*
X13281153Y522858D02*
X13328773Y570477D01*
X13328773Y570477D02*
X13376392Y713334D01*
X13376392Y713334D02*
X13376392Y808572D01*
X13376392Y808572D02*
X13328773Y951429D01*
X13328773Y951429D02*
X13233534Y1046667D01*
X13233534Y1046667D02*
X13138296Y1094286D01*
X13138296Y1094286D02*
X12947820Y1141905D01*
X12947820Y1141905D02*
X12804963Y1141905D01*
X12804963Y1141905D02*
X12614487Y1094286D01*
X12614487Y1094286D02*
X12519249Y1046667D01*
X12519249Y1046667D02*
X12424011Y951429D01*
X12424011Y951429D02*
X12376392Y808572D01*
X12376392Y808572D02*
X12376392Y713334D01*
X12376392Y713334D02*
X12424011Y570477D01*
X12424011Y570477D02*
X12471630Y522858D01*
X12376392Y-381904D02*
X12376392Y94286D01*
X12376392Y94286D02*
X12852582Y141905D01*
X12852582Y141905D02*
X12804963Y94286D01*
X12804963Y94286D02*
X12757344Y-952D01*
X12757344Y-952D02*
X12757344Y-239047D01*
X12757344Y-239047D02*
X12804963Y-334285D01*
X12804963Y-334285D02*
X12852582Y-381904D01*
X12852582Y-381904D02*
X12947820Y-429523D01*
X12947820Y-429523D02*
X13185915Y-429523D01*
X13185915Y-429523D02*
X13281153Y-381904D01*
X13281153Y-381904D02*
X13328773Y-334285D01*
X13328773Y-334285D02*
X13376392Y-239047D01*
X13376392Y-239047D02*
X13376392Y-952D01*
X13376392Y-952D02*
X13328773Y94286D01*
X13328773Y94286D02*
X13281153Y141905D01*
D13*
%TO.C,C1*%
X9990000Y9390581D02*
X9990000Y9109419D01*
X11010000Y9390581D02*
X11010000Y9109419D01*
%TO.C,D2*%
X-650000Y-9490000D02*
X-650000Y-15000000D01*
X-650000Y-9490000D02*
X2650000Y-9490000D01*
X2650000Y-9490000D02*
X2650000Y-15000000D01*
%TO.C,D1*%
X10930223Y-8530330D02*
X12545962Y-6914591D01*
X11969670Y-9569777D02*
X10930223Y-8530330D01*
X13585409Y-7954038D02*
X11969670Y-9569777D01*
D14*
%TO.C,U4*%
X-17750000Y-6750000D02*
X-17749999Y-3769999D01*
X-12750001Y-3769999D02*
X-17749999Y-3769999D01*
X-12750000Y-4620000D02*
X-12750001Y-3769999D01*
X-12750000Y-5880000D02*
X-12750000Y-6750000D01*
X-12750000Y-6750000D02*
X-17750000Y-6750000D01*
X-12755182Y-5879073D02*
G75*
G02*
X-12750000Y-4620000I115179J629073D01*
G01*
D15*
X-13190000Y-6270000D02*
G75*
G02*
X-13490000Y-6270000I-150000J0D01*
G01*
X-13490000Y-6270000D02*
G75*
G02*
X-13190000Y-6270000I150000J0D01*
G01*
D13*
%TO.C,D3*%
X2850000Y-9490000D02*
X2850000Y-15000000D01*
X2850000Y-9490000D02*
X6150000Y-9490000D01*
X6150000Y-9490000D02*
X6150000Y-15000000D01*
D14*
%TO.C,U1*%
X-9040000Y10940000D02*
X-9040000Y10480000D01*
X-9040000Y-7390000D02*
X-9040000Y-8340000D01*
X-9040000Y-8340000D02*
X-6420000Y-8340000D01*
X6380000Y-8340000D02*
X9000000Y-8340000D01*
X9000000Y10940000D02*
X-9040000Y10940000D01*
X9000000Y10480000D02*
X9000000Y10940000D01*
X9000000Y-8340000D02*
X9000000Y-7390000D01*
D12*
%TO.C,S1*%
X12700000Y5530000D02*
X12700000Y2970000D01*
X12700000Y5530000D02*
X13590000Y6420000D01*
X12700000Y2970000D02*
X13590000Y2080000D01*
X13450000Y5250000D02*
X13450000Y3350000D01*
X13450000Y3350000D02*
X14350000Y2450000D01*
X14080000Y6800000D02*
X16420000Y6800000D01*
X14080000Y1700000D02*
X16420000Y1700000D01*
X14250000Y6050000D02*
X13450000Y5250000D01*
X14350000Y2450000D02*
X16150000Y2450000D01*
X16150000Y2450000D02*
X17149999Y3450000D01*
X16250000Y6050000D02*
X14250000Y6050000D01*
X16910000Y6420000D02*
X17800000Y5530000D01*
X16910000Y2080000D02*
X17800000Y2970000D01*
X17149999Y3450000D02*
X17150000Y5150000D01*
X17150000Y5150000D02*
X16250000Y6050000D01*
X17800000Y5530000D02*
X17800000Y2970000D01*
X12780000Y7500000D02*
G75*
G02*
X12720000Y7500000I-30000J0D01*
G01*
X12720000Y7500000D02*
G75*
G02*
X12780000Y7500000I30000J0D01*
G01*
X16530000Y4250000D02*
G75*
G02*
X13970000Y4250000I-1280000J0D01*
G01*
X13970000Y4250000D02*
G75*
G02*
X16530000Y4250000I1280000J0D01*
G01*
D13*
%TO.C,R6*%
X11477500Y8487258D02*
X11477500Y8012742D01*
X12522500Y8487258D02*
X12522500Y8012742D01*
%TO.C,U2*%
X-12103087Y-14853087D02*
X-12668772Y-14287401D01*
X-12103087Y-14853087D02*
X-11537401Y-15418772D01*
X-9896913Y-12646913D02*
X-10462599Y-12081228D01*
X-9896913Y-12646913D02*
X-9331228Y-13212599D01*
X-13050610Y-14301543D02*
X-13390021Y-13962132D01*
X-12986970Y-13898492D01*
X-13050610Y-14301543D01*
G36*
X-13050610Y-14301543D02*
G01*
X-13390021Y-13962132D01*
X-12986970Y-13898492D01*
X-13050610Y-14301543D01*
G37*
D16*
%TO.C,U5*%
X-9022792Y-9967157D02*
X-8032843Y-8977208D01*
X-7467157Y-11522792D02*
X-6477208Y-10532843D01*
X-7749730Y-8708825D02*
G75*
G02*
X-7742929Y-8701436I-85123J85171D01*
G01*
D14*
%TO.C,J2*%
X7940184Y-13799587D02*
X8597794Y-14457196D01*
X10125144Y-15984547D02*
X10450414Y-16309816D01*
X10450414Y-16309816D02*
X10994886Y-15765344D01*
X14049587Y-7690184D02*
X7940184Y-13799587D01*
X14707196Y-8347794D02*
X14049587Y-7690184D01*
X15930491Y-10829739D02*
X16559816Y-10200414D01*
X16559816Y-10200414D02*
X16234547Y-9875144D01*
D13*
%TO.C,U3*%
X15750000Y-689999D02*
X14950000Y-690000D01*
X15750000Y-689999D02*
X16550000Y-690000D01*
X15750000Y-3810001D02*
X14950000Y-3810000D01*
X15750000Y-3810001D02*
X16550000Y-3810000D01*
X17050000Y-740000D02*
X16810000Y-410000D01*
X17290000Y-410000D01*
X17050000Y-740000D01*
G36*
X17050000Y-740000D02*
G01*
X16810000Y-410000D01*
X17290000Y-410000D01*
X17050000Y-740000D01*
G37*
%TO.C,C3*%
X18068427Y-2109419D02*
X18068427Y-2390581D01*
X19088427Y-2109419D02*
X19088427Y-2390581D01*
D17*
%TO.C,G\u002A\u002A\u002A*%
G36*
X-11742398Y10676760D02*
G01*
X-11724482Y10632904D01*
X-11733264Y10597042D01*
X-11765898Y10544532D01*
X-11777988Y10532961D01*
X-11818702Y10512216D01*
X-11883939Y10501693D01*
X-11986336Y10498769D01*
X-12073229Y10501842D01*
X-12157040Y10512848D01*
X-12204183Y10530050D01*
X-12241635Y10571145D01*
X-12258968Y10628544D01*
X-12235530Y10675565D01*
X-12232284Y10678189D01*
X-12195840Y10691283D01*
X-12153717Y10664883D01*
X-12100582Y10638087D01*
X-12022976Y10624095D01*
X-11939932Y10623981D01*
X-11869298Y10637722D01*
X-11828922Y10665295D01*
X-11821422Y10675914D01*
X-11781857Y10693313D01*
X-11742398Y10676760D01*
G37*
G36*
X-12654123Y11013809D02*
G01*
X-12644915Y10929861D01*
X-12671485Y10820443D01*
X-12738934Y10730247D01*
X-12790377Y10697128D01*
X-12885633Y10676136D01*
X-12982962Y10692366D01*
X-13067705Y10742319D01*
X-13125200Y10822492D01*
X-13137321Y10858628D01*
X-13143628Y10962637D01*
X-13119907Y11036198D01*
X-12898339Y11036198D01*
X-12885317Y10980493D01*
X-12855991Y10947262D01*
X-12799448Y10930694D01*
X-12741017Y10962262D01*
X-12712383Y10995069D01*
X-12704322Y11034008D01*
X-12733378Y11084786D01*
X-12778367Y11116772D01*
X-12830885Y11113933D01*
X-12875535Y11083877D01*
X-12898339Y11036198D01*
X-13119907Y11036198D01*
X-13112831Y11058140D01*
X-13052012Y11134943D01*
X-12968254Y11182856D01*
X-12868639Y11191687D01*
X-12783679Y11169398D01*
X-12701450Y11109341D01*
X-12664130Y11034008D01*
X-12654123Y11013809D01*
G37*
G36*
X-10860077Y10975710D02*
G01*
X-10856404Y10878039D01*
X-10887995Y10785751D01*
X-10957736Y10710482D01*
X-10980442Y10697552D01*
X-11068132Y10676421D01*
X-11164897Y10682275D01*
X-11246090Y10714749D01*
X-11254493Y10720868D01*
X-11322671Y10797764D01*
X-11353557Y10888365D01*
X-11350805Y10982447D01*
X-11330383Y11036935D01*
X-11111843Y11036935D01*
X-11098867Y10974237D01*
X-11073952Y10944248D01*
X-11027917Y10924188D01*
X-10978787Y10936232D01*
X-10936438Y10979334D01*
X-10925606Y11037724D01*
X-10953724Y11094355D01*
X-10990517Y11118412D01*
X-11045217Y11119327D01*
X-11089809Y11088733D01*
X-11111843Y11036935D01*
X-11330383Y11036935D01*
X-11318070Y11069787D01*
X-11259007Y11140164D01*
X-11177268Y11183353D01*
X-11076510Y11189134D01*
X-11053810Y11184692D01*
X-10961667Y11140670D01*
X-10896127Y11067132D01*
X-10884531Y11037724D01*
X-10860077Y10975710D01*
G37*
G36*
X-10546222Y13641273D02*
G01*
X-10442473Y13549403D01*
X-10349429Y13454680D01*
X-10260830Y13353094D01*
X-10194940Y13259500D01*
X-10142178Y13161521D01*
X-10135784Y13147973D01*
X-10100898Y13069388D01*
X-10078809Y13003052D01*
X-10066619Y12933394D01*
X-10061430Y12844842D01*
X-10060344Y12721827D01*
X-10060440Y12659390D01*
X-10062247Y12559187D01*
X-10068462Y12490080D01*
X-10081790Y12439234D01*
X-10104934Y12393816D01*
X-10110855Y12385047D01*
X-10140601Y12340993D01*
X-10160086Y12312362D01*
X-10179483Y12283859D01*
X-10202862Y12237077D01*
X-10203240Y12200413D01*
X-10184548Y12157442D01*
X-10178924Y12143961D01*
X-10171188Y12111992D01*
X-10164813Y12063408D01*
X-10159678Y11994030D01*
X-10155661Y11899678D01*
X-10152641Y11776173D01*
X-10150495Y11619337D01*
X-10149101Y11424990D01*
X-10148339Y11188954D01*
X-10148085Y10907048D01*
X-10148095Y10899565D01*
X-10148441Y10645492D01*
X-10149946Y10363786D01*
X-10152612Y10127572D01*
X-10156418Y9937758D01*
X-10161346Y9795255D01*
X-10167377Y9700972D01*
X-10174490Y9655817D01*
X-10198783Y9607446D01*
X-10266138Y9518625D01*
X-10350976Y9437761D01*
X-10435714Y9383203D01*
X-10450551Y9378328D01*
X-10486676Y9371946D01*
X-10542673Y9366506D01*
X-10621895Y9361940D01*
X-10727695Y9358178D01*
X-10863425Y9355151D01*
X-11032439Y9352790D01*
X-11238089Y9351025D01*
X-11483729Y9349787D01*
X-11772711Y9349007D01*
X-12108389Y9348615D01*
X-13705990Y9347636D01*
X-13929228Y9462934D01*
X-13967513Y9482282D01*
X-14034365Y9514949D01*
X-14090002Y9543784D01*
X-14135436Y9573274D01*
X-14171678Y9607911D01*
X-14199738Y9652183D01*
X-14220628Y9710581D01*
X-14235358Y9787593D01*
X-14244939Y9887708D01*
X-14250382Y10015418D01*
X-14252698Y10175210D01*
X-14252898Y10371575D01*
X-14251991Y10609001D01*
X-14250991Y10891979D01*
X-14249988Y11325218D01*
X-14052536Y11325218D01*
X-14052140Y11104466D01*
X-14051773Y10838300D01*
X-14051773Y9759184D01*
X-13838696Y9653508D01*
X-13625619Y9547833D01*
X-12093228Y9548835D01*
X-11961237Y9548915D01*
X-11654215Y9549148D01*
X-11392059Y9549676D01*
X-11171032Y9550825D01*
X-10987398Y9552919D01*
X-10837424Y9556284D01*
X-10717373Y9561245D01*
X-10623511Y9568126D01*
X-10552101Y9577253D01*
X-10499409Y9588951D01*
X-10461699Y9603544D01*
X-10435237Y9621358D01*
X-10416286Y9642717D01*
X-10401112Y9667947D01*
X-10385979Y9697372D01*
X-10379798Y9711867D01*
X-10371677Y9743143D01*
X-10365029Y9789349D01*
X-10359715Y9854875D01*
X-10355599Y9944110D01*
X-10352541Y10061444D01*
X-10350403Y10211267D01*
X-10349047Y10397968D01*
X-10348334Y10625938D01*
X-10348128Y10899565D01*
X-10348136Y10936022D01*
X-10348823Y11209913D01*
X-10350562Y11451719D01*
X-10353289Y11658447D01*
X-10356942Y11827103D01*
X-10361458Y11954695D01*
X-10366773Y12038229D01*
X-10372826Y12074711D01*
X-10375304Y12078812D01*
X-10422235Y12114437D01*
X-10498774Y12137966D01*
X-10533229Y12142957D01*
X-10588158Y12141606D01*
X-10638877Y12119118D01*
X-10705553Y12068740D01*
X-10802030Y11994912D01*
X-10901728Y11932404D01*
X-11006912Y11883618D01*
X-11124998Y11846737D01*
X-11263399Y11819941D01*
X-11429529Y11801410D01*
X-11630801Y11789325D01*
X-11874630Y11781868D01*
X-12051871Y11778695D01*
X-12223116Y11777707D01*
X-12361370Y11780028D01*
X-12475839Y11785986D01*
X-12575727Y11795907D01*
X-12670241Y11810118D01*
X-12700696Y11815683D01*
X-12926813Y11876177D01*
X-13124303Y11963909D01*
X-13284486Y12075134D01*
X-13322656Y12104612D01*
X-13404152Y12141181D01*
X-13500053Y12148168D01*
X-13618990Y12125541D01*
X-13769594Y12073267D01*
X-13825700Y12052108D01*
X-13883113Y12031210D01*
X-13929991Y12011133D01*
X-13967391Y11987251D01*
X-13996369Y11954943D01*
X-14017982Y11909585D01*
X-14033285Y11846552D01*
X-14043336Y11761223D01*
X-14049190Y11648973D01*
X-14051905Y11505179D01*
X-14052536Y11325218D01*
X-14249988Y11325218D01*
X-14248248Y12076986D01*
X-14322641Y12161716D01*
X-14340851Y12183692D01*
X-14397202Y12282336D01*
X-14407336Y12334062D01*
X-13801527Y12334062D01*
X-13800077Y12297308D01*
X-13795270Y12278180D01*
X-13771100Y12287864D01*
X-13720197Y12308035D01*
X-13672046Y12338049D01*
X-13655552Y12381872D01*
X-13600988Y12381872D01*
X-13600957Y12380685D01*
X-13576576Y12358721D01*
X-13513743Y12350592D01*
X-13477289Y12351975D01*
X-13436809Y12365315D01*
X-13426157Y12398594D01*
X-13429509Y12443670D01*
X-13454516Y12498999D01*
X-13379779Y12498999D01*
X-13374130Y12468815D01*
X-13367267Y12406915D01*
X-13367013Y12402900D01*
X-13366571Y12398594D01*
X-13363926Y12372821D01*
X-13352530Y12357260D01*
X-13322681Y12355266D01*
X-13264234Y12365892D01*
X-13167044Y12388190D01*
X-13126208Y12397041D01*
X-13086634Y12403836D01*
X-11261527Y12403836D01*
X-11182885Y12333420D01*
X-11171770Y12323187D01*
X-11109179Y12257123D01*
X-11061140Y12194188D01*
X-11058737Y12190390D01*
X-11024957Y12144371D01*
X-11002146Y12125463D01*
X-10999553Y12125670D01*
X-10958677Y12143146D01*
X-10898959Y12180555D01*
X-10837486Y12226283D01*
X-10791346Y12268720D01*
X-10773835Y12289253D01*
X-10764647Y12312362D01*
X-10788766Y12327944D01*
X-10853907Y12345462D01*
X-10903775Y12356237D01*
X-11007056Y12374032D01*
X-11111379Y12387811D01*
X-11261527Y12403836D01*
X-13086634Y12403836D01*
X-12970388Y12423796D01*
X-12781419Y12448341D01*
X-12572096Y12469490D01*
X-12355212Y12486062D01*
X-12143563Y12496873D01*
X-11949943Y12500739D01*
X-11927379Y12500635D01*
X-11784222Y12496401D01*
X-11621218Y12486751D01*
X-11448347Y12472760D01*
X-11275587Y12455502D01*
X-11112916Y12436052D01*
X-10970314Y12415486D01*
X-10857759Y12394877D01*
X-10785230Y12375301D01*
X-10752050Y12364849D01*
X-10674841Y12352071D01*
X-10600816Y12351556D01*
X-10545220Y12362737D01*
X-10523300Y12385047D01*
X-10546237Y12416257D01*
X-10610038Y12454491D01*
X-10706412Y12496835D01*
X-10827067Y12540521D01*
X-10963710Y12582780D01*
X-11108050Y12620843D01*
X-11251794Y12651943D01*
X-11386650Y12673310D01*
X-11500105Y12683899D01*
X-11646066Y12692697D01*
X-11804546Y12698657D01*
X-11956672Y12700866D01*
X-11969796Y12700851D01*
X-12160046Y12697114D01*
X-12355802Y12687388D01*
X-12550894Y12672549D01*
X-12739153Y12653471D01*
X-12914411Y12631030D01*
X-13070500Y12606100D01*
X-13201249Y12579557D01*
X-13300492Y12552276D01*
X-13362058Y12525131D01*
X-13379779Y12498999D01*
X-13454516Y12498999D01*
X-13457352Y12505274D01*
X-13513502Y12525764D01*
X-13548452Y12516709D01*
X-13586711Y12467900D01*
X-13599148Y12392959D01*
X-13600988Y12381872D01*
X-13655552Y12381872D01*
X-13651379Y12392959D01*
X-13651497Y12410318D01*
X-13657273Y12442843D01*
X-13681580Y12445140D01*
X-13737788Y12421649D01*
X-13778563Y12393378D01*
X-13801527Y12334062D01*
X-14407336Y12334062D01*
X-14418949Y12393335D01*
X-14405693Y12522241D01*
X-14357034Y12674604D01*
X-14272571Y12855973D01*
X-14182948Y13009611D01*
X-13997745Y13250590D01*
X-13770707Y13470303D01*
X-13506431Y13665471D01*
X-12667015Y13665471D01*
X-12663147Y13633869D01*
X-12623123Y13589681D01*
X-12574061Y13539266D01*
X-12535234Y13487425D01*
X-12492851Y13450740D01*
X-12405804Y13431563D01*
X-12386011Y13429474D01*
X-12316838Y13412690D01*
X-12273909Y13387770D01*
X-12269713Y13383494D01*
X-12220611Y13360819D01*
X-12151353Y13351577D01*
X-12097085Y13347981D01*
X-12054713Y13325530D01*
X-12023038Y13270266D01*
X-12018872Y13261202D01*
X-11971816Y13197229D01*
X-11920507Y13179901D01*
X-11873780Y13208612D01*
X-11840469Y13282759D01*
X-11824537Y13325621D01*
X-11792050Y13346827D01*
X-11727070Y13351577D01*
X-11713664Y13351902D01*
X-11644305Y13363802D01*
X-11600474Y13387770D01*
X-11592960Y13394748D01*
X-11540726Y13418275D01*
X-11468579Y13431563D01*
X-11388621Y13447680D01*
X-11339149Y13487425D01*
X-11303577Y13535479D01*
X-11251260Y13589681D01*
X-11239947Y13600153D01*
X-11207377Y13641273D01*
X-11211198Y13670329D01*
X-11254753Y13689001D01*
X-11341386Y13698972D01*
X-11474439Y13701922D01*
X-11721935Y13701922D01*
X-11791027Y13611337D01*
X-11813975Y13583445D01*
X-11850816Y13549638D01*
X-11869460Y13548776D01*
X-11897226Y13572401D01*
X-11946379Y13573166D01*
X-11992419Y13549099D01*
X-11999473Y13543353D01*
X-12028265Y13546590D01*
X-12065663Y13592892D01*
X-12067702Y13596071D01*
X-12106389Y13650093D01*
X-12136811Y13682770D01*
X-12151471Y13687490D01*
X-12209433Y13694601D01*
X-12298027Y13699572D01*
X-12404927Y13701538D01*
X-12429039Y13701506D01*
X-12553226Y13697616D01*
X-12631463Y13686162D01*
X-12667015Y13665471D01*
X-13506431Y13665471D01*
X-13504924Y13666584D01*
X-13419091Y13715186D01*
X-12022889Y13715186D01*
X-11994748Y13656877D01*
X-11971365Y13639130D01*
X-11915155Y13629597D01*
X-11868851Y13657414D01*
X-11849605Y13715639D01*
X-11854657Y13746663D01*
X-11888048Y13794604D01*
X-11938409Y13816055D01*
X-11988841Y13800693D01*
X-12009528Y13776745D01*
X-12022889Y13715186D01*
X-13419091Y13715186D01*
X-13203483Y13837271D01*
X-12869476Y13980200D01*
X-12505989Y14093209D01*
X-12411565Y14116496D01*
X-12325678Y14133713D01*
X-12242122Y14144175D01*
X-12147816Y14148976D01*
X-12029679Y14149209D01*
X-11874630Y14145966D01*
X-11720636Y14141201D01*
X-11603872Y14134875D01*
X-11511863Y14125188D01*
X-11431954Y14110330D01*
X-11351493Y14088497D01*
X-11257825Y14057879D01*
X-11111911Y14003170D01*
X-10873664Y13886145D01*
X-10655332Y13737891D01*
X-10630203Y13715639D01*
X-10546222Y13641273D01*
G37*
D14*
%TO.C,J1*%
X-5950000Y-9750000D02*
X-4020000Y-9750000D01*
X-5950000Y-10910000D02*
X-5950000Y-9750000D01*
X-5950000Y-15650000D02*
X-5950000Y-12850000D01*
X-5950000Y-18750000D02*
X-5950000Y-17590000D01*
X-5840000Y-18750000D02*
X-4020000Y-18750000D01*
X-3480000Y-9750000D02*
X-1550000Y-9750000D01*
X-3480000Y-18750000D02*
X-1670000Y-18750000D01*
X-1550000Y-10910000D02*
X-1550000Y-9750000D01*
X-1550000Y-15650000D02*
X-1550000Y-12850000D01*
X-1550000Y-18750000D02*
X-1550000Y-17590000D01*
D13*
%TO.C,C5*%
X12411573Y-2109419D02*
X12411573Y-2390581D01*
X13431573Y-2109419D02*
X13431573Y-2390581D01*
D12*
%TO.C,S2*%
X-17550000Y5530000D02*
X-17550000Y2970000D01*
X-17550000Y5530000D02*
X-16660000Y6420000D01*
X-17550000Y2970000D02*
X-16660000Y2080000D01*
X-16800000Y5250000D02*
X-16800000Y3350000D01*
X-16800000Y3350000D02*
X-15900000Y2450000D01*
X-16170000Y6800000D02*
X-13830000Y6800000D01*
X-16170000Y1700000D02*
X-13830000Y1700000D01*
X-16000000Y6050000D02*
X-16800000Y5250000D01*
X-15900000Y2450000D02*
X-14100000Y2450000D01*
X-14100000Y2450000D02*
X-13100001Y3450000D01*
X-14000000Y6050000D02*
X-16000000Y6050000D01*
X-13340000Y6420000D02*
X-12450000Y5530000D01*
X-13340000Y2080000D02*
X-12450000Y2970000D01*
X-13100001Y3450000D02*
X-13100000Y5150000D01*
X-13100000Y5150000D02*
X-14000000Y6050000D01*
X-12450000Y5530000D02*
X-12450000Y2970000D01*
X-17470000Y7500000D02*
G75*
G02*
X-17530000Y7500000I-30000J0D01*
G01*
X-17530000Y7500000D02*
G75*
G02*
X-17470000Y7500000I30000J0D01*
G01*
X-13720000Y4250000D02*
G75*
G02*
X-16280000Y4250000I-1280000J0D01*
G01*
X-16280000Y4250000D02*
G75*
G02*
X-13720000Y4250000I1280000J0D01*
G01*
%TD*%
%LPC*%
D18*
%TO.C,C1*%
X10500000Y10025000D03*
X10500000Y8475000D03*
%TD*%
D19*
%TO.C,R3*%
X0Y-18820001D03*
X0Y-17179999D03*
%TD*%
D20*
%TO.C,D2*%
X1000000Y-10999999D03*
X1000000Y-15000001D03*
%TD*%
D21*
%TO.C,D1*%
X11943153Y-8556847D03*
X13056847Y-7443153D03*
%TD*%
D22*
%TO.C,C7*%
X-18500000Y-2970000D03*
X-18500000Y-4530000D03*
%TD*%
D23*
%TO.C,U4*%
X-13340000Y-7930000D03*
X-14620000Y-7930000D03*
X-15880000Y-7930000D03*
X-17150001Y-7929999D03*
X-17150000Y-2570000D03*
X-15880000Y-2570000D03*
X-14620000Y-2570000D03*
X-13339999Y-2570001D03*
%TD*%
D20*
%TO.C,D3*%
X4500000Y-10999999D03*
X4500000Y-15000001D03*
%TD*%
D24*
%TO.C,U1*%
X8680000Y9800000D03*
X8680000Y8530000D03*
X8680000Y7260000D03*
X8680000Y5990000D03*
X8680000Y4720000D03*
X8680000Y3450000D03*
X8680000Y2180000D03*
X8680000Y910000D03*
X8680000Y-360000D03*
X8680000Y-1630000D03*
X8680000Y-2900000D03*
X8680000Y-4170000D03*
X8680000Y-5440000D03*
X8680000Y-6710000D03*
D25*
X5700000Y-8140000D03*
X4430000Y-8140000D03*
X3160000Y-8140000D03*
X1890000Y-8140000D03*
X610000Y-8140000D03*
X-650000Y-8130000D03*
X-1920000Y-8130000D03*
X-3190000Y-8130000D03*
X-4460000Y-8130000D03*
X-5730000Y-8130000D03*
D24*
X-8720000Y-6710000D03*
X-8720000Y-5440000D03*
X-8720000Y-4170000D03*
X-8720000Y-2900000D03*
X-8720000Y-1630000D03*
X-8720000Y-360000D03*
X-8720000Y910000D03*
X-8720000Y2180000D03*
X-8720000Y3450000D03*
X-8720000Y4720000D03*
X-8720000Y5990000D03*
X-8720000Y7260000D03*
X-8720000Y8530000D03*
X-8720000Y9800000D03*
D26*
X1000000Y2250000D03*
%TD*%
D27*
%TO.C,R4*%
X15420172Y-6670172D03*
X16579828Y-7829828D03*
%TD*%
D28*
%TO.C,S1*%
X13400000Y7550000D03*
X13400000Y950000D03*
X17100000Y7550000D03*
X17100000Y950000D03*
%TD*%
D29*
%TO.C,R2*%
X11079828Y-9420172D03*
X9920172Y-10579828D03*
%TD*%
D30*
%TO.C,R6*%
X12000000Y9075000D03*
X12000000Y7425000D03*
%TD*%
D19*
%TO.C,R1*%
X1250000Y-19070001D03*
X1250000Y-17429999D03*
%TD*%
D31*
%TO.C,U2*%
X-12476085Y-13617417D03*
X-11804334Y-12945666D03*
X-11132583Y-12273915D03*
X-9523915Y-13882583D03*
X-10195666Y-14554334D03*
X-10867417Y-15226085D03*
%TD*%
D32*
%TO.C,C2*%
X-10198457Y-8301543D03*
X-11301543Y-7198457D03*
%TD*%
D33*
%TO.C,U5*%
X-7537868Y-9118629D03*
X-7078249Y-9578249D03*
X-6618629Y-10037868D03*
D34*
X-7962132Y-11381371D03*
X-8421751Y-10921751D03*
X-8881371Y-10462132D03*
%TD*%
D35*
%TO.C,J2*%
X9361469Y-15220872D03*
X15470872Y-9111469D03*
D36*
X12812150Y-13269257D03*
D37*
X14240506Y-11840901D03*
D38*
X15110247Y-10971160D03*
D36*
X13519257Y-12562150D03*
D37*
X12090901Y-13990506D03*
D38*
X11221160Y-14860247D03*
%TD*%
D39*
%TO.C,U3*%
X16887500Y-1300001D03*
X16887500Y-2250000D03*
X16887500Y-3199999D03*
X14612500Y-3199999D03*
X14612500Y-1300001D03*
%TD*%
D22*
%TO.C,C6*%
X-12000001Y-2970000D03*
X-11999999Y-4530000D03*
%TD*%
D18*
%TO.C,C3*%
X18578427Y-1475000D03*
X18578427Y-3025000D03*
%TD*%
D22*
%TO.C,C8*%
X11750000Y6030000D03*
X11750000Y4470000D03*
%TD*%
D40*
%TO.C,J1*%
X-3750000Y-18250000D03*
X-3750000Y-10250000D03*
D41*
X-1420000Y-16620000D03*
X-1420000Y-11880000D03*
X-6080000Y-16620000D03*
X-6080000Y-11880000D03*
D42*
X-4770000Y-11410000D03*
X-4770000Y-12410000D03*
X-4770000Y-13410000D03*
X-4770000Y-14410000D03*
X-4770000Y-15410000D03*
X-4770000Y-16410000D03*
X-4770000Y-17410000D03*
X-2730000Y-17090000D03*
X-2730000Y-16090000D03*
X-2730000Y-15090000D03*
X-2730000Y-14090000D03*
X-2730000Y-13090000D03*
X-2730000Y-12090000D03*
X-2730000Y-11090000D03*
%TD*%
D32*
%TO.C,C4*%
X-10448457Y-9801543D03*
X-11551543Y-8698457D03*
%TD*%
D18*
%TO.C,C5*%
X12921573Y-1475000D03*
X12921573Y-3025000D03*
%TD*%
D28*
%TO.C,S2*%
X-16850000Y7550000D03*
X-16850000Y950000D03*
X-13150000Y7550000D03*
X-13150000Y950000D03*
%TD*%
D27*
%TO.C,R5*%
X13420172Y-4670172D03*
X14579828Y-5829828D03*
%TD*%
%LPD*%
M02*
