%TF.GenerationSoftware,KiCad,Pcbnew,9.0.0*%
%TF.CreationDate,2025-03-19T15:37:07+01:00*%
%TF.ProjectId,BladeMaster,426c6164-654d-4617-9374-65722e6b6963,rev?*%
%TF.SameCoordinates,Original*%
%TF.FileFunction,Copper,L1,Top*%
%TF.FilePolarity,Positive*%
%FSLAX46Y46*%
G04 Gerber Fmt 4.6, Leading zero omitted, Abs format (unit mm)*
G04 Created by KiCad (PCBNEW 9.0.0) date 2025-03-19 15:37:07*
%MOMM*%
%LPD*%
G01*
G04 APERTURE LIST*
G04 Aperture macros list*
%AMHorizOval*
0 Thick line with rounded ends*
0 $1 width*
0 $2 $3 position (X,Y) of the first rounded end (center of the circle)*
0 $4 $5 position (X,Y) of the second rounded end (center of the circle)*
0 Add line between two ends*
20,1,$1,$2,$3,$4,$5,0*
0 Add two circle primitives to create the rounded ends*
1,1,$1,$2,$3*
1,1,$1,$4,$5*%
G04 Aperture macros list end*
%TA.AperFunction,SMDPad,CuDef*%
%ADD10C,2.500000*%
%TD*%
%TA.AperFunction,ComponentPad*%
%ADD11HorizOval,1.000000X-0.247487X0.247487X0.247487X-0.247487X0*%
%TD*%
%TA.AperFunction,ComponentPad*%
%ADD12C,0.750000*%
%TD*%
%TA.AperFunction,ComponentPad*%
%ADD13O,1.000000X1.600000*%
%TD*%
%TA.AperFunction,ViaPad*%
%ADD14C,0.800000*%
%TD*%
%TA.AperFunction,ViaPad*%
%ADD15C,0.500000*%
%TD*%
%TA.AperFunction,ViaPad*%
%ADD16C,0.450000*%
%TD*%
%TA.AperFunction,Conductor*%
%ADD17C,0.200000*%
%TD*%
%TA.AperFunction,Conductor*%
%ADD18C,0.300000*%
%TD*%
%TA.AperFunction,Conductor*%
%ADD19C,0.500000*%
%TD*%
%TA.AperFunction,Conductor*%
%ADD20C,0.400000*%
%TD*%
%TA.AperFunction,Conductor*%
%ADD21C,0.800000*%
%TD*%
G04 APERTURE END LIST*
D10*
%TO.P,J7,1,1*%
%TO.N,/NEOPX5*%
X0Y0D03*
%TD*%
%TO.P,J3,1,1*%
%TO.N,/5V*%
X0Y-7500000D03*
%TD*%
%TO.P,J6,1,1*%
%TO.N,GND*%
X-4000000Y0D03*
%TD*%
%TO.P,J4,1,1*%
%TO.N,/5V*%
X0Y7500000D03*
%TD*%
%TO.P,J5,1,1*%
%TO.N,GND*%
X4000000Y0D03*
%TD*%
D11*
%TO.P,J2,1,EP*%
%TO.N,GND*%
X9361469Y-15220872D03*
%TO.P,J2,2,EP*%
X15470872Y-9111469D03*
%TD*%
D12*
%TO.P,J1,*%
%TO.N,*%
X-3750000Y-18250000D03*
X-3750000Y-10250000D03*
D13*
%TO.P,J1,15,EH*%
%TO.N,GND*%
X-1420000Y-16620000D03*
X-1420000Y-11880000D03*
X-6080000Y-16620000D03*
X-6080000Y-11880000D03*
%TD*%
D14*
%TO.N,GND*%
X17075000Y7575000D03*
X7750000Y-9250000D03*
X16670172Y-5420172D03*
X5000000Y3000000D03*
X12250000Y2750000D03*
X-15500000Y-9750000D03*
D15*
X-12000000Y-12750000D03*
D16*
X-12000000Y-4750000D03*
X5000000Y-13000000D03*
D14*
X-15750000Y-10750000D03*
X0Y-13028000D03*
X3250000Y-17000000D03*
X13964645Y-4153983D03*
X-4000000Y-2500000D03*
D16*
X-6750000Y-9250000D03*
D14*
X4250000Y-2750000D03*
D16*
X0Y-18820001D03*
D14*
X-4000000Y2750000D03*
D16*
X1250000Y-19070001D03*
D14*
X2551000Y-15500000D03*
X-16500000Y-9750000D03*
D16*
X-18500000Y-4500000D03*
D14*
X1250000Y-13028000D03*
D16*
X-1250000Y-19250000D03*
D14*
X16500000Y4500000D03*
%TO.N,Net-(U4-~{RTS})*%
X-11301543Y-7198457D03*
X-16250000Y-6250000D03*
%TO.N,/5V*%
X4500000Y-10999999D03*
X1000000Y-10999999D03*
X-6827094Y-8422906D03*
X1000000Y-5000000D03*
X2750000Y-10999999D03*
X-3750000Y-5500000D03*
X2750000Y-12000000D03*
X0Y-10250000D03*
X3500000Y-10000000D03*
X2000000Y-10000000D03*
D16*
%TO.N,Net-(D1-A)*%
X11500000Y-4500000D03*
X13000000Y-7500000D03*
%TO.N,/D-*%
X-4250000Y-15250000D03*
X-3250000Y-13500000D03*
%TO.N,/CC2_1*%
X-3250000Y-15250000D03*
X-2739501Y-17910501D03*
D14*
X8680000Y4720000D03*
D16*
%TO.N,/CC1_1*%
X1250000Y-17429999D03*
X-4770000Y-13410000D03*
D14*
X8680000Y5990000D03*
D16*
%TO.N,/CC1_2*%
X14579828Y-5829828D03*
X12000000Y-1500000D03*
X12500000Y-13000000D03*
X12500000Y-9250000D03*
%TO.N,/CC2_2*%
X14000000Y-13000000D03*
X16500000Y-8000000D03*
X11419000Y-3500000D03*
D14*
%TO.N,/NEOPX5*%
X-7000000Y-11000000D03*
%TD*%
D17*
%TO.N,GND*%
X-7701000Y-11290364D02*
X-7111364Y-11880000D01*
D18*
X-8000000Y-12250000D02*
X-11500000Y-12250000D01*
X-18500000Y-4500000D02*
X-17001000Y-5999000D01*
X-17001000Y-9249000D02*
X-16500000Y-9750000D01*
D17*
X-7111364Y-11888636D02*
X-7000000Y-12000000D01*
D18*
X-11500000Y-12250000D02*
X-12000000Y-12750000D01*
X-17001000Y-5999000D02*
X-17001000Y-9249000D01*
X-7750000Y-12000000D02*
X-8000000Y-12250000D01*
X-6200000Y-12000000D02*
X-7750000Y-12000000D01*
X-12000000Y-4750000D02*
X-7751000Y-8999000D01*
D19*
X13964645Y-4153983D02*
X15403983Y-4153983D01*
D18*
X-6080000Y-11880000D02*
X-6200000Y-12000000D01*
D17*
X-7111364Y-11880000D02*
X-7111364Y-11888636D01*
X-7701000Y-10201000D02*
X-7701000Y-11290364D01*
D18*
X-7620000Y-11880000D02*
X-6080000Y-11880000D01*
D17*
X-6750000Y-9250000D02*
X-7701000Y-10201000D01*
D18*
X-7751000Y-11749000D02*
X-7620000Y-11880000D01*
D19*
X15403983Y-4153983D02*
X16670172Y-5420172D01*
D18*
X-7751000Y-8999000D02*
X-7751000Y-11749000D01*
D20*
%TO.N,Net-(U4-~{RTS})*%
X-12250000Y-6250000D02*
X-11301543Y-7198457D01*
X-16250000Y-6250000D02*
X-12250000Y-6250000D01*
D21*
%TO.N,/5V*%
X0Y-7500000D02*
X1000000Y-7500000D01*
X1000000Y-7500000D02*
X3500000Y-10000000D01*
D20*
X-3904188Y-5500000D02*
X-6827094Y-8422906D01*
D21*
X0Y-10250000D02*
X0Y-7500000D01*
D20*
X1000000Y-5000000D02*
X1500000Y-5000000D01*
X-3750000Y-5500000D02*
X-3904188Y-5500000D01*
D21*
X0Y-7500000D02*
X2000000Y-5500000D01*
X2000000Y-5500000D02*
X2000000Y5500000D01*
D20*
X1500000Y-5000000D02*
X2000000Y-5500000D01*
D21*
X2000000Y5500000D02*
X0Y7500000D01*
D18*
%TO.N,Net-(D1-A)*%
X13000000Y-6000000D02*
X11500000Y-4500000D01*
X13000000Y-7500000D02*
X13000000Y-6000000D01*
D17*
%TO.N,/D-*%
X-4000000Y-15000000D02*
X-4000000Y-13750000D01*
X-3750000Y-13500000D02*
X-3250000Y-13500000D01*
X-4250000Y-15250000D02*
X-4000000Y-15000000D01*
X-4000000Y-13750000D02*
X-3750000Y-13500000D01*
%TO.N,/CC2_1*%
X1781000Y-15281000D02*
X1750000Y-15250000D01*
X-2739501Y-17910501D02*
X-2689003Y-17960999D01*
X-3250000Y-17400002D02*
X-3250000Y-15250000D01*
X1750000Y-15250000D02*
X6828000Y-10172000D01*
X-2689003Y-17960999D02*
X1469948Y-17960999D01*
X1469948Y-17960999D02*
X1781000Y-17649947D01*
X1781000Y-17649947D02*
X1781000Y-15281000D01*
X6828000Y-10172000D02*
X6828000Y2868000D01*
X6828000Y2868000D02*
X8680000Y4720000D01*
X-2739501Y-17910501D02*
X-3250000Y-17400002D01*
%TO.N,/CC1_1*%
X-4219000Y-12969000D02*
X-3030052Y-12969000D01*
X6500000Y-9991363D02*
X6500000Y3810000D01*
X-3030052Y-12969000D02*
X1250000Y-17249052D01*
X-4660000Y-13410000D02*
X-4219000Y-12969000D01*
X1250000Y-15241363D02*
X6500000Y-9991363D01*
X6500000Y3810000D02*
X8680000Y5990000D01*
X1250000Y-17429999D02*
X1250000Y-15241363D01*
X-4770000Y-13410000D02*
X-4660000Y-13410000D01*
X1250000Y-17249052D02*
X1250000Y-17429999D01*
D18*
%TO.N,/CC1_2*%
X12000000Y-1500000D02*
X12000000Y-3250000D01*
X12000000Y-3250000D02*
X14579828Y-5829828D01*
X12500000Y-13000000D02*
X12500000Y-9250000D01*
%TO.N,/CC2_2*%
X14000000Y-13000000D02*
X14000000Y-12500000D01*
X11678341Y-3750000D02*
X15928341Y-8000000D01*
X16750000Y-9750000D02*
X16750000Y-8250000D01*
X16750000Y-8250000D02*
X16500000Y-8000000D01*
X15928341Y-8000000D02*
X16500000Y-8000000D01*
X14000000Y-12500000D02*
X16750000Y-9750000D01*
X11669000Y-3750000D02*
X11678341Y-3750000D01*
X11419000Y-3500000D02*
X11669000Y-3750000D01*
D20*
%TO.N,/NEOPX5*%
X-7000000Y-11000000D02*
X0Y-4000000D01*
X0Y-4000000D02*
X0Y0D01*
%TD*%
%TA.AperFunction,Conductor*%
%TO.N,/5V*%
G36*
X1871242Y-7825188D02*
G01*
X1910111Y-7851495D01*
X3798176Y-9739560D01*
X3813597Y-9758350D01*
X3843259Y-9802742D01*
X3854716Y-9824176D01*
X3864130Y-9846902D01*
X3875148Y-9873503D01*
X3882203Y-9896761D01*
X3892617Y-9949111D01*
X3895000Y-9973304D01*
X3895000Y-9975499D01*
X3895001Y-9975508D01*
X3906552Y-10082949D01*
X3906554Y-10082961D01*
X3917760Y-10134471D01*
X3951883Y-10236996D01*
X3951886Y-10237002D01*
X4029671Y-10358036D01*
X4029679Y-10358047D01*
X4075423Y-10410839D01*
X4075426Y-10410842D01*
X4075430Y-10410846D01*
X4184164Y-10505066D01*
X4184167Y-10505067D01*
X4184168Y-10505068D01*
X4312542Y-10563696D01*
X4315041Y-10564837D01*
X4382080Y-10584522D01*
X4382084Y-10584523D01*
X4524500Y-10604999D01*
X4526689Y-10604999D01*
X4550878Y-10607381D01*
X4566435Y-10610475D01*
X4603241Y-10617796D01*
X4626493Y-10624848D01*
X4675825Y-10645281D01*
X4697258Y-10656738D01*
X4739799Y-10685164D01*
X4741642Y-10686395D01*
X4760432Y-10701816D01*
X4762690Y-10704074D01*
X4796175Y-10765397D01*
X4791191Y-10835089D01*
X4762690Y-10879436D01*
X3428446Y-12213681D01*
X3367123Y-12247166D01*
X3340765Y-12250000D01*
X2508861Y-12250000D01*
X2489679Y-12244367D01*
X2469702Y-12243654D01*
X2456842Y-12234725D01*
X2441822Y-12230315D01*
X2428732Y-12215208D01*
X2412309Y-12203806D01*
X2398100Y-12179857D01*
X2396067Y-12177511D01*
X2394300Y-12173452D01*
X2374852Y-12126500D01*
X2367795Y-12103237D01*
X2357382Y-12050883D01*
X2355000Y-12026694D01*
X2355000Y-11973303D01*
X2357382Y-11949114D01*
X2359993Y-11935986D01*
X2377724Y-11846842D01*
X2380051Y-11837188D01*
X2390570Y-11800147D01*
X2399692Y-11743850D01*
X2404912Y-11626934D01*
X2374328Y-11486342D01*
X2350655Y-11422873D01*
X2350122Y-11421363D01*
X2349906Y-11420866D01*
X2280954Y-11294595D01*
X2280952Y-11294592D01*
X2179220Y-11192862D01*
X2179215Y-11192857D01*
X2179209Y-11192852D01*
X2179205Y-11192849D01*
X2123285Y-11150988D01*
X1996999Y-11082032D01*
X1856415Y-11051451D01*
X1856409Y-11051450D01*
X1856408Y-11051450D01*
X1833177Y-11049788D01*
X1786718Y-11046466D01*
X1786716Y-11046466D01*
X1643210Y-11056729D01*
X1643207Y-11056729D01*
X1643207Y-11056730D01*
X1508399Y-11107009D01*
X1508393Y-11107012D01*
X1449034Y-11139424D01*
X1447560Y-11140194D01*
X1447075Y-11140493D01*
X1331897Y-11226715D01*
X1331884Y-11226727D01*
X1260427Y-11298182D01*
X1241640Y-11313601D01*
X1197265Y-11343252D01*
X1175827Y-11354710D01*
X1126492Y-11375146D01*
X1103230Y-11382203D01*
X1050883Y-11392616D01*
X1026691Y-11394999D01*
X973312Y-11394999D01*
X949119Y-11392616D01*
X934536Y-11389715D01*
X896754Y-11382199D01*
X873497Y-11375144D01*
X824180Y-11354717D01*
X802740Y-11343257D01*
X758357Y-11313601D01*
X739567Y-11298180D01*
X701819Y-11260432D01*
X686399Y-11241643D01*
X676432Y-11226727D01*
X656738Y-11197253D01*
X645279Y-11175816D01*
X634995Y-11150988D01*
X617403Y-11108517D01*
X613236Y-11096656D01*
X613234Y-11096657D01*
X613207Y-11096574D01*
X612905Y-11095714D01*
X612683Y-11094951D01*
X612681Y-11094943D01*
X603859Y-11067628D01*
X582644Y-11012996D01*
X504856Y-10891957D01*
X504851Y-10891951D01*
X459107Y-10839159D01*
X459103Y-10839156D01*
X459101Y-10839153D01*
X350367Y-10744933D01*
X350364Y-10744931D01*
X350362Y-10744930D01*
X219496Y-10685164D01*
X219491Y-10685162D01*
X219490Y-10685162D01*
X152451Y-10665477D01*
X152453Y-10665477D01*
X152448Y-10665476D01*
X91679Y-10656739D01*
X10031Y-10645000D01*
X10029Y-10645000D01*
X-26694Y-10645000D01*
X-50885Y-10642617D01*
X-104338Y-10631984D01*
X-125537Y-10625760D01*
X-131972Y-10623228D01*
X-140317Y-10620116D01*
X-157258Y-10614141D01*
X-157266Y-10614139D01*
X-157271Y-10614137D01*
X-219010Y-10602998D01*
X-247458Y-10588758D01*
X-276609Y-10576033D01*
X-279644Y-10572647D01*
X-281488Y-10571724D01*
X-300166Y-10549751D01*
X-348587Y-10477119D01*
X-368447Y-10423786D01*
X-368919Y-10420031D01*
X-368919Y-10420021D01*
X-392617Y-10300884D01*
X-395000Y-10276693D01*
X-395000Y-9354492D01*
X-375315Y-9287453D01*
X-322511Y-9241698D01*
X-254814Y-9231553D01*
X-114709Y-9249999D01*
X-114694Y-9250000D01*
X114694Y-9250000D01*
X114708Y-9249999D01*
X254814Y-9231553D01*
X323849Y-9242318D01*
X376105Y-9288698D01*
X395000Y-9354492D01*
X395000Y-9677912D01*
X395001Y-9677932D01*
X408548Y-9794167D01*
X408548Y-9794168D01*
X421663Y-9849670D01*
X437828Y-9894220D01*
X461587Y-9959698D01*
X543646Y-10077884D01*
X591257Y-10129021D01*
X703288Y-10219300D01*
X836216Y-10274359D01*
X903916Y-10291638D01*
X918221Y-10293176D01*
X1046962Y-10307018D01*
X1046965Y-10307017D01*
X1046971Y-10307018D01*
X1188565Y-10281471D01*
X1252374Y-10260232D01*
X1254121Y-10259693D01*
X1254854Y-10259407D01*
X1254859Y-10259406D01*
X1254866Y-10259404D01*
X1383526Y-10194998D01*
X1488830Y-10096954D01*
X1532670Y-10042550D01*
X1606084Y-9918812D01*
X1645281Y-9824175D01*
X1656735Y-9802748D01*
X1686404Y-9758346D01*
X1701815Y-9739568D01*
X1746259Y-9695126D01*
X1814069Y-9610981D01*
X1842570Y-9566634D01*
X1890949Y-9469985D01*
X1898727Y-9434229D01*
X1921530Y-9329404D01*
X1921530Y-9329401D01*
X1921532Y-9329393D01*
X1926516Y-9259701D01*
X1916252Y-9116190D01*
X1865970Y-8981381D01*
X1832485Y-8920058D01*
X1746261Y-8804877D01*
X1746256Y-8804872D01*
X1746251Y-8804866D01*
X1528061Y-8586676D01*
X1515888Y-8576191D01*
X1477940Y-8517525D01*
X1477733Y-8447656D01*
X1489426Y-8420238D01*
X1572893Y-8275668D01*
X1572897Y-8275659D01*
X1660682Y-8063728D01*
X1702655Y-7907083D01*
X1739020Y-7847422D01*
X1801867Y-7816893D01*
X1871242Y-7825188D01*
G37*
%TD.AperFunction*%
%TD*%
%TA.AperFunction,Conductor*%
%TO.N,GND*%
G36*
X-8678254Y10740563D02*
G01*
X-8662666Y10734106D01*
X-8662662Y10734106D01*
X-8662659Y10734104D01*
X-8488696Y10699501D01*
X-8488693Y10699500D01*
X-8488691Y10699500D01*
X8488693Y10699500D01*
X8488694Y10699501D01*
X8546682Y10711036D01*
X8662658Y10734104D01*
X8662659Y10734105D01*
X8662666Y10734106D01*
X8678253Y10740563D01*
X8725702Y10750000D01*
X16436479Y10750000D01*
X16503518Y10730315D01*
X16541333Y10692194D01*
X16876674Y10161000D01*
X16879398Y10156473D01*
X17294175Y9432898D01*
X17296705Y9428260D01*
X17680311Y8687614D01*
X17682640Y8682872D01*
X18034336Y7926584D01*
X18036461Y7921747D01*
X18355618Y7151178D01*
X18357534Y7146259D01*
X18570102Y6564035D01*
X18643590Y6362751D01*
X18645294Y6357753D01*
X18701391Y6181082D01*
X18897699Y5562825D01*
X18899191Y5557756D01*
X19117513Y4752761D01*
X19118787Y4747634D01*
X19302620Y3934069D01*
X19303674Y3928892D01*
X19452680Y3108258D01*
X19453513Y3103041D01*
X19567428Y2276792D01*
X19568038Y2271544D01*
X19646783Y1439827D01*
X19646995Y1437309D01*
X19647003Y1437201D01*
X19647003Y1437197D01*
X19650380Y1391092D01*
X19650431Y1390967D01*
X19651161Y1381128D01*
X19651159Y1381121D01*
X19651164Y1381090D01*
X19653293Y1352251D01*
X19653294Y1352241D01*
X19653295Y1352239D01*
X19661086Y1323503D01*
X19698596Y1185141D01*
X19698598Y1185136D01*
X19774906Y1029730D01*
X19774910Y1029723D01*
X19879427Y891704D01*
X19879429Y891702D01*
X20008331Y776119D01*
X20008333Y776118D01*
X20008334Y776117D01*
X20008356Y776104D01*
X20156893Y687211D01*
X20184289Y677266D01*
X20193439Y673944D01*
X20193519Y673881D01*
X20231778Y660020D01*
X20231780Y660019D01*
X20231866Y659988D01*
X20231883Y659976D01*
X20244446Y654616D01*
X20328262Y613217D01*
X20365050Y595046D01*
X20388216Y580198D01*
X20466365Y516849D01*
X20487309Y499871D01*
X20506632Y480276D01*
X20585564Y380073D01*
X20600090Y356697D01*
X20654975Y241552D01*
X20663987Y215549D01*
X20692125Y91130D01*
X20695179Y63778D01*
X20695179Y-63777D01*
X20692125Y-91129D01*
X20663987Y-215548D01*
X20654975Y-241551D01*
X20600090Y-356696D01*
X20585564Y-380072D01*
X20506632Y-480275D01*
X20487309Y-499871D01*
X20388221Y-580194D01*
X20365051Y-595044D01*
X20244534Y-654572D01*
X20231932Y-659952D01*
X20216440Y-665576D01*
X20216369Y-665602D01*
X20184978Y-676975D01*
X20184723Y-677090D01*
X20156885Y-687196D01*
X20008325Y-776103D01*
X19879416Y-891692D01*
X19774894Y-1029719D01*
X19774892Y-1029720D01*
X19698582Y-1185132D01*
X19653279Y-1352235D01*
X19653277Y-1352246D01*
X19651123Y-1381418D01*
X19650414Y-1391004D01*
X19650380Y-1391092D01*
X19647115Y-1435675D01*
X19647038Y-1436721D01*
X19647002Y-1437218D01*
X19646778Y-1439884D01*
X19566768Y-2282452D01*
X19566147Y-2287769D01*
X19450035Y-3124767D01*
X19449185Y-3130052D01*
X19297059Y-3961252D01*
X19295982Y-3966495D01*
X19108127Y-4790352D01*
X19106825Y-4795544D01*
X18883579Y-5610565D01*
X18882053Y-5615695D01*
X18623863Y-6420260D01*
X18622118Y-6425321D01*
X18329429Y-7218036D01*
X18327467Y-7223016D01*
X18000846Y-8002345D01*
X17998671Y-8007235D01*
X17638718Y-8771752D01*
X17636335Y-8776543D01*
X17634304Y-8780414D01*
X17585726Y-8830633D01*
X17517709Y-8846617D01*
X17451849Y-8823291D01*
X17409054Y-8768060D01*
X17400500Y-8722803D01*
X17400500Y-8185928D01*
X17375502Y-8060261D01*
X17375501Y-8060260D01*
X17375501Y-8060256D01*
X17326465Y-7941873D01*
X17316225Y-7926547D01*
X17255276Y-7835330D01*
X17202271Y-7782325D01*
X17197717Y-7776537D01*
X17194097Y-7767502D01*
X17180610Y-7747318D01*
X17142929Y-7656347D01*
X17142926Y-7656342D01*
X17142925Y-7656340D01*
X17063532Y-7537521D01*
X17063529Y-7537517D01*
X16962482Y-7436470D01*
X16962478Y-7436467D01*
X16843659Y-7357074D01*
X16843650Y-7357069D01*
X16711620Y-7302381D01*
X16711614Y-7302379D01*
X16571457Y-7274500D01*
X16571455Y-7274500D01*
X16428545Y-7274500D01*
X16428543Y-7274500D01*
X16288381Y-7302380D01*
X16288379Y-7302380D01*
X16267545Y-7311010D01*
X16198075Y-7318476D01*
X16135597Y-7287199D01*
X16132415Y-7284128D01*
X15214210Y-6365923D01*
X15180725Y-6304600D01*
X15185709Y-6234908D01*
X15198787Y-6209353D01*
X15222757Y-6173481D01*
X15277447Y-6041448D01*
X15305328Y-5901283D01*
X15305328Y-5758373D01*
X15305328Y-5758370D01*
X15277448Y-5618213D01*
X15277447Y-5618212D01*
X15277447Y-5618208D01*
X15222757Y-5486175D01*
X15222756Y-5486174D01*
X15222753Y-5486168D01*
X15143360Y-5367349D01*
X15143357Y-5367345D01*
X15042310Y-5266298D01*
X15042306Y-5266295D01*
X14923487Y-5186902D01*
X14923477Y-5186897D01*
X14832512Y-5149218D01*
X14792284Y-5122338D01*
X12686819Y-3016873D01*
X12653334Y-2955550D01*
X12650500Y-2929192D01*
X12650500Y-1850040D01*
X12659939Y-1802587D01*
X12681722Y-1749998D01*
X12697619Y-1711620D01*
X12718913Y-1604570D01*
X12725500Y-1571457D01*
X12725500Y-1428542D01*
X12697620Y-1288385D01*
X12697619Y-1288384D01*
X12697619Y-1288380D01*
X12642929Y-1156347D01*
X12642928Y-1156346D01*
X12642925Y-1156340D01*
X12563532Y-1037521D01*
X12563529Y-1037517D01*
X12462482Y-936470D01*
X12462478Y-936467D01*
X12343659Y-857074D01*
X12343650Y-857069D01*
X12211620Y-802381D01*
X12211614Y-802379D01*
X12071457Y-774500D01*
X12071455Y-774500D01*
X11928545Y-774500D01*
X11928543Y-774500D01*
X11788385Y-802379D01*
X11788379Y-802381D01*
X11656349Y-857069D01*
X11656340Y-857074D01*
X11537521Y-936467D01*
X11537517Y-936470D01*
X11436470Y-1037517D01*
X11436467Y-1037521D01*
X11357074Y-1156340D01*
X11357069Y-1156349D01*
X11302381Y-1288379D01*
X11302379Y-1288385D01*
X11274500Y-1428542D01*
X11274500Y-1428545D01*
X11274500Y-1571455D01*
X11274500Y-1571457D01*
X11274499Y-1571457D01*
X11302379Y-1711614D01*
X11302381Y-1711620D01*
X11340061Y-1802587D01*
X11349500Y-1850040D01*
X11349500Y-2672347D01*
X11329815Y-2739386D01*
X11277011Y-2785141D01*
X11249692Y-2793964D01*
X11207385Y-2802379D01*
X11207379Y-2802381D01*
X11075349Y-2857069D01*
X11075340Y-2857074D01*
X10956521Y-2936467D01*
X10956517Y-2936470D01*
X10855470Y-3037517D01*
X10855467Y-3037521D01*
X10776074Y-3156340D01*
X10776069Y-3156349D01*
X10721381Y-3288379D01*
X10721379Y-3288385D01*
X10693500Y-3428542D01*
X10693500Y-3428545D01*
X10693500Y-3571455D01*
X10693500Y-3571457D01*
X10693499Y-3571457D01*
X10721379Y-3711614D01*
X10721381Y-3711620D01*
X10776069Y-3843650D01*
X10776074Y-3843659D01*
X10855467Y-3962478D01*
X10855470Y-3962482D01*
X10862122Y-3969134D01*
X10895607Y-4030457D01*
X10890623Y-4100149D01*
X10877545Y-4125702D01*
X10857072Y-4156343D01*
X10857071Y-4156344D01*
X10802381Y-4288379D01*
X10802379Y-4288385D01*
X10774500Y-4428542D01*
X10774500Y-4428545D01*
X10774500Y-4571455D01*
X10774500Y-4571457D01*
X10774499Y-4571457D01*
X10802379Y-4711614D01*
X10802381Y-4711620D01*
X10857069Y-4843650D01*
X10857074Y-4843659D01*
X10936467Y-4962478D01*
X10936470Y-4962482D01*
X11037517Y-5063529D01*
X11037521Y-5063532D01*
X11156343Y-5142927D01*
X11156345Y-5142927D01*
X11156347Y-5142929D01*
X11245997Y-5180062D01*
X11247313Y-5180608D01*
X11287542Y-5207488D01*
X12313181Y-6233127D01*
X12346666Y-6294450D01*
X12349500Y-6320808D01*
X12349500Y-7149958D01*
X12340061Y-7197410D01*
X12302382Y-7288375D01*
X12302379Y-7288385D01*
X12274500Y-7428542D01*
X12274500Y-7428545D01*
X12274500Y-7571455D01*
X12274500Y-7571457D01*
X12274499Y-7571457D01*
X12302379Y-7711614D01*
X12302381Y-7711620D01*
X12357069Y-7843650D01*
X12357074Y-7843659D01*
X12436467Y-7962478D01*
X12436470Y-7962482D01*
X12537517Y-8063529D01*
X12537521Y-8063532D01*
X12656340Y-8142925D01*
X12656346Y-8142928D01*
X12656347Y-8142929D01*
X12788380Y-8197619D01*
X12788384Y-8197619D01*
X12788385Y-8197620D01*
X12928542Y-8225500D01*
X12928545Y-8225500D01*
X13071457Y-8225500D01*
X13165751Y-8206742D01*
X13211620Y-8197619D01*
X13343653Y-8142929D01*
X13462479Y-8063532D01*
X13563532Y-7962479D01*
X13642929Y-7843653D01*
X13697619Y-7711620D01*
X13714870Y-7624896D01*
X13725500Y-7571457D01*
X13725500Y-7428542D01*
X13697620Y-7288385D01*
X13697619Y-7288384D01*
X13697619Y-7288380D01*
X13670545Y-7223016D01*
X13659939Y-7197410D01*
X13658312Y-7189233D01*
X13655523Y-7184893D01*
X13650500Y-7149958D01*
X13650500Y-6941467D01*
X13670185Y-6874428D01*
X13722989Y-6828673D01*
X13792147Y-6818729D01*
X13855703Y-6847754D01*
X13862181Y-6853786D01*
X14785699Y-7777304D01*
X14819184Y-7838627D01*
X14814200Y-7908319D01*
X14772328Y-7964252D01*
X14754742Y-7974276D01*
X14755085Y-7974918D01*
X14749709Y-7977791D01*
X14714365Y-8001408D01*
X15246728Y-8533771D01*
X15227525Y-8528626D01*
X15148535Y-8528626D01*
X15072234Y-8549071D01*
X15003826Y-8588567D01*
X14947970Y-8644423D01*
X14908474Y-8712831D01*
X14888029Y-8789132D01*
X14888029Y-8868122D01*
X14893174Y-8887325D01*
X14360811Y-8354962D01*
X14337194Y-8390306D01*
X14337193Y-8390308D01*
X14261815Y-8572288D01*
X14261812Y-8572300D01*
X14223385Y-8765486D01*
X14223385Y-8962477D01*
X14261812Y-9155663D01*
X14261815Y-9155675D01*
X14337193Y-9337655D01*
X14337194Y-9337656D01*
X14446634Y-9501444D01*
X14446637Y-9501448D01*
X14586987Y-9641798D01*
X14586988Y-9641798D01*
X15081962Y-9146823D01*
X15435516Y-9500377D01*
X14940542Y-9995351D01*
X14940542Y-9995352D01*
X15080892Y-10135703D01*
X15080896Y-10135706D01*
X15173138Y-10197341D01*
X15217943Y-10250953D01*
X15226650Y-10320278D01*
X15196495Y-10383306D01*
X15191928Y-10388124D01*
X13494725Y-12085328D01*
X13494724Y-12085329D01*
X13430894Y-12180859D01*
X13430892Y-12180861D01*
X13424958Y-12189744D01*
X13423535Y-12191873D01*
X13388477Y-12276508D01*
X13387854Y-12277915D01*
X13366222Y-12303440D01*
X13345220Y-12329503D01*
X13343710Y-12330005D01*
X13342682Y-12331219D01*
X13310666Y-12341003D01*
X13278925Y-12351568D01*
X13277384Y-12351174D01*
X13275863Y-12351640D01*
X13243652Y-12342565D01*
X13211226Y-12334289D01*
X13210141Y-12333124D01*
X13208611Y-12332693D01*
X13186425Y-12307650D01*
X13163616Y-12283151D01*
X13163214Y-12281450D01*
X13162279Y-12280395D01*
X13160971Y-12271959D01*
X13150500Y-12227647D01*
X13150500Y-9600040D01*
X13159939Y-9552587D01*
X13170463Y-9527179D01*
X13197619Y-9461620D01*
X13220443Y-9346879D01*
X13225500Y-9321457D01*
X13225500Y-9178542D01*
X13197620Y-9038385D01*
X13197619Y-9038384D01*
X13197619Y-9038380D01*
X13146812Y-8915722D01*
X13142930Y-8906349D01*
X13142925Y-8906341D01*
X13090773Y-8828290D01*
X13090772Y-8828289D01*
X13087432Y-8823291D01*
X13063532Y-8787521D01*
X13063530Y-8787518D01*
X12962482Y-8686470D01*
X12962478Y-8686467D01*
X12843659Y-8607074D01*
X12843650Y-8607069D01*
X12711620Y-8552381D01*
X12711614Y-8552379D01*
X12571457Y-8524500D01*
X12571455Y-8524500D01*
X12428545Y-8524500D01*
X12428543Y-8524500D01*
X12288385Y-8552379D01*
X12288379Y-8552381D01*
X12156349Y-8607069D01*
X12156340Y-8607074D01*
X12037521Y-8686467D01*
X12037517Y-8686470D01*
X11936470Y-8787517D01*
X11936467Y-8787521D01*
X11857074Y-8906340D01*
X11857069Y-8906349D01*
X11802381Y-9038379D01*
X11802379Y-9038385D01*
X11774500Y-9178542D01*
X11774500Y-9178545D01*
X11774500Y-9321455D01*
X11774500Y-9321457D01*
X11774499Y-9321457D01*
X11802379Y-9461614D01*
X11802380Y-9461618D01*
X11802381Y-9461620D01*
X11829537Y-9527179D01*
X11840061Y-9552587D01*
X11849500Y-9600040D01*
X11849500Y-12649958D01*
X11840061Y-12697410D01*
X11802382Y-12788375D01*
X11802379Y-12788385D01*
X11774500Y-12928542D01*
X11774500Y-12928545D01*
X11774500Y-13071455D01*
X11774500Y-13071457D01*
X11774499Y-13071457D01*
X11802379Y-13211614D01*
X11802381Y-13211620D01*
X11857069Y-13343650D01*
X11857074Y-13343659D01*
X11936467Y-13462478D01*
X11936470Y-13462482D01*
X12037517Y-13563529D01*
X12037521Y-13563532D01*
X12156340Y-13642925D01*
X12156346Y-13642928D01*
X12156347Y-13642929D01*
X12288380Y-13697619D01*
X12288384Y-13697619D01*
X12288385Y-13697620D01*
X12428542Y-13725500D01*
X12428545Y-13725500D01*
X12571457Y-13725500D01*
X12665751Y-13706742D01*
X12711620Y-13697619D01*
X12843653Y-13642929D01*
X12962479Y-13563532D01*
X13063532Y-13462479D01*
X13104713Y-13400846D01*
X13146314Y-13338588D01*
X13148434Y-13340005D01*
X13189587Y-13298098D01*
X13257722Y-13282627D01*
X13323406Y-13306448D01*
X13352146Y-13339616D01*
X13353686Y-13338588D01*
X13436467Y-13462478D01*
X13436470Y-13462482D01*
X13537517Y-13563529D01*
X13537521Y-13563532D01*
X13656340Y-13642925D01*
X13656346Y-13642928D01*
X13656347Y-13642929D01*
X13788380Y-13697619D01*
X13825144Y-13704931D01*
X13866803Y-13713219D01*
X13928714Y-13745604D01*
X13963289Y-13806320D01*
X13959549Y-13876089D01*
X13930293Y-13922517D01*
X13627653Y-14225157D01*
X13623787Y-14228860D01*
X13001030Y-14800042D01*
X12997027Y-14803557D01*
X12350196Y-15347333D01*
X12346026Y-15350688D01*
X11676361Y-15866020D01*
X11672050Y-15869192D01*
X10980745Y-16355160D01*
X10976300Y-16358143D01*
X10264695Y-16813805D01*
X10260126Y-16816594D01*
X9529481Y-17241142D01*
X9524796Y-17243730D01*
X8776545Y-17636334D01*
X8771752Y-17638718D01*
X8007235Y-17998671D01*
X8002345Y-18000846D01*
X7223016Y-18327467D01*
X7218036Y-18329429D01*
X6425321Y-18622118D01*
X6420260Y-18623863D01*
X5615695Y-18882053D01*
X5610565Y-18883579D01*
X4795544Y-19106825D01*
X4790352Y-19108127D01*
X3966495Y-19295982D01*
X3961252Y-19297059D01*
X3130052Y-19449185D01*
X3124767Y-19450035D01*
X2287769Y-19566147D01*
X2282452Y-19566768D01*
X1439883Y-19646778D01*
X1437331Y-19646993D01*
X1437222Y-19647001D01*
X1437218Y-19647002D01*
X1436537Y-19647051D01*
X1435322Y-19647141D01*
X1391092Y-19650380D01*
X1390966Y-19650430D01*
X1381203Y-19651155D01*
X1381196Y-19651153D01*
X1381167Y-19651158D01*
X1352244Y-19653294D01*
X1352240Y-19653294D01*
X1352239Y-19653295D01*
X1313719Y-19663738D01*
X1185140Y-19698596D01*
X1185135Y-19698598D01*
X1029729Y-19774906D01*
X1029722Y-19774910D01*
X891703Y-19879427D01*
X776116Y-20008334D01*
X687211Y-20156891D01*
X687210Y-20156894D01*
X677224Y-20184401D01*
X677221Y-20184409D01*
X673941Y-20193440D01*
X673881Y-20193519D01*
X660321Y-20230946D01*
X659988Y-20231864D01*
X659974Y-20231882D01*
X654612Y-20244453D01*
X595045Y-20365050D01*
X580194Y-20388221D01*
X499870Y-20487309D01*
X480275Y-20506632D01*
X380072Y-20585564D01*
X356696Y-20600090D01*
X241551Y-20654975D01*
X215548Y-20663987D01*
X91129Y-20692125D01*
X63777Y-20695179D01*
X-63777Y-20695179D01*
X-91129Y-20692125D01*
X-215549Y-20663987D01*
X-241552Y-20654975D01*
X-356697Y-20600090D01*
X-380073Y-20585564D01*
X-480276Y-20506632D01*
X-499871Y-20487309D01*
X-508327Y-20476878D01*
X-580198Y-20388216D01*
X-595046Y-20365050D01*
X-644573Y-20264779D01*
X-654576Y-20244527D01*
X-659948Y-20231946D01*
X-665578Y-20216439D01*
X-673881Y-20193519D01*
X-673883Y-20193517D01*
X-677142Y-20184519D01*
X-677258Y-20184264D01*
X-687196Y-20156887D01*
X-776104Y-20008325D01*
X-776105Y-20008324D01*
X-776106Y-20008322D01*
X-891691Y-19879417D01*
X-1029719Y-19774894D01*
X-1029721Y-19774893D01*
X-1029721Y-19774892D01*
X-1185133Y-19698582D01*
X-1185132Y-19698582D01*
X-1352236Y-19653279D01*
X-1352247Y-19653277D01*
X-1381301Y-19651132D01*
X-1381302Y-19651132D01*
X-1391005Y-19650415D01*
X-1391092Y-19650380D01*
X-1435707Y-19647112D01*
X-1436843Y-19647029D01*
X-1437219Y-19647002D01*
X-1437243Y-19647000D01*
X-1437297Y-19646996D01*
X-1437299Y-19646995D01*
X-1439885Y-19646778D01*
X-2282453Y-19566768D01*
X-2287770Y-19566147D01*
X-3124768Y-19450035D01*
X-3130053Y-19449185D01*
X-3616752Y-19360110D01*
X-3679152Y-19328678D01*
X-3714653Y-19268500D01*
X-3711984Y-19198681D01*
X-3671991Y-19141389D01*
X-3618619Y-19116519D01*
X-3573435Y-19107531D01*
X-3494626Y-19091855D01*
X-3335295Y-19025858D01*
X-3191901Y-18930045D01*
X-3069955Y-18808099D01*
X-2984097Y-18679603D01*
X-2930489Y-18634802D01*
X-2861164Y-18626094D01*
X-2856854Y-18626871D01*
X-2810956Y-18636001D01*
X-2668044Y-18636001D01*
X-2573750Y-18617243D01*
X-2527881Y-18608120D01*
X-2438116Y-18570937D01*
X-2390663Y-18561499D01*
X1383279Y-18561499D01*
X1383295Y-18561500D01*
X1390891Y-18561500D01*
X1549002Y-18561500D01*
X1549005Y-18561500D01*
X1701733Y-18520576D01*
X1759947Y-18486966D01*
X1838664Y-18441519D01*
X1950468Y-18329715D01*
X1950468Y-18329713D01*
X1960672Y-18319510D01*
X1960676Y-18319505D01*
X2149713Y-18130468D01*
X2149716Y-18130467D01*
X2261520Y-18018663D01*
X2311639Y-17931851D01*
X2340577Y-17881732D01*
X2381501Y-17729004D01*
X2381501Y-17570890D01*
X2381501Y-17563295D01*
X2381500Y-17563277D01*
X2381500Y-15519096D01*
X2401185Y-15452057D01*
X2417814Y-15431420D01*
X2974345Y-14874889D01*
X8113982Y-14874889D01*
X8113982Y-15071880D01*
X8152409Y-15265066D01*
X8152412Y-15265078D01*
X8227790Y-15447058D01*
X8227791Y-15447059D01*
X8337231Y-15610847D01*
X8337234Y-15610851D01*
X8477584Y-15751201D01*
X8477585Y-15751201D01*
X8972559Y-15256226D01*
X9326112Y-15609779D01*
X8831139Y-16104754D01*
X8831139Y-16104755D01*
X8971489Y-16245106D01*
X8971493Y-16245109D01*
X9135281Y-16354549D01*
X9135282Y-16354550D01*
X9317262Y-16429928D01*
X9317274Y-16429931D01*
X9510460Y-16468358D01*
X9510464Y-16468359D01*
X9707449Y-16468359D01*
X9707452Y-16468358D01*
X9900637Y-16429931D01*
X9900645Y-16429929D01*
X10082634Y-16354547D01*
X10117974Y-16330931D01*
X9585612Y-15798569D01*
X9604816Y-15803715D01*
X9683806Y-15803715D01*
X9760107Y-15783270D01*
X9828515Y-15743774D01*
X9884371Y-15687918D01*
X9923867Y-15619510D01*
X9944312Y-15543209D01*
X9944312Y-15464219D01*
X9939166Y-15445015D01*
X10471528Y-15977377D01*
X10495144Y-15942037D01*
X10570526Y-15760048D01*
X10570528Y-15760040D01*
X10608955Y-15566855D01*
X10608956Y-15566852D01*
X10608956Y-15369867D01*
X10608955Y-15369863D01*
X10570528Y-15176677D01*
X10570525Y-15176665D01*
X10495147Y-14994685D01*
X10495146Y-14994684D01*
X10385706Y-14830896D01*
X10385703Y-14830892D01*
X10245353Y-14690542D01*
X10245352Y-14690542D01*
X9750376Y-15185515D01*
X9396824Y-14831963D01*
X9891798Y-14336988D01*
X9891798Y-14336987D01*
X9751448Y-14196637D01*
X9751444Y-14196634D01*
X9587656Y-14087194D01*
X9587655Y-14087193D01*
X9405675Y-14011815D01*
X9405663Y-14011812D01*
X9212477Y-13973385D01*
X9015486Y-13973385D01*
X8822300Y-14011812D01*
X8822288Y-14011815D01*
X8640308Y-14087193D01*
X8640306Y-14087194D01*
X8604962Y-14110811D01*
X9137325Y-14643174D01*
X9118122Y-14638029D01*
X9039132Y-14638029D01*
X8962831Y-14658474D01*
X8894423Y-14697970D01*
X8838567Y-14753826D01*
X8799071Y-14822234D01*
X8778626Y-14898535D01*
X8778626Y-14977525D01*
X8783771Y-14996728D01*
X8251408Y-14464365D01*
X8227791Y-14499709D01*
X8227790Y-14499711D01*
X8152412Y-14681691D01*
X8152409Y-14681703D01*
X8113982Y-14874889D01*
X2974345Y-14874889D01*
X7186506Y-10662727D01*
X7186511Y-10662724D01*
X7196714Y-10652520D01*
X7196716Y-10652520D01*
X7308520Y-10540716D01*
X7387577Y-10403784D01*
X7417534Y-10291981D01*
X7428500Y-10251058D01*
X7428500Y-10092943D01*
X7428500Y2567903D01*
X7448185Y2634942D01*
X7464819Y2655584D01*
X8592417Y3783181D01*
X8653740Y3816666D01*
X8680098Y3819500D01*
X8768693Y3819500D01*
X8768694Y3819501D01*
X8826682Y3831036D01*
X8942658Y3854104D01*
X8942661Y3854106D01*
X8942666Y3854106D01*
X9106547Y3921987D01*
X9254035Y4020536D01*
X9379464Y4145965D01*
X9478013Y4293453D01*
X9545894Y4457334D01*
X9549473Y4475324D01*
X9580499Y4631305D01*
X9580500Y4631307D01*
X9580500Y4808694D01*
X9580499Y4808696D01*
X9545896Y4982659D01*
X9545893Y4982668D01*
X9478016Y5146541D01*
X9478014Y5146545D01*
X9478013Y5146547D01*
X9384759Y5286110D01*
X9363882Y5352786D01*
X9382366Y5420166D01*
X9384760Y5423891D01*
X9474206Y5557756D01*
X9478013Y5563453D01*
X9545894Y5727334D01*
X9550304Y5749501D01*
X9580499Y5901305D01*
X9580500Y5901307D01*
X9580500Y6078694D01*
X9580499Y6078696D01*
X9545896Y6252659D01*
X9545893Y6252668D01*
X9478016Y6416541D01*
X9478009Y6416554D01*
X9379464Y6564035D01*
X9379461Y6564039D01*
X9254038Y6689462D01*
X9254034Y6689465D01*
X9106553Y6788010D01*
X9106540Y6788017D01*
X8942667Y6855894D01*
X8942658Y6855897D01*
X8768694Y6890500D01*
X8768691Y6890500D01*
X8591309Y6890500D01*
X8591306Y6890500D01*
X8417341Y6855897D01*
X8417332Y6855894D01*
X8253459Y6788017D01*
X8253446Y6788010D01*
X8105965Y6689465D01*
X8105961Y6689462D01*
X7980538Y6564039D01*
X7980535Y6564035D01*
X7881990Y6416554D01*
X7881983Y6416541D01*
X7814106Y6252668D01*
X7814103Y6252659D01*
X7779500Y6078696D01*
X7779500Y5990098D01*
X7759815Y5923059D01*
X7743181Y5902417D01*
X6019481Y4178718D01*
X6019477Y4178713D01*
X5970858Y4094500D01*
X5970857Y4094501D01*
X5940424Y4041789D01*
X5940423Y4041785D01*
X5899499Y3889057D01*
X5899499Y3889055D01*
X5899499Y3720954D01*
X5899500Y3720941D01*
X5899500Y610562D01*
X5879815Y543523D01*
X5827011Y497768D01*
X5757853Y487824D01*
X5694297Y516849D01*
X5660939Y563109D01*
X5572897Y775660D01*
X5572893Y775670D01*
X5458194Y974334D01*
X5401618Y1048066D01*
X5401617Y1048066D01*
X4353553Y1D01*
X4353553Y0D01*
X5401617Y-1048064D01*
X5458192Y-974334D01*
X5458197Y-974327D01*
X5572893Y-775668D01*
X5572900Y-775654D01*
X5660939Y-563109D01*
X5704780Y-508705D01*
X5771074Y-486640D01*
X5838773Y-503919D01*
X5886384Y-555056D01*
X5899500Y-610561D01*
X5899500Y-9691265D01*
X5879815Y-9758304D01*
X5863181Y-9778946D01*
X5295495Y-10346632D01*
X5234172Y-10380117D01*
X5164480Y-10375133D01*
X5120133Y-10346632D01*
X5074038Y-10300537D01*
X5074034Y-10300534D01*
X4926553Y-10201989D01*
X4926540Y-10201982D01*
X4762667Y-10134105D01*
X4762658Y-10134102D01*
X4588694Y-10099499D01*
X4588691Y-10099499D01*
X4524500Y-10099499D01*
X4457461Y-10079814D01*
X4411706Y-10027010D01*
X4400500Y-9975499D01*
X4400500Y-9911307D01*
X4400499Y-9911303D01*
X4391694Y-9867036D01*
X4365895Y-9737334D01*
X4341284Y-9677919D01*
X4334720Y-9662072D01*
X4334718Y-9662069D01*
X4331953Y-9655393D01*
X4298013Y-9573453D01*
X4223288Y-9461620D01*
X4199464Y-9425964D01*
X1861181Y-7087681D01*
X1827696Y-7026358D01*
X1832680Y-6956666D01*
X1861181Y-6912319D01*
X2274508Y-6498992D01*
X2699464Y-6074036D01*
X2738936Y-6014959D01*
X2798013Y-5926547D01*
X2834341Y-5838842D01*
X2865895Y-5762666D01*
X2900500Y-5588692D01*
X2900500Y-5411308D01*
X2900500Y-1600703D01*
X2920185Y-1533664D01*
X2972989Y-1487909D01*
X3042147Y-1477965D01*
X3086500Y-1493316D01*
X3224331Y-1572893D01*
X3224340Y-1572897D01*
X3436269Y-1660681D01*
X3657862Y-1720057D01*
X3885289Y-1749998D01*
X3885306Y-1750000D01*
X4114694Y-1750000D01*
X4114710Y-1749998D01*
X4342137Y-1720057D01*
X4563730Y-1660681D01*
X4775659Y-1572897D01*
X4775668Y-1572893D01*
X4974327Y-1458197D01*
X4974334Y-1458192D01*
X5048064Y-1401617D01*
X3910904Y-264457D01*
X3877419Y-203134D01*
X3882403Y-133442D01*
X3910904Y-89094D01*
X3999999Y1D01*
X3910904Y89096D01*
X3877419Y150419D01*
X3882403Y220111D01*
X3910904Y264458D01*
X5048064Y1401619D01*
X5048064Y1401620D01*
X4974331Y1458195D01*
X4974324Y1458201D01*
X4775669Y1572894D01*
X4775659Y1572898D01*
X4563730Y1660682D01*
X4342137Y1720058D01*
X4114710Y1749999D01*
X4114694Y1750000D01*
X3885306Y1750000D01*
X3885289Y1749999D01*
X3657862Y1720058D01*
X3436269Y1660682D01*
X3224340Y1572898D01*
X3224330Y1572894D01*
X3086500Y1493317D01*
X3018600Y1476844D01*
X2952573Y1499697D01*
X2909382Y1554618D01*
X2900500Y1600704D01*
X2900500Y5588692D01*
X2900499Y5588693D01*
X2881965Y5681873D01*
X2865895Y5762666D01*
X2831953Y5844607D01*
X2798013Y5926547D01*
X2702790Y6069058D01*
X2699464Y6074036D01*
X1749021Y7024479D01*
X1715536Y7085802D01*
X1716928Y7144256D01*
X1720548Y7157762D01*
X1750500Y7385266D01*
X1750500Y7614734D01*
X1720548Y7842238D01*
X1661158Y8063887D01*
X1573344Y8275888D01*
X1458611Y8474612D01*
X1458608Y8474615D01*
X1458607Y8474618D01*
X1318918Y8656662D01*
X1318911Y8656670D01*
X1156670Y8818911D01*
X1156661Y8818919D01*
X974617Y8958608D01*
X775890Y9073343D01*
X775876Y9073350D01*
X563887Y9161158D01*
X342238Y9220548D01*
X304215Y9225554D01*
X114741Y9250500D01*
X114734Y9250500D01*
X-114734Y9250500D01*
X-114742Y9250500D01*
X-331285Y9221991D01*
X-342238Y9220548D01*
X-435924Y9195446D01*
X-563888Y9161158D01*
X-775877Y9073350D01*
X-775891Y9073343D01*
X-974618Y8958608D01*
X-1156662Y8818919D01*
X-1318919Y8656662D01*
X-1458608Y8474618D01*
X-1573343Y8275891D01*
X-1573350Y8275877D01*
X-1661158Y8063888D01*
X-1720547Y7842241D01*
X-1720549Y7842230D01*
X-1750500Y7614742D01*
X-1750500Y7385259D01*
X-1725554Y7195785D01*
X-1720548Y7157762D01*
X-1698399Y7075101D01*
X-1661158Y6936113D01*
X-1573350Y6724124D01*
X-1573343Y6724110D01*
X-1458608Y6525383D01*
X-1318919Y6343339D01*
X-1318911Y6343330D01*
X-1156670Y6181089D01*
X-1156662Y6181082D01*
X-974618Y6041393D01*
X-974615Y6041392D01*
X-974612Y6041389D01*
X-775888Y5926656D01*
X-775883Y5926654D01*
X-775877Y5926651D01*
X-684520Y5888810D01*
X-563887Y5838842D01*
X-342238Y5779452D01*
X-114734Y5749500D01*
X-114727Y5749500D01*
X114727Y5749500D01*
X114734Y5749500D01*
X342238Y5779452D01*
X355743Y5783071D01*
X425591Y5781412D01*
X475521Y5750979D01*
X1063181Y5163319D01*
X1096666Y5101996D01*
X1099500Y5075638D01*
X1099500Y1601282D01*
X1079815Y1534243D01*
X1027011Y1488488D01*
X957853Y1478544D01*
X913501Y1493894D01*
X776660Y1572898D01*
X775888Y1573344D01*
X775886Y1573345D01*
X775876Y1573350D01*
X563887Y1661158D01*
X342238Y1720548D01*
X304215Y1725554D01*
X114741Y1750500D01*
X114734Y1750500D01*
X-114734Y1750500D01*
X-114742Y1750500D01*
X-331285Y1721991D01*
X-342238Y1720548D01*
X-435924Y1695446D01*
X-563888Y1661158D01*
X-775877Y1573350D01*
X-775891Y1573343D01*
X-974618Y1458608D01*
X-1156662Y1318919D01*
X-1318919Y1156662D01*
X-1458608Y974618D01*
X-1573343Y775891D01*
X-1573350Y775877D01*
X-1661158Y563888D01*
X-1720547Y342241D01*
X-1720549Y342230D01*
X-1750500Y114742D01*
X-1750500Y-114741D01*
X-1735450Y-229051D01*
X-1720548Y-342238D01*
X-1681856Y-486640D01*
X-1661158Y-563887D01*
X-1573350Y-775876D01*
X-1573343Y-775890D01*
X-1558048Y-802381D01*
X-1458772Y-974334D01*
X-1458608Y-974617D01*
X-1318919Y-1156661D01*
X-1318911Y-1156670D01*
X-1156670Y-1318911D01*
X-1156662Y-1318918D01*
X-974618Y-1458607D01*
X-974615Y-1458608D01*
X-974612Y-1458611D01*
X-775888Y-1573344D01*
X-775882Y-1573346D01*
X-772247Y-1575139D01*
X-772813Y-1576285D01*
X-722663Y-1616677D01*
X-700580Y-1682965D01*
X-700500Y-1687424D01*
X-700500Y-3658480D01*
X-720185Y-3725519D01*
X-736819Y-3746161D01*
X-2637819Y-5647161D01*
X-2699142Y-5680646D01*
X-2768834Y-5675662D01*
X-2824767Y-5633790D01*
X-2849184Y-5568326D01*
X-2849500Y-5559480D01*
X-2849500Y-5411306D01*
X-2849501Y-5411304D01*
X-2884104Y-5237341D01*
X-2884107Y-5237332D01*
X-2896469Y-5207488D01*
X-2907602Y-5180608D01*
X-2951984Y-5073459D01*
X-2951991Y-5073446D01*
X-3050536Y-4925965D01*
X-3050539Y-4925961D01*
X-3175962Y-4800538D01*
X-3175966Y-4800535D01*
X-3323447Y-4701990D01*
X-3323460Y-4701983D01*
X-3487333Y-4634106D01*
X-3487342Y-4634103D01*
X-3661306Y-4599500D01*
X-3661309Y-4599500D01*
X-3838691Y-4599500D01*
X-3838694Y-4599500D01*
X-4012659Y-4634103D01*
X-4012668Y-4634106D01*
X-4176541Y-4701983D01*
X-4176554Y-4701990D01*
X-4324035Y-4800535D01*
X-4324039Y-4800538D01*
X-4449462Y-4925961D01*
X-4449465Y-4925965D01*
X-4548015Y-5073455D01*
X-4594941Y-5186746D01*
X-4621821Y-5226974D01*
X-6891019Y-7496172D01*
X-6952342Y-7529657D01*
X-6954508Y-7530108D01*
X-7089754Y-7557010D01*
X-7089762Y-7557012D01*
X-7253635Y-7624889D01*
X-7253648Y-7624896D01*
X-7401129Y-7723441D01*
X-7401133Y-7723444D01*
X-7526556Y-7848867D01*
X-7526559Y-7848871D01*
X-7625104Y-7996352D01*
X-7625111Y-7996365D01*
X-7692988Y-8160238D01*
X-7692991Y-8160247D01*
X-7727594Y-8334210D01*
X-7727594Y-8511601D01*
X-7692991Y-8685564D01*
X-7692988Y-8685573D01*
X-7625111Y-8849446D01*
X-7625104Y-8849459D01*
X-7526559Y-8996940D01*
X-7526556Y-8996944D01*
X-7401133Y-9122367D01*
X-7401129Y-9122370D01*
X-7253648Y-9220915D01*
X-7253635Y-9220922D01*
X-7130731Y-9271829D01*
X-7089760Y-9288800D01*
X-7089758Y-9288800D01*
X-7089753Y-9288802D01*
X-6915790Y-9323405D01*
X-6915787Y-9323406D01*
X-6915785Y-9323406D01*
X-6738401Y-9323406D01*
X-6636748Y-9303185D01*
X-6609619Y-9297789D01*
X-6540027Y-9304016D01*
X-6484850Y-9346879D01*
X-6461605Y-9412768D01*
X-6477673Y-9480765D01*
X-6497746Y-9507087D01*
X-7063925Y-10073266D01*
X-7125248Y-10106751D01*
X-7127414Y-10107202D01*
X-7262660Y-10134104D01*
X-7262668Y-10134106D01*
X-7426541Y-10201983D01*
X-7426554Y-10201990D01*
X-7574035Y-10300535D01*
X-7574039Y-10300538D01*
X-7699462Y-10425961D01*
X-7699465Y-10425965D01*
X-7798010Y-10573446D01*
X-7798017Y-10573459D01*
X-7865894Y-10737332D01*
X-7865897Y-10737341D01*
X-7900500Y-10911304D01*
X-7900500Y-11088695D01*
X-7865897Y-11262658D01*
X-7865894Y-11262667D01*
X-7798017Y-11426540D01*
X-7798010Y-11426553D01*
X-7699465Y-11574034D01*
X-7699462Y-11574038D01*
X-7574039Y-11699461D01*
X-7574035Y-11699464D01*
X-7426554Y-11798009D01*
X-7426541Y-11798016D01*
X-7303637Y-11848923D01*
X-7262666Y-11865894D01*
X-7262664Y-11865894D01*
X-7262659Y-11865896D01*
X-7117549Y-11894760D01*
X-7055638Y-11927145D01*
X-7021064Y-11987860D01*
X-7024803Y-12057630D01*
X-7054058Y-12104058D01*
X-7080000Y-12130000D01*
X-7080000Y-12278495D01*
X-7041573Y-12471681D01*
X-7041570Y-12471693D01*
X-6966193Y-12653671D01*
X-6966186Y-12653684D01*
X-6856752Y-12817462D01*
X-6856749Y-12817466D01*
X-6717467Y-12956748D01*
X-6717463Y-12956751D01*
X-6553685Y-13066185D01*
X-6553672Y-13066192D01*
X-6371692Y-13141569D01*
X-6330000Y-13149862D01*
X-6330000Y-12346987D01*
X-6320060Y-12364204D01*
X-6264205Y-12420059D01*
X-6195796Y-12459555D01*
X-6119496Y-12479999D01*
X-6040504Y-12479999D01*
X-5964204Y-12459555D01*
X-5895795Y-12420059D01*
X-5839940Y-12364204D01*
X-5830000Y-12346987D01*
X-5830000Y-13149862D01*
X-5788310Y-13141569D01*
X-5788308Y-13141569D01*
X-5640838Y-13080486D01*
X-5571369Y-13073017D01*
X-5508890Y-13104292D01*
X-5473238Y-13164381D01*
X-5471769Y-13219238D01*
X-5495500Y-13338540D01*
X-5495500Y-13338545D01*
X-5495500Y-13481455D01*
X-5495500Y-13481457D01*
X-5495501Y-13481457D01*
X-5467621Y-13621614D01*
X-5467619Y-13621620D01*
X-5412931Y-13753650D01*
X-5412926Y-13753659D01*
X-5333533Y-13872478D01*
X-5333530Y-13872482D01*
X-5232483Y-13973529D01*
X-5232479Y-13973532D01*
X-5113660Y-14052925D01*
X-5113654Y-14052928D01*
X-5113653Y-14052929D01*
X-4981620Y-14107619D01*
X-4981616Y-14107619D01*
X-4981615Y-14107620D01*
X-4841458Y-14135500D01*
X-4724500Y-14135500D01*
X-4657461Y-14155185D01*
X-4611706Y-14207989D01*
X-4600500Y-14259500D01*
X-4600500Y-14545366D01*
X-4620185Y-14612405D01*
X-4655609Y-14648468D01*
X-4712479Y-14686467D01*
X-4712483Y-14686470D01*
X-4813530Y-14787517D01*
X-4813533Y-14787521D01*
X-4892926Y-14906340D01*
X-4892931Y-14906349D01*
X-4947619Y-15038379D01*
X-4947621Y-15038385D01*
X-4975500Y-15178542D01*
X-4975500Y-15178545D01*
X-4975500Y-15321455D01*
X-4975500Y-15321457D01*
X-4975501Y-15321457D01*
X-4947621Y-15461614D01*
X-4947619Y-15461620D01*
X-4892931Y-15593650D01*
X-4892926Y-15593659D01*
X-4813533Y-15712478D01*
X-4813530Y-15712482D01*
X-4712483Y-15813529D01*
X-4712479Y-15813532D01*
X-4593660Y-15892925D01*
X-4593654Y-15892928D01*
X-4593653Y-15892929D01*
X-4461620Y-15947619D01*
X-4461616Y-15947619D01*
X-4461615Y-15947620D01*
X-4321458Y-15975500D01*
X-4321455Y-15975500D01*
X-4178543Y-15975500D01*
X-4084249Y-15956742D01*
X-4038380Y-15947619D01*
X-4021954Y-15940814D01*
X-3952486Y-15933345D01*
X-3890006Y-15964618D01*
X-3854352Y-16024707D01*
X-3850500Y-16055375D01*
X-3850500Y-17275574D01*
X-3870185Y-17342613D01*
X-3922989Y-17388368D01*
X-3950308Y-17397191D01*
X-4005369Y-17408143D01*
X-4005379Y-17408146D01*
X-4164699Y-17474138D01*
X-4164712Y-17474145D01*
X-4308099Y-17569954D01*
X-4308103Y-17569957D01*
X-4430043Y-17691897D01*
X-4430046Y-17691901D01*
X-4525855Y-17835288D01*
X-4525862Y-17835301D01*
X-4591854Y-17994621D01*
X-4591857Y-17994633D01*
X-4625500Y-18163766D01*
X-4625500Y-18336233D01*
X-4591857Y-18505366D01*
X-4591854Y-18505378D01*
X-4525862Y-18664698D01*
X-4525855Y-18664711D01*
X-4430046Y-18808098D01*
X-4430043Y-18808102D01*
X-4308103Y-18930042D01*
X-4308099Y-18930045D01*
X-4212561Y-18993882D01*
X-4167756Y-19047494D01*
X-4159049Y-19116819D01*
X-4189203Y-19179847D01*
X-4248647Y-19216566D01*
X-4309019Y-19217881D01*
X-4790353Y-19108127D01*
X-4795545Y-19106825D01*
X-5610566Y-18883579D01*
X-5615696Y-18882053D01*
X-6386173Y-18634802D01*
X-6420266Y-18623861D01*
X-6425322Y-18622118D01*
X-6463237Y-18608119D01*
X-7218037Y-18329429D01*
X-7223017Y-18327467D01*
X-8002346Y-18000846D01*
X-8007236Y-17998671D01*
X-8771753Y-17638718D01*
X-8776546Y-17636334D01*
X-9524797Y-17243730D01*
X-9529482Y-17241142D01*
X-10072093Y-16925853D01*
X-10260127Y-16816594D01*
X-10264696Y-16813805D01*
X-10976301Y-16358143D01*
X-10980746Y-16355160D01*
X-11035229Y-16316860D01*
X-11170876Y-16221504D01*
X-7080000Y-16221504D01*
X-7080000Y-16370000D01*
X-6380000Y-16370000D01*
X-6380000Y-16870000D01*
X-7080000Y-16870000D01*
X-7080000Y-17018495D01*
X-7041573Y-17211681D01*
X-7041570Y-17211693D01*
X-6966193Y-17393671D01*
X-6966186Y-17393684D01*
X-6856752Y-17557462D01*
X-6856749Y-17557466D01*
X-6717467Y-17696748D01*
X-6717463Y-17696751D01*
X-6553685Y-17806185D01*
X-6553672Y-17806192D01*
X-6371692Y-17881569D01*
X-6330000Y-17889862D01*
X-6330000Y-17086987D01*
X-6320060Y-17104204D01*
X-6264205Y-17160059D01*
X-6195796Y-17199555D01*
X-6119496Y-17219999D01*
X-6040504Y-17219999D01*
X-5964204Y-17199555D01*
X-5895795Y-17160059D01*
X-5839940Y-17104204D01*
X-5830000Y-17086987D01*
X-5830000Y-17889862D01*
X-5788310Y-17881569D01*
X-5788308Y-17881569D01*
X-5606329Y-17806192D01*
X-5606316Y-17806185D01*
X-5442538Y-17696751D01*
X-5442534Y-17696748D01*
X-5303252Y-17557466D01*
X-5303249Y-17557462D01*
X-5193815Y-17393684D01*
X-5193808Y-17393671D01*
X-5118431Y-17211693D01*
X-5118428Y-17211681D01*
X-5080001Y-17018495D01*
X-5080000Y-17018492D01*
X-5080000Y-16870000D01*
X-5780000Y-16870000D01*
X-5780000Y-16370000D01*
X-5080000Y-16370000D01*
X-5080000Y-16221508D01*
X-5080001Y-16221504D01*
X-5118428Y-16028318D01*
X-5118431Y-16028306D01*
X-5193808Y-15846328D01*
X-5193815Y-15846315D01*
X-5303249Y-15682537D01*
X-5303252Y-15682533D01*
X-5442534Y-15543251D01*
X-5442538Y-15543248D01*
X-5606316Y-15433814D01*
X-5606329Y-15433807D01*
X-5788309Y-15358429D01*
X-5788317Y-15358427D01*
X-5830000Y-15350135D01*
X-5830000Y-16153012D01*
X-5839940Y-16135796D01*
X-5895795Y-16079941D01*
X-5964204Y-16040445D01*
X-6040504Y-16020001D01*
X-6119496Y-16020001D01*
X-6195796Y-16040445D01*
X-6264205Y-16079941D01*
X-6320060Y-16135796D01*
X-6330000Y-16153012D01*
X-6330000Y-15350136D01*
X-6330001Y-15350135D01*
X-6371684Y-15358427D01*
X-6371692Y-15358429D01*
X-6553672Y-15433807D01*
X-6553685Y-15433814D01*
X-6717463Y-15543248D01*
X-6717467Y-15543251D01*
X-6856749Y-15682533D01*
X-6856752Y-15682537D01*
X-6966186Y-15846315D01*
X-6966193Y-15846328D01*
X-7041570Y-16028306D01*
X-7041573Y-16028318D01*
X-7080000Y-16221504D01*
X-11170876Y-16221504D01*
X-11672051Y-15869192D01*
X-11676362Y-15866020D01*
X-12346027Y-15350688D01*
X-12350197Y-15347333D01*
X-12997028Y-14803557D01*
X-13001008Y-14800062D01*
X-13623812Y-14228838D01*
X-13627654Y-14225157D01*
X-14225158Y-13627653D01*
X-14228838Y-13623812D01*
X-14800066Y-13001004D01*
X-14803558Y-12997027D01*
X-15347334Y-12350196D01*
X-15350689Y-12346026D01*
X-15693538Y-11900500D01*
X-15866027Y-11676353D01*
X-15869193Y-11672050D01*
X-15896761Y-11632834D01*
X-16279278Y-11088691D01*
X-16355161Y-10980745D01*
X-16358144Y-10976300D01*
X-16629194Y-10553002D01*
X-16813808Y-10264692D01*
X-16816595Y-10260126D01*
X-16850380Y-10201983D01*
X-17019279Y-9911308D01*
X-17241143Y-9529481D01*
X-17243731Y-9524796D01*
X-17487277Y-9060629D01*
X-17636346Y-8776523D01*
X-17638719Y-8771752D01*
X-17998672Y-8007235D01*
X-18000847Y-8002345D01*
X-18097178Y-7772495D01*
X-18327478Y-7222991D01*
X-18329421Y-7218061D01*
X-18622131Y-6425288D01*
X-18623840Y-6420334D01*
X-18706964Y-6161304D01*
X-17150500Y-6161304D01*
X-17150500Y-6338695D01*
X-17115897Y-6512658D01*
X-17115894Y-6512667D01*
X-17048017Y-6676540D01*
X-17048010Y-6676553D01*
X-16949465Y-6824034D01*
X-16949462Y-6824038D01*
X-16824039Y-6949461D01*
X-16824035Y-6949464D01*
X-16676554Y-7048009D01*
X-16676541Y-7048016D01*
X-16580779Y-7087681D01*
X-16512666Y-7115894D01*
X-16512664Y-7115894D01*
X-16512659Y-7115896D01*
X-16338696Y-7150499D01*
X-16338693Y-7150500D01*
X-16338691Y-7150500D01*
X-16161307Y-7150500D01*
X-16161306Y-7150499D01*
X-16103318Y-7138964D01*
X-15987342Y-7115896D01*
X-15987339Y-7115894D01*
X-15987334Y-7115894D01*
X-15823453Y-7048013D01*
X-15708791Y-6971397D01*
X-15642114Y-6950520D01*
X-15639900Y-6950500D01*
X-12591519Y-6950500D01*
X-12524480Y-6970185D01*
X-12503838Y-6986819D01*
X-12228277Y-7262380D01*
X-12194792Y-7323703D01*
X-12194341Y-7325870D01*
X-12167440Y-7461115D01*
X-12167437Y-7461124D01*
X-12099560Y-7624997D01*
X-12099553Y-7625010D01*
X-12001008Y-7772491D01*
X-12001005Y-7772495D01*
X-11875582Y-7897918D01*
X-11875578Y-7897921D01*
X-11728097Y-7996466D01*
X-11728084Y-7996473D01*
X-11605180Y-8047380D01*
X-11564209Y-8064351D01*
X-11564207Y-8064351D01*
X-11564202Y-8064353D01*
X-11390239Y-8098956D01*
X-11390236Y-8098957D01*
X-11390234Y-8098957D01*
X-11212850Y-8098957D01*
X-11212849Y-8098956D01*
X-11154861Y-8087421D01*
X-11038885Y-8064353D01*
X-11038882Y-8064351D01*
X-11038877Y-8064351D01*
X-10889180Y-8002345D01*
X-10875003Y-7996473D01*
X-10875003Y-7996472D01*
X-10874996Y-7996470D01*
X-10727508Y-7897921D01*
X-10602079Y-7772492D01*
X-10503530Y-7625004D01*
X-10435649Y-7461123D01*
X-10430744Y-7436468D01*
X-10407275Y-7318476D01*
X-10401043Y-7287148D01*
X-10401043Y-7109766D01*
X-10401043Y-7109763D01*
X-10401044Y-7109761D01*
X-10435647Y-6935798D01*
X-10435650Y-6935789D01*
X-10503527Y-6771916D01*
X-10503534Y-6771903D01*
X-10602079Y-6624422D01*
X-10602082Y-6624418D01*
X-10727505Y-6498995D01*
X-10727509Y-6498992D01*
X-10874990Y-6400447D01*
X-10875003Y-6400440D01*
X-11038876Y-6332563D01*
X-11038885Y-6332560D01*
X-11174130Y-6305659D01*
X-11236041Y-6273274D01*
X-11237620Y-6271723D01*
X-11803454Y-5705888D01*
X-11803455Y-5705887D01*
X-11918193Y-5629222D01*
X-12045668Y-5576421D01*
X-12045678Y-5576418D01*
X-12181004Y-5549500D01*
X-12181006Y-5549500D01*
X-12181007Y-5549500D01*
X-15639900Y-5549500D01*
X-15706939Y-5529815D01*
X-15708791Y-5528602D01*
X-15823451Y-5451988D01*
X-15823453Y-5451987D01*
X-15987333Y-5384106D01*
X-15987342Y-5384103D01*
X-16161306Y-5349500D01*
X-16161309Y-5349500D01*
X-16338691Y-5349500D01*
X-16338694Y-5349500D01*
X-16512659Y-5384103D01*
X-16512668Y-5384106D01*
X-16676541Y-5451983D01*
X-16676554Y-5451990D01*
X-16824035Y-5550535D01*
X-16824039Y-5550538D01*
X-16949462Y-5675961D01*
X-16949465Y-5675965D01*
X-17048010Y-5823446D01*
X-17048017Y-5823459D01*
X-17115894Y-5987332D01*
X-17115897Y-5987341D01*
X-17150500Y-6161304D01*
X-18706964Y-6161304D01*
X-18871311Y-5649172D01*
X-18882054Y-5615695D01*
X-18883580Y-5610565D01*
X-19106826Y-4795544D01*
X-19108128Y-4790352D01*
X-19295983Y-3966495D01*
X-19297060Y-3961252D01*
X-19340204Y-3725519D01*
X-19449191Y-3130024D01*
X-19450032Y-3124796D01*
X-19566148Y-2287769D01*
X-19566769Y-2282452D01*
X-19601232Y-1919531D01*
X-19646785Y-1439823D01*
X-19646994Y-1437334D01*
X-19649609Y-1401617D01*
X-5048066Y-1401617D01*
X-5048066Y-1401618D01*
X-4974334Y-1458194D01*
X-4775670Y-1572893D01*
X-4775660Y-1572897D01*
X-4563731Y-1660681D01*
X-4342138Y-1720057D01*
X-4114711Y-1749998D01*
X-4114694Y-1750000D01*
X-3885306Y-1750000D01*
X-3885290Y-1749998D01*
X-3657863Y-1720057D01*
X-3436270Y-1660681D01*
X-3224341Y-1572897D01*
X-3224332Y-1572893D01*
X-3025673Y-1458197D01*
X-3025666Y-1458192D01*
X-2951936Y-1401617D01*
X-4000000Y-353553D01*
X-5048066Y-1401617D01*
X-19649609Y-1401617D01*
X-19650380Y-1391092D01*
X-19650434Y-1390961D01*
X-19650952Y-1383981D01*
X-19651172Y-1381008D01*
X-19651170Y-1381002D01*
X-19651174Y-1380982D01*
X-19653295Y-1352239D01*
X-19661086Y-1323503D01*
X-19698597Y-1185140D01*
X-19698599Y-1185135D01*
X-19774907Y-1029729D01*
X-19774911Y-1029722D01*
X-19879428Y-891703D01*
X-19879441Y-891691D01*
X-20008331Y-776119D01*
X-20008333Y-776117D01*
X-20008335Y-776116D01*
X-20156890Y-687213D01*
X-20156893Y-687211D01*
X-20184229Y-677287D01*
X-20184236Y-677284D01*
X-20193442Y-673940D01*
X-20193519Y-673881D01*
X-20231373Y-660166D01*
X-20231865Y-659988D01*
X-20231885Y-659973D01*
X-20244454Y-654612D01*
X-20365051Y-595045D01*
X-20388219Y-580195D01*
X-20487310Y-499870D01*
X-20506633Y-480275D01*
X-20585565Y-380072D01*
X-20600091Y-356696D01*
X-20601589Y-353553D01*
X-20654977Y-241549D01*
X-20663988Y-215548D01*
X-20664824Y-211853D01*
X-20692125Y-91129D01*
X-20695179Y-63777D01*
X-20695179Y63778D01*
X-20692125Y91130D01*
X-20686796Y114695D01*
X-5750000Y114695D01*
X-5750000Y-114694D01*
X-5749999Y-114710D01*
X-5720058Y-342137D01*
X-5660682Y-563730D01*
X-5572898Y-775659D01*
X-5572894Y-775669D01*
X-5458201Y-974324D01*
X-5458195Y-974331D01*
X-5401619Y-1048064D01*
X-4353554Y0D01*
X-4353554Y1D01*
X-3646447Y1D01*
X-3646447Y0D01*
X-2598383Y-1048064D01*
X-2541808Y-974334D01*
X-2541803Y-974327D01*
X-2427107Y-775668D01*
X-2427103Y-775659D01*
X-2339319Y-563730D01*
X-2279943Y-342137D01*
X-2250002Y-114710D01*
X-2250000Y-114694D01*
X-2250000Y114695D01*
X-2250002Y114711D01*
X-2279943Y342138D01*
X-2339319Y563731D01*
X-2427103Y775660D01*
X-2427107Y775670D01*
X-2541806Y974334D01*
X-2598382Y1048066D01*
X-2598383Y1048066D01*
X-3646447Y1D01*
X-4353554Y1D01*
X-5401620Y1048066D01*
X-5458190Y974341D01*
X-5458199Y974327D01*
X-5572894Y775670D01*
X-5572898Y775660D01*
X-5660682Y563731D01*
X-5720058Y342138D01*
X-5749999Y114711D01*
X-5750000Y114695D01*
X-20686796Y114695D01*
X-20679691Y146112D01*
X-20678717Y150419D01*
X-20663987Y215554D01*
X-20654978Y241547D01*
X-20600088Y356702D01*
X-20585569Y380069D01*
X-20506630Y480280D01*
X-20487314Y499868D01*
X-20388214Y580201D01*
X-20365061Y595042D01*
X-20244511Y654585D01*
X-20231952Y659947D01*
X-20216440Y665578D01*
X-20216436Y665580D01*
X-20216432Y665568D01*
X-20216359Y665608D01*
X-20193519Y673881D01*
X-20193518Y673882D01*
X-20184175Y677266D01*
X-20183924Y677382D01*
X-20156887Y687196D01*
X-20008322Y776106D01*
X-19879417Y891691D01*
X-19774894Y1029719D01*
X-19698583Y1185131D01*
X-19653279Y1352236D01*
X-19651156Y1381004D01*
X-19651086Y1381448D01*
X-19649609Y1401620D01*
X-5048066Y1401620D01*
X-4000001Y353554D01*
X-2951936Y1401619D01*
X-2951936Y1401620D01*
X-3025669Y1458195D01*
X-3025676Y1458201D01*
X-3224331Y1572894D01*
X-3224341Y1572898D01*
X-3436270Y1660682D01*
X-3657863Y1720058D01*
X-3885290Y1749999D01*
X-3885306Y1750000D01*
X-4114694Y1750000D01*
X-4114711Y1749999D01*
X-4342138Y1720058D01*
X-4563731Y1660682D01*
X-4775660Y1572898D01*
X-4775670Y1572894D01*
X-4974327Y1458199D01*
X-4974341Y1458190D01*
X-5048066Y1401620D01*
X-19649609Y1401620D01*
X-19646996Y1437309D01*
X-19646784Y1439827D01*
X-19568039Y2271553D01*
X-19567430Y2276792D01*
X-19453511Y3103069D01*
X-19452687Y3108229D01*
X-19303672Y3928913D01*
X-19302622Y3934069D01*
X-19283083Y4020536D01*
X-19118784Y4747651D01*
X-19117514Y4752761D01*
X-19102345Y4808691D01*
X-18899181Y5557797D01*
X-18897714Y5562784D01*
X-18645282Y6357796D01*
X-18643607Y6362708D01*
X-18357521Y7146300D01*
X-18355639Y7151131D01*
X-18036458Y7921761D01*
X-18034338Y7926585D01*
X-17970488Y8063888D01*
X-17682634Y8682890D01*
X-17680313Y8687614D01*
X-17296698Y9428277D01*
X-17294186Y9432880D01*
X-16879389Y10156491D01*
X-16876665Y10161018D01*
X-16541335Y10692194D01*
X-16488903Y10738374D01*
X-16436481Y10750000D01*
X-8725702Y10750000D01*
X-8678254Y10740563D01*
G37*
%TD.AperFunction*%
%TA.AperFunction,Conductor*%
G36*
X-462611Y-16389685D02*
G01*
X-441969Y-16406319D01*
X300530Y-17148818D01*
X334015Y-17210141D01*
X329031Y-17279833D01*
X287159Y-17335766D01*
X221695Y-17360183D01*
X212849Y-17360499D01*
X-336935Y-17360499D01*
X-403974Y-17340814D01*
X-449729Y-17288010D01*
X-459673Y-17218852D01*
X-458552Y-17212308D01*
X-420001Y-17018495D01*
X-420000Y-17018492D01*
X-420000Y-16870000D01*
X-1120000Y-16870000D01*
X-1120000Y-16370000D01*
X-529650Y-16370000D01*
X-462611Y-16389685D01*
G37*
%TD.AperFunction*%
%TA.AperFunction,Conductor*%
G36*
X-316902Y-11093770D02*
G01*
X-308627Y-11096856D01*
X-262666Y-11115894D01*
X-262663Y-11115894D01*
X-262659Y-11115896D01*
X-88696Y-11150499D01*
X-88693Y-11150500D01*
X10031Y-11150500D01*
X77070Y-11170185D01*
X122825Y-11222989D01*
X131647Y-11250304D01*
X133353Y-11258878D01*
X134106Y-11262666D01*
X134107Y-11262669D01*
X201983Y-11426539D01*
X201990Y-11426552D01*
X300535Y-11574033D01*
X300538Y-11574037D01*
X425961Y-11699460D01*
X425965Y-11699463D01*
X573446Y-11798008D01*
X573459Y-11798015D01*
X696363Y-11848922D01*
X737334Y-11865893D01*
X737336Y-11865893D01*
X737341Y-11865895D01*
X911304Y-11900498D01*
X911307Y-11900499D01*
X911309Y-11900499D01*
X1088693Y-11900499D01*
X1088694Y-11900498D01*
X1169711Y-11884383D01*
X1262658Y-11865895D01*
X1262661Y-11865893D01*
X1262666Y-11865893D01*
X1402535Y-11807957D01*
X1426540Y-11798015D01*
X1426540Y-11798014D01*
X1426547Y-11798012D01*
X1574035Y-11699463D01*
X1689336Y-11584161D01*
X1750657Y-11550678D01*
X1820349Y-11555662D01*
X1876283Y-11597533D01*
X1900700Y-11662997D01*
X1891578Y-11719294D01*
X1884106Y-11737332D01*
X1884103Y-11737341D01*
X1849500Y-11911304D01*
X1849500Y-12088695D01*
X1884103Y-12262658D01*
X1884106Y-12262667D01*
X1951983Y-12426540D01*
X1951990Y-12426553D01*
X2050535Y-12574034D01*
X2050538Y-12574038D01*
X2175961Y-12699461D01*
X2175965Y-12699464D01*
X2323446Y-12798009D01*
X2323459Y-12798016D01*
X2440435Y-12846468D01*
X2487334Y-12865894D01*
X2500770Y-12868566D01*
X2562681Y-12900950D01*
X2597257Y-12961665D01*
X2593519Y-13031434D01*
X2564262Y-13077865D01*
X769481Y-14872645D01*
X769479Y-14872647D01*
X754534Y-14898535D01*
X746596Y-14912284D01*
X716616Y-14964211D01*
X699022Y-14994685D01*
X690423Y-15009578D01*
X649499Y-15162306D01*
X649499Y-15162308D01*
X649499Y-15330409D01*
X649500Y-15330422D01*
X649500Y-15499954D01*
X629815Y-15566993D01*
X577011Y-15612748D01*
X507853Y-15622692D01*
X444297Y-15593667D01*
X437819Y-15587635D01*
X-655603Y-14494213D01*
X-1792838Y-13356979D01*
X-1826322Y-13295657D01*
X-1821338Y-13225965D01*
X-1779466Y-13170032D01*
X-1714002Y-13145615D01*
X-1680965Y-13147682D01*
X-1670000Y-13149863D01*
X-1670000Y-12346987D01*
X-1660060Y-12364204D01*
X-1604205Y-12420059D01*
X-1535796Y-12459555D01*
X-1459496Y-12479999D01*
X-1380504Y-12479999D01*
X-1304204Y-12459555D01*
X-1235795Y-12420059D01*
X-1179940Y-12364204D01*
X-1170000Y-12346987D01*
X-1170000Y-13149862D01*
X-1128310Y-13141569D01*
X-1128308Y-13141569D01*
X-946329Y-13066192D01*
X-946316Y-13066185D01*
X-782538Y-12956751D01*
X-782534Y-12956748D01*
X-643252Y-12817466D01*
X-643249Y-12817462D01*
X-533815Y-12653684D01*
X-533808Y-12653671D01*
X-458431Y-12471693D01*
X-458428Y-12471681D01*
X-420001Y-12278495D01*
X-420000Y-12278492D01*
X-420000Y-12130000D01*
X-1120000Y-12130000D01*
X-1120000Y-11630000D01*
X-420000Y-11630000D01*
X-420000Y-11481508D01*
X-420001Y-11481504D01*
X-458428Y-11288318D01*
X-458430Y-11288310D01*
X-470621Y-11258878D01*
X-478090Y-11189409D01*
X-446815Y-11126930D01*
X-386727Y-11091277D01*
X-316902Y-11093770D01*
G37*
%TD.AperFunction*%
%TA.AperFunction,Conductor*%
G36*
X-1753312Y-6846481D02*
G01*
X-1697379Y-6888353D01*
X-1672962Y-6953817D01*
X-1676871Y-6994755D01*
X-1709329Y-7115894D01*
X-1720547Y-7157759D01*
X-1720549Y-7157770D01*
X-1750500Y-7385258D01*
X-1750500Y-7614741D01*
X-1729730Y-7772495D01*
X-1720548Y-7842238D01*
X-1676338Y-8007235D01*
X-1661158Y-8063887D01*
X-1573350Y-8275876D01*
X-1573343Y-8275890D01*
X-1458608Y-8474617D01*
X-1318919Y-8656661D01*
X-1318911Y-8656670D01*
X-1156670Y-8818911D01*
X-1156662Y-8818918D01*
X-1156661Y-8818919D01*
X-1116861Y-8849459D01*
X-1042733Y-8906340D01*
X-974612Y-8958611D01*
X-962501Y-8965603D01*
X-914285Y-9016170D01*
X-900500Y-9072991D01*
X-900500Y-10338695D01*
X-864706Y-10518641D01*
X-867483Y-10519193D01*
X-866977Y-10576944D01*
X-904235Y-10636051D01*
X-967534Y-10665632D01*
X-1033708Y-10657614D01*
X-1128309Y-10618429D01*
X-1128317Y-10618427D01*
X-1170000Y-10610135D01*
X-1170000Y-11413012D01*
X-1179940Y-11395796D01*
X-1235795Y-11339941D01*
X-1304204Y-11300445D01*
X-1380504Y-11280001D01*
X-1459496Y-11280001D01*
X-1535796Y-11300445D01*
X-1604205Y-11339941D01*
X-1660060Y-11395796D01*
X-1670000Y-11413012D01*
X-1670000Y-10610136D01*
X-1670001Y-10610135D01*
X-1711684Y-10618427D01*
X-1711692Y-10618429D01*
X-1893672Y-10693807D01*
X-1893685Y-10693814D01*
X-2057463Y-10803248D01*
X-2057467Y-10803251D01*
X-2196749Y-10942533D01*
X-2196752Y-10942537D01*
X-2306186Y-11106315D01*
X-2306193Y-11106328D01*
X-2381570Y-11288306D01*
X-2381573Y-11288318D01*
X-2420000Y-11481504D01*
X-2420000Y-11630000D01*
X-1720000Y-11630000D01*
X-1720000Y-12130000D01*
X-2420000Y-12130000D01*
X-2420000Y-12278488D01*
X-2387683Y-12440962D01*
X-2393911Y-12510554D01*
X-2436775Y-12565731D01*
X-2502665Y-12588975D01*
X-2570662Y-12572907D01*
X-2596982Y-12552834D01*
X-2661335Y-12488481D01*
X-2661336Y-12488480D01*
X-2773824Y-12423535D01*
X-2773824Y-12423534D01*
X-2773829Y-12423533D01*
X-2782357Y-12418609D01*
X-2798266Y-12409423D01*
X-2836449Y-12399192D01*
X-2950995Y-12368499D01*
X-3109109Y-12368499D01*
X-3116705Y-12368499D01*
X-3116721Y-12368500D01*
X-4139943Y-12368500D01*
X-4298057Y-12368500D01*
X-4450785Y-12409423D01*
X-4475227Y-12423535D01*
X-4531472Y-12456007D01*
X-4587715Y-12488479D01*
X-4587718Y-12488481D01*
X-4699520Y-12600284D01*
X-4747417Y-12648181D01*
X-4764317Y-12657409D01*
X-4808739Y-12681666D01*
X-4835098Y-12684500D01*
X-4841457Y-12684500D01*
X-4981615Y-12712379D01*
X-4981629Y-12712383D01*
X-4990538Y-12716074D01*
X-5060007Y-12723541D01*
X-5122485Y-12692264D01*
X-5158136Y-12632175D01*
X-5155640Y-12562349D01*
X-5152548Y-12554059D01*
X-5118430Y-12471689D01*
X-5118428Y-12471681D01*
X-5080001Y-12278495D01*
X-5080000Y-12278492D01*
X-5080000Y-12130000D01*
X-5780000Y-12130000D01*
X-5780000Y-11630000D01*
X-5080000Y-11630000D01*
X-5080000Y-11481508D01*
X-5080001Y-11481504D01*
X-5118428Y-11288318D01*
X-5118431Y-11288306D01*
X-5193808Y-11106328D01*
X-5193815Y-11106315D01*
X-5303249Y-10942537D01*
X-5303252Y-10942533D01*
X-5442534Y-10803251D01*
X-5442538Y-10803248D01*
X-5538740Y-10738967D01*
X-5583545Y-10685354D01*
X-5592252Y-10616029D01*
X-5562097Y-10553002D01*
X-5557567Y-10548222D01*
X-4741245Y-9731900D01*
X-4679926Y-9698418D01*
X-4610234Y-9703402D01*
X-4554301Y-9745274D01*
X-4529884Y-9810738D01*
X-4539007Y-9867036D01*
X-4591854Y-9994621D01*
X-4591857Y-9994633D01*
X-4625500Y-10163766D01*
X-4625500Y-10336233D01*
X-4591857Y-10505366D01*
X-4591854Y-10505378D01*
X-4525862Y-10664698D01*
X-4525855Y-10664711D01*
X-4430046Y-10808098D01*
X-4430043Y-10808102D01*
X-4308103Y-10930042D01*
X-4308099Y-10930045D01*
X-4164712Y-11025854D01*
X-4164699Y-11025861D01*
X-4005379Y-11091853D01*
X-4005374Y-11091855D01*
X-3836234Y-11125499D01*
X-3836231Y-11125500D01*
X-3836229Y-11125500D01*
X-3663769Y-11125500D01*
X-3663768Y-11125499D01*
X-3494626Y-11091855D01*
X-3335295Y-11025858D01*
X-3191901Y-10930045D01*
X-3069955Y-10808099D01*
X-2974142Y-10664705D01*
X-2908145Y-10505374D01*
X-2874500Y-10336229D01*
X-2874500Y-10163771D01*
X-2874500Y-10163768D01*
X-2874501Y-10163766D01*
X-2874990Y-10161309D01*
X-2908145Y-9994626D01*
X-2960994Y-9867036D01*
X-2974139Y-9835301D01*
X-2974146Y-9835288D01*
X-3069955Y-9691901D01*
X-3069958Y-9691897D01*
X-3191898Y-9569957D01*
X-3191902Y-9569954D01*
X-3335289Y-9474145D01*
X-3335302Y-9474138D01*
X-3494622Y-9408146D01*
X-3494634Y-9408143D01*
X-3663768Y-9374500D01*
X-3663771Y-9374500D01*
X-3836229Y-9374500D01*
X-3836232Y-9374500D01*
X-4005367Y-9408143D01*
X-4005379Y-9408146D01*
X-4132964Y-9460993D01*
X-4202434Y-9468462D01*
X-4264913Y-9437186D01*
X-4300564Y-9377097D01*
X-4298070Y-9307272D01*
X-4268101Y-9258756D01*
X-1884325Y-6874980D01*
X-1823004Y-6841497D01*
X-1753312Y-6846481D01*
G37*
%TD.AperFunction*%
%TA.AperFunction,Conductor*%
G36*
X-6380000Y-12130000D02*
G01*
X-6806090Y-12130000D01*
X-6873129Y-12110315D01*
X-6918884Y-12057511D01*
X-6928828Y-11988353D01*
X-6899803Y-11924797D01*
X-6841025Y-11887023D01*
X-6830281Y-11884383D01*
X-6737342Y-11865896D01*
X-6737339Y-11865894D01*
X-6737334Y-11865894D01*
X-6573453Y-11798013D01*
X-6425965Y-11699464D01*
X-6392821Y-11666320D01*
X-6380000Y-11659318D01*
X-6380000Y-12130000D01*
G37*
%TD.AperFunction*%
%TD*%
M02*
