M48
; DRILL file {KiCad 9.0.0} date 2025-03-19T15:37:07+0100
; FORMAT={-:-/ absolute / inch / decimal}
; #@! TF.CreationDate,2025-03-19T15:37:07+01:00
; #@! TF.GenerationSoftware,Kicad,Pcbnew,9.0.0
; #@! TF.FileFunction,Plated,1,2,PTH
FMAT,2
INCH
; #@! TA.AperFunction,Plated,PTH,ViaDrill
T1C0.0118
; #@! TA.AperFunction,Plated,PTH,ComponentDrill
T2C0.0236
; #@! TA.AperFunction,Plated,PTH,ComponentDrill
T3C0.0295
%
G90
G05
T1
X-0.7283Y-0.1772
X-0.6496Y-0.3839
X-0.6398Y-0.2461
X-0.6201Y-0.4232
X-0.6102Y-0.3839
X-0.4724Y-0.187
X-0.4724Y-0.502
X-0.4449Y-0.2834
X-0.2756Y-0.4331
X-0.2688Y-0.3316
X-0.2657Y-0.3642
X-0.1878Y-0.528
X-0.1673Y-0.6004
X-0.1575Y0.1083
X-0.1575Y-0.0984
X-0.1476Y-0.2165
X-0.128Y-0.5315
X-0.128Y-0.6004
X-0.1079Y-0.7051
X-0.0492Y-0.7579
X0.0Y-0.4035
X0.0Y-0.5129
X0.0Y-0.7409
X0.0394Y-0.1969
X0.0394Y-0.4331
X0.0492Y-0.5129
X0.0492Y-0.6862
X0.0492Y-0.7508
X0.0787Y-0.3937
X0.1004Y-0.6102
X0.1083Y-0.4331
X0.1083Y-0.4724
X0.128Y-0.6693
X0.1378Y-0.3937
X0.1673Y-0.1083
X0.1772Y-0.4331
X0.1969Y0.1181
X0.1969Y-0.5118
X0.3051Y-0.3642
X0.3417Y0.2358
X0.3417Y0.1858
X0.4496Y-0.1378
X0.4528Y-0.1772
X0.4724Y-0.0591
X0.4823Y0.1083
X0.4921Y-0.3642
X0.4921Y-0.5118
X0.5118Y-0.2953
X0.5498Y-0.1635
X0.5512Y-0.5118
X0.574Y-0.2295
X0.6496Y0.1772
X0.6496Y-0.315
X0.6563Y-0.2134
X0.6722Y0.2982
T3
X-0.1476Y-0.4035
X-0.1476Y-0.7185
T2
G00X-0.2394Y-0.4559
M15
G01X-0.2394Y-0.4795
M16
G05
G00X-0.2394Y-0.6425
M15
G01X-0.2394Y-0.6661
M16
G05
G00X-0.0559Y-0.4559
M15
G01X-0.0559Y-0.4795
M16
G05
G00X-0.0559Y-0.6425
M15
G01X-0.0559Y-0.6661
M16
G05
G00X0.3574Y-0.5881
M15
G01X0.3797Y-0.6104
M16
G05
G00X0.598Y-0.3476
M15
G01X0.6202Y-0.3699
M16
G05
M30
