%TF.GenerationSoftware,KiCad,Pcbnew,9.0.5-9.0.5~ubuntu25.04.1*%
%TF.CreationDate,2025-10-27T18:04:51+01:00*%
%TF.ProjectId,BladeMaster,426c6164-654d-4617-9374-65722e6b6963,rev?*%
%TF.SameCoordinates,Original*%
%TF.FileFunction,Legend,Bot*%
%TF.FilePolarity,Positive*%
%FSLAX46Y46*%
G04 Gerber Fmt 4.6, Leading zero omitted, Abs format (unit mm)*
G04 Created by KiCad (PCBNEW 9.0.5-9.0.5~ubuntu25.04.1) date 2025-10-27 18:04:51*
%MOMM*%
%LPD*%
G01*
G04 APERTURE LIST*
G04 Aperture macros list*
%AMRoundRect*
0 Rectangle with rounded corners*
0 $1 Rounding radius*
0 $2 $3 $4 $5 $6 $7 $8 $9 X,Y pos of 4 corners*
0 Add a 4 corners polygon primitive as box body*
4,1,4,$2,$3,$4,$5,$6,$7,$8,$9,$2,$3,0*
0 Add four circle primitives for the rounded corners*
1,1,$1+$1,$2,$3*
1,1,$1+$1,$4,$5*
1,1,$1+$1,$6,$7*
1,1,$1+$1,$8,$9*
0 Add four rect primitives between the rounded corners*
20,1,$1+$1,$2,$3,$4,$5,0*
20,1,$1+$1,$4,$5,$6,$7,0*
20,1,$1+$1,$6,$7,$8,$9,0*
20,1,$1+$1,$8,$9,$2,$3,0*%
%AMFreePoly0*
4,1,23,0.500000,-0.750000,0.000000,-0.750000,0.000000,-0.745722,-0.065263,-0.745722,-0.191342,-0.711940,-0.304381,-0.646677,-0.396677,-0.554381,-0.461940,-0.441342,-0.495722,-0.315263,-0.495722,-0.250000,-0.500000,-0.250000,-0.500000,0.250000,-0.495722,0.250000,-0.495722,0.315263,-0.461940,0.441342,-0.396677,0.554381,-0.304381,0.646677,-0.191342,0.711940,-0.065263,0.745722,0.000000,0.745722,
0.000000,0.750000,0.500000,0.750000,0.500000,-0.750000,0.500000,-0.750000,$1*%
%AMFreePoly1*
4,1,23,0.000000,0.745722,0.065263,0.745722,0.191342,0.711940,0.304381,0.646677,0.396677,0.554381,0.461940,0.441342,0.495722,0.315263,0.495722,0.250000,0.500000,0.250000,0.500000,-0.250000,0.495722,-0.250000,0.495722,-0.315263,0.461940,-0.441342,0.396677,-0.554381,0.304381,-0.646677,0.191342,-0.711940,0.065263,-0.745722,0.000000,-0.745722,0.000000,-0.750000,-0.500000,-0.750000,
-0.500000,0.750000,0.000000,0.750000,0.000000,0.745722,0.000000,0.745722,$1*%
G04 Aperture macros list end*
%ADD10C,0.125000*%
%ADD11C,0.100000*%
%ADD12C,0.150000*%
%ADD13C,0.120000*%
%ADD14C,0.254001*%
%ADD15C,0.059995*%
%ADD16C,0.152400*%
%ADD17C,0.000000*%
%ADD18RoundRect,0.225000X-0.250000X0.225000X-0.250000X-0.225000X0.250000X-0.225000X0.250000X0.225000X0*%
%ADD19RoundRect,0.218750X0.256250X-0.218750X0.256250X0.218750X-0.256250X0.218750X-0.256250X-0.218750X0*%
%ADD20RoundRect,0.200000X-0.275000X0.200000X-0.275000X-0.200000X0.275000X-0.200000X0.275000X0.200000X0*%
%ADD21FreePoly0,270.000000*%
%ADD22FreePoly1,270.000000*%
%ADD23C,0.750013*%
%ADD24O,1.200000X2.000000*%
%ADD25O,1.200000X1.800000*%
%ADD26R,0.300000X1.300000*%
%ADD27R,1.229997X1.359995*%
%ADD28RoundRect,0.200000X-0.200000X-0.275000X0.200000X-0.275000X0.200000X0.275000X-0.200000X0.275000X0*%
%ADD29RoundRect,0.062500X0.127279X-0.038891X-0.038891X0.127279X-0.127279X0.038891X0.038891X-0.127279X0*%
%ADD30RoundRect,0.062500X-0.127279X0.038891X0.038891X-0.127279X0.127279X-0.038891X-0.038891X0.127279X0*%
%ADD31RoundRect,0.200000X0.275000X-0.200000X0.275000X0.200000X-0.275000X0.200000X-0.275000X-0.200000X0*%
%ADD32R,1.500000X0.900000*%
%ADD33R,0.900000X1.500000*%
%ADD34R,0.900000X0.900000*%
%ADD35RoundRect,0.150000X-0.150000X0.587500X-0.150000X-0.587500X0.150000X-0.587500X0.150000X0.587500X0*%
%ADD36RoundRect,0.200000X0.200000X0.275000X-0.200000X0.275000X-0.200000X-0.275000X0.200000X-0.275000X0*%
G04 APERTURE END LIST*
D10*
G36*
X12603279Y12455270D02*
G01*
X10827486Y12455270D01*
X10827486Y13057453D01*
X10938597Y13057453D01*
X10938597Y12819358D01*
X10939207Y12816287D01*
X10938755Y12814928D01*
X10941400Y12805268D01*
X10943355Y12795440D01*
X10944368Y12794427D01*
X10945195Y12791407D01*
X10992814Y12696169D01*
X10998954Y12688258D01*
X11004521Y12679926D01*
X11052140Y12632306D01*
X11060468Y12626742D01*
X11068384Y12620598D01*
X11163622Y12572979D01*
X11166641Y12572153D01*
X11167655Y12571139D01*
X11177482Y12569185D01*
X11187143Y12566539D01*
X11188501Y12566992D01*
X11191573Y12566381D01*
X11477287Y12566381D01*
X11480358Y12566992D01*
X11481717Y12566539D01*
X11491377Y12569185D01*
X11501205Y12571139D01*
X11502218Y12572153D01*
X11505238Y12572979D01*
X11600476Y12620598D01*
X11608391Y12626742D01*
X11616720Y12632306D01*
X11664339Y12679926D01*
X11677886Y12700203D01*
X11677886Y12748038D01*
X11644060Y12781862D01*
X11596226Y12781862D01*
X11575949Y12768314D01*
X11535501Y12727866D01*
X11462532Y12691381D01*
X11206328Y12691381D01*
X11133358Y12727866D01*
X11100082Y12761143D01*
X11063597Y12834113D01*
X11063597Y13042698D01*
X11100083Y13115670D01*
X11133356Y13148943D01*
X11140852Y13152691D01*
X11938597Y13152691D01*
X11938597Y12628881D01*
X11943355Y12604963D01*
X11977179Y12571139D01*
X12025015Y12571139D01*
X12058839Y12604963D01*
X12063597Y12628881D01*
X12063597Y13137936D01*
X12095301Y13201344D01*
X12158709Y13233048D01*
X12272056Y13233048D01*
X12345028Y13196562D01*
X12367168Y13174422D01*
X12367168Y12628881D01*
X12371926Y12604963D01*
X12405750Y12571139D01*
X12453586Y12571139D01*
X12487410Y12604963D01*
X12492168Y12628881D01*
X12492168Y13628881D01*
X12487410Y13652799D01*
X12453586Y13686623D01*
X12405750Y13686623D01*
X12371926Y13652799D01*
X12367168Y13628881D01*
X12367168Y13325247D01*
X12314762Y13351450D01*
X12311742Y13352277D01*
X12310729Y13353290D01*
X12300901Y13355245D01*
X12291241Y13357890D01*
X12289882Y13357438D01*
X12286811Y13358048D01*
X12143954Y13358048D01*
X12140882Y13357438D01*
X12139524Y13357890D01*
X12129863Y13355245D01*
X12120036Y13353290D01*
X12119022Y13352277D01*
X12116003Y13351450D01*
X12020765Y13303831D01*
X12010934Y13296201D01*
X12007766Y13295145D01*
X12005027Y13291618D01*
X12001500Y13288879D01*
X12000444Y13285711D01*
X11992814Y13275880D01*
X11945195Y13180642D01*
X11944368Y13177623D01*
X11943355Y13176609D01*
X11941400Y13166782D01*
X11938755Y13157121D01*
X11939207Y13155763D01*
X11938597Y13152691D01*
X11140852Y13152691D01*
X11206328Y13185429D01*
X11334430Y13185429D01*
X11351861Y13188897D01*
X11354453Y13188724D01*
X11355470Y13189615D01*
X11358348Y13190187D01*
X11373905Y13205745D01*
X11390454Y13220224D01*
X11390601Y13222441D01*
X11392172Y13224011D01*
X11392172Y13246002D01*
X11393635Y13267952D01*
X11392172Y13270493D01*
X11392172Y13271847D01*
X11390333Y13273686D01*
X11381466Y13289085D01*
X11138833Y13566381D01*
X11620144Y13566381D01*
X11644062Y13571139D01*
X11677886Y13604963D01*
X11677886Y13652799D01*
X11644062Y13686623D01*
X11620144Y13691381D01*
X11001097Y13691381D01*
X10983665Y13687914D01*
X10981074Y13688086D01*
X10980056Y13687196D01*
X10977179Y13686623D01*
X10961621Y13671066D01*
X10945073Y13656586D01*
X10944925Y13654370D01*
X10943355Y13652799D01*
X10943355Y13630809D01*
X10941892Y13608858D01*
X10943355Y13606318D01*
X10943355Y13604963D01*
X10945193Y13603125D01*
X10954061Y13587724D01*
X11196694Y13310429D01*
X11191573Y13310429D01*
X11188501Y13309819D01*
X11187143Y13310271D01*
X11177482Y13307626D01*
X11167655Y13305671D01*
X11166641Y13304658D01*
X11163622Y13303831D01*
X11068384Y13256212D01*
X11060462Y13250065D01*
X11052141Y13244504D01*
X11004522Y13196885D01*
X10998961Y13188564D01*
X10992814Y13180642D01*
X10945195Y13085404D01*
X10944368Y13082385D01*
X10943355Y13081371D01*
X10941400Y13071544D01*
X10938755Y13061883D01*
X10939207Y13060525D01*
X10938597Y13057453D01*
X10827486Y13057453D01*
X10827486Y13802492D01*
X12603279Y13802492D01*
X12603279Y12455270D01*
G37*
D11*
X3910401Y9627581D02*
X3910401Y8913296D01*
X3910401Y8913296D02*
X3958020Y8770439D01*
X3958020Y8770439D02*
X4053258Y8675200D01*
X4053258Y8675200D02*
X4196115Y8627581D01*
X4196115Y8627581D02*
X4291353Y8627581D01*
X2958020Y8627581D02*
X3434210Y8627581D01*
X3434210Y8627581D02*
X3434210Y9627581D01*
X2053258Y8722820D02*
X2100877Y8675200D01*
X2100877Y8675200D02*
X2243734Y8627581D01*
X2243734Y8627581D02*
X2338972Y8627581D01*
X2338972Y8627581D02*
X2481829Y8675200D01*
X2481829Y8675200D02*
X2577067Y8770439D01*
X2577067Y8770439D02*
X2624686Y8865677D01*
X2624686Y8865677D02*
X2672305Y9056153D01*
X2672305Y9056153D02*
X2672305Y9199010D01*
X2672305Y9199010D02*
X2624686Y9389486D01*
X2624686Y9389486D02*
X2577067Y9484724D01*
X2577067Y9484724D02*
X2481829Y9579962D01*
X2481829Y9579962D02*
X2338972Y9627581D01*
X2338972Y9627581D02*
X2243734Y9627581D01*
X2243734Y9627581D02*
X2100877Y9579962D01*
X2100877Y9579962D02*
X2053258Y9532343D01*
X1338972Y9627581D02*
X1338972Y8913296D01*
X1338972Y8913296D02*
X1386591Y8770439D01*
X1386591Y8770439D02*
X1481829Y8675200D01*
X1481829Y8675200D02*
X1624686Y8627581D01*
X1624686Y8627581D02*
X1719924Y8627581D01*
X386591Y8627581D02*
X862781Y8627581D01*
X862781Y8627581D02*
X862781Y9627581D01*
X-518171Y8722820D02*
X-470552Y8675200D01*
X-470552Y8675200D02*
X-327695Y8627581D01*
X-327695Y8627581D02*
X-232457Y8627581D01*
X-232457Y8627581D02*
X-89600Y8675200D01*
X-89600Y8675200D02*
X5638Y8770439D01*
X5638Y8770439D02*
X53257Y8865677D01*
X53257Y8865677D02*
X100876Y9056153D01*
X100876Y9056153D02*
X100876Y9199010D01*
X100876Y9199010D02*
X53257Y9389486D01*
X53257Y9389486D02*
X5638Y9484724D01*
X5638Y9484724D02*
X-89600Y9579962D01*
X-89600Y9579962D02*
X-232457Y9627581D01*
X-232457Y9627581D02*
X-327695Y9627581D01*
X-327695Y9627581D02*
X-470552Y9579962D01*
X-470552Y9579962D02*
X-518171Y9532343D01*
X-1232457Y9627581D02*
X-1232457Y8913296D01*
X-1232457Y8913296D02*
X-1184838Y8770439D01*
X-1184838Y8770439D02*
X-1089600Y8675200D01*
X-1089600Y8675200D02*
X-946743Y8627581D01*
X-946743Y8627581D02*
X-851505Y8627581D01*
X-2184838Y8627581D02*
X-1708648Y8627581D01*
X-1708648Y8627581D02*
X-1708648Y9627581D01*
X-3089600Y8722820D02*
X-3041981Y8675200D01*
X-3041981Y8675200D02*
X-2899124Y8627581D01*
X-2899124Y8627581D02*
X-2803886Y8627581D01*
X-2803886Y8627581D02*
X-2661029Y8675200D01*
X-2661029Y8675200D02*
X-2565791Y8770439D01*
X-2565791Y8770439D02*
X-2518172Y8865677D01*
X-2518172Y8865677D02*
X-2470553Y9056153D01*
X-2470553Y9056153D02*
X-2470553Y9199010D01*
X-2470553Y9199010D02*
X-2518172Y9389486D01*
X-2518172Y9389486D02*
X-2565791Y9484724D01*
X-2565791Y9484724D02*
X-2661029Y9579962D01*
X-2661029Y9579962D02*
X-2803886Y9627581D01*
X-2803886Y9627581D02*
X-2899124Y9627581D01*
X-2899124Y9627581D02*
X-3041981Y9579962D01*
X-3041981Y9579962D02*
X-3089600Y9532343D01*
X-3803886Y9627581D02*
X-3803886Y8913296D01*
X-3803886Y8913296D02*
X-3756267Y8770439D01*
X-3756267Y8770439D02*
X-3661029Y8675200D01*
X-3661029Y8675200D02*
X-3518172Y8627581D01*
X-3518172Y8627581D02*
X-3422934Y8627581D01*
X-4756267Y8627581D02*
X-4280077Y8627581D01*
X-4280077Y8627581D02*
X-4280077Y9627581D01*
X-5661029Y8722820D02*
X-5613410Y8675200D01*
X-5613410Y8675200D02*
X-5470553Y8627581D01*
X-5470553Y8627581D02*
X-5375315Y8627581D01*
X-5375315Y8627581D02*
X-5232458Y8675200D01*
X-5232458Y8675200D02*
X-5137220Y8770439D01*
X-5137220Y8770439D02*
X-5089601Y8865677D01*
X-5089601Y8865677D02*
X-5041982Y9056153D01*
X-5041982Y9056153D02*
X-5041982Y9199010D01*
X-5041982Y9199010D02*
X-5089601Y9389486D01*
X-5089601Y9389486D02*
X-5137220Y9484724D01*
X-5137220Y9484724D02*
X-5232458Y9579962D01*
X-5232458Y9579962D02*
X-5375315Y9627581D01*
X-5375315Y9627581D02*
X-5470553Y9627581D01*
X-5470553Y9627581D02*
X-5613410Y9579962D01*
X-5613410Y9579962D02*
X-5661029Y9532343D01*
G36*
X-11842202Y-6580000D02*
G01*
X-12202216Y-6580000D01*
X-12277268Y-6574582D01*
X-12340587Y-6559328D01*
X-12394160Y-6535223D01*
X-12439559Y-6502513D01*
X-12477075Y-6460944D01*
X-12504028Y-6412519D01*
X-12520790Y-6355881D01*
X-12526693Y-6289106D01*
X-12526159Y-6283977D01*
X-12392115Y-6283977D01*
X-12385799Y-6343028D01*
X-12368491Y-6388122D01*
X-12341170Y-6422576D01*
X-12302775Y-6448220D01*
X-12250395Y-6465082D01*
X-12179685Y-6471372D01*
X-11969941Y-6471372D01*
X-11969941Y-6110259D01*
X-12170770Y-6110259D01*
X-12246246Y-6116413D01*
X-12301405Y-6132753D01*
X-12341088Y-6157208D01*
X-12368727Y-6189396D01*
X-12385915Y-6230694D01*
X-12392115Y-6283977D01*
X-12526159Y-6283977D01*
X-12520210Y-6226878D01*
X-12501980Y-6176145D01*
X-12472611Y-6134404D01*
X-12431056Y-6100172D01*
X-12374754Y-6073189D01*
X-12299913Y-6054450D01*
X-12299913Y-6047611D01*
X-12358347Y-6033774D01*
X-12406074Y-6010288D01*
X-12445055Y-5977330D01*
X-12474590Y-5935936D01*
X-12492496Y-5888107D01*
X-12497784Y-5840493D01*
X-12368240Y-5840493D01*
X-12362038Y-5895814D01*
X-12345373Y-5935744D01*
X-12319392Y-5964263D01*
X-12284603Y-5983435D01*
X-12234488Y-5996590D01*
X-12163992Y-6001632D01*
X-11969941Y-6001632D01*
X-11969941Y-5688208D01*
X-12150315Y-5688208D01*
X-12225724Y-5693029D01*
X-12279146Y-5705544D01*
X-12315972Y-5723562D01*
X-12344140Y-5751018D01*
X-12361768Y-5788805D01*
X-12368240Y-5840493D01*
X-12497784Y-5840493D01*
X-12498727Y-5832006D01*
X-12492737Y-5766319D01*
X-12476161Y-5714026D01*
X-12450117Y-5672319D01*
X-12414341Y-5639298D01*
X-12371819Y-5615731D01*
X-12314891Y-5596977D01*
X-12239950Y-5584305D01*
X-12142804Y-5579581D01*
X-11842202Y-5579581D01*
X-11842202Y-6580000D01*
G37*
G36*
X-12935610Y-5570161D02*
G01*
X-12871313Y-5587749D01*
X-12816388Y-5615871D01*
X-12769276Y-5654694D01*
X-12729099Y-5705376D01*
X-12695743Y-5769966D01*
X-12669864Y-5851260D01*
X-12652827Y-5952662D01*
X-12646616Y-6078080D01*
X-12652833Y-6204605D01*
X-12669879Y-6306835D01*
X-12695757Y-6388721D01*
X-12729081Y-6453711D01*
X-12769175Y-6504644D01*
X-12816131Y-6543608D01*
X-12870808Y-6571799D01*
X-12934748Y-6589414D01*
X-13010049Y-6595631D01*
X-13078502Y-6589914D01*
X-13138213Y-6573518D01*
X-13190754Y-6546962D01*
X-13237286Y-6509931D01*
X-13278472Y-6461297D01*
X-13310041Y-6407877D01*
X-13335910Y-6344638D01*
X-13355583Y-6270040D01*
X-13368237Y-6182297D01*
X-13372750Y-6079424D01*
X-13372733Y-6079118D01*
X-13238172Y-6079118D01*
X-13233839Y-6186186D01*
X-13222155Y-6270114D01*
X-13204830Y-6334925D01*
X-13183156Y-6384178D01*
X-13151354Y-6428063D01*
X-13112874Y-6458461D01*
X-13066542Y-6477035D01*
X-13010049Y-6483585D01*
X-12960158Y-6478171D01*
X-12917777Y-6462657D01*
X-12881214Y-6437129D01*
X-12849507Y-6400347D01*
X-12822547Y-6349897D01*
X-12801075Y-6282405D01*
X-12786584Y-6193736D01*
X-12781194Y-6079118D01*
X-12786595Y-5965080D01*
X-12801121Y-5876802D01*
X-12822659Y-5809551D01*
X-12849724Y-5759225D01*
X-12881591Y-5722486D01*
X-12918384Y-5696954D01*
X-12961084Y-5681420D01*
X-13011393Y-5675996D01*
X-13066571Y-5682394D01*
X-13112213Y-5700600D01*
X-13150481Y-5730484D01*
X-13182485Y-5773693D01*
X-13204338Y-5822135D01*
X-13221876Y-5886575D01*
X-13233752Y-5970803D01*
X-13238172Y-6079118D01*
X-13372733Y-6079118D01*
X-13365852Y-5953224D01*
X-13346818Y-5849996D01*
X-13317628Y-5765986D01*
X-13279510Y-5697978D01*
X-13238750Y-5649533D01*
X-13192486Y-5612603D01*
X-13140037Y-5586081D01*
X-13080210Y-5569678D01*
X-13011393Y-5563949D01*
X-12935610Y-5570161D01*
G37*
G36*
X-13774829Y-5570161D02*
G01*
X-13710531Y-5587749D01*
X-13655607Y-5615871D01*
X-13608495Y-5654694D01*
X-13568318Y-5705376D01*
X-13534962Y-5769966D01*
X-13509082Y-5851260D01*
X-13492045Y-5952662D01*
X-13485834Y-6078080D01*
X-13492051Y-6204605D01*
X-13509098Y-6306835D01*
X-13534975Y-6388721D01*
X-13568299Y-6453711D01*
X-13608393Y-6504644D01*
X-13655350Y-6543608D01*
X-13710026Y-6571799D01*
X-13773966Y-6589414D01*
X-13849268Y-6595631D01*
X-13917721Y-6589914D01*
X-13977432Y-6573518D01*
X-14029972Y-6546962D01*
X-14076504Y-6509931D01*
X-14117691Y-6461297D01*
X-14149260Y-6407877D01*
X-14175128Y-6344638D01*
X-14194802Y-6270040D01*
X-14207456Y-6182297D01*
X-14211968Y-6079424D01*
X-14211951Y-6079118D01*
X-14077391Y-6079118D01*
X-14073057Y-6186186D01*
X-14061374Y-6270114D01*
X-14044049Y-6334925D01*
X-14022375Y-6384178D01*
X-13990572Y-6428063D01*
X-13952092Y-6458461D01*
X-13905760Y-6477035D01*
X-13849268Y-6483585D01*
X-13799376Y-6478171D01*
X-13756995Y-6462657D01*
X-13720432Y-6437129D01*
X-13688726Y-6400347D01*
X-13661765Y-6349897D01*
X-13640293Y-6282405D01*
X-13625802Y-6193736D01*
X-13620412Y-6079118D01*
X-13625813Y-5965080D01*
X-13640339Y-5876802D01*
X-13661877Y-5809551D01*
X-13688943Y-5759225D01*
X-13720809Y-5722486D01*
X-13757603Y-5696954D01*
X-13800302Y-5681420D01*
X-13850611Y-5675996D01*
X-13905790Y-5682394D01*
X-13951432Y-5700600D01*
X-13989700Y-5730484D01*
X-14021703Y-5773693D01*
X-14043557Y-5822135D01*
X-14061095Y-5886575D01*
X-14072970Y-5970803D01*
X-14077391Y-6079118D01*
X-14211951Y-6079118D01*
X-14205071Y-5953224D01*
X-14186036Y-5849996D01*
X-14156847Y-5765986D01*
X-14118729Y-5697978D01*
X-14077968Y-5649533D01*
X-14031704Y-5612603D01*
X-13979256Y-5586081D01*
X-13919429Y-5569678D01*
X-13850611Y-5563949D01*
X-13774829Y-5570161D01*
G37*
G36*
X-14750646Y-6580000D02*
G01*
X-14622907Y-6580000D01*
X-14622907Y-5691627D01*
X-14337326Y-5691627D01*
X-14337326Y-5579581D01*
X-15035494Y-5579581D01*
X-15035494Y-5691627D01*
X-14750646Y-5691627D01*
X-14750646Y-6580000D01*
G37*
D12*
X11059580Y5966667D02*
X11107200Y6014286D01*
X11107200Y6014286D02*
X11154819Y6157143D01*
X11154819Y6157143D02*
X11154819Y6252381D01*
X11154819Y6252381D02*
X11107200Y6395238D01*
X11107200Y6395238D02*
X11011961Y6490476D01*
X11011961Y6490476D02*
X10916723Y6538095D01*
X10916723Y6538095D02*
X10726247Y6585714D01*
X10726247Y6585714D02*
X10583390Y6585714D01*
X10583390Y6585714D02*
X10392914Y6538095D01*
X10392914Y6538095D02*
X10297676Y6490476D01*
X10297676Y6490476D02*
X10202438Y6395238D01*
X10202438Y6395238D02*
X10154819Y6252381D01*
X10154819Y6252381D02*
X10154819Y6157143D01*
X10154819Y6157143D02*
X10202438Y6014286D01*
X10202438Y6014286D02*
X10250057Y5966667D01*
X11154819Y5014286D02*
X11154819Y5585714D01*
X11154819Y5300000D02*
X10154819Y5300000D01*
X10154819Y5300000D02*
X10297676Y5395238D01*
X10297676Y5395238D02*
X10392914Y5490476D01*
X10392914Y5490476D02*
X10440533Y5585714D01*
X-9645181Y3038095D02*
X-10645181Y3038095D01*
X-10645181Y3038095D02*
X-10645181Y2800000D01*
X-10645181Y2800000D02*
X-10597562Y2657143D01*
X-10597562Y2657143D02*
X-10502324Y2561905D01*
X-10502324Y2561905D02*
X-10407086Y2514286D01*
X-10407086Y2514286D02*
X-10216610Y2466667D01*
X-10216610Y2466667D02*
X-10073753Y2466667D01*
X-10073753Y2466667D02*
X-9883277Y2514286D01*
X-9883277Y2514286D02*
X-9788039Y2561905D01*
X-9788039Y2561905D02*
X-9692800Y2657143D01*
X-9692800Y2657143D02*
X-9645181Y2800000D01*
X-9645181Y2800000D02*
X-9645181Y3038095D01*
X-9645181Y1514286D02*
X-9645181Y2085714D01*
X-9645181Y1800000D02*
X-10645181Y1800000D01*
X-10645181Y1800000D02*
X-10502324Y1895238D01*
X-10502324Y1895238D02*
X-10407086Y1990476D01*
X-10407086Y1990476D02*
X-10359467Y2085714D01*
X-12345181Y5866667D02*
X-12821372Y6200000D01*
X-12345181Y6438095D02*
X-13345181Y6438095D01*
X-13345181Y6438095D02*
X-13345181Y6057143D01*
X-13345181Y6057143D02*
X-13297562Y5961905D01*
X-13297562Y5961905D02*
X-13249943Y5914286D01*
X-13249943Y5914286D02*
X-13154705Y5866667D01*
X-13154705Y5866667D02*
X-13011848Y5866667D01*
X-13011848Y5866667D02*
X-12916610Y5914286D01*
X-12916610Y5914286D02*
X-12868991Y5961905D01*
X-12868991Y5961905D02*
X-12821372Y6057143D01*
X-12821372Y6057143D02*
X-12821372Y6438095D01*
X-12345181Y5390476D02*
X-12345181Y5200000D01*
X-12345181Y5200000D02*
X-12392800Y5104762D01*
X-12392800Y5104762D02*
X-12440420Y5057143D01*
X-12440420Y5057143D02*
X-12583277Y4961905D01*
X-12583277Y4961905D02*
X-12773753Y4914286D01*
X-12773753Y4914286D02*
X-13154705Y4914286D01*
X-13154705Y4914286D02*
X-13249943Y4961905D01*
X-13249943Y4961905D02*
X-13297562Y5009524D01*
X-13297562Y5009524D02*
X-13345181Y5104762D01*
X-13345181Y5104762D02*
X-13345181Y5295238D01*
X-13345181Y5295238D02*
X-13297562Y5390476D01*
X-13297562Y5390476D02*
X-13249943Y5438095D01*
X-13249943Y5438095D02*
X-13154705Y5485714D01*
X-13154705Y5485714D02*
X-12916610Y5485714D01*
X-12916610Y5485714D02*
X-12821372Y5438095D01*
X-12821372Y5438095D02*
X-12773753Y5390476D01*
X-12773753Y5390476D02*
X-12726134Y5295238D01*
X-12726134Y5295238D02*
X-12726134Y5104762D01*
X-12726134Y5104762D02*
X-12773753Y5009524D01*
X-12773753Y5009524D02*
X-12821372Y4961905D01*
X-12821372Y4961905D02*
X-12916610Y4914286D01*
X10954819Y-10189523D02*
X10478628Y-9856190D01*
X10954819Y-9618095D02*
X9954819Y-9618095D01*
X9954819Y-9618095D02*
X9954819Y-9999047D01*
X9954819Y-9999047D02*
X10002438Y-10094285D01*
X10002438Y-10094285D02*
X10050057Y-10141904D01*
X10050057Y-10141904D02*
X10145295Y-10189523D01*
X10145295Y-10189523D02*
X10288152Y-10189523D01*
X10288152Y-10189523D02*
X10383390Y-10141904D01*
X10383390Y-10141904D02*
X10431009Y-10094285D01*
X10431009Y-10094285D02*
X10478628Y-9999047D01*
X10478628Y-9999047D02*
X10478628Y-9618095D01*
X9954819Y-11046666D02*
X9954819Y-10856190D01*
X9954819Y-10856190D02*
X10002438Y-10760952D01*
X10002438Y-10760952D02*
X10050057Y-10713333D01*
X10050057Y-10713333D02*
X10192914Y-10618095D01*
X10192914Y-10618095D02*
X10383390Y-10570476D01*
X10383390Y-10570476D02*
X10764342Y-10570476D01*
X10764342Y-10570476D02*
X10859580Y-10618095D01*
X10859580Y-10618095D02*
X10907200Y-10665714D01*
X10907200Y-10665714D02*
X10954819Y-10760952D01*
X10954819Y-10760952D02*
X10954819Y-10951428D01*
X10954819Y-10951428D02*
X10907200Y-11046666D01*
X10907200Y-11046666D02*
X10859580Y-11094285D01*
X10859580Y-11094285D02*
X10764342Y-11141904D01*
X10764342Y-11141904D02*
X10526247Y-11141904D01*
X10526247Y-11141904D02*
X10431009Y-11094285D01*
X10431009Y-11094285D02*
X10383390Y-11046666D01*
X10383390Y-11046666D02*
X10335771Y-10951428D01*
X10335771Y-10951428D02*
X10335771Y-10760952D01*
X10335771Y-10760952D02*
X10383390Y-10665714D01*
X10383390Y-10665714D02*
X10431009Y-10618095D01*
X10431009Y-10618095D02*
X10526247Y-10570476D01*
X-15345181Y6342858D02*
X-15821372Y6676191D01*
X-15345181Y6914286D02*
X-16345181Y6914286D01*
X-16345181Y6914286D02*
X-16345181Y6533334D01*
X-16345181Y6533334D02*
X-16297562Y6438096D01*
X-16297562Y6438096D02*
X-16249943Y6390477D01*
X-16249943Y6390477D02*
X-16154705Y6342858D01*
X-16154705Y6342858D02*
X-16011848Y6342858D01*
X-16011848Y6342858D02*
X-15916610Y6390477D01*
X-15916610Y6390477D02*
X-15868991Y6438096D01*
X-15868991Y6438096D02*
X-15821372Y6533334D01*
X-15821372Y6533334D02*
X-15821372Y6914286D01*
X-15345181Y5390477D02*
X-15345181Y5961905D01*
X-15345181Y5676191D02*
X-16345181Y5676191D01*
X-16345181Y5676191D02*
X-16202324Y5771429D01*
X-16202324Y5771429D02*
X-16107086Y5866667D01*
X-16107086Y5866667D02*
X-16059467Y5961905D01*
X-16345181Y4771429D02*
X-16345181Y4676191D01*
X-16345181Y4676191D02*
X-16297562Y4580953D01*
X-16297562Y4580953D02*
X-16249943Y4533334D01*
X-16249943Y4533334D02*
X-16154705Y4485715D01*
X-16154705Y4485715D02*
X-15964229Y4438096D01*
X-15964229Y4438096D02*
X-15726134Y4438096D01*
X-15726134Y4438096D02*
X-15535658Y4485715D01*
X-15535658Y4485715D02*
X-15440420Y4533334D01*
X-15440420Y4533334D02*
X-15392800Y4580953D01*
X-15392800Y4580953D02*
X-15345181Y4676191D01*
X-15345181Y4676191D02*
X-15345181Y4771429D01*
X-15345181Y4771429D02*
X-15392800Y4866667D01*
X-15392800Y4866667D02*
X-15440420Y4914286D01*
X-15440420Y4914286D02*
X-15535658Y4961905D01*
X-15535658Y4961905D02*
X-15726134Y5009524D01*
X-15726134Y5009524D02*
X-15964229Y5009524D01*
X-15964229Y5009524D02*
X-16154705Y4961905D01*
X-16154705Y4961905D02*
X-16249943Y4914286D01*
X-16249943Y4914286D02*
X-16297562Y4866667D01*
X-16297562Y4866667D02*
X-16345181Y4771429D01*
X-16245181Y2833334D02*
X-15530896Y2833334D01*
X-15530896Y2833334D02*
X-15388039Y2880953D01*
X-15388039Y2880953D02*
X-15292800Y2976191D01*
X-15292800Y2976191D02*
X-15245181Y3119048D01*
X-15245181Y3119048D02*
X-15245181Y3214286D01*
X-15245181Y2357143D02*
X-16245181Y2357143D01*
X-16245181Y2357143D02*
X-16245181Y1976191D01*
X-16245181Y1976191D02*
X-16197562Y1880953D01*
X-16197562Y1880953D02*
X-16149943Y1833334D01*
X-16149943Y1833334D02*
X-16054705Y1785715D01*
X-16054705Y1785715D02*
X-15911848Y1785715D01*
X-15911848Y1785715D02*
X-15816610Y1833334D01*
X-15816610Y1833334D02*
X-15768991Y1880953D01*
X-15768991Y1880953D02*
X-15721372Y1976191D01*
X-15721372Y1976191D02*
X-15721372Y2357143D01*
X-15911848Y928572D02*
X-15245181Y928572D01*
X-16292800Y1166667D02*
X-15578515Y1404762D01*
X-15578515Y1404762D02*
X-15578515Y785715D01*
X-9745181Y-433333D02*
X-10221372Y-100000D01*
X-9745181Y138095D02*
X-10745181Y138095D01*
X-10745181Y138095D02*
X-10745181Y-242857D01*
X-10745181Y-242857D02*
X-10697562Y-338095D01*
X-10697562Y-338095D02*
X-10649943Y-385714D01*
X-10649943Y-385714D02*
X-10554705Y-433333D01*
X-10554705Y-433333D02*
X-10411848Y-433333D01*
X-10411848Y-433333D02*
X-10316610Y-385714D01*
X-10316610Y-385714D02*
X-10268991Y-338095D01*
X-10268991Y-338095D02*
X-10221372Y-242857D01*
X-10221372Y-242857D02*
X-10221372Y138095D01*
X-10745181Y-766667D02*
X-10745181Y-1385714D01*
X-10745181Y-1385714D02*
X-10364229Y-1052381D01*
X-10364229Y-1052381D02*
X-10364229Y-1195238D01*
X-10364229Y-1195238D02*
X-10316610Y-1290476D01*
X-10316610Y-1290476D02*
X-10268991Y-1338095D01*
X-10268991Y-1338095D02*
X-10173753Y-1385714D01*
X-10173753Y-1385714D02*
X-9935658Y-1385714D01*
X-9935658Y-1385714D02*
X-9840420Y-1338095D01*
X-9840420Y-1338095D02*
X-9792800Y-1290476D01*
X-9792800Y-1290476D02*
X-9745181Y-1195238D01*
X-9745181Y-1195238D02*
X-9745181Y-909524D01*
X-9745181Y-909524D02*
X-9792800Y-814286D01*
X-9792800Y-814286D02*
X-9840420Y-766667D01*
X2033333Y-10754819D02*
X2033333Y-11469104D01*
X2033333Y-11469104D02*
X2080952Y-11611961D01*
X2080952Y-11611961D02*
X2176190Y-11707200D01*
X2176190Y-11707200D02*
X2319047Y-11754819D01*
X2319047Y-11754819D02*
X2414285Y-11754819D01*
X1652380Y-10754819D02*
X1033333Y-10754819D01*
X1033333Y-10754819D02*
X1366666Y-11135771D01*
X1366666Y-11135771D02*
X1223809Y-11135771D01*
X1223809Y-11135771D02*
X1128571Y-11183390D01*
X1128571Y-11183390D02*
X1080952Y-11231009D01*
X1080952Y-11231009D02*
X1033333Y-11326247D01*
X1033333Y-11326247D02*
X1033333Y-11564342D01*
X1033333Y-11564342D02*
X1080952Y-11659580D01*
X1080952Y-11659580D02*
X1128571Y-11707200D01*
X1128571Y-11707200D02*
X1223809Y-11754819D01*
X1223809Y-11754819D02*
X1509523Y-11754819D01*
X1509523Y-11754819D02*
X1604761Y-11707200D01*
X1604761Y-11707200D02*
X1652380Y-11659580D01*
X14966666Y1745181D02*
X15299999Y2221372D01*
X15538094Y1745181D02*
X15538094Y2745181D01*
X15538094Y2745181D02*
X15157142Y2745181D01*
X15157142Y2745181D02*
X15061904Y2697562D01*
X15061904Y2697562D02*
X15014285Y2649943D01*
X15014285Y2649943D02*
X14966666Y2554705D01*
X14966666Y2554705D02*
X14966666Y2411848D01*
X14966666Y2411848D02*
X15014285Y2316610D01*
X15014285Y2316610D02*
X15061904Y2268991D01*
X15061904Y2268991D02*
X15157142Y2221372D01*
X15157142Y2221372D02*
X15538094Y2221372D01*
X14585713Y2649943D02*
X14538094Y2697562D01*
X14538094Y2697562D02*
X14442856Y2745181D01*
X14442856Y2745181D02*
X14204761Y2745181D01*
X14204761Y2745181D02*
X14109523Y2697562D01*
X14109523Y2697562D02*
X14061904Y2649943D01*
X14061904Y2649943D02*
X14014285Y2554705D01*
X14014285Y2554705D02*
X14014285Y2459467D01*
X14014285Y2459467D02*
X14061904Y2316610D01*
X14061904Y2316610D02*
X14633332Y1745181D01*
X14633332Y1745181D02*
X14014285Y1745181D01*
X5943395Y-11307107D02*
X6650501Y-10600000D01*
X6650501Y-10600000D02*
X6482143Y-10431641D01*
X6482143Y-10431641D02*
X6347456Y-10364298D01*
X6347456Y-10364298D02*
X6212769Y-10364298D01*
X6212769Y-10364298D02*
X6111753Y-10397970D01*
X6111753Y-10397970D02*
X5943395Y-10498985D01*
X5943395Y-10498985D02*
X5842379Y-10600000D01*
X5842379Y-10600000D02*
X5741364Y-10768359D01*
X5741364Y-10768359D02*
X5707692Y-10869374D01*
X5707692Y-10869374D02*
X5707692Y-11004061D01*
X5707692Y-11004061D02*
X5775036Y-11138748D01*
X5775036Y-11138748D02*
X5943395Y-11307107D01*
X6010738Y-9960237D02*
X5573005Y-9522504D01*
X5573005Y-9522504D02*
X5539334Y-10027580D01*
X5539334Y-10027580D02*
X5438318Y-9926565D01*
X5438318Y-9926565D02*
X5337303Y-9892893D01*
X5337303Y-9892893D02*
X5269960Y-9892893D01*
X5269960Y-9892893D02*
X5168944Y-9926565D01*
X5168944Y-9926565D02*
X5000586Y-10094924D01*
X5000586Y-10094924D02*
X4966914Y-10195939D01*
X4966914Y-10195939D02*
X4966914Y-10263283D01*
X4966914Y-10263283D02*
X5000586Y-10364298D01*
X5000586Y-10364298D02*
X5202616Y-10566328D01*
X5202616Y-10566328D02*
X5303631Y-10600000D01*
X5303631Y-10600000D02*
X5370975Y-10600000D01*
X7992531Y-17066476D02*
X8699637Y-16359369D01*
X8699637Y-16359369D02*
X8531279Y-16191010D01*
X8531279Y-16191010D02*
X8396592Y-16123667D01*
X8396592Y-16123667D02*
X8261905Y-16123667D01*
X8261905Y-16123667D02*
X8160889Y-16157339D01*
X8160889Y-16157339D02*
X7992531Y-16258354D01*
X7992531Y-16258354D02*
X7891515Y-16359369D01*
X7891515Y-16359369D02*
X7790500Y-16527728D01*
X7790500Y-16527728D02*
X7756828Y-16628743D01*
X7756828Y-16628743D02*
X7756828Y-16763430D01*
X7756828Y-16763430D02*
X7824172Y-16898117D01*
X7824172Y-16898117D02*
X7992531Y-17066476D01*
X7453783Y-15584919D02*
X6982378Y-16056323D01*
X7891515Y-15483904D02*
X7554798Y-16157339D01*
X7554798Y-16157339D02*
X7117065Y-15719606D01*
X13154819Y5966667D02*
X12678628Y6300000D01*
X13154819Y6538095D02*
X12154819Y6538095D01*
X12154819Y6538095D02*
X12154819Y6157143D01*
X12154819Y6157143D02*
X12202438Y6061905D01*
X12202438Y6061905D02*
X12250057Y6014286D01*
X12250057Y6014286D02*
X12345295Y5966667D01*
X12345295Y5966667D02*
X12488152Y5966667D01*
X12488152Y5966667D02*
X12583390Y6014286D01*
X12583390Y6014286D02*
X12631009Y6061905D01*
X12631009Y6061905D02*
X12678628Y6157143D01*
X12678628Y6157143D02*
X12678628Y6538095D01*
X13154819Y5014286D02*
X13154819Y5585714D01*
X13154819Y5300000D02*
X12154819Y5300000D01*
X12154819Y5300000D02*
X12297676Y5395238D01*
X12297676Y5395238D02*
X12392914Y5490476D01*
X12392914Y5490476D02*
X12440533Y5585714D01*
X-838096Y-9054819D02*
X-838096Y-9864342D01*
X-838096Y-9864342D02*
X-885715Y-9959580D01*
X-885715Y-9959580D02*
X-933334Y-10007200D01*
X-933334Y-10007200D02*
X-1028572Y-10054819D01*
X-1028572Y-10054819D02*
X-1219048Y-10054819D01*
X-1219048Y-10054819D02*
X-1314286Y-10007200D01*
X-1314286Y-10007200D02*
X-1361905Y-9959580D01*
X-1361905Y-9959580D02*
X-1409524Y-9864342D01*
X-1409524Y-9864342D02*
X-1409524Y-9054819D01*
X-2409524Y-10054819D02*
X-1838096Y-10054819D01*
X-2123810Y-10054819D02*
X-2123810Y-9054819D01*
X-2123810Y-9054819D02*
X-2028572Y-9197676D01*
X-2028572Y-9197676D02*
X-1933334Y-9292914D01*
X-1933334Y-9292914D02*
X-1838096Y-9340533D01*
X12454819Y-3477142D02*
X11978628Y-3143809D01*
X12454819Y-2905714D02*
X11454819Y-2905714D01*
X11454819Y-2905714D02*
X11454819Y-3286666D01*
X11454819Y-3286666D02*
X11502438Y-3381904D01*
X11502438Y-3381904D02*
X11550057Y-3429523D01*
X11550057Y-3429523D02*
X11645295Y-3477142D01*
X11645295Y-3477142D02*
X11788152Y-3477142D01*
X11788152Y-3477142D02*
X11883390Y-3429523D01*
X11883390Y-3429523D02*
X11931009Y-3381904D01*
X11931009Y-3381904D02*
X11978628Y-3286666D01*
X11978628Y-3286666D02*
X11978628Y-2905714D01*
X11454819Y-4381904D02*
X11454819Y-3905714D01*
X11454819Y-3905714D02*
X11931009Y-3858095D01*
X11931009Y-3858095D02*
X11883390Y-3905714D01*
X11883390Y-3905714D02*
X11835771Y-4000952D01*
X11835771Y-4000952D02*
X11835771Y-4239047D01*
X11835771Y-4239047D02*
X11883390Y-4334285D01*
X11883390Y-4334285D02*
X11931009Y-4381904D01*
X11931009Y-4381904D02*
X12026247Y-4429523D01*
X12026247Y-4429523D02*
X12264342Y-4429523D01*
X12264342Y-4429523D02*
X12359580Y-4381904D01*
X12359580Y-4381904D02*
X12407200Y-4334285D01*
X12407200Y-4334285D02*
X12454819Y-4239047D01*
X12454819Y-4239047D02*
X12454819Y-4000952D01*
X12454819Y-4000952D02*
X12407200Y-3905714D01*
X12407200Y-3905714D02*
X12359580Y-3858095D01*
X-15604762Y8349943D02*
X-15509524Y8397562D01*
X-15509524Y8397562D02*
X-15414286Y8492800D01*
X-15414286Y8492800D02*
X-15271429Y8635658D01*
X-15271429Y8635658D02*
X-15176191Y8683277D01*
X-15176191Y8683277D02*
X-15080953Y8683277D01*
X-15128572Y8445181D02*
X-15033334Y8492800D01*
X-15033334Y8492800D02*
X-14938096Y8588039D01*
X-14938096Y8588039D02*
X-14890477Y8778515D01*
X-14890477Y8778515D02*
X-14890477Y9111848D01*
X-14890477Y9111848D02*
X-14938096Y9302324D01*
X-14938096Y9302324D02*
X-15033334Y9397562D01*
X-15033334Y9397562D02*
X-15128572Y9445181D01*
X-15128572Y9445181D02*
X-15319048Y9445181D01*
X-15319048Y9445181D02*
X-15414286Y9397562D01*
X-15414286Y9397562D02*
X-15509524Y9302324D01*
X-15509524Y9302324D02*
X-15557143Y9111848D01*
X-15557143Y9111848D02*
X-15557143Y8778515D01*
X-15557143Y8778515D02*
X-15509524Y8588039D01*
X-15509524Y8588039D02*
X-15414286Y8492800D01*
X-15414286Y8492800D02*
X-15319048Y8445181D01*
X-15319048Y8445181D02*
X-15128572Y8445181D01*
X-16509524Y8445181D02*
X-15938096Y8445181D01*
X-16223810Y8445181D02*
X-16223810Y9445181D01*
X-16223810Y9445181D02*
X-16128572Y9302324D01*
X-16128572Y9302324D02*
X-16033334Y9207086D01*
X-16033334Y9207086D02*
X-15938096Y9159467D01*
X12366666Y-1458069D02*
X12699999Y-981878D01*
X12938094Y-1458069D02*
X12938094Y-458069D01*
X12938094Y-458069D02*
X12557142Y-458069D01*
X12557142Y-458069D02*
X12461904Y-505688D01*
X12461904Y-505688D02*
X12414285Y-553307D01*
X12414285Y-553307D02*
X12366666Y-648545D01*
X12366666Y-648545D02*
X12366666Y-791402D01*
X12366666Y-791402D02*
X12414285Y-886640D01*
X12414285Y-886640D02*
X12461904Y-934259D01*
X12461904Y-934259D02*
X12557142Y-981878D01*
X12557142Y-981878D02*
X12938094Y-981878D01*
X11509523Y-791402D02*
X11509523Y-1458069D01*
X11747618Y-410450D02*
X11985713Y-1124735D01*
X11985713Y-1124735D02*
X11366666Y-1124735D01*
D13*
%TO.C,C1*%
X9861885Y8542980D02*
X9861885Y8261820D01*
X10881885Y8542980D02*
X10881885Y8261820D01*
%TO.C,D1*%
X-12235000Y1015000D02*
X-12235000Y3300000D01*
X-10765000Y3300000D02*
X-10765000Y1015000D01*
X-10765000Y1015000D02*
X-12235000Y1015000D01*
%TO.C,R9*%
X-11960000Y5937258D02*
X-11960000Y5462742D01*
X-10915000Y5937258D02*
X-10915000Y5462742D01*
%TO.C,R6*%
X9977500Y-7512742D02*
X9977500Y-7987258D01*
X11022500Y-7512742D02*
X11022500Y-7987258D01*
%TO.C,R10*%
X-14710000Y5937258D02*
X-14710000Y5462742D01*
X-13665000Y5937258D02*
X-13665000Y5462742D01*
%TO.C,JP4*%
X-14700000Y2900000D02*
X-14700000Y1500000D01*
X-14000001Y800000D02*
X-13399999Y800000D01*
X-13399999Y3600000D02*
X-14000001Y3600000D01*
X-12700000Y1500000D02*
X-12700000Y2900000D01*
X-14700000Y2900000D02*
G75*
G02*
X-14000001Y3600000I699999J1D01*
G01*
X-14000001Y800000D02*
G75*
G02*
X-14700000Y1500000I1J700000D01*
G01*
X-13399999Y3600000D02*
G75*
G02*
X-12700000Y2900000I0J-699999D01*
G01*
X-12700000Y1500000D02*
G75*
G02*
X-13399999Y800000I-700000J0D01*
G01*
%TO.C,R3*%
X-12022500Y-262742D02*
X-12022500Y-737258D01*
X-10977500Y-262742D02*
X-10977500Y-737258D01*
D14*
%TO.C,J3*%
X-4471019Y-16577566D02*
X-4471019Y-14713939D01*
X-4471019Y-20295600D02*
X-4471019Y-18813939D01*
X-4471019Y-20295600D02*
X4468987Y-20295600D01*
X4468987Y-16577211D02*
X4468987Y-14714295D01*
X4468987Y-20295600D02*
X4468987Y-18814295D01*
D15*
X4504953Y-12445461D02*
G75*
G02*
X4445009Y-12445461I-29972J0D01*
G01*
X4445009Y-12445461D02*
G75*
G02*
X4504953Y-12445461I29972J0D01*
G01*
D16*
%TO.C,SW1*%
X-15276213Y-2208801D02*
X-11223787Y-2208801D01*
X-15276213Y-5291199D02*
X-11223787Y-5291199D01*
X-11223787Y-2208801D02*
X-11223787Y-2866789D01*
X-11223787Y-5291199D02*
X-11223787Y-4633211D01*
D15*
X-15720155Y-2284925D02*
G75*
G02*
X-15780099Y-2284925I-29972J0D01*
G01*
X-15780099Y-2284925D02*
G75*
G02*
X-15720155Y-2284925I29972J0D01*
G01*
D14*
X-12349975Y-3749975D02*
G75*
G02*
X-14149975Y-3749975I-900000J0D01*
G01*
X-14149975Y-3749975D02*
G75*
G02*
X-12349975Y-3749975I900000J0D01*
G01*
D13*
%TO.C,R2*%
X11962742Y2622500D02*
X12437258Y2622500D01*
X11962742Y1577500D02*
X12437258Y1577500D01*
%TO.C,D3*%
X5700952Y-12467739D02*
X6266638Y-11902053D01*
X6662618Y-13429404D02*
X5700952Y-12467739D01*
X7228303Y-12863719D02*
X6266638Y-11902053D01*
%TO.C,D4*%
X7057012Y-13822831D02*
X8018677Y-14784497D01*
X7622697Y-13257146D02*
X8584363Y-14218811D01*
X8584363Y-14218811D02*
X8018677Y-14784497D01*
%TO.C,R1*%
X11346700Y8165142D02*
X11346700Y8639658D01*
X12391700Y8165142D02*
X12391700Y8639658D01*
D14*
%TO.C,U1*%
X-9017018Y10450268D02*
X-9017018Y17257126D01*
X-9017018Y-8269925D02*
X-9017018Y-7422071D01*
X-9000025Y17269140D02*
X9000025Y17269140D01*
X-7666167Y-8269925D02*
X-9017018Y-8269925D01*
X-7297181Y16114124D02*
X-5061976Y16114124D01*
X-7297181Y11229516D02*
X-7297181Y16114124D01*
X-5265177Y16114124D02*
X-2413005Y16114124D01*
X-5265177Y11229516D02*
X-5265177Y16114124D01*
X-2413005Y16114124D02*
X-2413005Y13955119D01*
X-2413005Y13955119D02*
X127000Y13955119D01*
X127000Y16114124D02*
X2667005Y16114124D01*
X127000Y13955119D02*
X127000Y16114124D01*
X2667005Y16114124D02*
X2667005Y13955119D01*
X2667005Y13955119D02*
X4953010Y13955119D01*
X4953010Y16114124D02*
X7239014Y16114124D01*
X4953010Y13955119D02*
X4953010Y16114124D01*
X7239014Y16114124D02*
X7239014Y12431116D01*
X9000025Y17269140D02*
X9000025Y10450268D01*
X9000025Y11229516D02*
X-9017018Y11229516D01*
X9000025Y-7422071D02*
X9000025Y-8269925D01*
X9000025Y-8269925D02*
X7666167Y-8269925D01*
D15*
X9029972Y17268988D02*
G75*
G02*
X8970028Y17268988I-29972J0D01*
G01*
X8970028Y17268988D02*
G75*
G02*
X9029972Y17268988I29972J0D01*
G01*
D13*
%TO.C,R5*%
X11477500Y-6012742D02*
X11477500Y-6487258D01*
X12522500Y-6012742D02*
X12522500Y-6487258D01*
D17*
%TO.C,G\u002A\u002A\u002A*%
G36*
X-9192398Y-13073240D02*
G01*
X-9174482Y-13117096D01*
X-9183264Y-13152958D01*
X-9215898Y-13205468D01*
X-9227988Y-13217039D01*
X-9268702Y-13237784D01*
X-9333939Y-13248307D01*
X-9436336Y-13251231D01*
X-9523229Y-13248158D01*
X-9607040Y-13237152D01*
X-9654183Y-13219950D01*
X-9691635Y-13178855D01*
X-9708968Y-13121456D01*
X-9685530Y-13074435D01*
X-9682284Y-13071811D01*
X-9645840Y-13058717D01*
X-9603717Y-13085117D01*
X-9550582Y-13111913D01*
X-9472976Y-13125905D01*
X-9389932Y-13126019D01*
X-9319298Y-13112278D01*
X-9278922Y-13084705D01*
X-9271422Y-13074086D01*
X-9231857Y-13056687D01*
X-9192398Y-13073240D01*
G37*
G36*
X-10104123Y-12736191D02*
G01*
X-10094915Y-12820139D01*
X-10121485Y-12929557D01*
X-10188934Y-13019753D01*
X-10240377Y-13052872D01*
X-10335633Y-13073864D01*
X-10432962Y-13057634D01*
X-10517705Y-13007681D01*
X-10575200Y-12927508D01*
X-10587321Y-12891372D01*
X-10593628Y-12787363D01*
X-10569907Y-12713802D01*
X-10348339Y-12713802D01*
X-10335317Y-12769507D01*
X-10305991Y-12802738D01*
X-10249448Y-12819306D01*
X-10191017Y-12787738D01*
X-10162383Y-12754931D01*
X-10154322Y-12715992D01*
X-10183378Y-12665214D01*
X-10228367Y-12633228D01*
X-10280885Y-12636067D01*
X-10325535Y-12666123D01*
X-10348339Y-12713802D01*
X-10569907Y-12713802D01*
X-10562831Y-12691860D01*
X-10502012Y-12615057D01*
X-10418254Y-12567144D01*
X-10318639Y-12558313D01*
X-10233679Y-12580602D01*
X-10151450Y-12640659D01*
X-10114130Y-12715992D01*
X-10104123Y-12736191D01*
G37*
G36*
X-8310077Y-12774290D02*
G01*
X-8306404Y-12871961D01*
X-8337995Y-12964249D01*
X-8407736Y-13039518D01*
X-8430442Y-13052448D01*
X-8518132Y-13073579D01*
X-8614897Y-13067725D01*
X-8696090Y-13035251D01*
X-8704493Y-13029132D01*
X-8772671Y-12952236D01*
X-8803557Y-12861635D01*
X-8800805Y-12767553D01*
X-8780383Y-12713065D01*
X-8561843Y-12713065D01*
X-8548867Y-12775763D01*
X-8523952Y-12805752D01*
X-8477917Y-12825812D01*
X-8428787Y-12813768D01*
X-8386438Y-12770666D01*
X-8375606Y-12712276D01*
X-8403724Y-12655645D01*
X-8440517Y-12631588D01*
X-8495217Y-12630673D01*
X-8539809Y-12661267D01*
X-8561843Y-12713065D01*
X-8780383Y-12713065D01*
X-8768070Y-12680213D01*
X-8709007Y-12609836D01*
X-8627268Y-12566647D01*
X-8526510Y-12560866D01*
X-8503810Y-12565308D01*
X-8411667Y-12609330D01*
X-8346127Y-12682868D01*
X-8334531Y-12712276D01*
X-8310077Y-12774290D01*
G37*
G36*
X-7996222Y-10108727D02*
G01*
X-7892473Y-10200597D01*
X-7799429Y-10295320D01*
X-7710830Y-10396906D01*
X-7644940Y-10490500D01*
X-7592178Y-10588479D01*
X-7585784Y-10602027D01*
X-7550898Y-10680612D01*
X-7528809Y-10746948D01*
X-7516619Y-10816606D01*
X-7511430Y-10905158D01*
X-7510344Y-11028173D01*
X-7510440Y-11090610D01*
X-7512247Y-11190813D01*
X-7518462Y-11259920D01*
X-7531790Y-11310766D01*
X-7554934Y-11356184D01*
X-7560855Y-11364953D01*
X-7590601Y-11409007D01*
X-7610086Y-11437638D01*
X-7629483Y-11466141D01*
X-7652862Y-11512923D01*
X-7653240Y-11549587D01*
X-7634548Y-11592558D01*
X-7628924Y-11606039D01*
X-7621188Y-11638008D01*
X-7614813Y-11686592D01*
X-7609678Y-11755970D01*
X-7605661Y-11850322D01*
X-7602641Y-11973827D01*
X-7600495Y-12130663D01*
X-7599101Y-12325010D01*
X-7598339Y-12561046D01*
X-7598085Y-12842952D01*
X-7598095Y-12850435D01*
X-7598441Y-13104508D01*
X-7599946Y-13386214D01*
X-7602612Y-13622428D01*
X-7606418Y-13812242D01*
X-7611346Y-13954745D01*
X-7617377Y-14049028D01*
X-7624490Y-14094183D01*
X-7648783Y-14142554D01*
X-7716138Y-14231375D01*
X-7800976Y-14312239D01*
X-7885714Y-14366797D01*
X-7900551Y-14371672D01*
X-7936676Y-14378054D01*
X-7992673Y-14383494D01*
X-8071895Y-14388060D01*
X-8177695Y-14391822D01*
X-8313425Y-14394849D01*
X-8482439Y-14397210D01*
X-8688089Y-14398975D01*
X-8933729Y-14400213D01*
X-9222711Y-14400993D01*
X-9558389Y-14401385D01*
X-11155990Y-14402364D01*
X-11379228Y-14287066D01*
X-11417513Y-14267718D01*
X-11484365Y-14235051D01*
X-11540002Y-14206216D01*
X-11585436Y-14176726D01*
X-11621678Y-14142089D01*
X-11649738Y-14097817D01*
X-11670628Y-14039419D01*
X-11685358Y-13962407D01*
X-11694939Y-13862292D01*
X-11700382Y-13734582D01*
X-11702698Y-13574790D01*
X-11702898Y-13378425D01*
X-11701991Y-13140999D01*
X-11700991Y-12858021D01*
X-11699988Y-12424782D01*
X-11502536Y-12424782D01*
X-11502140Y-12645534D01*
X-11501773Y-12911700D01*
X-11501773Y-13990816D01*
X-11288696Y-14096492D01*
X-11075619Y-14202167D01*
X-9543228Y-14201165D01*
X-9411237Y-14201085D01*
X-9104215Y-14200852D01*
X-8842059Y-14200324D01*
X-8621032Y-14199175D01*
X-8437398Y-14197081D01*
X-8287424Y-14193716D01*
X-8167373Y-14188755D01*
X-8073511Y-14181874D01*
X-8002101Y-14172747D01*
X-7949409Y-14161049D01*
X-7911699Y-14146456D01*
X-7885237Y-14128642D01*
X-7866286Y-14107283D01*
X-7851112Y-14082053D01*
X-7835979Y-14052628D01*
X-7829798Y-14038133D01*
X-7821677Y-14006857D01*
X-7815029Y-13960651D01*
X-7809715Y-13895125D01*
X-7805599Y-13805890D01*
X-7802541Y-13688556D01*
X-7800403Y-13538733D01*
X-7799047Y-13352032D01*
X-7798334Y-13124062D01*
X-7798128Y-12850435D01*
X-7798136Y-12813978D01*
X-7798823Y-12540087D01*
X-7800562Y-12298281D01*
X-7803289Y-12091553D01*
X-7806942Y-11922897D01*
X-7811458Y-11795305D01*
X-7816773Y-11711771D01*
X-7822826Y-11675289D01*
X-7825304Y-11671188D01*
X-7872235Y-11635563D01*
X-7948774Y-11612034D01*
X-7983229Y-11607043D01*
X-8038158Y-11608394D01*
X-8088877Y-11630882D01*
X-8155553Y-11681260D01*
X-8252030Y-11755088D01*
X-8351728Y-11817596D01*
X-8456912Y-11866382D01*
X-8574998Y-11903263D01*
X-8713399Y-11930059D01*
X-8879529Y-11948590D01*
X-9080801Y-11960675D01*
X-9324630Y-11968132D01*
X-9501871Y-11971305D01*
X-9673116Y-11972293D01*
X-9811370Y-11969972D01*
X-9925839Y-11964014D01*
X-10025727Y-11954093D01*
X-10120241Y-11939882D01*
X-10150696Y-11934317D01*
X-10376813Y-11873823D01*
X-10574303Y-11786091D01*
X-10734486Y-11674866D01*
X-10772656Y-11645388D01*
X-10854152Y-11608819D01*
X-10950053Y-11601832D01*
X-11068990Y-11624459D01*
X-11219594Y-11676733D01*
X-11275700Y-11697892D01*
X-11333113Y-11718790D01*
X-11379991Y-11738867D01*
X-11417391Y-11762749D01*
X-11446369Y-11795057D01*
X-11467982Y-11840415D01*
X-11483285Y-11903448D01*
X-11493336Y-11988777D01*
X-11499190Y-12101027D01*
X-11501905Y-12244821D01*
X-11502536Y-12424782D01*
X-11699988Y-12424782D01*
X-11698248Y-11673014D01*
X-11772641Y-11588284D01*
X-11790851Y-11566308D01*
X-11847202Y-11467664D01*
X-11857336Y-11415938D01*
X-11251527Y-11415938D01*
X-11250077Y-11452692D01*
X-11245270Y-11471820D01*
X-11221100Y-11462136D01*
X-11170197Y-11441965D01*
X-11122046Y-11411951D01*
X-11105552Y-11368128D01*
X-11050988Y-11368128D01*
X-11050957Y-11369315D01*
X-11026576Y-11391279D01*
X-10963743Y-11399408D01*
X-10927289Y-11398025D01*
X-10886809Y-11384685D01*
X-10876157Y-11351406D01*
X-10879509Y-11306330D01*
X-10904516Y-11251001D01*
X-10829779Y-11251001D01*
X-10824130Y-11281185D01*
X-10817267Y-11343085D01*
X-10817013Y-11347100D01*
X-10816571Y-11351406D01*
X-10813926Y-11377179D01*
X-10802530Y-11392740D01*
X-10772681Y-11394734D01*
X-10714234Y-11384108D01*
X-10617044Y-11361810D01*
X-10576208Y-11352959D01*
X-10536634Y-11346164D01*
X-8711527Y-11346164D01*
X-8632885Y-11416580D01*
X-8621770Y-11426813D01*
X-8559179Y-11492877D01*
X-8511140Y-11555812D01*
X-8508737Y-11559610D01*
X-8474957Y-11605629D01*
X-8452146Y-11624537D01*
X-8449553Y-11624330D01*
X-8408677Y-11606854D01*
X-8348959Y-11569445D01*
X-8287486Y-11523717D01*
X-8241346Y-11481280D01*
X-8223835Y-11460747D01*
X-8214647Y-11437638D01*
X-8238766Y-11422056D01*
X-8303907Y-11404538D01*
X-8353775Y-11393763D01*
X-8457056Y-11375968D01*
X-8561379Y-11362189D01*
X-8711527Y-11346164D01*
X-10536634Y-11346164D01*
X-10420388Y-11326204D01*
X-10231419Y-11301659D01*
X-10022096Y-11280510D01*
X-9805212Y-11263938D01*
X-9593563Y-11253127D01*
X-9399943Y-11249261D01*
X-9377379Y-11249365D01*
X-9234222Y-11253599D01*
X-9071218Y-11263249D01*
X-8898347Y-11277240D01*
X-8725587Y-11294498D01*
X-8562916Y-11313948D01*
X-8420314Y-11334514D01*
X-8307759Y-11355123D01*
X-8235230Y-11374699D01*
X-8202050Y-11385151D01*
X-8124841Y-11397929D01*
X-8050816Y-11398444D01*
X-7995220Y-11387263D01*
X-7973300Y-11364953D01*
X-7996237Y-11333743D01*
X-8060038Y-11295509D01*
X-8156412Y-11253165D01*
X-8277067Y-11209479D01*
X-8413710Y-11167220D01*
X-8558050Y-11129157D01*
X-8701794Y-11098057D01*
X-8836650Y-11076690D01*
X-8950105Y-11066101D01*
X-9096066Y-11057303D01*
X-9254546Y-11051343D01*
X-9406672Y-11049134D01*
X-9419796Y-11049149D01*
X-9610046Y-11052886D01*
X-9805802Y-11062612D01*
X-10000894Y-11077451D01*
X-10189153Y-11096529D01*
X-10364411Y-11118970D01*
X-10520500Y-11143900D01*
X-10651249Y-11170443D01*
X-10750492Y-11197724D01*
X-10812058Y-11224869D01*
X-10829779Y-11251001D01*
X-10904516Y-11251001D01*
X-10907352Y-11244726D01*
X-10963502Y-11224236D01*
X-10998452Y-11233291D01*
X-11036711Y-11282100D01*
X-11049148Y-11357041D01*
X-11050988Y-11368128D01*
X-11105552Y-11368128D01*
X-11101379Y-11357041D01*
X-11101497Y-11339682D01*
X-11107273Y-11307157D01*
X-11131580Y-11304860D01*
X-11187788Y-11328351D01*
X-11228563Y-11356622D01*
X-11251527Y-11415938D01*
X-11857336Y-11415938D01*
X-11868949Y-11356665D01*
X-11855693Y-11227759D01*
X-11807034Y-11075396D01*
X-11722571Y-10894027D01*
X-11632948Y-10740389D01*
X-11447745Y-10499410D01*
X-11220707Y-10279697D01*
X-10956431Y-10084529D01*
X-10117015Y-10084529D01*
X-10113147Y-10116131D01*
X-10073123Y-10160319D01*
X-10024061Y-10210734D01*
X-9985234Y-10262575D01*
X-9942851Y-10299260D01*
X-9855804Y-10318437D01*
X-9836011Y-10320526D01*
X-9766838Y-10337310D01*
X-9723909Y-10362230D01*
X-9719713Y-10366506D01*
X-9670611Y-10389181D01*
X-9601353Y-10398423D01*
X-9547085Y-10402019D01*
X-9504713Y-10424470D01*
X-9473038Y-10479734D01*
X-9468872Y-10488798D01*
X-9421816Y-10552771D01*
X-9370507Y-10570099D01*
X-9323780Y-10541388D01*
X-9290469Y-10467241D01*
X-9274537Y-10424379D01*
X-9242050Y-10403173D01*
X-9177070Y-10398423D01*
X-9163664Y-10398098D01*
X-9094305Y-10386198D01*
X-9050474Y-10362230D01*
X-9042960Y-10355252D01*
X-8990726Y-10331725D01*
X-8918579Y-10318437D01*
X-8838621Y-10302320D01*
X-8789149Y-10262575D01*
X-8753577Y-10214521D01*
X-8701260Y-10160319D01*
X-8689947Y-10149847D01*
X-8657377Y-10108727D01*
X-8661198Y-10079671D01*
X-8704753Y-10060999D01*
X-8791386Y-10051028D01*
X-8924439Y-10048078D01*
X-9171935Y-10048078D01*
X-9241027Y-10138663D01*
X-9263975Y-10166555D01*
X-9300816Y-10200362D01*
X-9319460Y-10201224D01*
X-9347226Y-10177599D01*
X-9396379Y-10176834D01*
X-9442419Y-10200901D01*
X-9449473Y-10206647D01*
X-9478265Y-10203410D01*
X-9515663Y-10157108D01*
X-9517702Y-10153929D01*
X-9556389Y-10099907D01*
X-9586811Y-10067230D01*
X-9601471Y-10062510D01*
X-9659433Y-10055399D01*
X-9748027Y-10050428D01*
X-9854927Y-10048462D01*
X-9879039Y-10048494D01*
X-10003226Y-10052384D01*
X-10081463Y-10063838D01*
X-10117015Y-10084529D01*
X-10956431Y-10084529D01*
X-10954924Y-10083416D01*
X-10869091Y-10034814D01*
X-9472889Y-10034814D01*
X-9444748Y-10093123D01*
X-9421365Y-10110870D01*
X-9365155Y-10120403D01*
X-9318851Y-10092586D01*
X-9299605Y-10034361D01*
X-9304657Y-10003337D01*
X-9338048Y-9955396D01*
X-9388409Y-9933945D01*
X-9438841Y-9949307D01*
X-9459528Y-9973255D01*
X-9472889Y-10034814D01*
X-10869091Y-10034814D01*
X-10653483Y-9912729D01*
X-10319476Y-9769800D01*
X-9955989Y-9656791D01*
X-9861565Y-9633504D01*
X-9775678Y-9616287D01*
X-9692122Y-9605825D01*
X-9597816Y-9601024D01*
X-9479679Y-9600791D01*
X-9324630Y-9604034D01*
X-9170636Y-9608799D01*
X-9053872Y-9615125D01*
X-8961863Y-9624812D01*
X-8881954Y-9639670D01*
X-8801493Y-9661503D01*
X-8707825Y-9692121D01*
X-8561911Y-9746830D01*
X-8323664Y-9863855D01*
X-8105332Y-10012109D01*
X-8080203Y-10034361D01*
X-7996222Y-10108727D01*
G37*
D13*
%TO.C,Q1*%
X-14310000Y9010000D02*
X-14310000Y7490000D01*
X-14310000Y7490000D02*
X-13310000Y7490000D01*
X-14260000Y9010000D02*
X-14310000Y9010000D01*
X-12360000Y9010000D02*
X-13140000Y9010000D01*
X-12190000Y7490000D02*
X-11190000Y7490000D01*
X-11190000Y9010000D02*
X-11240000Y9010000D01*
X-11190000Y7490000D02*
X-11190000Y9010000D01*
X-12800000Y9310000D02*
X-13130000Y9550000D01*
X-12800000Y9790000D01*
X-12800000Y9310000D01*
G36*
X-12800000Y9310000D02*
G01*
X-13130000Y9550000D01*
X-12800000Y9790000D01*
X-12800000Y9310000D01*
G37*
%TO.C,R4*%
X12437258Y1122500D02*
X11962742Y1122500D01*
X12437258Y77500D02*
X11962742Y77500D01*
%TD*%
%LPC*%
D17*
%TO.C,JP4*%
G36*
X-12950000Y2050000D02*
G01*
X-14450000Y2050000D01*
X-14450000Y2350000D01*
X-12950000Y2350000D01*
X-12950000Y2050000D01*
G37*
%TD*%
D18*
%TO.C,C1*%
X10371885Y9177400D03*
X10371885Y7627400D03*
%TD*%
D19*
%TO.C,D1*%
X-11500000Y1712500D03*
X-11500000Y3287500D03*
%TD*%
D20*
%TO.C,R9*%
X-11437500Y6525000D03*
X-11437500Y4875000D03*
%TD*%
%TO.C,R6*%
X10500000Y-6925000D03*
X10500000Y-8575000D03*
%TD*%
%TO.C,R10*%
X-14187500Y6525000D03*
X-14187500Y4875000D03*
%TD*%
D21*
%TO.C,JP4*%
X-13700000Y2849999D03*
D22*
X-13700000Y1550001D03*
%TD*%
D20*
%TO.C,R3*%
X-11500000Y325000D03*
X-11500000Y-1325000D03*
%TD*%
D23*
%TO.C,J3*%
X2899924Y-13995880D03*
X-2899924Y-13995880D03*
D24*
X4325121Y-13495753D03*
X-4325121Y-13495753D03*
D25*
X-4325121Y-17675585D03*
X4325121Y-17675585D03*
D26*
X3350013Y-12727401D03*
X2549911Y-12727401D03*
X1249936Y-12727401D03*
X249936Y-12727401D03*
X-249936Y-12727401D03*
X-1249682Y-12727401D03*
X-2550165Y-12727401D03*
X-3350013Y-12727401D03*
X-3050038Y-12727401D03*
X-2249936Y-12727401D03*
X-1750064Y-12727401D03*
X-750064Y-12727401D03*
X750064Y-12727401D03*
X1750064Y-12727401D03*
X2249936Y-12727401D03*
X3050038Y-12727401D03*
%TD*%
D27*
%TO.C,SW1*%
X-11065088Y-3750000D03*
X-15434912Y-3750000D03*
%TD*%
D28*
%TO.C,R2*%
X11375000Y2100000D03*
X13025000Y2100000D03*
%TD*%
D29*
%TO.C,D3*%
X6294922Y-12496023D03*
X6888892Y-13089993D03*
%TD*%
D30*
%TO.C,D4*%
X7990393Y-14190527D03*
X7396423Y-13596557D03*
%TD*%
D31*
%TO.C,R1*%
X11869200Y7577400D03*
X11869200Y9227400D03*
%TD*%
D32*
%TO.C,U1*%
X8750064Y9769115D03*
X8750064Y8499112D03*
X8750064Y7229110D03*
X8750064Y5959107D03*
X8750064Y4689105D03*
X8750064Y3419102D03*
X8750064Y2149100D03*
X8750064Y879097D03*
X8750064Y-390906D03*
X8750064Y-1660908D03*
X8750064Y-2930911D03*
X8750064Y-4200913D03*
X8750064Y-5470916D03*
X8750064Y-6740918D03*
D33*
X6985014Y-8020827D03*
X5715011Y-8020827D03*
X4445009Y-8020827D03*
X3175006Y-8020827D03*
X1905004Y-8020827D03*
X635001Y-8020827D03*
X-635001Y-8020827D03*
X-1905004Y-8020827D03*
X-3175006Y-8020827D03*
X-4445009Y-8020827D03*
X-5715011Y-8020827D03*
X-6985014Y-7990855D03*
D32*
X-8750064Y-6740918D03*
X-8750064Y-5470916D03*
X-8750064Y-4200913D03*
X-8750064Y-2930911D03*
X-8750064Y-1660908D03*
X-8750064Y-390906D03*
X-8750064Y879097D03*
X-8750064Y2149100D03*
X-8750064Y3419102D03*
X-8750064Y4689105D03*
X-8750064Y5959107D03*
X-8750064Y7229110D03*
X-8750064Y8499112D03*
X-8750064Y9769115D03*
D34*
X2900178Y648973D03*
X2900178Y2049023D03*
X2900178Y3449074D03*
X1500127Y648973D03*
X1500127Y2049023D03*
X1500127Y3449074D03*
X100076Y648973D03*
X100076Y2049023D03*
X100076Y3449074D03*
%TD*%
D20*
%TO.C,R5*%
X12000000Y-5425000D03*
X12000000Y-7075000D03*
%TD*%
D35*
%TO.C,Q1*%
X-13700000Y9187500D03*
X-11800000Y9187500D03*
X-12750000Y7312500D03*
%TD*%
D36*
%TO.C,R4*%
X13025000Y600000D03*
X11375000Y600000D03*
%TD*%
%LPD*%
M02*
