%TF.GenerationSoftware,KiCad,Pcbnew,9.0.0*%
%TF.CreationDate,2025-03-19T15:37:07+01:00*%
%TF.ProjectId,BladeMaster,426c6164-654d-4617-9374-65722e6b6963,rev?*%
%TF.SameCoordinates,Original*%
%TF.FileFunction,Soldermask,Bot*%
%TF.FilePolarity,Negative*%
%FSLAX46Y46*%
G04 Gerber Fmt 4.6, Leading zero omitted, Abs format (unit mm)*
G04 Created by KiCad (PCBNEW 9.0.0) date 2025-03-19 15:37:07*
%MOMM*%
%LPD*%
G01*
G04 APERTURE LIST*
G04 Aperture macros list*
%AMRoundRect*
0 Rectangle with rounded corners*
0 $1 Rounding radius*
0 $2 $3 $4 $5 $6 $7 $8 $9 X,Y pos of 4 corners*
0 Add a 4 corners polygon primitive as box body*
4,1,4,$2,$3,$4,$5,$6,$7,$8,$9,$2,$3,0*
0 Add four circle primitives for the rounded corners*
1,1,$1+$1,$2,$3*
1,1,$1+$1,$4,$5*
1,1,$1+$1,$6,$7*
1,1,$1+$1,$8,$9*
0 Add four rect primitives between the rounded corners*
20,1,$1+$1,$2,$3,$4,$5,0*
20,1,$1+$1,$4,$5,$6,$7,0*
20,1,$1+$1,$6,$7,$8,$9,0*
20,1,$1+$1,$8,$9,$2,$3,0*%
%AMHorizOval*
0 Thick line with rounded ends*
0 $1 width*
0 $2 $3 position (X,Y) of the first rounded end (center of the circle)*
0 $4 $5 position (X,Y) of the second rounded end (center of the circle)*
0 Add line between two ends*
20,1,$1,$2,$3,$4,$5,0*
0 Add two circle primitives to create the rounded ends*
1,1,$1,$2,$3*
1,1,$1,$4,$5*%
%AMRotRect*
0 Rectangle, with rotation*
0 The origin of the aperture is its center*
0 $1 length*
0 $2 width*
0 $3 Rotation angle, in degrees counterclockwise*
0 Add horizontal line*
21,1,$1,$2,0,0,$3*%
G04 Aperture macros list end*
%ADD10RoundRect,0.225000X-0.250000X0.225000X-0.250000X-0.225000X0.250000X-0.225000X0.250000X0.225000X0*%
%ADD11RoundRect,0.219000X0.294000X-0.219000X0.294000X0.219000X-0.294000X0.219000X-0.294000X-0.219000X0*%
%ADD12RoundRect,0.250000X-0.650000X1.000000X-0.650000X-1.000000X0.650000X-1.000000X0.650000X1.000000X0*%
%ADD13RoundRect,0.218750X0.026517X-0.335876X0.335876X-0.026517X-0.026517X0.335876X-0.335876X0.026517X0*%
%ADD14RoundRect,0.244000X-0.269000X0.244000X-0.269000X-0.244000X0.269000X-0.244000X0.269000X0.244000X0*%
%ADD15O,0.630000X1.860000*%
%ADD16R,2.400000X0.900000*%
%ADD17R,0.900000X2.400000*%
%ADD18R,5.000000X5.000000*%
%ADD19RoundRect,0.219000X-0.362746X-0.053033X-0.053033X-0.362746X0.362746X0.053033X0.053033X0.362746X0*%
%ADD20RoundRect,0.250000X-0.250000X0.600000X-0.250000X-0.600000X0.250000X-0.600000X0.250000X0.600000X0*%
%ADD21RoundRect,0.219000X-0.053033X0.362746X-0.362746X0.053033X0.053033X-0.362746X0.362746X-0.053033X0*%
%ADD22RoundRect,0.200000X-0.275000X0.200000X-0.275000X-0.200000X0.275000X-0.200000X0.275000X0.200000X0*%
%ADD23RoundRect,0.150000X-0.468458X0.256326X0.256326X-0.468458X0.468458X-0.256326X-0.256326X0.468458X0*%
%ADD24RoundRect,0.244000X0.362746X0.017678X0.017678X0.362746X-0.362746X-0.017678X-0.017678X-0.362746X0*%
%ADD25RotRect,0.420000X0.600000X315.000000*%
%ADD26RotRect,0.420000X0.600000X135.000000*%
%ADD27HorizOval,1.000000X-0.247487X0.247487X0.247487X-0.247487X0*%
%ADD28RotRect,0.700000X1.470000X45.000000*%
%ADD29RotRect,0.800000X1.470000X45.000000*%
%ADD30RotRect,0.900000X1.470000X45.000000*%
%ADD31RoundRect,0.150000X0.512500X0.150000X-0.512500X0.150000X-0.512500X-0.150000X0.512500X-0.150000X0*%
%ADD32C,0.750000*%
%ADD33O,1.000000X1.600000*%
%ADD34R,1.000000X0.320000*%
G04 APERTURE END LIST*
D10*
%TO.C,C1*%
X10500000Y10025000D03*
X10500000Y8475000D03*
%TD*%
D11*
%TO.C,R3*%
X0Y-18820001D03*
X0Y-17179999D03*
%TD*%
D12*
%TO.C,D2*%
X1000000Y-10999999D03*
X1000000Y-15000001D03*
%TD*%
D13*
%TO.C,D1*%
X11943153Y-8556847D03*
X13056847Y-7443153D03*
%TD*%
D14*
%TO.C,C7*%
X-18500000Y-2970000D03*
X-18500000Y-4530000D03*
%TD*%
D15*
%TO.C,U4*%
X-13340000Y-7930000D03*
X-14620000Y-7930000D03*
X-15880000Y-7930000D03*
X-17150001Y-7929999D03*
X-17150000Y-2570000D03*
X-15880000Y-2570000D03*
X-14620000Y-2570000D03*
X-13339999Y-2570001D03*
%TD*%
D12*
%TO.C,D3*%
X4500000Y-10999999D03*
X4500000Y-15000001D03*
%TD*%
D16*
%TO.C,U1*%
X8680000Y9800000D03*
X8680000Y8530000D03*
X8680000Y7260000D03*
X8680000Y5990000D03*
X8680000Y4720000D03*
X8680000Y3450000D03*
X8680000Y2180000D03*
X8680000Y910000D03*
X8680000Y-360000D03*
X8680000Y-1630000D03*
X8680000Y-2900000D03*
X8680000Y-4170000D03*
X8680000Y-5440000D03*
X8680000Y-6710000D03*
D17*
X5700000Y-8140000D03*
X4430000Y-8140000D03*
X3160000Y-8140000D03*
X1890000Y-8140000D03*
X610000Y-8140000D03*
X-650000Y-8130000D03*
X-1920000Y-8130000D03*
X-3190000Y-8130000D03*
X-4460000Y-8130000D03*
X-5730000Y-8130000D03*
D16*
X-8720000Y-6710000D03*
X-8720000Y-5440000D03*
X-8720000Y-4170000D03*
X-8720000Y-2900000D03*
X-8720000Y-1630000D03*
X-8720000Y-360000D03*
X-8720000Y910000D03*
X-8720000Y2180000D03*
X-8720000Y3450000D03*
X-8720000Y4720000D03*
X-8720000Y5990000D03*
X-8720000Y7260000D03*
X-8720000Y8530000D03*
X-8720000Y9800000D03*
D18*
X1000000Y2250000D03*
%TD*%
D19*
%TO.C,R4*%
X15420172Y-6670172D03*
X16579828Y-7829828D03*
%TD*%
D20*
%TO.C,S1*%
X13400000Y7550000D03*
X13400000Y950000D03*
X17100000Y7550000D03*
X17100000Y950000D03*
%TD*%
D21*
%TO.C,R2*%
X11079828Y-9420172D03*
X9920172Y-10579828D03*
%TD*%
D22*
%TO.C,R6*%
X12000000Y9075000D03*
X12000000Y7425000D03*
%TD*%
D11*
%TO.C,R1*%
X1250000Y-19070001D03*
X1250000Y-17429999D03*
%TD*%
D23*
%TO.C,U2*%
X-12476085Y-13617417D03*
X-11804334Y-12945666D03*
X-11132583Y-12273915D03*
X-9523915Y-13882583D03*
X-10195666Y-14554334D03*
X-10867417Y-15226085D03*
%TD*%
D24*
%TO.C,C2*%
X-10198457Y-8301543D03*
X-11301543Y-7198457D03*
%TD*%
D25*
%TO.C,U5*%
X-7537868Y-9118629D03*
X-7078249Y-9578249D03*
X-6618629Y-10037868D03*
D26*
X-7962132Y-11381371D03*
X-8421751Y-10921751D03*
X-8881371Y-10462132D03*
%TD*%
D27*
%TO.C,J2*%
X9361469Y-15220872D03*
X15470872Y-9111469D03*
D28*
X12812150Y-13269257D03*
D29*
X14240506Y-11840901D03*
D30*
X15110247Y-10971160D03*
D28*
X13519257Y-12562150D03*
D29*
X12090901Y-13990506D03*
D30*
X11221160Y-14860247D03*
%TD*%
D31*
%TO.C,U3*%
X16887500Y-1300001D03*
X16887500Y-2250000D03*
X16887500Y-3199999D03*
X14612500Y-3199999D03*
X14612500Y-1300001D03*
%TD*%
D14*
%TO.C,C6*%
X-12000001Y-2970000D03*
X-11999999Y-4530000D03*
%TD*%
D10*
%TO.C,C3*%
X18578427Y-1475000D03*
X18578427Y-3025000D03*
%TD*%
D14*
%TO.C,C8*%
X11750000Y6030000D03*
X11750000Y4470000D03*
%TD*%
D32*
%TO.C,J1*%
X-3750000Y-18250000D03*
X-3750000Y-10250000D03*
D33*
X-1420000Y-16620000D03*
X-1420000Y-11880000D03*
X-6080000Y-16620000D03*
X-6080000Y-11880000D03*
D34*
X-4770000Y-11410000D03*
X-4770000Y-12410000D03*
X-4770000Y-13410000D03*
X-4770000Y-14410000D03*
X-4770000Y-15410000D03*
X-4770000Y-16410000D03*
X-4770000Y-17410000D03*
X-2730000Y-17090000D03*
X-2730000Y-16090000D03*
X-2730000Y-15090000D03*
X-2730000Y-14090000D03*
X-2730000Y-13090000D03*
X-2730000Y-12090000D03*
X-2730000Y-11090000D03*
%TD*%
D24*
%TO.C,C4*%
X-10448457Y-9801543D03*
X-11551543Y-8698457D03*
%TD*%
D10*
%TO.C,C5*%
X12921573Y-1475000D03*
X12921573Y-3025000D03*
%TD*%
D20*
%TO.C,S2*%
X-16850000Y7550000D03*
X-16850000Y950000D03*
X-13150000Y7550000D03*
X-13150000Y950000D03*
%TD*%
D19*
%TO.C,R5*%
X13420172Y-4670172D03*
X14579828Y-5829828D03*
%TD*%
M02*
