%TF.GenerationSoftware,KiCad,Pcbnew,8.0.9-8.0.9-0~ubuntu24.04.1*%
%TF.CreationDate,2025-03-13T12:41:12+01:00*%
%TF.ProjectId,BladeMaster,426c6164-654d-4617-9374-65722e6b6963,rev?*%
%TF.SameCoordinates,Original*%
%TF.FileFunction,Soldermask,Top*%
%TF.FilePolarity,Negative*%
%FSLAX46Y46*%
G04 Gerber Fmt 4.6, Leading zero omitted, Abs format (unit mm)*
G04 Created by KiCad (PCBNEW 8.0.9-8.0.9-0~ubuntu24.04.1) date 2025-03-13 12:41:12*
%MOMM*%
%LPD*%
G01*
G04 APERTURE LIST*
G04 Aperture macros list*
%AMRoundRect*
0 Rectangle with rounded corners*
0 $1 Rounding radius*
0 $2 $3 $4 $5 $6 $7 $8 $9 X,Y pos of 4 corners*
0 Add a 4 corners polygon primitive as box body*
4,1,4,$2,$3,$4,$5,$6,$7,$8,$9,$2,$3,0*
0 Add four circle primitives for the rounded corners*
1,1,$1+$1,$2,$3*
1,1,$1+$1,$4,$5*
1,1,$1+$1,$6,$7*
1,1,$1+$1,$8,$9*
0 Add four rect primitives between the rounded corners*
20,1,$1+$1,$2,$3,$4,$5,0*
20,1,$1+$1,$4,$5,$6,$7,0*
20,1,$1+$1,$6,$7,$8,$9,0*
20,1,$1+$1,$8,$9,$2,$3,0*%
G04 Aperture macros list end*
%ADD10RoundRect,0.150000X-0.512500X-0.150000X0.512500X-0.150000X0.512500X0.150000X-0.512500X0.150000X0*%
%ADD11RoundRect,0.150000X-0.687500X-0.150000X0.687500X-0.150000X0.687500X0.150000X-0.687500X0.150000X0*%
%ADD12R,2.100000X3.300000*%
%ADD13R,1.500000X0.900000*%
%ADD14R,0.900000X1.500000*%
%ADD15C,0.600000*%
%ADD16R,3.800000X3.800000*%
G04 APERTURE END LIST*
D10*
%TO.C,U5*%
X257225000Y-36100000D03*
X257225000Y-37050000D03*
X257225000Y-38000000D03*
X259500000Y-38000000D03*
X259500000Y-37050000D03*
X259500000Y-36100000D03*
%TD*%
%TO.C,U4*%
X257225000Y-31475000D03*
X257225000Y-32425000D03*
X257225000Y-33375000D03*
X259500000Y-33375000D03*
X259500000Y-32425000D03*
X259500000Y-31475000D03*
%TD*%
%TO.C,U3*%
X257225000Y-26850000D03*
X257225000Y-27800000D03*
X257225000Y-28750000D03*
X259500000Y-28750000D03*
X259500000Y-26850000D03*
%TD*%
D11*
%TO.C,U2*%
X207845000Y-69390000D03*
X207845000Y-70390000D03*
X207845000Y-71390000D03*
X207845000Y-72390000D03*
X207845000Y-73390000D03*
X213120000Y-73390000D03*
X213120000Y-72390000D03*
X213120000Y-71390000D03*
X213120000Y-70390000D03*
X213120000Y-69390000D03*
D12*
X210482500Y-71390000D03*
%TD*%
D13*
%TO.C,U1*%
X222262500Y-48665000D03*
X222262500Y-49935000D03*
X222262500Y-51205000D03*
X222262500Y-52475000D03*
X222262500Y-53745000D03*
X222262500Y-55015000D03*
X222262500Y-56285000D03*
X222262500Y-57555000D03*
X222262500Y-58825000D03*
X222262500Y-60095000D03*
X222262500Y-61365000D03*
X222262500Y-62635000D03*
X222262500Y-63905000D03*
X222262500Y-65175000D03*
D14*
X225302500Y-66425000D03*
X226572500Y-66425000D03*
X227842500Y-66425000D03*
X229112500Y-66425000D03*
X230382500Y-66425000D03*
X231652500Y-66425000D03*
X232922500Y-66425000D03*
X234192500Y-66425000D03*
X235462500Y-66425000D03*
X236732500Y-66425000D03*
D13*
X239762500Y-65175000D03*
X239762500Y-63905000D03*
X239762500Y-62635000D03*
X239762500Y-61365000D03*
X239762500Y-60095000D03*
X239762500Y-58825000D03*
X239762500Y-57555000D03*
X239762500Y-56285000D03*
X239762500Y-55015000D03*
X239762500Y-53745000D03*
X239762500Y-52475000D03*
X239762500Y-51205000D03*
X239762500Y-49935000D03*
X239762500Y-48665000D03*
D15*
X228112500Y-55685000D03*
X228112500Y-57085000D03*
X228812500Y-54985000D03*
X228812500Y-56385000D03*
X228812500Y-57785000D03*
X229487500Y-55685000D03*
X229487500Y-57085000D03*
D16*
X229512500Y-56385000D03*
D15*
X230212500Y-54985000D03*
X230212500Y-56385000D03*
X230212500Y-57785000D03*
X230912500Y-55685000D03*
X230912500Y-57085000D03*
%TD*%
M02*
