%TF.GenerationSoftware,KiCad,Pcbnew,9.0.5-9.0.5~ubuntu25.04.1*%
%TF.CreationDate,2025-10-27T18:04:51+01:00*%
%TF.ProjectId,BladeMaster,426c6164-654d-4617-9374-65722e6b6963,rev?*%
%TF.SameCoordinates,Original*%
%TF.FileFunction,Soldermask,Top*%
%TF.FilePolarity,Negative*%
%FSLAX46Y46*%
G04 Gerber Fmt 4.6, Leading zero omitted, Abs format (unit mm)*
G04 Created by KiCad (PCBNEW 9.0.5-9.0.5~ubuntu25.04.1) date 2025-10-27 18:04:51*
%MOMM*%
%LPD*%
G01*
G04 APERTURE LIST*
G04 Aperture macros list*
%AMRoundRect*
0 Rectangle with rounded corners*
0 $1 Rounding radius*
0 $2 $3 $4 $5 $6 $7 $8 $9 X,Y pos of 4 corners*
0 Add a 4 corners polygon primitive as box body*
4,1,4,$2,$3,$4,$5,$6,$7,$8,$9,$2,$3,0*
0 Add four circle primitives for the rounded corners*
1,1,$1+$1,$2,$3*
1,1,$1+$1,$4,$5*
1,1,$1+$1,$6,$7*
1,1,$1+$1,$8,$9*
0 Add four rect primitives between the rounded corners*
20,1,$1+$1,$2,$3,$4,$5,0*
20,1,$1+$1,$4,$5,$6,$7,0*
20,1,$1+$1,$6,$7,$8,$9,0*
20,1,$1+$1,$8,$9,$2,$3,0*%
%AMFreePoly0*
4,1,23,0.500000,-0.750000,0.000000,-0.750000,0.000000,-0.745722,-0.065263,-0.745722,-0.191342,-0.711940,-0.304381,-0.646677,-0.396677,-0.554381,-0.461940,-0.441342,-0.495722,-0.315263,-0.495722,-0.250000,-0.500000,-0.250000,-0.500000,0.250000,-0.495722,0.250000,-0.495722,0.315263,-0.461940,0.441342,-0.396677,0.554381,-0.304381,0.646677,-0.191342,0.711940,-0.065263,0.745722,0.000000,0.745722,
0.000000,0.750000,0.500000,0.750000,0.500000,-0.750000,0.500000,-0.750000,$1*%
%AMFreePoly1*
4,1,23,0.000000,0.745722,0.065263,0.745722,0.191342,0.711940,0.304381,0.646677,0.396677,0.554381,0.461940,0.441342,0.495722,0.315263,0.495722,0.250000,0.500000,0.250000,0.500000,-0.250000,0.495722,-0.250000,0.495722,-0.315263,0.461940,-0.441342,0.396677,-0.554381,0.304381,-0.646677,0.191342,-0.711940,0.065263,-0.745722,0.000000,-0.745722,0.000000,-0.750000,-0.500000,-0.750000,
-0.500000,0.750000,0.000000,0.750000,0.000000,0.745722,0.000000,0.745722,$1*%
G04 Aperture macros list end*
%ADD10C,0.000000*%
%ADD11C,2.500000*%
%ADD12C,1.000000*%
%ADD13RoundRect,0.225000X-0.250000X0.225000X-0.250000X-0.225000X0.250000X-0.225000X0.250000X0.225000X0*%
%ADD14RoundRect,0.250000X1.075000X-0.375000X1.075000X0.375000X-1.075000X0.375000X-1.075000X-0.375000X0*%
%ADD15RoundRect,0.200000X0.275000X-0.200000X0.275000X0.200000X-0.275000X0.200000X-0.275000X-0.200000X0*%
%ADD16C,1.500000*%
%ADD17RoundRect,0.150000X0.150000X-0.512500X0.150000X0.512500X-0.150000X0.512500X-0.150000X-0.512500X0*%
%ADD18RoundRect,0.225000X0.250000X-0.225000X0.250000X0.225000X-0.250000X0.225000X-0.250000X-0.225000X0*%
%ADD19RoundRect,0.250000X0.475000X-0.250000X0.475000X0.250000X-0.475000X0.250000X-0.475000X-0.250000X0*%
%ADD20RoundRect,0.218750X0.218750X0.256250X-0.218750X0.256250X-0.218750X-0.256250X0.218750X-0.256250X0*%
%ADD21RoundRect,0.150000X0.150000X-0.587500X0.150000X0.587500X-0.150000X0.587500X-0.150000X-0.587500X0*%
%ADD22RoundRect,0.062500X-0.062500X0.350000X-0.062500X-0.350000X0.062500X-0.350000X0.062500X0.350000X0*%
%ADD23RoundRect,0.062500X-0.350000X0.062500X-0.350000X-0.062500X0.350000X-0.062500X0.350000X0.062500X0*%
%ADD24R,1.700000X1.700000*%
%ADD25FreePoly0,90.000000*%
%ADD26FreePoly1,90.000000*%
%ADD27O,1.200000X2.000000*%
%ADD28O,1.200000X1.800000*%
G04 APERTURE END LIST*
D10*
%TO.C,JP3*%
G36*
X3350000Y-10150000D02*
G01*
X1850000Y-10150000D01*
X1850000Y-9850000D01*
X3350000Y-9850000D01*
X3350000Y-10150000D01*
G37*
%TD*%
D11*
%TO.C,J6*%
X0Y0D03*
%TD*%
D12*
%TO.C,TP5*%
X-1001920Y-10793789D03*
%TD*%
D13*
%TO.C,C7*%
X13083332Y5568791D03*
X13083332Y4018791D03*
%TD*%
D14*
%TO.C,L1*%
X10700000Y4799999D03*
X10700000Y7599999D03*
%TD*%
D11*
%TO.C,J1*%
X0Y-7500000D03*
%TD*%
D15*
%TO.C,R8*%
X4510051Y-10356371D03*
X4510051Y-8706371D03*
%TD*%
D16*
%TO.C,TP2*%
X-6400000Y-12700000D03*
%TD*%
D11*
%TO.C,J5*%
X-4000000Y0D03*
%TD*%
%TO.C,J2*%
X0Y7500000D03*
%TD*%
D13*
%TO.C,C8*%
X16099999Y5574999D03*
X16099999Y4024999D03*
%TD*%
D17*
%TO.C,U3*%
X9750000Y462499D03*
X10700000Y462499D03*
X11650000Y462499D03*
X11650000Y2737499D03*
X10700000Y2737499D03*
X9750000Y2737499D03*
%TD*%
D18*
%TO.C,C5*%
X15094956Y817988D03*
X15094956Y2367988D03*
%TD*%
D19*
%TO.C,C2*%
X13390146Y642488D03*
X13390146Y2542488D03*
%TD*%
D15*
%TO.C,R11*%
X-2700000Y-17325000D03*
X-2700000Y-15675000D03*
%TD*%
D20*
%TO.C,D2*%
X7560293Y-8824264D03*
X5985291Y-8824264D03*
%TD*%
D11*
%TO.C,J4*%
X4000000Y0D03*
%TD*%
D21*
%TO.C,Q2*%
X4055025Y-7013312D03*
X5955025Y-7013312D03*
X5005025Y-5138311D03*
%TD*%
D22*
%TO.C,U4*%
X950000Y-15537500D03*
X450000Y-15537500D03*
X-50000Y-15537500D03*
X-550000Y-15537500D03*
D23*
X-1262500Y-16250000D03*
X-1262500Y-16750000D03*
X-1262500Y-17250000D03*
X-1262500Y-17750000D03*
D22*
X-550000Y-18462500D03*
X-50000Y-18462500D03*
X450000Y-18462500D03*
X950000Y-18462500D03*
D23*
X1662500Y-17750000D03*
X1662500Y-17250000D03*
X1662500Y-16750000D03*
X1662500Y-16250000D03*
D24*
X200000Y-17000000D03*
%TD*%
D15*
%TO.C,R7*%
X6065685Y-11912006D03*
X6065685Y-10262006D03*
%TD*%
D13*
%TO.C,C6*%
X14586639Y5569292D03*
X14586639Y4019292D03*
%TD*%
D16*
%TO.C,TP1*%
X-6300000Y-15600000D03*
%TD*%
D25*
%TO.C,JP3*%
X2600000Y-10649999D03*
D26*
X2600000Y-9350001D03*
%TD*%
D18*
%TO.C,C3*%
X8389076Y3431847D03*
X8389076Y4981847D03*
%TD*%
D16*
%TO.C,TP3*%
X6100000Y-15500000D03*
%TD*%
D12*
%TO.C,TP4*%
X-3000000Y-10900000D03*
%TD*%
D27*
%TO.C,J3*%
X4325121Y-13495753D03*
X-4325121Y-13495753D03*
D28*
X-4325121Y-17675585D03*
X4325121Y-17675585D03*
%TD*%
M02*
