M48
; DRILL file {KiCad 9.0.5-9.0.5~ubuntu25.04.1} date 2025-10-27T18:04:51+0100
; FORMAT={-:-/ absolute / inch / decimal}
; #@! TF.CreationDate,2025-10-27T18:04:51+01:00
; #@! TF.GenerationSoftware,Kicad,Pcbnew,9.0.5-9.0.5~ubuntu25.04.1
; #@! TF.FileFunction,Plated,1,2,PTH
FMAT,2
INCH
; #@! TA.AperFunction,Plated,PTH,ViaDrill
T1C0.0118
; #@! TA.AperFunction,Plated,PTH,ViaDrill
T2C0.0177
; #@! TA.AperFunction,Plated,PTH,ComponentDrill
T3C0.0315
%
G90
G05
T1
X-0.5394Y0.1102
X-0.5394Y0.0591
X-0.5276Y0.189
X-0.502Y0.2264
X-0.4331Y0.2165
X-0.1142Y0.2346
X-0.063Y-0.7244
X-0.059Y-0.4592
X-0.0552Y-0.5444
X-0.0354Y-0.7244
X-0.0137Y-0.4589
X-0.0118Y-0.6535
X-0.0118Y-0.685
X0.0197Y-0.6535
X0.0197Y-0.685
X0.0354Y-0.4567
X0.044Y-0.5422
X0.0589Y-0.7497
X0.0984Y-0.4606
X0.563Y0.0
T2
X-0.3163Y-0.3071
X-0.2913Y-0.2615
X-0.1417Y0.3819
X0.0039Y-0.397
X0.0374Y-0.4035
X0.2756Y0.3819
X0.2913Y0.3189
X0.2913Y-0.2484
X0.3543Y-0.3085
T3
G00X-0.1703Y-0.5471
M15
G01X-0.1703Y-0.5156
M16
G05
G00X-0.1703Y-0.7077
M15
G01X-0.1703Y-0.6841
M16
G05
G00X0.1703Y-0.5471
M15
G01X0.1703Y-0.5156
M16
G05
G00X0.1703Y-0.7077
M15
G01X0.1703Y-0.6841
M16
G05
M30
