M48
; DRILL file {KiCad 9.0.5-9.0.5~ubuntu25.04.1} date 2025-10-27T18:11:11+0100
; FORMAT={-:-/ absolute / inch / decimal}
; #@! TF.CreationDate,2025-10-27T18:11:11+01:00
; #@! TF.GenerationSoftware,Kicad,Pcbnew,9.0.5-9.0.5~ubuntu25.04.1
; #@! TF.FileFunction,Plated,1,2,PTH
FMAT,2
INCH
; #@! TA.AperFunction,Plated,PTH,ViaDrill
T1C0.0118
; #@! TA.AperFunction,Plated,PTH,ViaDrill
T2C0.0177
; #@! TA.AperFunction,Plated,PTH,ComponentDrill
T3C0.0315
%
G90
G05
T1
X-0.561Y0.2234
X-0.502Y0.2264
X-0.4331Y0.2165
X-0.1378Y-0.3937
X-0.0941Y-0.4597
X-0.0591Y0.2346
X-0.0138Y-0.4587
X0.0305Y-0.4628
X0.0569Y-0.3808
X0.0886Y-0.4528
X0.128Y-0.2461
X0.1285Y-0.4016
X0.2953Y-0.1673
X0.6102Y0.0886
T2
X-0.3425Y-0.3346
X-0.2756Y-0.2441
X-0.2264Y0.0689
X-0.2264Y-0.0492
X-0.126Y-0.0866
X-0.0758Y-0.5512
X0.0758Y-0.5503
X0.1378Y-0.0886
X0.2067Y0.0689
X0.2362Y0.0
X0.2795Y-0.2559
X0.4606Y-0.4252
T3
G00X-0.1703Y-0.5471
M15
G01X-0.1703Y-0.5156
M16
G05
G00X-0.1703Y-0.7077
M15
G01X-0.1703Y-0.6841
M16
G05
G00X0.1703Y-0.5471
M15
G01X0.1703Y-0.5156
M16
G05
G00X0.1703Y-0.7077
M15
G01X0.1703Y-0.6841
M16
G05
M30
