%TF.GenerationSoftware,KiCad,Pcbnew,8.0.9-8.0.9-0~ubuntu24.04.1*%
%TF.CreationDate,2025-03-13T12:41:12+01:00*%
%TF.ProjectId,BladeMaster,426c6164-654d-4617-9374-65722e6b6963,rev?*%
%TF.SameCoordinates,Original*%
%TF.FileFunction,Legend,Top*%
%TF.FilePolarity,Positive*%
%FSLAX46Y46*%
G04 Gerber Fmt 4.6, Leading zero omitted, Abs format (unit mm)*
G04 Created by KiCad (PCBNEW 8.0.9-8.0.9-0~ubuntu24.04.1) date 2025-03-13 12:41:12*
%MOMM*%
%LPD*%
G01*
G04 APERTURE LIST*
G04 Aperture macros list*
%AMRoundRect*
0 Rectangle with rounded corners*
0 $1 Rounding radius*
0 $2 $3 $4 $5 $6 $7 $8 $9 X,Y pos of 4 corners*
0 Add a 4 corners polygon primitive as box body*
4,1,4,$2,$3,$4,$5,$6,$7,$8,$9,$2,$3,0*
0 Add four circle primitives for the rounded corners*
1,1,$1+$1,$2,$3*
1,1,$1+$1,$4,$5*
1,1,$1+$1,$6,$7*
1,1,$1+$1,$8,$9*
0 Add four rect primitives between the rounded corners*
20,1,$1+$1,$2,$3,$4,$5,0*
20,1,$1+$1,$4,$5,$6,$7,0*
20,1,$1+$1,$6,$7,$8,$9,0*
20,1,$1+$1,$8,$9,$2,$3,0*%
G04 Aperture macros list end*
%ADD10C,0.150000*%
%ADD11C,0.120000*%
%ADD12RoundRect,0.150000X-0.512500X-0.150000X0.512500X-0.150000X0.512500X0.150000X-0.512500X0.150000X0*%
%ADD13RoundRect,0.150000X-0.687500X-0.150000X0.687500X-0.150000X0.687500X0.150000X-0.687500X0.150000X0*%
%ADD14R,2.100000X3.300000*%
%ADD15R,1.500000X0.900000*%
%ADD16R,0.900000X1.500000*%
%ADD17C,0.600000*%
%ADD18R,3.800000X3.800000*%
G04 APERTURE END LIST*
D10*
X257600595Y-34104819D02*
X257600595Y-34914342D01*
X257600595Y-34914342D02*
X257648214Y-35009580D01*
X257648214Y-35009580D02*
X257695833Y-35057200D01*
X257695833Y-35057200D02*
X257791071Y-35104819D01*
X257791071Y-35104819D02*
X257981547Y-35104819D01*
X257981547Y-35104819D02*
X258076785Y-35057200D01*
X258076785Y-35057200D02*
X258124404Y-35009580D01*
X258124404Y-35009580D02*
X258172023Y-34914342D01*
X258172023Y-34914342D02*
X258172023Y-34104819D01*
X259124404Y-34104819D02*
X258648214Y-34104819D01*
X258648214Y-34104819D02*
X258600595Y-34581009D01*
X258600595Y-34581009D02*
X258648214Y-34533390D01*
X258648214Y-34533390D02*
X258743452Y-34485771D01*
X258743452Y-34485771D02*
X258981547Y-34485771D01*
X258981547Y-34485771D02*
X259076785Y-34533390D01*
X259076785Y-34533390D02*
X259124404Y-34581009D01*
X259124404Y-34581009D02*
X259172023Y-34676247D01*
X259172023Y-34676247D02*
X259172023Y-34914342D01*
X259172023Y-34914342D02*
X259124404Y-35009580D01*
X259124404Y-35009580D02*
X259076785Y-35057200D01*
X259076785Y-35057200D02*
X258981547Y-35104819D01*
X258981547Y-35104819D02*
X258743452Y-35104819D01*
X258743452Y-35104819D02*
X258648214Y-35057200D01*
X258648214Y-35057200D02*
X258600595Y-35009580D01*
X257600595Y-29479819D02*
X257600595Y-30289342D01*
X257600595Y-30289342D02*
X257648214Y-30384580D01*
X257648214Y-30384580D02*
X257695833Y-30432200D01*
X257695833Y-30432200D02*
X257791071Y-30479819D01*
X257791071Y-30479819D02*
X257981547Y-30479819D01*
X257981547Y-30479819D02*
X258076785Y-30432200D01*
X258076785Y-30432200D02*
X258124404Y-30384580D01*
X258124404Y-30384580D02*
X258172023Y-30289342D01*
X258172023Y-30289342D02*
X258172023Y-29479819D01*
X259076785Y-29813152D02*
X259076785Y-30479819D01*
X258838690Y-29432200D02*
X258600595Y-30146485D01*
X258600595Y-30146485D02*
X259219642Y-30146485D01*
X257600595Y-24854819D02*
X257600595Y-25664342D01*
X257600595Y-25664342D02*
X257648214Y-25759580D01*
X257648214Y-25759580D02*
X257695833Y-25807200D01*
X257695833Y-25807200D02*
X257791071Y-25854819D01*
X257791071Y-25854819D02*
X257981547Y-25854819D01*
X257981547Y-25854819D02*
X258076785Y-25807200D01*
X258076785Y-25807200D02*
X258124404Y-25759580D01*
X258124404Y-25759580D02*
X258172023Y-25664342D01*
X258172023Y-25664342D02*
X258172023Y-24854819D01*
X258552976Y-24854819D02*
X259172023Y-24854819D01*
X259172023Y-24854819D02*
X258838690Y-25235771D01*
X258838690Y-25235771D02*
X258981547Y-25235771D01*
X258981547Y-25235771D02*
X259076785Y-25283390D01*
X259076785Y-25283390D02*
X259124404Y-25331009D01*
X259124404Y-25331009D02*
X259172023Y-25426247D01*
X259172023Y-25426247D02*
X259172023Y-25664342D01*
X259172023Y-25664342D02*
X259124404Y-25759580D01*
X259124404Y-25759580D02*
X259076785Y-25807200D01*
X259076785Y-25807200D02*
X258981547Y-25854819D01*
X258981547Y-25854819D02*
X258695833Y-25854819D01*
X258695833Y-25854819D02*
X258600595Y-25807200D01*
X258600595Y-25807200D02*
X258552976Y-25759580D01*
X209720595Y-67444819D02*
X209720595Y-68254342D01*
X209720595Y-68254342D02*
X209768214Y-68349580D01*
X209768214Y-68349580D02*
X209815833Y-68397200D01*
X209815833Y-68397200D02*
X209911071Y-68444819D01*
X209911071Y-68444819D02*
X210101547Y-68444819D01*
X210101547Y-68444819D02*
X210196785Y-68397200D01*
X210196785Y-68397200D02*
X210244404Y-68349580D01*
X210244404Y-68349580D02*
X210292023Y-68254342D01*
X210292023Y-68254342D02*
X210292023Y-67444819D01*
X210720595Y-67540057D02*
X210768214Y-67492438D01*
X210768214Y-67492438D02*
X210863452Y-67444819D01*
X210863452Y-67444819D02*
X211101547Y-67444819D01*
X211101547Y-67444819D02*
X211196785Y-67492438D01*
X211196785Y-67492438D02*
X211244404Y-67540057D01*
X211244404Y-67540057D02*
X211292023Y-67635295D01*
X211292023Y-67635295D02*
X211292023Y-67730533D01*
X211292023Y-67730533D02*
X211244404Y-67873390D01*
X211244404Y-67873390D02*
X210672976Y-68444819D01*
X210672976Y-68444819D02*
X211292023Y-68444819D01*
X219857319Y-66106904D02*
X220666842Y-66106904D01*
X220666842Y-66106904D02*
X220762080Y-66059285D01*
X220762080Y-66059285D02*
X220809700Y-66011666D01*
X220809700Y-66011666D02*
X220857319Y-65916428D01*
X220857319Y-65916428D02*
X220857319Y-65725952D01*
X220857319Y-65725952D02*
X220809700Y-65630714D01*
X220809700Y-65630714D02*
X220762080Y-65583095D01*
X220762080Y-65583095D02*
X220666842Y-65535476D01*
X220666842Y-65535476D02*
X219857319Y-65535476D01*
X220857319Y-64535476D02*
X220857319Y-65106904D01*
X220857319Y-64821190D02*
X219857319Y-64821190D01*
X219857319Y-64821190D02*
X220000176Y-64916428D01*
X220000176Y-64916428D02*
X220095414Y-65011666D01*
X220095414Y-65011666D02*
X220143033Y-65106904D01*
D11*
%TO.C,U5*%
X258362500Y-35490000D02*
X257562500Y-35490000D01*
X258362500Y-35490000D02*
X259162500Y-35490000D01*
X258362500Y-38610000D02*
X257562500Y-38610000D01*
X258362500Y-38610000D02*
X259162500Y-38610000D01*
X257062500Y-35540000D02*
X256822500Y-35210000D01*
X257302500Y-35210000D01*
X257062500Y-35540000D01*
G36*
X257062500Y-35540000D02*
G01*
X256822500Y-35210000D01*
X257302500Y-35210000D01*
X257062500Y-35540000D01*
G37*
%TO.C,U4*%
X258362500Y-30865000D02*
X257562500Y-30865000D01*
X258362500Y-30865000D02*
X259162500Y-30865000D01*
X258362500Y-33985000D02*
X257562500Y-33985000D01*
X258362500Y-33985000D02*
X259162500Y-33985000D01*
X257062500Y-30915000D02*
X256822500Y-30585000D01*
X257302500Y-30585000D01*
X257062500Y-30915000D01*
G36*
X257062500Y-30915000D02*
G01*
X256822500Y-30585000D01*
X257302500Y-30585000D01*
X257062500Y-30915000D01*
G37*
%TO.C,U3*%
X258362500Y-26240000D02*
X257562500Y-26240000D01*
X258362500Y-26240000D02*
X259162500Y-26240000D01*
X258362500Y-29360000D02*
X257562500Y-29360000D01*
X258362500Y-29360000D02*
X259162500Y-29360000D01*
X257062500Y-26290000D02*
X256822500Y-25960000D01*
X257302500Y-25960000D01*
X257062500Y-26290000D01*
G36*
X257062500Y-26290000D02*
G01*
X256822500Y-25960000D01*
X257302500Y-25960000D01*
X257062500Y-26290000D01*
G37*
%TO.C,U2*%
X210482500Y-68830000D02*
X208532500Y-68830000D01*
X210482500Y-68830000D02*
X212432500Y-68830000D01*
X210482500Y-73950000D02*
X208532500Y-73950000D01*
X210482500Y-73950000D02*
X212432500Y-73950000D01*
X207770000Y-68830000D02*
X207530000Y-68500000D01*
X208010000Y-68500000D01*
X207770000Y-68830000D01*
G36*
X207770000Y-68830000D02*
G01*
X207530000Y-68500000D01*
X208010000Y-68500000D01*
X207770000Y-68830000D01*
G37*
%TO.C,U1*%
X221892500Y-41055000D02*
X221892500Y-47215000D01*
X221892500Y-41055000D02*
X240132500Y-41055000D01*
X221892500Y-66015000D02*
X221892500Y-66795000D01*
X221892500Y-66795000D02*
X222892500Y-66795000D01*
X240132500Y-41055000D02*
X240132500Y-47470000D01*
X240132500Y-66015000D02*
X240132500Y-66795000D01*
X240132500Y-66795000D02*
X239132500Y-66795000D01*
X221887500Y-47940000D02*
X221387500Y-47940000D01*
X221887500Y-47440000D01*
X221887500Y-47940000D01*
G36*
X221887500Y-47940000D02*
G01*
X221387500Y-47940000D01*
X221887500Y-47440000D01*
X221887500Y-47940000D01*
G37*
%TD*%
%LPC*%
D12*
%TO.C,U5*%
X257225000Y-36100000D03*
X257225000Y-37050000D03*
X257225000Y-38000000D03*
X259500000Y-38000000D03*
X259500000Y-37050000D03*
X259500000Y-36100000D03*
%TD*%
%TO.C,U4*%
X257225000Y-31475000D03*
X257225000Y-32425000D03*
X257225000Y-33375000D03*
X259500000Y-33375000D03*
X259500000Y-32425000D03*
X259500000Y-31475000D03*
%TD*%
%TO.C,U3*%
X257225000Y-26850000D03*
X257225000Y-27800000D03*
X257225000Y-28750000D03*
X259500000Y-28750000D03*
X259500000Y-26850000D03*
%TD*%
D13*
%TO.C,U2*%
X207845000Y-69390000D03*
X207845000Y-70390000D03*
X207845000Y-71390000D03*
X207845000Y-72390000D03*
X207845000Y-73390000D03*
X213120000Y-73390000D03*
X213120000Y-72390000D03*
X213120000Y-71390000D03*
X213120000Y-70390000D03*
X213120000Y-69390000D03*
D14*
X210482500Y-71390000D03*
%TD*%
D15*
%TO.C,U1*%
X222262500Y-48665000D03*
X222262500Y-49935000D03*
X222262500Y-51205000D03*
X222262500Y-52475000D03*
X222262500Y-53745000D03*
X222262500Y-55015000D03*
X222262500Y-56285000D03*
X222262500Y-57555000D03*
X222262500Y-58825000D03*
X222262500Y-60095000D03*
X222262500Y-61365000D03*
X222262500Y-62635000D03*
X222262500Y-63905000D03*
X222262500Y-65175000D03*
D16*
X225302500Y-66425000D03*
X226572500Y-66425000D03*
X227842500Y-66425000D03*
X229112500Y-66425000D03*
X230382500Y-66425000D03*
X231652500Y-66425000D03*
X232922500Y-66425000D03*
X234192500Y-66425000D03*
X235462500Y-66425000D03*
X236732500Y-66425000D03*
D15*
X239762500Y-65175000D03*
X239762500Y-63905000D03*
X239762500Y-62635000D03*
X239762500Y-61365000D03*
X239762500Y-60095000D03*
X239762500Y-58825000D03*
X239762500Y-57555000D03*
X239762500Y-56285000D03*
X239762500Y-55015000D03*
X239762500Y-53745000D03*
X239762500Y-52475000D03*
X239762500Y-51205000D03*
X239762500Y-49935000D03*
X239762500Y-48665000D03*
D17*
X228112500Y-55685000D03*
X228112500Y-57085000D03*
X228812500Y-54985000D03*
X228812500Y-56385000D03*
X228812500Y-57785000D03*
X229487500Y-55685000D03*
X229487500Y-57085000D03*
D18*
X229512500Y-56385000D03*
D17*
X230212500Y-54985000D03*
X230212500Y-56385000D03*
X230212500Y-57785000D03*
X230912500Y-55685000D03*
X230912500Y-57085000D03*
%TD*%
%LPD*%
M02*
