%TF.GenerationSoftware,KiCad,Pcbnew,9.0.6-9.0.6~ubuntu25.04.1*%
%TF.CreationDate,2025-11-04T15:06:10+01:00*%
%TF.ProjectId,BladeMaster,426c6164-654d-4617-9374-65722e6b6963,h4*%
%TF.SameCoordinates,Original*%
%TF.FileFunction,Copper,L1,Top*%
%TF.FilePolarity,Positive*%
%FSLAX46Y46*%
G04 Gerber Fmt 4.6, Leading zero omitted, Abs format (unit mm)*
G04 Created by KiCad (PCBNEW 9.0.6-9.0.6~ubuntu25.04.1) date 2025-11-04 15:06:10*
%MOMM*%
%LPD*%
G01*
G04 APERTURE LIST*
G04 Aperture macros list*
%AMRoundRect*
0 Rectangle with rounded corners*
0 $1 Rounding radius*
0 $2 $3 $4 $5 $6 $7 $8 $9 X,Y pos of 4 corners*
0 Add a 4 corners polygon primitive as box body*
4,1,4,$2,$3,$4,$5,$6,$7,$8,$9,$2,$3,0*
0 Add four circle primitives for the rounded corners*
1,1,$1+$1,$2,$3*
1,1,$1+$1,$4,$5*
1,1,$1+$1,$6,$7*
1,1,$1+$1,$8,$9*
0 Add four rect primitives between the rounded corners*
20,1,$1+$1,$2,$3,$4,$5,0*
20,1,$1+$1,$4,$5,$6,$7,0*
20,1,$1+$1,$6,$7,$8,$9,0*
20,1,$1+$1,$8,$9,$2,$3,0*%
G04 Aperture macros list end*
%TA.AperFunction,SMDPad,CuDef*%
%ADD10RoundRect,0.150000X0.150000X-0.512500X0.150000X0.512500X-0.150000X0.512500X-0.150000X-0.512500X0*%
%TD*%
%TA.AperFunction,SMDPad,CuDef*%
%ADD11C,1.500000*%
%TD*%
%TA.AperFunction,SMDPad,CuDef*%
%ADD12R,1.500000X1.500000*%
%TD*%
%TA.AperFunction,SMDPad,CuDef*%
%ADD13C,2.500000*%
%TD*%
%TA.AperFunction,SMDPad,CuDef*%
%ADD14RoundRect,0.200000X-0.275000X0.200000X-0.275000X-0.200000X0.275000X-0.200000X0.275000X0.200000X0*%
%TD*%
%TA.AperFunction,SMDPad,CuDef*%
%ADD15RoundRect,0.225000X-0.225000X-0.250000X0.225000X-0.250000X0.225000X0.250000X-0.225000X0.250000X0*%
%TD*%
%TA.AperFunction,ComponentPad*%
%ADD16O,1.200000X2.000000*%
%TD*%
%TA.AperFunction,ComponentPad*%
%ADD17O,1.200000X1.800000*%
%TD*%
%TA.AperFunction,ViaPad*%
%ADD18C,0.500000*%
%TD*%
%TA.AperFunction,ViaPad*%
%ADD19C,0.800000*%
%TD*%
%TA.AperFunction,ViaPad*%
%ADD20C,0.450000*%
%TD*%
%TA.AperFunction,Conductor*%
%ADD21C,0.800000*%
%TD*%
%TA.AperFunction,Conductor*%
%ADD22C,0.500000*%
%TD*%
%TA.AperFunction,Conductor*%
%ADD23C,0.300000*%
%TD*%
%TA.AperFunction,Conductor*%
%ADD24C,0.250000*%
%TD*%
%TA.AperFunction,Conductor*%
%ADD25C,0.200000*%
%TD*%
G04 APERTURE END LIST*
D10*
%TO.P,U4,1,VDD*%
%TO.N,Net-(U4-VDD)*%
X-957821Y-17231580D03*
%TO.P,U4,2,GND*%
%TO.N,GND*%
X-7822Y-17231580D03*
%TO.P,U4,3,PG*%
%TO.N,unconnected-(U4-PG-Pad3)*%
X942177Y-17231580D03*
%TO.P,U4,4,CC1*%
%TO.N,/CC1*%
X942177Y-14956580D03*
%TO.P,U4,5,CC2*%
%TO.N,/CC2*%
X-7822Y-14956580D03*
%TO.P,U4,6,CFG*%
%TO.N,Net-(U4-CFG)*%
X-957821Y-14956580D03*
%TD*%
D11*
%TO.P,CC2,1,1*%
%TO.N,/CC1*%
X9595648Y-15194211D03*
%TD*%
D12*
%TO.P,GND,1,1*%
%TO.N,GND*%
X12100000Y-13600000D03*
%TD*%
D13*
%TO.P,J6,1,1*%
%TO.N,Net-(Q1-D)*%
X0Y0D03*
%TD*%
%TO.P,J1,1,1*%
%TO.N,/VBUS*%
X0Y-7500000D03*
%TD*%
%TO.P,J5,1,1*%
%TO.N,GND*%
X-4000000Y0D03*
%TD*%
D14*
%TO.P,R11,1*%
%TO.N,/VBUS*%
X-8000000Y-14775000D03*
%TO.P,R11,2*%
%TO.N,Net-(U4-VDD)*%
X-8000000Y-16425000D03*
%TD*%
D11*
%TO.P,CC1,1,1*%
%TO.N,/CC2*%
X7400000Y-16600000D03*
%TD*%
D13*
%TO.P,J2,1,1*%
%TO.N,/VBUS*%
X0Y7500000D03*
%TD*%
%TO.P,J4,1,1*%
%TO.N,GND*%
X4000000Y0D03*
%TD*%
D15*
%TO.P,C5,1*%
%TO.N,Net-(U4-VDD)*%
X-782822Y-18899052D03*
%TO.P,C5,2*%
%TO.N,GND*%
X767178Y-18899052D03*
%TD*%
D14*
%TO.P,R12,1*%
%TO.N,Net-(U4-CFG)*%
X-6500000Y-14775000D03*
%TO.P,R12,2*%
%TO.N,Net-(U4-VDD)*%
X-6500000Y-16425000D03*
%TD*%
D16*
%TO.P,J3,0,SH*%
%TO.N,GND*%
X4325121Y-13495753D03*
%TO.P,J3,1,SH*%
X-4325121Y-13495753D03*
D17*
%TO.P,J3,2,SH*%
X-4325121Y-17675585D03*
%TO.P,J3,3,SH*%
X4325121Y-17675585D03*
%TD*%
D18*
%TO.N,GND*%
X3263341Y-10200000D03*
D19*
X6000000Y0D03*
X-5750000Y1750000D03*
X-3200000Y-2200000D03*
X5250000Y1750000D03*
X11700000Y-10800000D03*
X-5750000Y-1250000D03*
X-7000000Y-6200000D03*
D18*
X3250000Y-6250000D03*
D19*
X7100000Y-6500000D03*
X3500000Y-2250000D03*
X-8700000Y-8500000D03*
D18*
%TO.N,/VBUS*%
X-14250000Y5675000D03*
X-3500000Y-10000000D03*
X15500000Y2250000D03*
X-2389027Y-11675556D03*
X2250000Y-11500000D03*
D19*
X-2000000Y-14400000D03*
D20*
X-8000000Y-15600000D03*
D19*
X1925102Y-13976880D03*
D18*
%TO.N,/3.3V*%
X-1500000Y5959107D03*
X-11000000Y5500000D03*
D20*
%TO.N,/CC2*%
X-1098221Y-13802400D03*
%TO.N,/CC1*%
X1100102Y-13789443D03*
D19*
%TO.N,Net-(Q1-D)*%
X-12750000Y5750000D03*
D20*
%TO.N,/D-*%
X775000Y-11756103D03*
X-350000Y-11650000D03*
%TD*%
D21*
%TO.N,GND*%
X4000000Y500000D02*
X5250000Y1750000D01*
X4325121Y-13495753D02*
X9004247Y-13495753D01*
X9004247Y-13495753D02*
X11700000Y-10800000D01*
X-7100000Y-2600000D02*
X-5750000Y-1250000D01*
X6751000Y3251000D02*
X5250000Y1750000D01*
X16501000Y2664628D02*
X15914628Y3251000D01*
D22*
X3250000Y-9525000D02*
X3250000Y-6250000D01*
D21*
X-7100000Y-10720874D02*
X-7100000Y-2600000D01*
X-3200000Y-1300000D02*
X-4000000Y-500000D01*
D22*
X3101654Y-18899052D02*
X4325121Y-17675585D01*
X767178Y-18899052D02*
X3101654Y-18899052D01*
D21*
X-8700000Y-8500000D02*
X-8700000Y-7900000D01*
X-8700000Y-7900000D02*
X-7000000Y-6200000D01*
D22*
X12100000Y-13600000D02*
X9108494Y-13600000D01*
D21*
X-4500000Y0D02*
X-5750000Y-1250000D01*
D22*
X3263341Y-9538341D02*
X3250000Y-9525000D01*
D21*
X4000000Y-1750000D02*
X3500000Y-2250000D01*
D22*
X-7822Y-18124052D02*
X-7822Y-17231580D01*
X9108494Y-13600000D02*
X9004247Y-13495753D01*
D21*
X4000000Y0D02*
X4000000Y-1750000D01*
X11700000Y-10800000D02*
X16501000Y-5999000D01*
X15914628Y3251000D02*
X6751000Y3251000D01*
X-4000000Y0D02*
X-5750000Y1750000D01*
X-3200000Y-2200000D02*
X-3200000Y-1300000D01*
X11400000Y-10800000D02*
X11700000Y-10800000D01*
X4000000Y0D02*
X4000000Y500000D01*
X16501000Y-5999000D02*
X16501000Y2664628D01*
X-4000000Y-500000D02*
X-4000000Y0D01*
D22*
X767178Y-18899052D02*
X-7822Y-18124052D01*
D21*
X-4325121Y-13495753D02*
X-7100000Y-10720874D01*
X4000000Y0D02*
X6000000Y0D01*
D22*
X3263341Y-10200000D02*
X3263341Y-9538341D01*
D21*
X7100000Y-6500000D02*
X11400000Y-10800000D01*
X-4000000Y0D02*
X-4500000Y0D01*
D22*
%TO.N,/VBUS*%
X-1923917Y-11250000D02*
X-1963471Y-11250000D01*
X-2500000Y-10000000D02*
X-1923917Y-9423917D01*
D21*
X-1923917Y-9423917D02*
X-1923917Y-11250000D01*
X1925102Y-13976880D02*
X1925102Y-11425102D01*
X0Y-7500000D02*
X-1923917Y-9423917D01*
D23*
X-12425000Y7500000D02*
X0Y7500000D01*
X2000000Y-11500000D02*
X1925102Y-11425102D01*
X2250000Y-11500000D02*
X2000000Y-11500000D01*
D21*
X-1923917Y-11250000D02*
X-1923917Y-14323917D01*
X0Y-9500000D02*
X0Y-7500000D01*
X1925102Y-11425102D02*
X0Y-9500000D01*
X0Y7500000D02*
X2000000Y5500000D01*
X15500000Y2250000D02*
X9750000Y2250000D01*
X-1923917Y-14323917D02*
X-2000000Y-14400000D01*
D22*
X-3500000Y-10000000D02*
X-2500000Y-10000000D01*
D21*
X2000000Y5500000D02*
X2000000Y-5500000D01*
D23*
X-14250000Y5675000D02*
X-12425000Y7500000D01*
D21*
X2000000Y-5500000D02*
X0Y-7500000D01*
D22*
X-1963471Y-11250000D02*
X-2389027Y-11675556D01*
D24*
X-8000000Y-15600000D02*
X-8000000Y-14775000D01*
D21*
X9750000Y2250000D02*
X2000000Y-5500000D01*
D23*
%TO.N,/3.3V*%
X-8650000Y5500000D02*
X-11000000Y5500000D01*
X-1500000Y5959107D02*
X-8190893Y5959107D01*
X-8190893Y5959107D02*
X-8650000Y5500000D01*
D25*
%TO.N,/CC2*%
X-7822Y-14956580D02*
X-7822Y-14294081D01*
X-7822Y-14294081D02*
X-499503Y-13802400D01*
X-499503Y-13802400D02*
X-1098221Y-13802400D01*
D24*
X7400000Y-16600000D02*
X7018080Y-16218080D01*
X7018080Y-16218080D02*
X591179Y-16218080D01*
X-7822Y-15619079D02*
X-7822Y-14956580D01*
X591179Y-16218080D02*
X-7822Y-15619079D01*
D25*
%TO.N,/CC1*%
X942177Y-14956580D02*
X942177Y-13947368D01*
X942177Y-14956580D02*
X9358017Y-14956580D01*
X9358017Y-14956580D02*
X9595648Y-15194211D01*
X942177Y-13947368D02*
X1100102Y-13789443D01*
D22*
%TO.N,Net-(Q1-D)*%
X-12750000Y5750000D02*
X-11250000Y4250000D01*
X-11250000Y4250000D02*
X-1250000Y4250000D01*
X0Y3000000D02*
X0Y0D01*
X-1250000Y4250000D02*
X0Y3000000D01*
D25*
%TO.N,/D-*%
X668897Y-11650000D02*
X775000Y-11756103D01*
X-350000Y-11650000D02*
X668897Y-11650000D01*
D23*
%TO.N,Net-(U4-VDD)*%
X-1864816Y-16324585D02*
X-957821Y-17231580D01*
X-6500000Y-16425000D02*
X-6399585Y-16324585D01*
D22*
X-782822Y-18899052D02*
X-782822Y-17406579D01*
X-782822Y-17406579D02*
X-957821Y-17231580D01*
D23*
X-8000000Y-16425000D02*
X-6500000Y-16425000D01*
X-6399585Y-16324585D02*
X-1864816Y-16324585D01*
%TO.N,Net-(U4-CFG)*%
X-957821Y-14956580D02*
X-1402241Y-15401000D01*
X-1402241Y-15401000D02*
X-5874000Y-15401000D01*
X-5874000Y-15401000D02*
X-6500000Y-14775000D01*
%TD*%
%TA.AperFunction,Conductor*%
%TO.N,/VBUS*%
G36*
X-9356897Y11230315D02*
G01*
X-9313085Y11180157D01*
X-9312932Y11180244D01*
X-9312486Y11179471D01*
X-9311553Y11178403D01*
X-9310227Y11175558D01*
X-9222691Y11023943D01*
X-9110164Y10889837D01*
X-8976058Y10777310D01*
X-8976057Y10777309D01*
X-8976055Y10777308D01*
X-8824445Y10689775D01*
X-8659938Y10629899D01*
X-8487532Y10599500D01*
X-8487528Y10599500D01*
X8487528Y10599500D01*
X8487532Y10599500D01*
X8659938Y10629899D01*
X8824445Y10689775D01*
X8976055Y10777308D01*
X9110163Y10889837D01*
X9222692Y11023945D01*
X9310225Y11175555D01*
X9310226Y11175559D01*
X9311553Y11178403D01*
X9312471Y11179446D01*
X9312932Y11180244D01*
X9313092Y11180152D01*
X9357725Y11230843D01*
X9423936Y11250000D01*
X15979366Y11250000D01*
X16046405Y11230315D01*
X16080952Y11197107D01*
X16092820Y11180152D01*
X16228327Y10986560D01*
X16288498Y10900598D01*
X16291400Y10896262D01*
X16731626Y10207274D01*
X16733240Y10204749D01*
X16735953Y10200297D01*
X17018807Y9713567D01*
X17082711Y9603603D01*
X17099500Y9541299D01*
X17099500Y3638990D01*
X17079815Y3571951D01*
X17027011Y3526196D01*
X16957853Y3516252D01*
X16894297Y3545277D01*
X16887819Y3551309D01*
X16488669Y3950460D01*
X16488668Y3950461D01*
X16488664Y3950464D01*
X16429587Y3989937D01*
X16341175Y4049013D01*
X16259234Y4082954D01*
X16177294Y4116895D01*
X16177286Y4116897D01*
X16003324Y4151500D01*
X16003320Y4151500D01*
X16003319Y4151500D01*
X6839692Y4151500D01*
X6662309Y4151500D01*
X6662304Y4151500D01*
X6488339Y4116897D01*
X6488323Y4116892D01*
X6372453Y4068898D01*
X6372454Y4068897D01*
X6324454Y4049014D01*
X6176965Y3950465D01*
X6176961Y3950462D01*
X4658522Y2432023D01*
X4013319Y1786819D01*
X3951996Y1753334D01*
X3925638Y1750500D01*
X3885258Y1750500D01*
X3668715Y1721991D01*
X3657762Y1720548D01*
X3575104Y1698400D01*
X3436112Y1661158D01*
X3224123Y1573350D01*
X3224109Y1573343D01*
X3025382Y1458608D01*
X2843338Y1318919D01*
X2681081Y1156662D01*
X2541392Y974618D01*
X2426657Y775891D01*
X2426650Y775877D01*
X2338842Y563888D01*
X2279453Y342241D01*
X2279451Y342230D01*
X2249500Y114742D01*
X2249500Y-114741D01*
X2268975Y-262658D01*
X2279452Y-342238D01*
X2302044Y-426553D01*
X2338842Y-563887D01*
X2426650Y-775876D01*
X2426657Y-775890D01*
X2541392Y-974617D01*
X2681081Y-1156661D01*
X2681089Y-1156670D01*
X2843333Y-1318914D01*
X2843343Y-1318922D01*
X2908969Y-1369280D01*
X2918214Y-1381941D01*
X2930984Y-1391043D01*
X2938397Y-1409584D01*
X2950171Y-1425708D01*
X2951103Y-1441358D01*
X2956925Y-1455918D01*
X2953138Y-1475522D01*
X2954326Y-1495454D01*
X2946472Y-1510034D01*
X2943675Y-1524520D01*
X2924624Y-1550597D01*
X2923190Y-1553261D01*
X2922167Y-1554332D01*
X2800536Y-1675964D01*
X2793518Y-1686468D01*
X2787549Y-1695400D01*
X2787546Y-1695404D01*
X2701988Y-1823449D01*
X2670059Y-1900535D01*
X2670059Y-1900536D01*
X2634105Y-1987334D01*
X2634103Y-1987340D01*
X2599500Y-2161303D01*
X2599500Y-2338696D01*
X2634103Y-2512659D01*
X2634104Y-2512663D01*
X2634105Y-2512666D01*
X2667652Y-2593653D01*
X2701987Y-2676547D01*
X2760109Y-2763532D01*
X2763260Y-2768248D01*
X2763264Y-2768255D01*
X2800537Y-2824038D01*
X2925961Y-2949462D01*
X2925964Y-2949464D01*
X2964930Y-2975500D01*
X3073453Y-3048013D01*
X3155393Y-3081953D01*
X3237334Y-3115895D01*
X3411303Y-3150499D01*
X3411307Y-3150500D01*
X3411308Y-3150500D01*
X3588693Y-3150500D01*
X3588694Y-3150499D01*
X3762666Y-3115895D01*
X3844606Y-3081953D01*
X3926547Y-3048013D01*
X4035070Y-2975500D01*
X4074036Y-2949464D01*
X4699464Y-2324035D01*
X4734597Y-2271455D01*
X4798013Y-2176547D01*
X4825035Y-2111309D01*
X4865895Y-2012666D01*
X4900500Y-1838692D01*
X4900500Y-1661308D01*
X4900500Y-1572991D01*
X4920185Y-1505952D01*
X4962501Y-1465603D01*
X4974612Y-1458611D01*
X5156661Y-1318919D01*
X5156665Y-1318914D01*
X5156670Y-1318911D01*
X5318911Y-1156670D01*
X5318914Y-1156665D01*
X5318919Y-1156661D01*
X5458611Y-974612D01*
X5465603Y-962500D01*
X5516170Y-914285D01*
X5572991Y-900500D01*
X6088693Y-900500D01*
X6088694Y-900499D01*
X6146682Y-888964D01*
X6262658Y-865896D01*
X6262661Y-865894D01*
X6262666Y-865894D01*
X6426547Y-798013D01*
X6574035Y-699464D01*
X6699464Y-574035D01*
X6798013Y-426547D01*
X6865894Y-262666D01*
X6900500Y-88691D01*
X6900500Y88691D01*
X6900500Y88694D01*
X6900499Y88696D01*
X6865896Y262659D01*
X6865893Y262668D01*
X6798016Y426541D01*
X6798009Y426554D01*
X6699464Y574035D01*
X6699461Y574039D01*
X6574038Y699462D01*
X6574034Y699465D01*
X6426553Y798010D01*
X6426540Y798017D01*
X6262667Y865894D01*
X6262658Y865897D01*
X6088694Y900500D01*
X6088691Y900500D01*
X5973362Y900500D01*
X5952116Y906739D01*
X5930030Y908318D01*
X5919246Y916391D01*
X5906323Y920185D01*
X5891824Y936918D01*
X5874096Y950188D01*
X5869387Y962811D01*
X5860568Y972989D01*
X5857416Y994905D01*
X5849678Y1015652D01*
X5852541Y1028815D01*
X5850624Y1042147D01*
X5859822Y1062289D01*
X5864529Y1083926D01*
X5877799Y1101653D01*
X5879649Y1105703D01*
X5885680Y1112180D01*
X5949464Y1175964D01*
X5949464Y1175965D01*
X7087680Y2314181D01*
X7149003Y2347666D01*
X7175361Y2350500D01*
X15476500Y2350500D01*
X15543539Y2330815D01*
X15589294Y2278011D01*
X15600500Y2226500D01*
X15600500Y-5574637D01*
X15580815Y-5641676D01*
X15564181Y-5662318D01*
X11637680Y-9588818D01*
X11576357Y-9622303D01*
X11506665Y-9617319D01*
X11462318Y-9588818D01*
X7674039Y-5800538D01*
X7674038Y-5800537D01*
X7656037Y-5788510D01*
X7590507Y-5744724D01*
X7526547Y-5701987D01*
X7442198Y-5667049D01*
X7362666Y-5634105D01*
X7362658Y-5634103D01*
X7188696Y-5599500D01*
X7188692Y-5599500D01*
X7011308Y-5599500D01*
X7011303Y-5599500D01*
X6837341Y-5634103D01*
X6837333Y-5634105D01*
X6763008Y-5664892D01*
X6763003Y-5664894D01*
X6757802Y-5667049D01*
X6673453Y-5701987D01*
X6609493Y-5744724D01*
X6604049Y-5748361D01*
X6604048Y-5748362D01*
X6525961Y-5800537D01*
X6400537Y-5925961D01*
X6361064Y-5985039D01*
X6361063Y-5985040D01*
X6301985Y-6073455D01*
X6268046Y-6155393D01*
X6234106Y-6237329D01*
X6234103Y-6237341D01*
X6199500Y-6411303D01*
X6199500Y-6588696D01*
X6234103Y-6762658D01*
X6234105Y-6762666D01*
X6258418Y-6821363D01*
X6258421Y-6821368D01*
X6260532Y-6826465D01*
X6301987Y-6926547D01*
X6350733Y-6999500D01*
X6354433Y-7005038D01*
X6354435Y-7005041D01*
X6400534Y-7074034D01*
X6400538Y-7074039D01*
X10188819Y-10862318D01*
X10222304Y-10923641D01*
X10217320Y-10993333D01*
X10188819Y-11037680D01*
X8667566Y-12558934D01*
X8606243Y-12592419D01*
X8579885Y-12595253D01*
X5381211Y-12595253D01*
X5314172Y-12575568D01*
X5270728Y-12527551D01*
X5266355Y-12518969D01*
X5266350Y-12518960D01*
X5231931Y-12471587D01*
X5164535Y-12378825D01*
X5042049Y-12256339D01*
X4901909Y-12154521D01*
X4747566Y-12075880D01*
X4582822Y-12022351D01*
X4582820Y-12022350D01*
X4582819Y-12022350D01*
X4451392Y-12001534D01*
X4411732Y-11995253D01*
X4238510Y-11995253D01*
X4198849Y-12001534D01*
X4067423Y-12022350D01*
X3902673Y-12075881D01*
X3748332Y-12154521D01*
X3674928Y-12207853D01*
X3608193Y-12256339D01*
X3608191Y-12256341D01*
X3608190Y-12256341D01*
X3485709Y-12378822D01*
X3485709Y-12378823D01*
X3485707Y-12378825D01*
X3441980Y-12439009D01*
X3383889Y-12518964D01*
X3305249Y-12673305D01*
X3251718Y-12838055D01*
X3224621Y-13009142D01*
X3224621Y-13325474D01*
X3204936Y-13392513D01*
X3152132Y-13438268D01*
X3082974Y-13448212D01*
X3068534Y-13445250D01*
X2975691Y-13420373D01*
X2824157Y-13420373D01*
X2748102Y-13440752D01*
X2677785Y-13459593D01*
X2677784Y-13459594D01*
X2546557Y-13535357D01*
X2546552Y-13535361D01*
X2439405Y-13642508D01*
X2439401Y-13642513D01*
X2363638Y-13773740D01*
X2363637Y-13773741D01*
X2349272Y-13827354D01*
X2324417Y-13920113D01*
X2324417Y-14071647D01*
X2358716Y-14199650D01*
X2358806Y-14199986D01*
X2357143Y-14269836D01*
X2317981Y-14327699D01*
X2253752Y-14355203D01*
X2239031Y-14356080D01*
X1837109Y-14356080D01*
X1811589Y-14348586D01*
X1785275Y-14344726D01*
X1778584Y-14338895D01*
X1770070Y-14336395D01*
X1752656Y-14316298D01*
X1732602Y-14298821D01*
X1727217Y-14286940D01*
X1724315Y-14283591D01*
X1718034Y-14266680D01*
X1714673Y-14255110D01*
X1714873Y-14185243D01*
X1730646Y-14151629D01*
X1743031Y-14133096D01*
X1797721Y-14001063D01*
X1806844Y-13955194D01*
X1825602Y-13860900D01*
X1825602Y-13717985D01*
X1797722Y-13577828D01*
X1797721Y-13577827D01*
X1797721Y-13577823D01*
X1743031Y-13445790D01*
X1743030Y-13445789D01*
X1743027Y-13445783D01*
X1663634Y-13326964D01*
X1663631Y-13326960D01*
X1562584Y-13225913D01*
X1562580Y-13225910D01*
X1443761Y-13146517D01*
X1443752Y-13146512D01*
X1311722Y-13091824D01*
X1311716Y-13091822D01*
X1171559Y-13063943D01*
X1171557Y-13063943D01*
X1028647Y-13063943D01*
X1028645Y-13063943D01*
X888487Y-13091822D01*
X888481Y-13091824D01*
X756451Y-13146512D01*
X756442Y-13146517D01*
X637623Y-13225910D01*
X637619Y-13225913D01*
X536572Y-13326960D01*
X536569Y-13326964D01*
X457176Y-13445783D01*
X457171Y-13445792D01*
X402483Y-13577822D01*
X402480Y-13577832D01*
X401728Y-13581614D01*
X400788Y-13583410D01*
X400714Y-13583655D01*
X400667Y-13583640D01*
X369341Y-13643524D01*
X308624Y-13678096D01*
X238854Y-13674353D01*
X192431Y-13645099D01*
X-11913Y-13440755D01*
X-11915Y-13440752D01*
X-130786Y-13321881D01*
X-130787Y-13321880D01*
X-217599Y-13271760D01*
X-217599Y-13271759D01*
X-217603Y-13271758D01*
X-267718Y-13242823D01*
X-420446Y-13201899D01*
X-578560Y-13201899D01*
X-586156Y-13201899D01*
X-586172Y-13201900D01*
X-653454Y-13201900D01*
X-720493Y-13182215D01*
X-722345Y-13181002D01*
X-754570Y-13159469D01*
X-886601Y-13104781D01*
X-886607Y-13104779D01*
X-1026764Y-13076900D01*
X-1026766Y-13076900D01*
X-1169676Y-13076900D01*
X-1169678Y-13076900D01*
X-1309836Y-13104779D01*
X-1309842Y-13104781D01*
X-1441872Y-13159469D01*
X-1441881Y-13159474D01*
X-1560700Y-13238867D01*
X-1560704Y-13238870D01*
X-1661751Y-13339917D01*
X-1661754Y-13339921D01*
X-1741147Y-13458740D01*
X-1741152Y-13458749D01*
X-1795840Y-13590779D01*
X-1795842Y-13590785D01*
X-1823721Y-13730942D01*
X-1823721Y-13730945D01*
X-1823721Y-13873855D01*
X-1823721Y-13873857D01*
X-1823722Y-13873857D01*
X-1795842Y-14014014D01*
X-1795840Y-14014020D01*
X-1741150Y-14146055D01*
X-1738280Y-14151423D01*
X-1740419Y-14152566D01*
X-1722728Y-14209040D01*
X-1727631Y-14245862D01*
X-1755419Y-14341510D01*
X-1755420Y-14341516D01*
X-1758321Y-14378378D01*
X-1758321Y-14626500D01*
X-1778006Y-14693539D01*
X-1830810Y-14739294D01*
X-1882321Y-14750500D01*
X-2593176Y-14750500D01*
X-2660215Y-14730815D01*
X-2705970Y-14678011D01*
X-2715914Y-14608853D01*
X-2686889Y-14545297D01*
X-2655176Y-14519113D01*
X-2548430Y-14457483D01*
X-2546554Y-14456400D01*
X-2439404Y-14349250D01*
X-2363637Y-14218017D01*
X-2324417Y-14071647D01*
X-2324417Y-13920113D01*
X-2363637Y-13773743D01*
X-2409817Y-13693756D01*
X-2439402Y-13642513D01*
X-2439406Y-13642508D01*
X-2546553Y-13535361D01*
X-2546558Y-13535357D01*
X-2677785Y-13459594D01*
X-2677786Y-13459593D01*
X-2729293Y-13445792D01*
X-2824157Y-13420373D01*
X-2975691Y-13420373D01*
X-3068529Y-13445248D01*
X-3138377Y-13443586D01*
X-3196240Y-13404424D01*
X-3223744Y-13340195D01*
X-3224621Y-13325474D01*
X-3224621Y-13009142D01*
X-3251719Y-12838055D01*
X-3251719Y-12838052D01*
X-3305248Y-12673308D01*
X-3383889Y-12518965D01*
X-3485707Y-12378825D01*
X-3608193Y-12256339D01*
X-3748333Y-12154521D01*
X-3902676Y-12075880D01*
X-4067420Y-12022351D01*
X-4067422Y-12022350D01*
X-4067423Y-12022350D01*
X-4198850Y-12001534D01*
X-4238510Y-11995253D01*
X-4411732Y-11995253D01*
X-4411737Y-11995253D01*
X-4470524Y-12004564D01*
X-4539817Y-11995610D01*
X-4577603Y-11969772D01*
X-4825918Y-11721457D01*
X-1075501Y-11721457D01*
X-1047621Y-11861614D01*
X-1047619Y-11861620D01*
X-992931Y-11993650D01*
X-992926Y-11993659D01*
X-913533Y-12112478D01*
X-913530Y-12112482D01*
X-812483Y-12213529D01*
X-812479Y-12213532D01*
X-693660Y-12292925D01*
X-693654Y-12292928D01*
X-693653Y-12292929D01*
X-561620Y-12347619D01*
X-561616Y-12347619D01*
X-561615Y-12347620D01*
X-421458Y-12375500D01*
X-421455Y-12375500D01*
X-278543Y-12375500D01*
X-180051Y-12355908D01*
X-138380Y-12347619D01*
X-6347Y-12292929D01*
X25876Y-12271397D01*
X43922Y-12265747D01*
X59832Y-12255523D01*
X90793Y-12251071D01*
X92554Y-12250520D01*
X94767Y-12250500D01*
X192024Y-12250500D01*
X259063Y-12270185D01*
X279706Y-12286820D01*
X312517Y-12319632D01*
X312521Y-12319635D01*
X431340Y-12399028D01*
X431349Y-12399033D01*
X461258Y-12411421D01*
X563380Y-12453722D01*
X563384Y-12453722D01*
X563385Y-12453723D01*
X703542Y-12481603D01*
X703545Y-12481603D01*
X846457Y-12481603D01*
X940751Y-12462845D01*
X986620Y-12453722D01*
X1118653Y-12399032D01*
X1237479Y-12319635D01*
X1338532Y-12218582D01*
X1417929Y-12099756D01*
X1472619Y-11967723D01*
X1500500Y-11827558D01*
X1500500Y-11684648D01*
X1500500Y-11684645D01*
X1472620Y-11544488D01*
X1472619Y-11544487D01*
X1472619Y-11544483D01*
X1417929Y-11412450D01*
X1417928Y-11412449D01*
X1417925Y-11412443D01*
X1338532Y-11293624D01*
X1338529Y-11293620D01*
X1237482Y-11192573D01*
X1237478Y-11192570D01*
X1118659Y-11113177D01*
X1118650Y-11113172D01*
X986620Y-11058484D01*
X986614Y-11058482D01*
X846457Y-11030603D01*
X846455Y-11030603D01*
X703545Y-11030603D01*
X703543Y-11030603D01*
X620530Y-11047116D01*
X596347Y-11049499D01*
X589840Y-11049499D01*
X589838Y-11049499D01*
X582237Y-11049500D01*
X582235Y-11049499D01*
X582228Y-11049500D01*
X94767Y-11049500D01*
X27728Y-11029815D01*
X25876Y-11028602D01*
X-6349Y-11007069D01*
X-138380Y-10952381D01*
X-138386Y-10952379D01*
X-278543Y-10924500D01*
X-278545Y-10924500D01*
X-421455Y-10924500D01*
X-421457Y-10924500D01*
X-561615Y-10952379D01*
X-561621Y-10952381D01*
X-693651Y-11007069D01*
X-693660Y-11007074D01*
X-812479Y-11086467D01*
X-812483Y-11086470D01*
X-913530Y-11187517D01*
X-913533Y-11187521D01*
X-992926Y-11306340D01*
X-992931Y-11306349D01*
X-1047619Y-11438379D01*
X-1047621Y-11438385D01*
X-1075500Y-11578542D01*
X-1075500Y-11578545D01*
X-1075500Y-11721455D01*
X-1075500Y-11721457D01*
X-1075501Y-11721457D01*
X-4825918Y-11721457D01*
X-4887241Y-11660134D01*
X-5399954Y-11147421D01*
X-6163181Y-10384193D01*
X-6196666Y-10322870D01*
X-6199500Y-10296512D01*
X-6199500Y-8901617D01*
X-1048066Y-8901617D01*
X-1048066Y-8901618D01*
X-974334Y-8958194D01*
X-775670Y-9072893D01*
X-775660Y-9072897D01*
X-563731Y-9160681D01*
X-342138Y-9220057D01*
X-114711Y-9249998D01*
X-114694Y-9250000D01*
X114694Y-9250000D01*
X114710Y-9249998D01*
X342137Y-9220057D01*
X563730Y-9160681D01*
X775659Y-9072897D01*
X775668Y-9072893D01*
X974327Y-8958197D01*
X974334Y-8958192D01*
X1048064Y-8901617D01*
X0Y-7853553D01*
X-1048066Y-8901617D01*
X-6199500Y-8901617D01*
X-6199500Y-7385305D01*
X-1750000Y-7385305D01*
X-1750000Y-7614694D01*
X-1749999Y-7614710D01*
X-1720058Y-7842137D01*
X-1660682Y-8063730D01*
X-1572898Y-8275659D01*
X-1572894Y-8275669D01*
X-1458201Y-8474324D01*
X-1458195Y-8474331D01*
X-1401619Y-8548064D01*
X-353554Y-7500000D01*
X-353554Y-7499999D01*
X353553Y-7499999D01*
X353553Y-7500000D01*
X1401617Y-8548064D01*
X1458192Y-8474334D01*
X1458197Y-8474327D01*
X1572893Y-8275668D01*
X1572897Y-8275659D01*
X1660681Y-8063730D01*
X1720057Y-7842137D01*
X1749998Y-7614710D01*
X1750000Y-7614694D01*
X1750000Y-7385305D01*
X1749998Y-7385289D01*
X1720057Y-7157862D01*
X1660681Y-6936269D01*
X1572897Y-6724340D01*
X1572893Y-6724330D01*
X1458194Y-6525666D01*
X1401618Y-6451934D01*
X1401617Y-6451934D01*
X353553Y-7499999D01*
X-353554Y-7499999D01*
X-1401620Y-6451934D01*
X-1458190Y-6525659D01*
X-1458199Y-6525673D01*
X-1572894Y-6724330D01*
X-1572898Y-6724340D01*
X-1660682Y-6936269D01*
X-1720058Y-7157862D01*
X-1749999Y-7385289D01*
X-1750000Y-7385305D01*
X-6199500Y-7385305D01*
X-6199500Y-6645205D01*
X-6197874Y-6637029D01*
X-6198790Y-6631951D01*
X-6190061Y-6597753D01*
X-6167652Y-6543653D01*
X-6134105Y-6462666D01*
X-6099500Y-6288692D01*
X-6099500Y-6111308D01*
X-6102071Y-6098380D01*
X-1048066Y-6098380D01*
X-1Y-7146446D01*
X970366Y-6176079D01*
X2499500Y-6176079D01*
X2499500Y-9598919D01*
X2510458Y-9654005D01*
X2512841Y-9678198D01*
X2512841Y-10126082D01*
X2512841Y-10273918D01*
X2512841Y-10273920D01*
X2512840Y-10273920D01*
X2541681Y-10418907D01*
X2541684Y-10418917D01*
X2598253Y-10555488D01*
X2598260Y-10555501D01*
X2680389Y-10678415D01*
X2680392Y-10678419D01*
X2784921Y-10782948D01*
X2784925Y-10782951D01*
X2907839Y-10865080D01*
X2907852Y-10865087D01*
X3044423Y-10921656D01*
X3044428Y-10921658D01*
X3044432Y-10921658D01*
X3044433Y-10921659D01*
X3189420Y-10950500D01*
X3189423Y-10950500D01*
X3337261Y-10950500D01*
X3434803Y-10931096D01*
X3482254Y-10921658D01*
X3618836Y-10865084D01*
X3741757Y-10782951D01*
X3846292Y-10678416D01*
X3928425Y-10555495D01*
X3984999Y-10418913D01*
X4013841Y-10273918D01*
X4013841Y-10126082D01*
X4013841Y-9464423D01*
X4013841Y-9464420D01*
X4002883Y-9409334D01*
X4000500Y-9385142D01*
X4000500Y-6176079D01*
X3971659Y-6031092D01*
X3971658Y-6031091D01*
X3971658Y-6031087D01*
X3952585Y-5985040D01*
X3915087Y-5894511D01*
X3915080Y-5894498D01*
X3832951Y-5771584D01*
X3832948Y-5771580D01*
X3728419Y-5667051D01*
X3728415Y-5667048D01*
X3605501Y-5584919D01*
X3605488Y-5584912D01*
X3468917Y-5528343D01*
X3468907Y-5528340D01*
X3323920Y-5499500D01*
X3323918Y-5499500D01*
X3176082Y-5499500D01*
X3176080Y-5499500D01*
X3031092Y-5528340D01*
X3031082Y-5528343D01*
X2894511Y-5584912D01*
X2894498Y-5584919D01*
X2771584Y-5667048D01*
X2771580Y-5667051D01*
X2667051Y-5771580D01*
X2667048Y-5771584D01*
X2584919Y-5894498D01*
X2584912Y-5894511D01*
X2528343Y-6031082D01*
X2528340Y-6031092D01*
X2499500Y-6176079D01*
X970366Y-6176079D01*
X1048064Y-6098381D01*
X1048064Y-6098380D01*
X974331Y-6041805D01*
X974324Y-6041799D01*
X775669Y-5927106D01*
X775659Y-5927102D01*
X563730Y-5839318D01*
X342137Y-5779942D01*
X114710Y-5750001D01*
X114694Y-5750000D01*
X-114694Y-5750000D01*
X-114711Y-5750001D01*
X-342138Y-5779942D01*
X-563731Y-5839318D01*
X-775660Y-5927102D01*
X-775670Y-5927106D01*
X-974327Y-6041801D01*
X-974341Y-6041810D01*
X-1048066Y-6098380D01*
X-6102071Y-6098380D01*
X-6134105Y-5937334D01*
X-6190005Y-5802381D01*
X-6190104Y-5802141D01*
X-6190160Y-5802005D01*
X-6199500Y-5754792D01*
X-6199500Y-3024360D01*
X-6179815Y-2957321D01*
X-6163186Y-2936683D01*
X-5175967Y-1949465D01*
X-5175964Y-1949464D01*
X-4851412Y-1624910D01*
X-4790092Y-1591428D01*
X-4720401Y-1596412D01*
X-4716335Y-1598011D01*
X-4563887Y-1661158D01*
X-4342238Y-1720548D01*
X-4208314Y-1738179D01*
X-4144418Y-1766445D01*
X-4105947Y-1824770D01*
X-4100500Y-1861118D01*
X-4100500Y-2288695D01*
X-4065897Y-2462658D01*
X-4065894Y-2462667D01*
X-3998017Y-2626540D01*
X-3998010Y-2626553D01*
X-3899465Y-2774034D01*
X-3899462Y-2774038D01*
X-3774039Y-2899461D01*
X-3774035Y-2899464D01*
X-3626554Y-2998009D01*
X-3626541Y-2998016D01*
X-3505845Y-3048009D01*
X-3462666Y-3065894D01*
X-3462664Y-3065894D01*
X-3462659Y-3065896D01*
X-3288696Y-3100499D01*
X-3288693Y-3100500D01*
X-3288691Y-3100500D01*
X-3111307Y-3100500D01*
X-3111306Y-3100499D01*
X-3053318Y-3088964D01*
X-2937342Y-3065896D01*
X-2937339Y-3065894D01*
X-2937334Y-3065894D01*
X-2773453Y-2998013D01*
X-2625965Y-2899464D01*
X-2500536Y-2774035D01*
X-2401987Y-2626547D01*
X-2334106Y-2462666D01*
X-2299500Y-2288691D01*
X-2299500Y-2111309D01*
X-2299500Y-1211309D01*
X-2306017Y-1178545D01*
X-2334105Y-1037334D01*
X-2401987Y-873453D01*
X-2401991Y-873447D01*
X-2405340Y-868434D01*
X-2426218Y-801757D01*
X-2416799Y-752090D01*
X-2338842Y-563887D01*
X-2279452Y-342238D01*
X-2249500Y-114734D01*
X-2249500Y114734D01*
X-2279452Y342238D01*
X-2338842Y563887D01*
X-2426656Y775888D01*
X-2541389Y974612D01*
X-2541392Y974615D01*
X-2541393Y974618D01*
X-2681082Y1156662D01*
X-2681089Y1156670D01*
X-2843330Y1318911D01*
X-2843339Y1318919D01*
X-3025383Y1458608D01*
X-3224110Y1573343D01*
X-3224124Y1573350D01*
X-3436113Y1661158D01*
X-3436673Y1661308D01*
X-3657762Y1720548D01*
X-3695785Y1725554D01*
X-3885259Y1750500D01*
X-3885266Y1750500D01*
X-4114734Y1750500D01*
X-4114742Y1750500D01*
X-4342242Y1720548D01*
X-4355756Y1716927D01*
X-4425606Y1718594D01*
X-4475523Y1749023D01*
X-5175965Y2449465D01*
X-5175970Y2449469D01*
X-5230378Y2485822D01*
X-5230384Y2485825D01*
X-5235041Y2488937D01*
X-5323453Y2548013D01*
X-5405394Y2581954D01*
X-5487334Y2615895D01*
X-5487342Y2615897D01*
X-5661304Y2650500D01*
X-5661308Y2650500D01*
X-5838692Y2650500D01*
X-5838697Y2650500D01*
X-6012659Y2615897D01*
X-6012671Y2615894D01*
X-6094608Y2581955D01*
X-6094607Y2581954D01*
X-6176545Y2548015D01*
X-6264960Y2488937D01*
X-6264961Y2488936D01*
X-6324039Y2449463D01*
X-6449462Y2324040D01*
X-6456479Y2313536D01*
X-6456482Y2313532D01*
X-6548015Y2176545D01*
X-6581954Y2094607D01*
X-6615894Y2012671D01*
X-6615897Y2012659D01*
X-6650500Y1838697D01*
X-6650500Y1661304D01*
X-6615897Y1487341D01*
X-6615896Y1487337D01*
X-6615895Y1487334D01*
X-6603998Y1458612D01*
X-6603997Y1458610D01*
X-6548016Y1323458D01*
X-6548015Y1323456D01*
X-6488937Y1235040D01*
X-6488936Y1235039D01*
X-6449466Y1175966D01*
X-5749023Y475523D01*
X-5715538Y414200D01*
X-5716927Y355756D01*
X-5720548Y342242D01*
X-5750500Y114742D01*
X-5750500Y74362D01*
X-5770185Y7323D01*
X-5786819Y-13319D01*
X-6449466Y-675966D01*
X-7799462Y-2025960D01*
X-7799463Y-2025961D01*
X-7838936Y-2085039D01*
X-7838937Y-2085040D01*
X-7898015Y-2173455D01*
X-7931954Y-2255393D01*
X-7965894Y-2337329D01*
X-7965897Y-2337341D01*
X-8000500Y-2511303D01*
X-8000500Y-5875637D01*
X-8020185Y-5942676D01*
X-8036819Y-5963318D01*
X-9399462Y-7325960D01*
X-9399463Y-7325961D01*
X-9436266Y-7381041D01*
X-9436272Y-7381050D01*
X-9438937Y-7385040D01*
X-9498013Y-7473453D01*
X-9522944Y-7533642D01*
X-9525767Y-7540454D01*
X-9525770Y-7540462D01*
X-9565894Y-7637331D01*
X-9565897Y-7637341D01*
X-9598358Y-7800534D01*
X-9598357Y-7800535D01*
X-9600500Y-7811309D01*
X-9600500Y-8588695D01*
X-9565897Y-8762658D01*
X-9565894Y-8762667D01*
X-9498017Y-8926540D01*
X-9498010Y-8926553D01*
X-9399465Y-9074034D01*
X-9399462Y-9074038D01*
X-9274039Y-9199461D01*
X-9274035Y-9199464D01*
X-9126554Y-9298009D01*
X-9126541Y-9298016D01*
X-9014514Y-9344418D01*
X-8962666Y-9365894D01*
X-8962664Y-9365894D01*
X-8962659Y-9365896D01*
X-8788696Y-9400499D01*
X-8788693Y-9400500D01*
X-8788691Y-9400500D01*
X-8611307Y-9400500D01*
X-8611306Y-9400499D01*
X-8553318Y-9388964D01*
X-8437342Y-9365896D01*
X-8437339Y-9365894D01*
X-8437334Y-9365894D01*
X-8273453Y-9298013D01*
X-8193391Y-9244516D01*
X-8126714Y-9223639D01*
X-8059334Y-9242123D01*
X-8012643Y-9294102D01*
X-8000500Y-9347619D01*
X-8000500Y-10809570D01*
X-7965897Y-10983533D01*
X-7965896Y-10983537D01*
X-7965895Y-10983540D01*
X-7938573Y-11049499D01*
X-7898013Y-11147421D01*
X-7845143Y-11226546D01*
X-7841594Y-11231857D01*
X-7799466Y-11294908D01*
X-7799462Y-11294913D01*
X-5461940Y-13632433D01*
X-5428455Y-13693756D01*
X-5425621Y-13720114D01*
X-5425621Y-13982364D01*
X-5420608Y-14014014D01*
X-5404323Y-14116836D01*
X-5413278Y-14186130D01*
X-5458274Y-14239582D01*
X-5525026Y-14260221D01*
X-5592339Y-14241496D01*
X-5632913Y-14200384D01*
X-5669528Y-14139815D01*
X-5669530Y-14139813D01*
X-5669531Y-14139811D01*
X-5789812Y-14019530D01*
X-5798927Y-14014020D01*
X-5935394Y-13931522D01*
X-6097804Y-13880914D01*
X-6097806Y-13880913D01*
X-6097808Y-13880913D01*
X-6147222Y-13876423D01*
X-6168384Y-13874500D01*
X-6831616Y-13874500D01*
X-6850855Y-13876248D01*
X-6902193Y-13880913D01*
X-7064607Y-13931522D01*
X-7186334Y-14005109D01*
X-7253889Y-14022945D01*
X-7314634Y-14005109D01*
X-7435604Y-13931980D01*
X-7597895Y-13881409D01*
X-7597894Y-13881409D01*
X-7668428Y-13875000D01*
X-7750000Y-13875000D01*
X-7750000Y-14651000D01*
X-7769685Y-14718039D01*
X-7822489Y-14763794D01*
X-7874000Y-14775000D01*
X-8000000Y-14775000D01*
X-8000000Y-14901000D01*
X-8019685Y-14968039D01*
X-8072489Y-15013794D01*
X-8124000Y-15025000D01*
X-8974999Y-15025000D01*
X-8974999Y-15031582D01*
X-8968592Y-15102102D01*
X-8968591Y-15102107D01*
X-8918019Y-15264396D01*
X-8830073Y-15409877D01*
X-8727985Y-15511965D01*
X-8694500Y-15573288D01*
X-8699484Y-15642980D01*
X-8727985Y-15687327D01*
X-8830469Y-15789810D01*
X-8830470Y-15789811D01*
X-8918478Y-15935393D01*
X-8969087Y-16097807D01*
X-8975500Y-16168386D01*
X-8975500Y-16681613D01*
X-8969087Y-16752192D01*
X-8969087Y-16752194D01*
X-8969086Y-16752196D01*
X-8918478Y-16914606D01*
X-8838096Y-17047574D01*
X-8830470Y-17060188D01*
X-8710189Y-17180469D01*
X-8710187Y-17180470D01*
X-8710185Y-17180472D01*
X-8564606Y-17268478D01*
X-8402196Y-17319086D01*
X-8331616Y-17325500D01*
X-8331613Y-17325500D01*
X-7668387Y-17325500D01*
X-7668384Y-17325500D01*
X-7597804Y-17319086D01*
X-7435394Y-17268478D01*
X-7314147Y-17195180D01*
X-7246596Y-17177346D01*
X-7185855Y-17195180D01*
X-7064606Y-17268478D01*
X-6902196Y-17319086D01*
X-6831616Y-17325500D01*
X-6831613Y-17325500D01*
X-6168387Y-17325500D01*
X-6168384Y-17325500D01*
X-6097804Y-17319086D01*
X-5935394Y-17268478D01*
X-5789815Y-17180472D01*
X-5669528Y-17060185D01*
X-5654263Y-17034934D01*
X-5646330Y-17027668D01*
X-5641860Y-17017882D01*
X-5621011Y-17004483D01*
X-5602735Y-16987747D01*
X-5590583Y-16984928D01*
X-5583082Y-16980108D01*
X-5548147Y-16975085D01*
X-5521091Y-16975085D01*
X-5454052Y-16994770D01*
X-5408297Y-17047574D01*
X-5398353Y-17116732D01*
X-5398618Y-17118483D01*
X-5425621Y-17288974D01*
X-5425621Y-18062195D01*
X-5401880Y-18212095D01*
X-5398523Y-18233286D01*
X-5344994Y-18398030D01*
X-5266353Y-18552373D01*
X-5181055Y-18669776D01*
X-5157575Y-18735580D01*
X-5173400Y-18803634D01*
X-5223506Y-18852329D01*
X-5291984Y-18866205D01*
X-5316659Y-18861533D01*
X-5990391Y-18661543D01*
X-5995632Y-18659860D01*
X-6454012Y-18501342D01*
X-6812672Y-18377309D01*
X-6817818Y-18375401D01*
X-7621516Y-18056867D01*
X-7626571Y-18054733D01*
X-8415343Y-17700847D01*
X-8420310Y-17698485D01*
X-8441620Y-17687764D01*
X-9192593Y-17309945D01*
X-9197453Y-17307363D01*
X-9951727Y-16884936D01*
X-9956469Y-16882140D01*
X-10691244Y-16426663D01*
X-10695857Y-16423660D01*
X-11409709Y-15936013D01*
X-11414184Y-15932808D01*
X-12105684Y-15413967D01*
X-12110012Y-15410567D01*
X-12777808Y-14861547D01*
X-12781981Y-14857958D01*
X-12871600Y-14777354D01*
X-13159487Y-14518427D01*
X-8975000Y-14518427D01*
X-8975000Y-14525000D01*
X-8250000Y-14525000D01*
X-8250000Y-13875000D01*
X-8250001Y-13874999D01*
X-8331583Y-13875000D01*
X-8402103Y-13881408D01*
X-8402108Y-13881409D01*
X-8564397Y-13931981D01*
X-8709878Y-14019927D01*
X-8830073Y-14140122D01*
X-8918020Y-14285604D01*
X-8968591Y-14447893D01*
X-8975000Y-14518427D01*
X-13159487Y-14518427D01*
X-13347584Y-14349251D01*
X-13424753Y-14279845D01*
X-13428763Y-14276074D01*
X-13994277Y-13720114D01*
X-14045247Y-13670005D01*
X-14049080Y-13666066D01*
X-14071004Y-13642510D01*
X-14292591Y-13404424D01*
X-14638077Y-13033214D01*
X-14641736Y-13029102D01*
X-15202026Y-12370786D01*
X-15205500Y-12366517D01*
X-15736056Y-11683941D01*
X-15739337Y-11679521D01*
X-16003694Y-11306349D01*
X-16239087Y-10974062D01*
X-16242146Y-10969535D01*
X-16710101Y-10242584D01*
X-16712961Y-10237916D01*
X-16730810Y-10207282D01*
X-16838849Y-10021851D01*
X-17082641Y-9603422D01*
X-17099500Y-9540998D01*
X-17099500Y-8568872D01*
X-16300500Y-8568872D01*
X-16300500Y-8831127D01*
X-16283770Y-8958194D01*
X-16266270Y-9091116D01*
X-16203136Y-9326737D01*
X-16198398Y-9344418D01*
X-16198395Y-9344428D01*
X-16098047Y-9586690D01*
X-16098042Y-9586700D01*
X-15966925Y-9813803D01*
X-15807282Y-10021851D01*
X-15807274Y-10021860D01*
X-15621860Y-10207274D01*
X-15621852Y-10207281D01*
X-15413804Y-10366924D01*
X-15186701Y-10498041D01*
X-15186691Y-10498046D01*
X-14944429Y-10598394D01*
X-14944419Y-10598398D01*
X-14691116Y-10666270D01*
X-14431120Y-10700500D01*
X-14431113Y-10700500D01*
X-14168887Y-10700500D01*
X-14168880Y-10700500D01*
X-13908884Y-10666270D01*
X-13655581Y-10598398D01*
X-13413303Y-10498043D01*
X-13186197Y-10366924D01*
X-12978149Y-10207282D01*
X-12978145Y-10207277D01*
X-12978140Y-10207274D01*
X-12792726Y-10021860D01*
X-12792723Y-10021855D01*
X-12792718Y-10021851D01*
X-12633076Y-9813803D01*
X-12501957Y-9586697D01*
X-12401602Y-9344419D01*
X-12333730Y-9091116D01*
X-12299500Y-8831120D01*
X-12299500Y-8568880D01*
X-12333730Y-8308884D01*
X-12401602Y-8055581D01*
X-12401606Y-8055571D01*
X-12501954Y-7813309D01*
X-12501959Y-7813299D01*
X-12633076Y-7586196D01*
X-12787239Y-7385289D01*
X-12792718Y-7378149D01*
X-12792719Y-7378148D01*
X-12792726Y-7378140D01*
X-12978140Y-7192726D01*
X-12978149Y-7192718D01*
X-13186197Y-7033075D01*
X-13413300Y-6901958D01*
X-13413310Y-6901953D01*
X-13655572Y-6801605D01*
X-13655579Y-6801603D01*
X-13655581Y-6801602D01*
X-13908884Y-6733730D01*
X-13980282Y-6724330D01*
X-14168873Y-6699500D01*
X-14168880Y-6699500D01*
X-14431120Y-6699500D01*
X-14431128Y-6699500D01*
X-14662228Y-6729926D01*
X-14691116Y-6733730D01*
X-14799077Y-6762658D01*
X-14944419Y-6801602D01*
X-14944429Y-6801605D01*
X-15186691Y-6901953D01*
X-15186701Y-6901958D01*
X-15413804Y-7033075D01*
X-15621852Y-7192718D01*
X-15807282Y-7378148D01*
X-15966925Y-7586196D01*
X-16098042Y-7813299D01*
X-16098047Y-7813309D01*
X-16198395Y-8055571D01*
X-16198398Y-8055581D01*
X-16200581Y-8063730D01*
X-16266270Y-8308885D01*
X-16300500Y-8568872D01*
X-17099500Y-8568872D01*
X-17099500Y5838696D01*
X-13650500Y5838696D01*
X-13650500Y5661305D01*
X-13615897Y5487342D01*
X-13615894Y5487333D01*
X-13548017Y5323460D01*
X-13548010Y5323447D01*
X-13449465Y5175966D01*
X-13449462Y5175962D01*
X-13324039Y5050539D01*
X-13324035Y5050536D01*
X-13176554Y4951991D01*
X-13176541Y4951984D01*
X-13012668Y4884107D01*
X-13012666Y4884106D01*
X-12965682Y4874761D01*
X-12903773Y4842378D01*
X-12902193Y4840825D01*
X-11832952Y3771585D01*
X-11832951Y3771584D01*
X-11728416Y3667049D01*
X-11728415Y3667048D01*
X-11605502Y3584920D01*
X-11605489Y3584913D01*
X-11509798Y3545277D01*
X-11468913Y3528342D01*
X-11468909Y3528342D01*
X-11468908Y3528341D01*
X-11323921Y3499500D01*
X-11323918Y3499500D01*
X-1612230Y3499500D01*
X-1545191Y3479815D01*
X-1524549Y3463181D01*
X-786819Y2725451D01*
X-753334Y2664128D01*
X-750500Y2637770D01*
X-750500Y1659593D01*
X-770185Y1592554D01*
X-812500Y1552206D01*
X-974618Y1458608D01*
X-1156662Y1318919D01*
X-1318919Y1156662D01*
X-1458608Y974618D01*
X-1573343Y775891D01*
X-1573350Y775877D01*
X-1661158Y563888D01*
X-1720547Y342241D01*
X-1720549Y342230D01*
X-1750500Y114742D01*
X-1750500Y-114741D01*
X-1731025Y-262658D01*
X-1720548Y-342238D01*
X-1697956Y-426553D01*
X-1661158Y-563887D01*
X-1573350Y-775876D01*
X-1573343Y-775890D01*
X-1458608Y-974617D01*
X-1318919Y-1156661D01*
X-1318911Y-1156670D01*
X-1156670Y-1318911D01*
X-1156662Y-1318918D01*
X-974618Y-1458607D01*
X-974615Y-1458608D01*
X-974612Y-1458611D01*
X-775888Y-1573344D01*
X-775883Y-1573346D01*
X-775877Y-1573349D01*
X-716284Y-1598033D01*
X-563887Y-1661158D01*
X-342238Y-1720548D01*
X-114734Y-1750500D01*
X-114727Y-1750500D01*
X114727Y-1750500D01*
X114734Y-1750500D01*
X342238Y-1720548D01*
X563887Y-1661158D01*
X775888Y-1573344D01*
X974612Y-1458611D01*
X1156661Y-1318919D01*
X1156665Y-1318914D01*
X1156670Y-1318911D01*
X1318911Y-1156670D01*
X1318914Y-1156665D01*
X1318919Y-1156661D01*
X1458611Y-974612D01*
X1573344Y-775888D01*
X1661158Y-563887D01*
X1720548Y-342238D01*
X1750500Y-114734D01*
X1750500Y114734D01*
X1720548Y342238D01*
X1661158Y563887D01*
X1573344Y775888D01*
X1458611Y974612D01*
X1458608Y974615D01*
X1458607Y974618D01*
X1318918Y1156662D01*
X1318911Y1156670D01*
X1156670Y1318911D01*
X1156661Y1318919D01*
X974617Y1458608D01*
X812500Y1552206D01*
X764284Y1602773D01*
X750500Y1659593D01*
X750500Y3073921D01*
X721659Y3218908D01*
X721658Y3218909D01*
X721658Y3218913D01*
X665084Y3355495D01*
X632186Y3404730D01*
X632185Y3404732D01*
X582956Y3478411D01*
X582952Y3478416D01*
X-771579Y4832948D01*
X-771586Y4832954D01*
X-848143Y4884107D01*
X-848143Y4884106D01*
X-894509Y4915087D01*
X-1031083Y4971657D01*
X-1031093Y4971660D01*
X-1176080Y5000500D01*
X-1176082Y5000500D01*
X-1229743Y5000500D01*
X-1296782Y5020185D01*
X-1342537Y5072989D01*
X-1352481Y5142147D01*
X-1323456Y5205703D01*
X-1277195Y5239061D01*
X-1144512Y5294020D01*
X-1144512Y5294021D01*
X-1144505Y5294023D01*
X-1021584Y5376156D01*
X-917049Y5480691D01*
X-834916Y5603612D01*
X-778342Y5740194D01*
X-773266Y5765711D01*
X-740882Y5827622D01*
X-680166Y5862196D01*
X-610397Y5858457D01*
X-604196Y5856081D01*
X-563724Y5839317D01*
X-342138Y5779943D01*
X-114711Y5750002D01*
X-114694Y5750000D01*
X114694Y5750000D01*
X114710Y5750002D01*
X342137Y5779943D01*
X563730Y5839319D01*
X775659Y5927103D01*
X775668Y5927107D01*
X974327Y6041803D01*
X974334Y6041808D01*
X1048064Y6098383D01*
X-176777Y7323223D01*
X-353555Y7500001D01*
X353553Y7500001D01*
X353553Y7500000D01*
X1401617Y6451936D01*
X1458192Y6525666D01*
X1458197Y6525673D01*
X1572893Y6724332D01*
X1572897Y6724341D01*
X1660681Y6936270D01*
X1720057Y7157863D01*
X1749998Y7385290D01*
X1750000Y7385306D01*
X1750000Y7614695D01*
X1749998Y7614711D01*
X1720057Y7842138D01*
X1660681Y8063731D01*
X1572897Y8275660D01*
X1572893Y8275670D01*
X1458194Y8474334D01*
X1401618Y8548066D01*
X1401617Y8548066D01*
X353553Y7500001D01*
X-353555Y7500001D01*
X-1401620Y8548066D01*
X-1458190Y8474341D01*
X-1458199Y8474327D01*
X-1572894Y8275670D01*
X-1572898Y8275660D01*
X-1660682Y8063731D01*
X-1720058Y7842138D01*
X-1749999Y7614711D01*
X-1750000Y7614695D01*
X-1750000Y7385306D01*
X-1749999Y7385290D01*
X-1720058Y7157863D01*
X-1660682Y6936270D01*
X-1625158Y6850509D01*
X-1617689Y6781040D01*
X-1648964Y6718560D01*
X-1693780Y6687879D01*
X-1704357Y6683661D01*
X-1718913Y6680765D01*
X-1855495Y6624191D01*
X-1858514Y6622175D01*
X-1867901Y6618430D01*
X-1885072Y6616813D01*
X-1913840Y6609607D01*
X-8254964Y6609607D01*
X-8380632Y6584610D01*
X-8380638Y6584608D01*
X-8499023Y6535572D01*
X-8605562Y6464385D01*
X-8605569Y6464379D01*
X-8883127Y6186819D01*
X-8944450Y6153334D01*
X-8970808Y6150500D01*
X-10586160Y6150500D01*
X-10638521Y6163615D01*
X-10638878Y6162753D01*
X-10644505Y6165084D01*
X-10781087Y6221658D01*
X-10781093Y6221660D01*
X-10926080Y6250500D01*
X-10926082Y6250500D01*
X-11073918Y6250500D01*
X-11073920Y6250500D01*
X-11218908Y6221660D01*
X-11218918Y6221657D01*
X-11355489Y6165088D01*
X-11355502Y6165081D01*
X-11478416Y6082952D01*
X-11478420Y6082949D01*
X-11582949Y5978420D01*
X-11582952Y5978416D01*
X-11632829Y5903770D01*
X-11648996Y5890260D01*
X-11661621Y5873394D01*
X-11675267Y5868305D01*
X-11686442Y5858965D01*
X-11707346Y5856340D01*
X-11727085Y5848977D01*
X-11741317Y5852073D01*
X-11755767Y5850258D01*
X-11774772Y5859351D01*
X-11795358Y5863829D01*
X-11815240Y5878713D01*
X-11818794Y5880413D01*
X-11823612Y5884980D01*
X-11840825Y5902193D01*
X-11874310Y5963516D01*
X-11874738Y5965568D01*
X-11884106Y6012666D01*
X-11946630Y6163615D01*
X-11951984Y6176541D01*
X-11951991Y6176554D01*
X-12050536Y6324035D01*
X-12050539Y6324039D01*
X-12175962Y6449462D01*
X-12175966Y6449465D01*
X-12323447Y6548010D01*
X-12323460Y6548017D01*
X-12487333Y6615894D01*
X-12487342Y6615897D01*
X-12661306Y6650500D01*
X-12661309Y6650500D01*
X-12838691Y6650500D01*
X-12838694Y6650500D01*
X-13012659Y6615897D01*
X-13012668Y6615894D01*
X-13176541Y6548017D01*
X-13176554Y6548010D01*
X-13324035Y6449465D01*
X-13324039Y6449462D01*
X-13449462Y6324039D01*
X-13449465Y6324035D01*
X-13548010Y6176554D01*
X-13548017Y6176541D01*
X-13615894Y6012668D01*
X-13615897Y6012659D01*
X-13650500Y5838696D01*
X-17099500Y5838696D01*
X-17099500Y8901620D01*
X-1048066Y8901620D01*
X-1Y7853554D01*
X977573Y8831128D01*
X12499500Y8831128D01*
X12499500Y8568873D01*
X12511948Y8474327D01*
X12533730Y8308884D01*
X12601602Y8055582D01*
X12601605Y8055572D01*
X12701953Y7813310D01*
X12701958Y7813300D01*
X12833075Y7586197D01*
X12992718Y7378149D01*
X12992726Y7378140D01*
X13178140Y7192726D01*
X13178148Y7192719D01*
X13386196Y7033076D01*
X13613299Y6901959D01*
X13613309Y6901954D01*
X13855571Y6801606D01*
X13855581Y6801602D01*
X14108884Y6733730D01*
X14368880Y6699500D01*
X14368887Y6699500D01*
X14631113Y6699500D01*
X14631120Y6699500D01*
X14891116Y6733730D01*
X15144419Y6801602D01*
X15386697Y6901957D01*
X15613803Y7033076D01*
X15821851Y7192718D01*
X15821855Y7192723D01*
X15821860Y7192726D01*
X16007274Y7378140D01*
X16007277Y7378145D01*
X16007282Y7378149D01*
X16166924Y7586197D01*
X16298043Y7813303D01*
X16398398Y8055581D01*
X16466270Y8308884D01*
X16500500Y8568880D01*
X16500500Y8831120D01*
X16466270Y9091116D01*
X16398398Y9344419D01*
X16398394Y9344429D01*
X16298046Y9586691D01*
X16298041Y9586701D01*
X16166924Y9813804D01*
X16007281Y10021852D01*
X16007274Y10021860D01*
X15821860Y10207274D01*
X15821851Y10207282D01*
X15613803Y10366925D01*
X15386700Y10498042D01*
X15386690Y10498047D01*
X15144428Y10598395D01*
X15144421Y10598397D01*
X15144419Y10598398D01*
X14891116Y10666270D01*
X14833339Y10673877D01*
X14631127Y10700500D01*
X14631120Y10700500D01*
X14368880Y10700500D01*
X14368872Y10700500D01*
X14137772Y10670074D01*
X14108884Y10666270D01*
X13973145Y10629899D01*
X13855581Y10598398D01*
X13855571Y10598395D01*
X13613309Y10498047D01*
X13613299Y10498042D01*
X13386196Y10366925D01*
X13178148Y10207282D01*
X12992718Y10021852D01*
X12833075Y9813804D01*
X12701958Y9586701D01*
X12701953Y9586691D01*
X12601605Y9344429D01*
X12601602Y9344419D01*
X12533730Y9091116D01*
X12531331Y9072894D01*
X12499500Y8831128D01*
X977573Y8831128D01*
X1048064Y8901619D01*
X1048064Y8901620D01*
X974331Y8958195D01*
X974324Y8958201D01*
X775669Y9072894D01*
X775659Y9072898D01*
X563730Y9160682D01*
X342137Y9220058D01*
X114710Y9249999D01*
X114694Y9250000D01*
X-114694Y9250000D01*
X-114711Y9249999D01*
X-342138Y9220058D01*
X-563731Y9160682D01*
X-775660Y9072898D01*
X-775670Y9072894D01*
X-974327Y8958199D01*
X-974341Y8958190D01*
X-1048066Y8901620D01*
X-17099500Y8901620D01*
X-17099500Y9541299D01*
X-17082711Y9603603D01*
X-17077769Y9612107D01*
X-16735934Y10200333D01*
X-16733268Y10204706D01*
X-16291379Y10896295D01*
X-16288526Y10900559D01*
X-16092820Y11180152D01*
X-16080952Y11197107D01*
X-16026382Y11240741D01*
X-15979366Y11250000D01*
X-9423936Y11250000D01*
X-9356897Y11230315D01*
G37*
%TD.AperFunction*%
%TD*%
M02*
