%TF.GenerationSoftware,KiCad,Pcbnew,9.0.0*%
%TF.CreationDate,2025-03-19T15:37:07+01:00*%
%TF.ProjectId,BladeMaster,426c6164-654d-4617-9374-65722e6b6963,rev?*%
%TF.SameCoordinates,Original*%
%TF.FileFunction,Profile,NP*%
%FSLAX46Y46*%
G04 Gerber Fmt 4.6, Leading zero omitted, Abs format (unit mm)*
G04 Created by KiCad (PCBNEW 9.0.0) date 2025-03-19 15:37:07*
%MOMM*%
%LPD*%
G01*
G04 APERTURE LIST*
%TA.AperFunction,Profile*%
%ADD10C,0.100000*%
%TD*%
G04 APERTURE END LIST*
D10*
X20340625Y940199D02*
G75*
G02*
X19946618Y1460505I204375J564101D01*
G01*
X9896907Y17379621D02*
G75*
G02*
X19946602Y1460504I-9896907J-17379621D01*
G01*
X9000000Y11600000D02*
G75*
G02*
X8400000Y11000000I-600000J0D01*
G01*
X-9896907Y17379621D02*
G75*
G02*
X-8999972Y16858232I296907J-521421D01*
G01*
X9000000Y11600000D02*
X9000000Y16858232D01*
X940199Y-20340625D02*
G75*
G02*
X-940199Y-20340625I-940199J340625D01*
G01*
X19946602Y-1460504D02*
G75*
G02*
X1460504Y-19946602I-19946602J1460504D01*
G01*
X-8400000Y11000000D02*
X8400000Y11000000D01*
X-9000000Y11600000D02*
X-9000000Y16858232D01*
X-20340625Y-940199D02*
G75*
G02*
X-19946618Y-1460505I-204375J-564101D01*
G01*
X9000000Y16858232D02*
G75*
G02*
X9896893Y17379597I600000J-32D01*
G01*
X19946602Y-1460504D02*
G75*
G02*
X20340620Y-940184I598398J-43796D01*
G01*
X20340625Y940199D02*
G75*
G02*
X20340625Y-940199I-340625J-940199D01*
G01*
X940199Y-20340625D02*
G75*
G02*
X1460505Y-19946618I564101J-204375D01*
G01*
X-1460504Y-19946602D02*
G75*
G02*
X-940184Y-20340620I-43796J-598398D01*
G01*
X-19946602Y1460504D02*
G75*
G02*
X-20340620Y940184I-598398J43796D01*
G01*
X-20340625Y-940199D02*
G75*
G02*
X-20340625Y940199I340625J940199D01*
G01*
X-1460504Y-19946602D02*
G75*
G02*
X-19946602Y-1460504I1460504J19946602D01*
G01*
X-19946602Y1460504D02*
G75*
G02*
X-9896907Y17379621I19946602J-1460504D01*
G01*
X-8400000Y11000000D02*
G75*
G02*
X-9000000Y11600000I0J600000D01*
G01*
M02*
