%TF.GenerationSoftware,KiCad,Pcbnew,8.0.9-8.0.9-0~ubuntu24.04.1*%
%TF.CreationDate,2025-03-13T12:41:12+01:00*%
%TF.ProjectId,BladeMaster,426c6164-654d-4617-9374-65722e6b6963,rev?*%
%TF.SameCoordinates,Original*%
%TF.FileFunction,Copper,L1,Top*%
%TF.FilePolarity,Positive*%
%FSLAX46Y46*%
G04 Gerber Fmt 4.6, Leading zero omitted, Abs format (unit mm)*
G04 Created by KiCad (PCBNEW 8.0.9-8.0.9-0~ubuntu24.04.1) date 2025-03-13 12:41:12*
%MOMM*%
%LPD*%
G01*
G04 APERTURE LIST*
G04 Aperture macros list*
%AMRoundRect*
0 Rectangle with rounded corners*
0 $1 Rounding radius*
0 $2 $3 $4 $5 $6 $7 $8 $9 X,Y pos of 4 corners*
0 Add a 4 corners polygon primitive as box body*
4,1,4,$2,$3,$4,$5,$6,$7,$8,$9,$2,$3,0*
0 Add four circle primitives for the rounded corners*
1,1,$1+$1,$2,$3*
1,1,$1+$1,$4,$5*
1,1,$1+$1,$6,$7*
1,1,$1+$1,$8,$9*
0 Add four rect primitives between the rounded corners*
20,1,$1+$1,$2,$3,$4,$5,0*
20,1,$1+$1,$4,$5,$6,$7,0*
20,1,$1+$1,$6,$7,$8,$9,0*
20,1,$1+$1,$8,$9,$2,$3,0*%
G04 Aperture macros list end*
%TA.AperFunction,SMDPad,CuDef*%
%ADD10RoundRect,0.150000X-0.512500X-0.150000X0.512500X-0.150000X0.512500X0.150000X-0.512500X0.150000X0*%
%TD*%
%TA.AperFunction,SMDPad,CuDef*%
%ADD11RoundRect,0.150000X-0.687500X-0.150000X0.687500X-0.150000X0.687500X0.150000X-0.687500X0.150000X0*%
%TD*%
%TA.AperFunction,HeatsinkPad*%
%ADD12R,2.100000X3.300000*%
%TD*%
%TA.AperFunction,SMDPad,CuDef*%
%ADD13R,1.500000X0.900000*%
%TD*%
%TA.AperFunction,SMDPad,CuDef*%
%ADD14R,0.900000X1.500000*%
%TD*%
%TA.AperFunction,SMDPad,CuDef*%
%ADD15R,0.900000X0.900000*%
%TD*%
%TA.AperFunction,HeatsinkPad*%
%ADD16C,0.600000*%
%TD*%
%TA.AperFunction,HeatsinkPad*%
%ADD17R,3.800000X3.800000*%
%TD*%
G04 APERTURE END LIST*
D10*
%TO.P,U5,1,I/O1*%
%TO.N,unconnected-(U5-I{slash}O1-Pad1)*%
X257225000Y-36100000D03*
%TO.P,U5,2,GND*%
%TO.N,unconnected-(U5-GND-Pad2)*%
X257225000Y-37050000D03*
%TO.P,U5,3,I/O2*%
%TO.N,unconnected-(U5-I{slash}O2-Pad3)*%
X257225000Y-38000000D03*
%TO.P,U5,4,I/O2*%
%TO.N,unconnected-(U5-I{slash}O2-Pad4)*%
X259500000Y-38000000D03*
%TO.P,U5,5,VBUS*%
%TO.N,unconnected-(U5-VBUS-Pad5)*%
X259500000Y-37050000D03*
%TO.P,U5,6,I/O1*%
%TO.N,unconnected-(U5-I{slash}O1-Pad6)*%
X259500000Y-36100000D03*
%TD*%
%TO.P,U4,1,I/O1*%
%TO.N,unconnected-(U4-I{slash}O1-Pad1)*%
X257225000Y-31475000D03*
%TO.P,U4,2,GND*%
%TO.N,unconnected-(U4-GND-Pad2)*%
X257225000Y-32425000D03*
%TO.P,U4,3,I/O2*%
%TO.N,unconnected-(U4-I{slash}O2-Pad3)*%
X257225000Y-33375000D03*
%TO.P,U4,4,I/O2*%
%TO.N,unconnected-(U4-I{slash}O2-Pad4)*%
X259500000Y-33375000D03*
%TO.P,U4,5,VBUS*%
%TO.N,unconnected-(U4-VBUS-Pad5)*%
X259500000Y-32425000D03*
%TO.P,U4,6,I/O1*%
%TO.N,unconnected-(U4-I{slash}O1-Pad6)*%
X259500000Y-31475000D03*
%TD*%
%TO.P,U3,1,VIN*%
%TO.N,unconnected-(U3-VIN-Pad1)*%
X257225000Y-26850000D03*
%TO.P,U3,2,GND*%
%TO.N,unconnected-(U3-GND-Pad2)*%
X257225000Y-27800000D03*
%TO.P,U3,3,CE*%
%TO.N,unconnected-(U3-CE-Pad3)*%
X257225000Y-28750000D03*
%TO.P,U3,4,NC*%
%TO.N,unconnected-(U3-NC-Pad4)*%
X259500000Y-28750000D03*
%TO.P,U3,5,VOUT*%
%TO.N,unconnected-(U3-VOUT-Pad5)*%
X259500000Y-26850000D03*
%TD*%
D11*
%TO.P,U2,1,UD+*%
%TO.N,unconnected-(U2-UD+-Pad1)*%
X207845000Y-69390000D03*
%TO.P,U2,2,UD-*%
%TO.N,unconnected-(U2-UD--Pad2)*%
X207845000Y-70390000D03*
%TO.P,U2,3,GND*%
%TO.N,Net-(U2-GND-Pad11)*%
X207845000Y-71390000D03*
%TO.P,U2,4,~{DTR}*%
%TO.N,unconnected-(U2-~{DTR}-Pad4)*%
X207845000Y-72390000D03*
%TO.P,U2,5,~{CTS}*%
%TO.N,unconnected-(U2-~{CTS}-Pad5)*%
X207845000Y-73390000D03*
%TO.P,U2,6,~{RTS}*%
%TO.N,unconnected-(U2-~{RTS}-Pad6)*%
X213120000Y-73390000D03*
%TO.P,U2,7,VCC*%
%TO.N,unconnected-(U2-VCC-Pad7)*%
X213120000Y-72390000D03*
%TO.P,U2,8,TXD*%
%TO.N,unconnected-(U2-TXD-Pad8)*%
X213120000Y-71390000D03*
%TO.P,U2,9,RXD*%
%TO.N,unconnected-(U2-RXD-Pad9)*%
X213120000Y-70390000D03*
%TO.P,U2,10,V3*%
%TO.N,unconnected-(U2-V3-Pad10)*%
X213120000Y-69390000D03*
D12*
%TO.P,U2,11,GND*%
%TO.N,Net-(U2-GND-Pad11)*%
X210482500Y-71390000D03*
%TD*%
D13*
%TO.P,U1,1,GND*%
%TO.N,Net-(U1-GND-Pad1)*%
X222262500Y-48665000D03*
%TO.P,U1,2,VDD*%
%TO.N,unconnected-(U1-VDD-Pad2)*%
X222262500Y-49935000D03*
%TO.P,U1,3,EN*%
%TO.N,unconnected-(U1-EN-Pad3)*%
X222262500Y-51205000D03*
%TO.P,U1,4,SENSOR_VP*%
%TO.N,unconnected-(U1-SENSOR_VP-Pad4)*%
X222262500Y-52475000D03*
%TO.P,U1,5,SENSOR_VN*%
%TO.N,unconnected-(U1-SENSOR_VN-Pad5)*%
X222262500Y-53745000D03*
%TO.P,U1,6,IO34*%
%TO.N,unconnected-(U1-IO34-Pad6)*%
X222262500Y-55015000D03*
%TO.P,U1,7,IO35*%
%TO.N,unconnected-(U1-IO35-Pad7)*%
X222262500Y-56285000D03*
%TO.P,U1,8,IO32*%
%TO.N,unconnected-(U1-IO32-Pad8)*%
X222262500Y-57555000D03*
%TO.P,U1,9,IO33*%
%TO.N,unconnected-(U1-IO33-Pad9)*%
X222262500Y-58825000D03*
%TO.P,U1,10,IO25*%
%TO.N,unconnected-(U1-IO25-Pad10)*%
X222262500Y-60095000D03*
%TO.P,U1,11,IO26*%
%TO.N,unconnected-(U1-IO26-Pad11)*%
X222262500Y-61365000D03*
%TO.P,U1,12,IO27*%
%TO.N,unconnected-(U1-IO27-Pad12)*%
X222262500Y-62635000D03*
%TO.P,U1,13,IO14*%
%TO.N,unconnected-(U1-IO14-Pad13)*%
X222262500Y-63905000D03*
%TO.P,U1,14,IO12*%
%TO.N,unconnected-(U1-IO12-Pad14)*%
X222262500Y-65175000D03*
D14*
%TO.P,U1,15,GND*%
%TO.N,Net-(U1-GND-Pad1)*%
X225302500Y-66425000D03*
%TO.P,U1,16,IO13*%
%TO.N,unconnected-(U1-IO13-Pad16)*%
X226572500Y-66425000D03*
%TO.P,U1,17,SHD/SD2*%
%TO.N,unconnected-(U1-SHD{slash}SD2-Pad17)*%
X227842500Y-66425000D03*
%TO.P,U1,18,SWP/SD3*%
%TO.N,unconnected-(U1-SWP{slash}SD3-Pad18)*%
X229112500Y-66425000D03*
%TO.P,U1,19,SCS/CMD*%
%TO.N,unconnected-(U1-SCS{slash}CMD-Pad19)*%
X230382500Y-66425000D03*
%TO.P,U1,20,SCK/CLK*%
%TO.N,unconnected-(U1-SCK{slash}CLK-Pad20)*%
X231652500Y-66425000D03*
%TO.P,U1,21,SDO/SD0*%
%TO.N,unconnected-(U1-SDO{slash}SD0-Pad21)*%
X232922500Y-66425000D03*
%TO.P,U1,22,SDI/SD1*%
%TO.N,unconnected-(U1-SDI{slash}SD1-Pad22)*%
X234192500Y-66425000D03*
%TO.P,U1,23,IO15*%
%TO.N,unconnected-(U1-IO15-Pad23)*%
X235462500Y-66425000D03*
%TO.P,U1,24,IO2*%
%TO.N,unconnected-(U1-IO2-Pad24)*%
X236732500Y-66425000D03*
D13*
%TO.P,U1,25,IO0*%
%TO.N,unconnected-(U1-IO0-Pad25)*%
X239762500Y-65175000D03*
%TO.P,U1,26,IO4*%
%TO.N,unconnected-(U1-IO4-Pad26)*%
X239762500Y-63905000D03*
%TO.P,U1,27,IO16*%
%TO.N,unconnected-(U1-IO16-Pad27)*%
X239762500Y-62635000D03*
%TO.P,U1,28,IO17*%
%TO.N,unconnected-(U1-IO17-Pad28)*%
X239762500Y-61365000D03*
%TO.P,U1,29,IO5*%
%TO.N,unconnected-(U1-IO5-Pad29)*%
X239762500Y-60095000D03*
%TO.P,U1,30,IO18*%
%TO.N,unconnected-(U1-IO18-Pad30)*%
X239762500Y-58825000D03*
%TO.P,U1,31,IO19*%
%TO.N,unconnected-(U1-IO19-Pad31)*%
X239762500Y-57555000D03*
%TO.P,U1,32,NC*%
%TO.N,unconnected-(U1-NC-Pad32)*%
X239762500Y-56285000D03*
%TO.P,U1,33,IO21*%
%TO.N,unconnected-(U1-IO21-Pad33)*%
X239762500Y-55015000D03*
%TO.P,U1,34,RXD0/IO3*%
%TO.N,unconnected-(U1-RXD0{slash}IO3-Pad34)*%
X239762500Y-53745000D03*
%TO.P,U1,35,TXD0/IO1*%
%TO.N,unconnected-(U1-TXD0{slash}IO1-Pad35)*%
X239762500Y-52475000D03*
%TO.P,U1,36,IO22*%
%TO.N,unconnected-(U1-IO22-Pad36)*%
X239762500Y-51205000D03*
%TO.P,U1,37,IO23*%
%TO.N,unconnected-(U1-IO23-Pad37)*%
X239762500Y-49935000D03*
%TO.P,U1,38,GND*%
%TO.N,Net-(U1-GND-Pad1)*%
X239762500Y-48665000D03*
D15*
%TO.P,U1,39,GND*%
X228112500Y-54985000D03*
D16*
X228112500Y-55685000D03*
D15*
X228112500Y-56385000D03*
D16*
X228112500Y-57085000D03*
D15*
X228112500Y-57785000D03*
D16*
X228812500Y-54985000D03*
X228812500Y-56385000D03*
X228812500Y-57785000D03*
X229487500Y-55685000D03*
X229487500Y-57085000D03*
D15*
X229512500Y-54985000D03*
X229512500Y-56385000D03*
D17*
X229512500Y-56385000D03*
D15*
X229512500Y-57785000D03*
D16*
X230212500Y-54985000D03*
X230212500Y-56385000D03*
X230212500Y-57785000D03*
D15*
X230912500Y-54985000D03*
D16*
X230912500Y-55685000D03*
D15*
X230912500Y-56385000D03*
D16*
X230912500Y-57085000D03*
D15*
X230912500Y-57785000D03*
%TD*%
M02*
